<svg id="圖層_1" data-name="圖層 1" xmlns="http://www.w3.org/2000/svg" viewBox="0 0 383.25 709.51"><defs><style>.cls-1,.cls-4{fill:#ffc636;}.cls-1{opacity:0.5;}.cls-2{fill:#f97919;}.cls-3{fill:#10665a;}.cls-5,.cls-7{fill:#fff;}.cls-6{fill:none;}.cls-6,.cls-7{stroke:#08a39f;stroke-miterlimit:10;stroke-width:3px;}.cls-8{fill:#08a39f;opacity:0.3;}</style></defs><title>180208_carousel</title><circle class="cls-1" cx="123.86" cy="337.51" r="32.55"/><path class="cls-2" d="M76,110.39a28.65,28.65,0,0,1-3,6.15,23,23,0,0,0-2.34-1.62,21.42,21.42,0,0,0,2.64-5.31Zm4.2-1.74v10H76.73v-10H71.15v-3h5.58v-2.31H71V100.4h2.91A18,18,0,0,0,73,97.28l2.46-.6h-4V93.77h5.13c-.27-.81-.6-1.65-.9-2.37l3.57-.86c.45,1,1,2.21,1.35,3.23h4.29v2.91H81.11l2.43.48c-.45,1.14-.9,2.31-1.35,3.24h3.12v2.94H80.18v2.31h4.65v3Zm-4.32-12a14.85,14.85,0,0,1,1,3.12l-2.16.6H79a34.13,34.13,0,0,0,1.29-3.72ZM98.69,104H95.9V118.7H92.42V104H89.63v.36c0,4.41-.39,10.59-2.94,14.43a13.32,13.32,0,0,0-2.76-2.13,11.74,11.74,0,0,0,1.35-2.91L83.15,115a36.24,36.24,0,0,0-2.34-4.5l2.34-1.26a29.66,29.66,0,0,1,2.25,3.93,32.44,32.44,0,0,0,.93-8.88V93.65a42.58,42.58,0,0,0,9.09-2.55l2.73,2.61A46.48,46.48,0,0,1,89.63,96v4.71h9.06Z"/><path class="cls-2" d="M124.73,114.83c.81,0,1-.42,1.11-2.82a9.85,9.85,0,0,0,3.3,1.38c-.45,3.78-1.38,4.86-4.08,4.86h-3.75c-3.45,0-4.29-1.11-4.29-4.59V105h-3.93c-.6,6.21-2.07,11.13-9.63,13.92a10.12,10.12,0,0,0-2.22-3.09c6.63-2.16,7.65-5.94,8.07-10.83H102v-3.48H113.3V90.71h3.78v10.83h11.37V105h-7.77v8.61c0,1.08.15,1.2,1.17,1.2Zm-16.59-14.4a36.9,36.9,0,0,0-4.29-6.33l2.85-1.64a37,37,0,0,1,4.53,6.08ZM127.34,94a52.77,52.77,0,0,1-4.92,6.39l-3.12-1.29a33.59,33.59,0,0,0,4.26-6.48Z"/><path class="cls-2" d="M158.6,113.36V117h-26v-3.63Zm-1.53-19.68v3.6H134.33v-3.6Zm-2.49,9.57v3.63H136.37v-3.63Z"/><path class="cls-2" d="M189.77,100.49a29.88,29.88,0,0,1-3.72,8.16c.39,1.26.78,1.95,1.2,1.95s.6-1.11.66-3.54a8.24,8.24,0,0,0,2.31,1.65c-.45,3.9-1.29,5-3.33,5-1.17,0-2.1-.87-2.88-2.37a17.93,17.93,0,0,1-3.9,3.33c3.06,0,8.37,0,10.41-.12a11.46,11.46,0,0,0-1.38,3.54H178.28c-5.85,0-9.75-.84-12.33-4.71a16.67,16.67,0,0,1-2,5.4,8,8,0,0,0-2.31-2.19c1.89-3.39,2-8,1.89-12.09l3,.18c0,1.14,0,2.34,0,3.51a10.53,10.53,0,0,0,1.65,3.18v-8.52h-5.82V99.68h5.13V97.13h-4.17V94h4.17V90.83h3.3V94h4.05v3.12h-4.05v2.55h4.56v3.15h-4v3.27h3.39v2.73a2.61,2.61,0,0,0,1.23-2.19V95.57h5.4c-.09-1.59-.12-3.15-.15-4.77h3.21c0,1.62,0,3.21.06,4.77H187a33.32,33.32,0,0,0-2.28-3.36l2.4-1.23a39.42,39.42,0,0,1,2.58,3.45l-2.1,1.14H190v3h-5.31c.15,2.1.33,4,.57,5.7a27.48,27.48,0,0,0,1.77-4.5Zm-18.36,13.23a18.65,18.65,0,0,0,6.9.93H180a15.11,15.11,0,0,0-2.13-2.46,16.44,16.44,0,0,0,5-4.29,56.85,56.85,0,0,1-1.29-9.36h-2.37v7.89l2.1-1.23a12.72,12.72,0,0,0,.84,2.73c-4.74,2.91-5.64,3.54-6.12,4.11a12.79,12.79,0,0,0-1.23-2.85h-3.39Z"/><path class="cls-2" d="M204.08,111.41c-3.78,1.14-7.83,2.31-10.92,3.18l-.9-3.33c1.23-.27,2.7-.66,4.32-1.08v-6h-3.36v-3.27h3.36V95.69H193V92.4h10.56v3.29H200v5.22h3.24v3.27H200v5.1l3.6-1Zm13.17,4.23c.54,0,.66-.45.75-3.48a8.9,8.9,0,0,0,3,1.32c-.3,4.11-1.11,5.22-3.33,5.22h-2.13c-2.76,0-3.39-1-3.39-4v-6h-1.8c-.48,5-1.89,8.43-8.37,10.38a9.54,9.54,0,0,0-2-3c5.55-1.35,6.51-3.78,6.9-7.35h-2.22V92h14.7v16.77h-3.78v5.94c0,.87.09,1,.57,1ZM208,96.74h7.89V94.88H208Zm0,4.53h7.89V99.44H208Zm0,4.56h7.89V104H208Z"/><path class="cls-2" d="M239,102.74v3.12h9.57v3.21h-4.74l3,1.08c-1.05,1.68-2.22,3.48-3.15,4.77h6.45v3.27H224.21v-3.27h5.91a24.92,24.92,0,0,0-2.49-4.86l2.37-1h-4.35v-3.21h9.54v-3.12H229.1v-1.47q-1.89.9-3.87,1.62a12.91,12.91,0,0,0-2.37-3.3c5.64-1.62,11-4.65,13.89-9.11L240.14,92c-.27.4-.54.78-.84,1.2a33.26,33.26,0,0,0,12.3,6.39,17.31,17.31,0,0,0-2.46,3.12,39.63,39.63,0,0,1-4.08-1.74v1.77Zm-8.37,6.33a20.52,20.52,0,0,1,2.61,4.77l-2.46,1.08h4.38v-5.85Zm11.76-9.6a34.49,34.49,0,0,1-5.19-3.9,26.65,26.65,0,0,1-4.86,3.9Zm-3.39,9.6v5.85h3.75l-2-.84a27.49,27.49,0,0,0,2.64-5Z"/><path class="cls-2" d="M262.46,110.3c-.48-.81-1.23-1.89-2-2.94v11.43h-3.21V108.2a21.47,21.47,0,0,1-2.49,2.28,16.32,16.32,0,0,0-1.35-3.72A20.14,20.14,0,0,0,259.88,99h-5.79V95.81h4a18.08,18.08,0,0,0-2.1-3.24l2.67-1.65a16.77,16.77,0,0,1,2.52,3.75l-1.65,1.14h2l.63-.15L264,97a30.14,30.14,0,0,1-3,6.45c1.17,1.14,3.12,3.27,3.66,3.9Zm19.11,5.37v2.64H263.42v-2.64h4.74c-.27-.75-.6-1.56-.87-2.22l1.92-.6h-3.48v-6h13.68v6H275.9l2.34.66c-.45.75-1,1.47-1.41,2.16Zm-17.79-12.42h17.49v2.52H263.78Zm16.56-1H264.77v-9h4.14V90.8h2.76v2.35h1.68V90.8h2.76v2.35h4.23Zm-12.69-5.55h1.77V95.21h-1.77Zm0,3.42h1.77V98.63h-1.77Zm1,10.65h7.71v-1.8h-7.71Zm1.44,2.13a29.26,29.26,0,0,1,1.14,2.82h2.67a23.82,23.82,0,0,0,1.11-2.82Zm3.27-16.2V95.21h-1.68v1.44Zm-1.68,2v1.44h1.68V98.63Zm5.7-3.42H275.6v1.44h1.77Zm0,3.42H275.6v1.44h1.77Z"/><path class="cls-2" d="M305.21,103.76a19.14,19.14,0,0,0,7.35,3.42,13.55,13.55,0,0,0-2.28,2.94,20.76,20.76,0,0,1-3.57-1.47c-.33,5.28-.75,7.68-1.59,8.61a3.38,3.38,0,0,1-2.37,1.14,25.36,25.36,0,0,1-3.9.09,7.83,7.83,0,0,0-1-3.36,26.44,26.44,0,0,0,3.15.12,1.31,1.31,0,0,0,1.08-.33c.42-.45.72-1.86,1-5.16h-5.91c-.75,4.14-2.76,7.17-9.18,8.91a10,10,0,0,0-2-3.06c5.19-1.17,6.78-3.09,7.44-5.85h-3.87v-1.29a25.32,25.32,0,0,1-3.36,1.77,9.79,9.79,0,0,0-2.19-3,23.44,23.44,0,0,0,6.06-3.48h-5.22v-3.21h8.31a18.81,18.81,0,0,0,1.26-1.89h-7.74V95.51h4.26a23.71,23.71,0,0,0-1.92-3l2.85-1.38a16.38,16.38,0,0,1,2.4,3.69l-1.35.69h3A20.77,20.77,0,0,0,297,90.65l3.78.36a37.8,37.8,0,0,1-1.08,4.5h2.58a34.2,34.2,0,0,0,2.31-4.17l3.33,1c-.72,1.11-1.47,2.19-2.16,3.15h3.81v3.15h-11.1c-.33.66-.66,1.26-1,1.89h14v3.21Zm-10.08,0a21,21,0,0,1-2.85,2.79h11.25a18.25,18.25,0,0,1-2.7-2.79Z"/><path class="cls-3" d="M155.89,141v2.7h6.48v7c0,.86-.2,1.3-.84,1.56a12.51,12.51,0,0,1-3.5.26,5.67,5.67,0,0,0-.52-1.48c1.36,0,2.56,0,2.9,0s.46-.12.46-.4v-5.52h-5v9.7h-1.51v-9.7H149.7v7.42h-1.48v-8.88h6.16V141h-8.1v-1.46h8.53a24.86,24.86,0,0,0-1.32-2.63l1.42-.44a17.9,17.9,0,0,1,1.56,3l-.26.1h7.94V141Z"/><path class="cls-3" d="M171.6,137.1A32.83,32.83,0,0,1,170,141v13.86h-1.42v-11.2a20.37,20.37,0,0,1-1.88,2.68,10.75,10.75,0,0,0-.78-1.5,24,24,0,0,0,4.26-8.13Zm5.29,15.73a15.6,15.6,0,0,1-4.95,2.06,7,7,0,0,0-.84-1,16.55,16.55,0,0,0,4.71-1.8Zm-1.24-14.06h-3.9v-1.15h12.72v1.15h-4.16V140h3.54v3.86H172.21V140h3.44Zm-3,13.18v-7.18h11V152Zm.87-9.1h2.15v-1.92H173.5Zm.5,4h8.19v-1.12H174Zm0,2.06h8.19v-1.14H174Zm0,2.1h8.19v-1.18H174Zm5.07-12.24h-2.2V140h2.2Zm-2.2,4.08h2.2v-1.92h-2.2Zm3.16,9.26a43.06,43.06,0,0,1,4.8,1.94l-1.26.88a28.36,28.36,0,0,0-4.5-2Zm.28-11.18v1.92h2.2v-1.92Z"/><path class="cls-3" d="M193.42,141.87a2.73,2.73,0,0,0-2.26-1.34,1.78,1.78,0,0,0-1.88,1.92c0,2.9,5.4,2.82,5.4,7.18a3.54,3.54,0,0,1-3,3.74v2.46h-1.32v-2.42a5.9,5.9,0,0,1-3.38-1.66l.84-1.24a4.27,4.27,0,0,0,3,1.38,1.88,1.88,0,0,0,2.12-2.06c0-3.36-5.38-3.22-5.38-7.22a3.38,3.38,0,0,1,2.82-3.55v-2.44h1.32V139a4.43,4.43,0,0,1,2.76,1.73Z"/><path class="cls-3" d="M196.84,151.79l.92-1.18a3.63,3.63,0,0,0,2.84,1.44c1.38,0,2.53-1.24,2.53-3.22s-1-3.14-2.39-3.14a3,3,0,0,0-1.94.78l-1-.58.46-6.83h6.26v1.59h-4.68l-.36,4.2a3.09,3.09,0,0,1,1.8-.54c1.9,0,3.64,1.38,3.64,4.46s-2,4.82-4.18,4.82A5.12,5.12,0,0,1,196.84,151.79Z"/><path class="cls-3" d="M207.54,146.13c0-5,1.6-7.3,3.94-7.3s4,2.34,4,7.3-1.6,7.46-4,7.46S207.54,151.11,207.54,146.13Zm6.13,0c0-4.32-.92-5.82-2.19-5.82s-2.18,1.5-2.18,5.82.92,6,2.18,6S213.67,150.43,213.67,146.13Z"/><path class="cls-3" d="M217.86,146.13c0-5,1.6-7.3,3.94-7.3s3.95,2.34,3.95,7.3-1.61,7.46-3.95,7.46S217.86,151.11,217.86,146.13Zm6.12,0c0-4.32-.92-5.82-2.18-5.82s-2.18,1.5-2.18,5.82.92,6,2.18,6S224,150.43,224,146.13Z"/><path class="cls-3" d="M228.18,146.13c0-5,1.6-7.3,3.94-7.3s3.95,2.34,3.95,7.3-1.61,7.46-3.95,7.46S228.18,151.11,228.18,146.13Zm6.12,0c0-4.32-.92-5.82-2.18-5.82s-2.18,1.5-2.18,5.82.92,6,2.18,6S234.3,150.43,234.3,146.13Z"/><circle class="cls-4" cx="188.18" cy="574.51" r="52.98"/><path class="cls-5" d="M168.33,582.81h5.15V566.43h-4.22v-2.34a14.42,14.42,0,0,0,5.12-1.79h2.78v20.51h4.61v3H168.33Z"/><path class="cls-5" d="M211.53,588.35h-3.07v-1.54H195.27v1.54h-3V578.14c-1.67.54-3.36,1-5,1.44a11.89,11.89,0,0,0-1.53-2.75,44.17,44.17,0,0,0,11.61-4.07,57.71,57.71,0,0,0-5.6-4.7,36.52,36.52,0,0,1-3.29,1.92,9.7,9.7,0,0,0-2.05-2.37A24.4,24.4,0,0,0,197,558.88l3.4.7c-.61.86-1.25,1.73-2,2.56h10.4l.48-.16,2.05,1.22a28.11,28.11,0,0,1-11.49,11.48h11.62Zm-15.68-23.49c-.58.51-1.15,1-1.73,1.47a61.55,61.55,0,0,1,6,4.8,24.76,24.76,0,0,0,6.81-6.27Zm12.61,19.23v-6.72H195.27v6.72Z"/><rect class="cls-6" x="83.35" y="288.09" width="234.47" height="123.91"/><rect class="cls-7" x="77.19" y="281.93" width="234.47" height="123.91"/><rect class="cls-7" x="71.03" y="275.77" width="234.47" height="123.91"/><circle class="cls-1" cx="251.44" cy="337.72" r="32.55"/><circle class="cls-8" cx="188.26" cy="337.72" r="41.98"/><path class="cls-3" d="M134.22,349.88a1.45,1.45,0,0,1-.12-.42,2.15,2.15,0,0,1,0-.43,2,2,0,0,1,.56-1.44,2,2,0,0,1,1.46-.54,2.28,2.28,0,0,1,1.09.26,2.74,2.74,0,0,1,.94.95,4.56,4.56,0,0,0,6,1.52,2.9,2.9,0,0,0,1.3-1.68,7.09,7.09,0,0,0,.3-1.28,12.72,12.72,0,0,0,.1-1.8,11.87,11.87,0,0,0-.1-1.78,7.14,7.14,0,0,0-.3-1.21,3.35,3.35,0,0,0-1.32-1.76,3.81,3.81,0,0,0-2.09-.55,3.67,3.67,0,0,0-3.15,1.54,4.21,4.21,0,0,1-1.1,1,2.49,2.49,0,0,1-1.25.3,2.1,2.1,0,0,1-1.6-.62,2.45,2.45,0,0,1-.59-1.73V328.38a1.75,1.75,0,0,1,2-2h11.59a2,2,0,0,1,1.55.56,2.21,2.21,0,0,1,0,2.92,2,2,0,0,1-1.55.56h-9.16a.22.22,0,0,0-.24.25v6.36h.08a5.55,5.55,0,0,1,1.68-1,7.67,7.67,0,0,1,2.65-.38c3.57,0,5.86,1.51,6.89,4.53a10,10,0,0,1,.42,2,22.12,22.12,0,0,1,.15,2.83,17.68,17.68,0,0,1-.15,2.47,9.08,9.08,0,0,1-.42,1.87,6.67,6.67,0,0,1-2.94,3.72,9.26,9.26,0,0,1-4.92,1.3,8.84,8.84,0,0,1-5.06-1.32A6.63,6.63,0,0,1,134.22,349.88Z"/><path class="cls-3" d="M156.9,349c-.09-.27-.17-.59-.25-.95a10.23,10.23,0,0,1-.18-1.5c0-.63-.07-1.46-.1-2.47s0-2.31,0-3.91,0-2.89,0-3.9.06-1.84.1-2.47a9.73,9.73,0,0,1,.18-1.48c.08-.35.16-.68.25-1a7.37,7.37,0,0,1,2.77-4,9.77,9.77,0,0,1,10.08,0,7.66,7.66,0,0,1,2.82,4c.08.29.16.62.24,1a9.73,9.73,0,0,1,.18,1.48c0,.63.08,1.45.1,2.47s0,2.31,0,3.9,0,2.9,0,3.91-.06,1.84-.1,2.47a10.23,10.23,0,0,1-.18,1.5c-.08.36-.16.68-.24.95a7.66,7.66,0,0,1-2.82,4,9.77,9.77,0,0,1-10.08,0A7.37,7.37,0,0,1,156.9,349Zm4.45-.85a3.19,3.19,0,0,0,3.36,2.19,3.26,3.26,0,0,0,3.4-2.19,4.29,4.29,0,0,0,.19-.73c0-.27.07-.69.1-1.25s0-1.33.06-2.27,0-2.19,0-3.73,0-2.78,0-3.72,0-1.7-.06-2.27-.06-1-.1-1.25a4.29,4.29,0,0,0-.19-.73,3.26,3.26,0,0,0-3.4-2.19,3.19,3.19,0,0,0-3.36,2.19,3.54,3.54,0,0,0-.18.73,11.58,11.58,0,0,0-.1,1.25c0,.57,0,1.32-.06,2.27s0,2.19,0,3.72,0,2.78,0,3.73,0,1.7.06,2.27a11.82,11.82,0,0,0,.1,1.25A3.54,3.54,0,0,0,161.35,348.14Z"/><path class="cls-3" d="M179.77,349c-.08-.27-.16-.59-.24-.95a10.23,10.23,0,0,1-.18-1.5c0-.63-.08-1.46-.1-2.47s0-2.31,0-3.91,0-2.89,0-3.9.06-1.84.1-2.47a9.73,9.73,0,0,1,.18-1.48c.08-.35.16-.68.24-1a7.43,7.43,0,0,1,2.78-4,9.77,9.77,0,0,1,10.08,0,7.66,7.66,0,0,1,2.82,4c.08.29.16.62.24,1a9.73,9.73,0,0,1,.18,1.48c0,.63.07,1.45.1,2.47s0,2.31,0,3.9,0,2.9,0,3.91-.06,1.84-.1,2.47a10.23,10.23,0,0,1-.18,1.5c-.08.36-.16.68-.24.95a7.66,7.66,0,0,1-2.82,4,9.77,9.77,0,0,1-10.08,0A7.43,7.43,0,0,1,179.77,349Zm4.46-.85a3.19,3.19,0,0,0,3.36,2.19,3.26,3.26,0,0,0,3.4-2.19,3.54,3.54,0,0,0,.18-.73,11.82,11.82,0,0,0,.1-1.25c0-.57,0-1.33.07-2.27s0-2.19,0-3.73,0-2.78,0-3.72,0-1.7-.07-2.27a11.58,11.58,0,0,0-.1-1.25,3.54,3.54,0,0,0-.18-.73,3.26,3.26,0,0,0-3.4-2.19,3.19,3.19,0,0,0-3.36,2.19,3.54,3.54,0,0,0-.18.73,11.58,11.58,0,0,0-.1,1.25c0,.57,0,1.32-.07,2.27s0,2.19,0,3.72,0,2.78,0,3.73,0,1.7.07,2.27a11.82,11.82,0,0,0,.1,1.25A3.54,3.54,0,0,0,184.23,348.14Z"/><path class="cls-3" d="M202.65,349c-.08-.27-.16-.59-.24-.95a10.23,10.23,0,0,1-.18-1.5c0-.63-.08-1.46-.1-2.47s0-2.31,0-3.91,0-2.89,0-3.9.06-1.84.1-2.47a9.73,9.73,0,0,1,.18-1.48c.08-.35.16-.68.24-1a7.43,7.43,0,0,1,2.78-4,9.77,9.77,0,0,1,10.08,0,7.66,7.66,0,0,1,2.82,4c.08.29.16.62.24,1a9.73,9.73,0,0,1,.18,1.48c0,.63.07,1.45.1,2.47s0,2.31,0,3.9,0,2.9,0,3.91-.06,1.84-.1,2.47a10.23,10.23,0,0,1-.18,1.5c-.08.36-.16.68-.24.95a7.66,7.66,0,0,1-2.82,4,9.77,9.77,0,0,1-10.08,0A7.43,7.43,0,0,1,202.65,349Zm4.46-.85a3.19,3.19,0,0,0,3.36,2.19,3.26,3.26,0,0,0,3.4-2.19,3.54,3.54,0,0,0,.18-.73,11.82,11.82,0,0,0,.1-1.25c0-.57,0-1.33.06-2.27s0-2.19,0-3.73,0-2.78,0-3.72,0-1.7-.06-2.27a11.58,11.58,0,0,0-.1-1.25,3.54,3.54,0,0,0-.18-.73,3.26,3.26,0,0,0-3.4-2.19,3.19,3.19,0,0,0-3.36,2.19,3.54,3.54,0,0,0-.18.73,11.58,11.58,0,0,0-.1,1.25c0,.57-.05,1.32-.07,2.27s0,2.19,0,3.72,0,2.78,0,3.73,0,1.7.07,2.27a11.82,11.82,0,0,0,.1,1.25A3.54,3.54,0,0,0,207.11,348.14Z"/><path class="cls-3" d="M225.53,352.31a2,2,0,0,1-1-1.78,2.06,2.06,0,0,1,.57-1.46,1.94,1.94,0,0,1,1.5-.6,2,2,0,0,1,.64.1,3.27,3.27,0,0,1,.65.26,15.34,15.34,0,0,0,2.19,1,8.74,8.74,0,0,0,2.31.49V342a9.35,9.35,0,0,1-5.45-2.62,7.13,7.13,0,0,1-2-5.16,8.74,8.74,0,0,1,.54-3.12,8,8,0,0,1,1.54-2.49,8.17,8.17,0,0,1,2.35-1.74,8.78,8.78,0,0,1,3-.83v-1.5c0-.89.39-1.33,1.17-1.33a1.15,1.15,0,0,1,.89.34,1.38,1.38,0,0,1,.33,1V326a12.63,12.63,0,0,1,2.67.51,11.38,11.38,0,0,1,2.27.95,2.06,2.06,0,0,1,1.09,1.86,2,2,0,0,1-.55,1.4,1.82,1.82,0,0,1-1.39.59,2.4,2.4,0,0,1-1.06-.25c-.51-.21-1-.4-1.5-.56a8.15,8.15,0,0,0-1.53-.37V338a9.39,9.39,0,0,1,5.56,2.63,7.3,7.3,0,0,1,1.89,5.18,8.29,8.29,0,0,1-2,5.69,8.59,8.59,0,0,1-5.46,2.74v1.66a1.38,1.38,0,0,1-.33,1,1.15,1.15,0,0,1-.89.34c-.78,0-1.17-.44-1.17-1.33v-1.54a13.1,13.1,0,0,1-3.93-.71A15.71,15.71,0,0,1,225.53,352.31Zm6.85-22.19a3.63,3.63,0,0,0-2.19,1.3,3.82,3.82,0,0,0-.81,2.47,3.86,3.86,0,0,0,.63,2.22,4,4,0,0,0,2.37,1.42Zm2.39,20.05q3-.74,3-4.18a3.59,3.59,0,0,0-.64-2.1,4.36,4.36,0,0,0-2.39-1.46Z"/></svg>