<svg id="圖層_1" data-name="圖層 1" xmlns="http://www.w3.org/2000/svg" viewBox="0 0 383.25 709.51"><defs><style>.cls-1{fill:#08a39f;opacity:0.3;}.cls-2{fill:none;}.cls-2,.cls-3{stroke:#08a39f;stroke-miterlimit:10;stroke-width:3px;}.cls-3,.cls-7{fill:#fff;}.cls-4{fill:#f97919;}.cls-5{fill:#10665a;}.cls-6{fill:#ffc636;}</style></defs><title>180208_carousel</title><rect class="cls-1" x="136.92" y="227.35" width="110.34" height="212.98" rx="17.8" ry="17.8"/><rect class="cls-2" x="136.92" y="227.35" width="110.34" height="212.98" rx="17.8" ry="17.8"/><rect class="cls-3" x="143.87" y="253.5" width="96.44" height="160.69"/><line class="cls-2" x1="185.02" y1="240.02" x2="199.16" y2="240.02"/><path class="cls-4" d="M88.47,94h4.44v18.48h9v3.72H88.47Z"/><path class="cls-4" d="M105.48,94.31a2.64,2.64,0,0,1,5.25,0,2.64,2.64,0,0,1-5.25,0Zm.42,5.1h4.38v16.8H105.9Z"/><path class="cls-4" d="M115.5,99.41h3.6l.3,2.22h.12A7.74,7.74,0,0,1,125,99c3.63,0,5.19,2.52,5.19,6.75v10.47h-4.41v-9.93c0-2.58-.72-3.51-2.37-3.51-1.38,0-2.25.66-3.51,1.89v11.55H115.5Z"/><path class="cls-4" d="M134.16,107.84c0-5.46,3.81-8.85,7.83-8.85,4.62,0,7,3.39,7,8a8.2,8.2,0,0,1-.21,2H138.45a4.41,4.41,0,0,0,4.65,4.2,6.92,6.92,0,0,0,3.78-1.17l1.5,2.7a10.6,10.6,0,0,1-5.88,1.86C137.82,116.63,134.16,113.36,134.16,107.84Zm11.07-1.71c0-2.28-1-3.72-3.18-3.72-1.77,0-3.33,1.26-3.66,3.72Z"/><path class="cls-4" d="M153.48,94h7.29c4.92,0,8.7,1.71,8.7,7,0,5.07-3.81,7.35-8.58,7.35h-3v7.89h-4.44Zm7.11,10.8c3.06,0,4.53-1.29,4.53-3.84s-1.62-3.45-4.68-3.45h-2.52v7.29Z"/><path class="cls-4" d="M171.81,107.84c0-5.61,3.87-8.85,8.07-8.85s8.07,3.24,8.07,8.85-3.87,8.79-8.07,8.79S171.81,113.39,171.81,107.84Zm11.64,0c0-3.18-1.29-5.25-3.57-5.25s-3.57,2.07-3.57,5.25,1.29,5.19,3.57,5.19S183.45,111,183.45,107.84Z"/><path class="cls-4" d="M191.7,94.31a2.64,2.64,0,0,1,5.25,0,2.64,2.64,0,0,1-5.25,0Zm.42,5.1h4.38v16.8h-4.38Z"/><path class="cls-4" d="M201.72,99.41h3.6l.3,2.22h.12A7.74,7.74,0,0,1,211.2,99c3.63,0,5.19,2.52,5.19,6.75v10.47H212v-9.93c0-2.58-.72-3.51-2.37-3.51-1.38,0-2.25.66-3.51,1.89v11.55h-4.38Z"/><path class="cls-4" d="M222.06,110.33v-7.44h-2.37V99.62l2.58-.21.51-4.5h3.69v4.5h4.14v3.48h-4.14v7.44c0,1.92.78,2.82,2.28,2.82a4.91,4.91,0,0,0,1.65-.36l.72,3.21a10.86,10.86,0,0,1-3.54.63C223.59,116.63,222.06,114.11,222.06,110.33Z"/><path class="cls-4" d="M234.6,112.64h4.77v-14h-4V95.87A14.4,14.4,0,0,0,240.51,94h3.27v18.63H248v3.57H234.6Z"/><path class="cls-4" d="M251.07,113.6l2-2.82A6.9,6.9,0,0,0,258,113a3.73,3.73,0,0,0,3.93-4.08c0-2.58-1.5-4-3.75-4a5.29,5.29,0,0,0-3.33,1.17l-2-1.32L253.43,94h11.88V97.7h-8.06l-.42,4.71a5.71,5.71,0,0,1,2.67-.63c3.72,0,6.84,2.22,6.84,7a7.5,7.5,0,0,1-7.78,7.8A10.11,10.11,0,0,1,251.07,113.6Z"/><path class="cls-4" d="M269,117.62a10.82,10.82,0,0,0,2.07-5.34l2.4.69c-.36,2.19-.9,4.5-2.19,5.94Zm.66-9c1.5,0,3.36-.09,5.37-.15V107h-4.65v-2.7h4.65V103h-4.62V91.73H283.2V103h-5v1.26H283V107h-4.83v1.32l5.34-.21-.06,2.79c-4.86.27-10,.54-13.62.72Zm3.39-7.92h2.46V94.13h-2.46v1.26l1.44-.42a19.9,19.9,0,0,1,1,4.35l-1.62.45a20.55,20.55,0,0,0-.81-4.29Zm2.85,11.49a28.17,28.17,0,0,1,.6,5.22l-2.28.33a27.93,27.93,0,0,0-.51-5.25Zm2.91-.27a25.59,25.59,0,0,1,1.35,5l-2.22.54a24.27,24.27,0,0,0-1.26-5.1Zm1.58-17.76h-2.72V99a30,30,0,0,0,1.14-4.11l1.58.57Zm0,6.54V96c-.53,1.32-1.07,2.85-1.49,3.81l-1.23-.48v1.35Zm1.29,10.62a19,19,0,0,1,2.34,4.65l-2.24,1a19.55,19.55,0,0,0-2.22-4.83Zm9.84-11v4.62h4.89v13.8h-3.39v-1.08h-5.63v1.23h-3.25V104.93h3.93V90.86h3.45V97h5.85v3.3Zm1.5,7.86h-5.63v6.27h5.63Z"/><path class="cls-5" d="M161.72,141v2.7h6.48v7c0,.86-.2,1.3-.84,1.56a12.51,12.51,0,0,1-3.5.26,5.67,5.67,0,0,0-.52-1.48c1.36,0,2.56,0,2.9,0s.46-.12.46-.4v-5.52h-5v9.7h-1.5v-9.7h-4.69v7.42h-1.48v-8.88h6.17V141h-8.11v-1.46h8.53a24.86,24.86,0,0,0-1.32-2.63l1.42-.44a17.17,17.17,0,0,1,1.56,3l-.26.1H170V141Z"/><path class="cls-5" d="M177.43,137.1a32.83,32.83,0,0,1-1.56,3.91v13.86h-1.42v-11.2a20.37,20.37,0,0,1-1.88,2.68,10.75,10.75,0,0,0-.78-1.5,24,24,0,0,0,4.27-8.13Zm5.29,15.73a15.6,15.6,0,0,1-4.95,2.06,6.37,6.37,0,0,0-.84-1,16.44,16.44,0,0,0,4.71-1.8Zm-1.24-14.06h-3.9v-1.15H190.3v1.15h-4.16V140h3.54v3.86H178V140h3.44Zm-3,13.18v-7.18h11V152Zm.88-9.1h2.14v-1.92h-2.14Zm.5,4H188v-1.12h-8.18Zm0,2.06H188v-1.14h-8.18Zm0,2.1H188v-1.18h-8.18Zm5.06-12.24h-2.2V140h2.2Zm-2.2,4.08h2.2v-1.92h-2.2Zm3.16,9.26a43.06,43.06,0,0,1,4.8,1.94l-1.26.88a28.36,28.36,0,0,0-4.5-2Zm.28-11.18v1.92h2.2v-1.92Z"/><path class="cls-5" d="M199.26,141.87a2.75,2.75,0,0,0-2.27-1.34,1.78,1.78,0,0,0-1.88,1.92c0,2.9,5.41,2.82,5.41,7.18a3.55,3.55,0,0,1-3.05,3.74v2.46h-1.32v-2.42a5.9,5.9,0,0,1-3.38-1.66l.84-1.24a4.27,4.27,0,0,0,3,1.38,1.88,1.88,0,0,0,2.12-2.06c0-3.36-5.38-3.22-5.38-7.22a3.38,3.38,0,0,1,2.82-3.55v-2.44h1.32V139a4.4,4.4,0,0,1,2.76,1.73Z"/><path class="cls-5" d="M203.29,151.83h3.1V141.29h-2.48v-1.18a7.29,7.29,0,0,0,2.92-1.05h1.39v12.77H211v1.52h-7.75Z"/><path class="cls-5" d="M213.37,146.13c0-5,1.6-7.3,3.94-7.3s3.95,2.34,3.95,7.3-1.6,7.46-3.95,7.46S213.37,151.11,213.37,146.13Zm6.13,0c0-4.32-.92-5.82-2.19-5.82s-2.18,1.5-2.18,5.82.93,6,2.18,6S219.5,150.43,219.5,146.13Z"/><path class="cls-5" d="M223.69,146.13c0-5,1.6-7.3,3.94-7.3s4,2.34,4,7.3-1.61,7.46-4,7.46S223.69,151.11,223.69,146.13Zm6.12,0c0-4.32-.92-5.82-2.18-5.82s-2.18,1.5-2.18,5.82.92,6,2.18,6S229.81,150.43,229.81,146.13Z"/><circle class="cls-6" cx="192.09" cy="574.51" r="52.98"/><path class="cls-7" d="M151.06,583.3l1.66-2.25a7,7,0,0,0,5.16,2.37c2.48,0,4.37-1.77,4.37-4.71s-1.68-4.62-4.19-4.62a5.79,5.79,0,0,0-3.54,1.26l-1.68-1.11.66-10.47h11.18v2.91h-8.19l-.51,5.67a6.26,6.26,0,0,1,3-.78c3.68,0,6.71,2.19,6.71,7a7.28,7.28,0,0,1-7.43,7.65A9.8,9.8,0,0,1,151.06,583.3Z"/><path class="cls-7" d="M169.25,574.72c0-7.65,2.79-11.37,7.14-11.37s7.13,3.75,7.13,11.37-2.82,11.52-7.13,11.52S169.25,582.4,169.25,574.72Zm11,0c0-6.33-1.58-8.64-3.83-8.64s-3.84,2.31-3.84,8.64,1.59,8.79,3.84,8.79S180.22,581.11,180.22,574.72Z"/><path class="cls-7" d="M186.82,574.72c0-7.65,2.79-11.37,7.14-11.37s7.14,3.75,7.14,11.37-2.82,11.52-7.14,11.52S186.82,582.4,186.82,574.72Zm11,0c0-6.33-1.59-8.64-3.84-8.64s-3.84,2.31-3.84,8.64,1.59,8.79,3.84,8.79S197.8,581.11,197.8,574.72Z"/><path class="cls-7" d="M228.49,588.19h-2.88v-1.44H213.25v1.44h-2.79v-9.57c-1.56.51-3.15,1-4.71,1.35a11.39,11.39,0,0,0-1.44-2.58,41.6,41.6,0,0,0,10.89-3.81,54.12,54.12,0,0,0-5.25-4.41,33.48,33.48,0,0,1-3.09,1.8,9.06,9.06,0,0,0-1.92-2.22,23,23,0,0,0,10-8.19l3.18.66c-.57.81-1.17,1.62-1.83,2.4H226l.45-.15,1.92,1.14a26.41,26.41,0,0,1-10.77,10.77h10.89Zm-14.7-22c-.54.48-1.08.93-1.62,1.38a57.37,57.37,0,0,1,5.61,4.5,23.18,23.18,0,0,0,6.39-5.88Zm11.82,18v-6.3H213.25v6.3Z"/><circle class="cls-2" cx="191.63" cy="333.84" r="34.87"/><circle class="cls-1" cx="191.63" cy="333.84" r="34.87"/><path class="cls-7" d="M183.54,355.16a3.29,3.29,0,0,1-2.43-.94,3.53,3.53,0,0,1-1-2.61V319a3.06,3.06,0,0,1,.8-2.21,2.91,2.91,0,0,1,2.18-.83h12.19a14.81,14.81,0,0,1,5.19.89,12.1,12.1,0,0,1,4.06,2.46,10.92,10.92,0,0,1,2.63,3.81,12.51,12.51,0,0,1,.95,4.92,12.67,12.67,0,0,1-.95,5,10.92,10.92,0,0,1-2.63,3.81,12.1,12.1,0,0,1-4.06,2.46,14.81,14.81,0,0,1-5.19.89h-8.07a.3.3,0,0,0-.34.34v11.11a3.53,3.53,0,0,1-.95,2.61A3.29,3.29,0,0,1,183.54,355.16ZM194.93,334a6.59,6.59,0,0,0,4.75-1.63,6.4,6.4,0,0,0,0-8.73,6.51,6.51,0,0,0-4.75-1.66h-7.67a.3.3,0,0,0-.34.34v11.34a.3.3,0,0,0,.34.34Z"/></svg>