<svg id="圖層_1" data-name="圖層 1" xmlns="http://www.w3.org/2000/svg" viewBox="0 0 383.25 709.51"><defs><style>.cls-1{fill:#f97919;}.cls-2,.cls-8{fill:#10665a;}.cls-3{fill:#ffc636;}.cls-4,.cls-5{fill:#fff;}.cls-5,.cls-7,.cls-8,.cls-9{stroke:#08a39f;stroke-width:3px;}.cls-5,.cls-7{stroke-miterlimit:10;}.cls-6{fill:#08a39f;opacity:0.3;}.cls-7,.cls-9{fill:none;}.cls-8,.cls-9{stroke-linejoin:round;}</style></defs><title>180208_carousel</title><path class="cls-1" d="M78.65,113.39l2.55-3.06a8.73,8.73,0,0,0,5.63,2.46c2.32,0,3.55-1,3.55-2.55s-1.35-2.16-3.33-3l-3-1.26c-2.25-.93-4.5-2.73-4.5-6,0-3.63,3.18-6.42,7.67-6.42a9.89,9.89,0,0,1,7,2.85L92,99.23a7.11,7.11,0,0,0-4.72-1.83c-1.94,0-3.2.87-3.2,2.34s1.59,2.16,3.48,2.91l2.91,1.23c2.7,1.11,4.47,2.82,4.47,6,0,3.63-3,6.72-8.16,6.72A11.83,11.83,0,0,1,78.65,113.39Z"/><path class="cls-1" d="M99,99.41h3.6l.3,1.74H103a8,8,0,0,1,5-2.16c4.14,0,6.6,3.39,6.6,8.55,0,5.76-3.45,9.09-7.14,9.09a6.24,6.24,0,0,1-4.17-1.83l.12,2.76v5.1H99Zm11,8.19c0-3.21-1-5-3.33-5a4.74,4.74,0,0,0-3.33,1.74v7.38A4.7,4.7,0,0,0,106.4,113C108.44,113,110,111.26,110,107.6Z"/><path class="cls-1" d="M117.71,107.84c0-5.46,3.81-8.85,7.83-8.85,4.62,0,7,3.39,7,8a7.65,7.65,0,0,1-.22,2H122a4.41,4.41,0,0,0,4.65,4.2,6.87,6.87,0,0,0,3.77-1.17l1.5,2.7a10.54,10.54,0,0,1-5.87,1.86C121.37,116.63,117.71,113.36,117.71,107.84Zm11.07-1.71c0-2.28-1-3.72-3.18-3.72-1.77,0-3.33,1.26-3.66,3.72Z"/><path class="cls-1" d="M135.41,111.65c0-3.6,2.91-5.49,9.66-6.21-.06-1.65-.78-2.91-2.85-2.91a9.49,9.49,0,0,0-4.62,1.59L136,101.21A13.42,13.42,0,0,1,143,99c4.26,0,6.45,2.55,6.45,7.41v9.81h-3.6l-.33-1.8h-.09a7.9,7.9,0,0,1-5.07,2.22A4.77,4.77,0,0,1,135.41,111.65Zm9.66-.12v-3.39c-4.08.54-5.46,1.65-5.46,3.15,0,1.32.93,1.89,2.22,1.89A4.45,4.45,0,0,0,145.07,111.53Z"/><path class="cls-1" d="M154.46,99.41h3.6l.29,3h.13c1.23-2.19,3-3.39,4.77-3.39a4.79,4.79,0,0,1,2,.36l-.79,3.81a5.25,5.25,0,0,0-1.74-.27c-1.31,0-2.9.87-3.87,3.3v10h-4.37Z"/><path class="cls-1" d="M172.31,104.75,166.46,94h4.92l2.21,4.56c.52,1.05,1,2.13,1.66,3.51h.15c.54-1.38,1-2.46,1.47-3.51L179,94h4.68L177.8,105,184,116.21h-4.92l-2.49-4.92c-.57-1.14-1.08-2.31-1.74-3.66h-.12c-.57,1.35-1.08,2.52-1.62,3.66l-2.37,4.92h-4.71Z"/><path class="cls-1" d="M195.08,104.72a34.36,34.36,0,0,1-2.83,8.16c.4.27.84.6,1.41.93,2,1.23,4.84,1.41,8.34,1.41a101.61,101.61,0,0,0,12.15-.78,13.94,13.94,0,0,0-1,3.66c-2.52.15-7.77.36-11.28.36-3.95,0-6.48-.33-8.64-1.59-1.22-.69-2.3-1.68-2.9-1.68s-1.69,2-2.38,3.75l-2.36-3.42a11.23,11.23,0,0,1,3.68-3.21,27.61,27.61,0,0,0,1.83-5h-4c.68-1.68,1.5-4,2.21-6.3H186.1V97.79h7.39c-.64,2-1.41,4.38-2.14,6.42h1.72l.51-.15ZM189.43,97c-.39-1.32-1.1-3.42-1.65-5l3.28-1c.56,1.6,1.28,3.57,1.73,4.86Zm7,2.7a19.44,19.44,0,0,0-2.93-1.68,16.94,16.94,0,0,0,4.26-7l3.29.78a20.84,20.84,0,0,1-.9,2.31h2.11V90.83h3.53v3.36h6.54v3h-6.54v2.52h7.77v3H194.26v-3ZM208,113.66v-.81h-8.09v.9h-3.42v-9.48h15v9.39Zm-9.54-16.44a17.33,17.33,0,0,1-1.92,2.52h5.71V97.22ZM208,109.85v-2.76h-8.09v2.76Z"/><path class="cls-1" d="M243.88,114.56v3.3h-27v-3.3h11.72v-2.4h-8.69v-3.24h8.67V107h-2.23v-5.76h-2.75a9.21,9.21,0,0,1-4.71,6.57,15.79,15.79,0,0,0-2.34-2.49,6.58,6.58,0,0,0,3.65-4.08h-3V98.12h3.39V95h-2.38V91.85h13.62V95h-2.13v3.15h2.83v3.15h-2.83v5.25h2.59v2.4h8.66v3.24h-8.66v2.4ZM226.33,98.12V95h-2.51v3.15ZM237,102.65h-3.26V92.51H237Zm5.58,1.29c0,1.65-.3,2.49-1.43,3a12.41,12.41,0,0,1-4.72.57,13.38,13.38,0,0,0-1-3.15c1.35.06,2.78.06,3.23,0s.57-.12.57-.51V91.13h3.39Z"/><path class="cls-1" d="M274.54,114.68h-5.22v4.14h-3.74v-4.14H247.33v-3.57h4.75V95.51h-4.3V92h26.28v3.48h-4.74v15.6h5.22ZM255.85,95.51v2.88h9.73V95.51Zm0,9.09h9.73v-3h-9.73Zm9.73,6.51v-3.27h-9.73v3.27Z"/><path class="cls-1" d="M284.66,107.78c-.25-.72-.73-1.83-1.24-2.91v13.95h-3.05V107.24a28.34,28.34,0,0,1-2,5.37,24,24,0,0,0-1.38-3.54c1.38-2.13,2.57-6,3.23-9.39h-2.45v-3.3h2.64V90.8h3.05v5.58h2v3.3h-2V101c.66.93,2.38,3.69,2.76,4.41Zm19,2.07a17.67,17.67,0,0,1-3.3,4.41,3,3,0,0,0,1.86,1.08c.57.06.93-1,1.14-3.12a9.2,9.2,0,0,0,2.25,1.89c-.78,3.72-2,4.77-3.26,4.68a6.16,6.16,0,0,1-4.42-2.55,22.21,22.21,0,0,1-4.74,2.49,14.18,14.18,0,0,0-1.83-2.28,19.15,19.15,0,0,0,5.16-2.7A25.13,25.13,0,0,1,295,109H290.9c0,.21,0,.45-.07.66,1.24,1,2.94,2.37,3.82,3.24l-2.16,2.1a28.6,28.6,0,0,0-2.25-2.16,12.33,12.33,0,0,1-4.08,6,11.31,11.31,0,0,0-2.37-2,9.73,9.73,0,0,0,4.07-7.8h-1.77v-2.73h8.37a100,100,0,0,1-1-10.5,38.62,38.62,0,0,1-4.08,6.24l1.68-.18c-.14-.45-.27-.93-.38-1.35l2.07-.54a39,39,0,0,1,1.19,4.32l-2.22.66a9.28,9.28,0,0,0-.18-1c-3.6.54-4.28.75-4.7.93-.16-.48-.55-1.77-.84-2.43a3,3,0,0,0,1.5-1.32,23.45,23.45,0,0,0,1.43-2.19,8.39,8.39,0,0,0-2.4.51c-.15-.54-.57-1.74-.84-2.4a2,2,0,0,0,1.08-1.08,22.61,22.61,0,0,0,2-4.8l2.56.66a31.84,31.84,0,0,1-2.58,5l1.34-.12a18.25,18.25,0,0,0,.84-1.86l2.49.84c-.06-1.44-.12-3-.17-4.56h2.93a99,99,0,0,0,1.26,15.18h2.76c-.51-.45-1.08-.9-1.56-1.29l1.36-1.11a7.28,7.28,0,0,0-2.14.54,19.48,19.48,0,0,0-.81-2.46,3.35,3.35,0,0,0,1.47-1.38,14.41,14.41,0,0,0,1.39-2.13,7.8,7.8,0,0,0-2.35.51c-.18-.54-.56-1.71-.87-2.4.4-.09.73-.48,1.06-1A22.56,22.56,0,0,0,299.53,91l2.55.69a24.89,24.89,0,0,1-2.33,4.61l1.34-.09c.27-.6.54-1.26.78-1.86l2.58.84a38.17,38.17,0,0,1-4,6.36l1.65-.18c-.15-.42-.27-.87-.42-1.26l2.05-.57a43.61,43.61,0,0,1,1.37,4.35l-2.12.75c-.07-.36-.16-.78-.28-1.23-.75.12-1.38.21-1.88.3a25.2,25.2,0,0,1,2.27,1.83l-.77.72h2.39V109h-3.47ZM298,109a20.73,20.73,0,0,0,.82,2.61,14.23,14.23,0,0,0,1.76-2.61Z"/><path class="cls-2" d="M156.35,141v2.7h6.48v7c0,.86-.2,1.3-.84,1.56a12.51,12.51,0,0,1-3.5.26A5.67,5.67,0,0,0,158,151c1.36,0,2.56,0,2.9,0s.46-.12.46-.4v-5.52h-5v9.7h-1.5v-9.7h-4.68v7.42h-1.48v-8.88h6.16V141h-8.1v-1.46h8.52A24.86,24.86,0,0,0,154,136.9l1.42-.44a17.17,17.17,0,0,1,1.56,3l-.26.1h7.94V141Z"/><path class="cls-2" d="M172.07,137.1a34.61,34.61,0,0,1-1.56,3.91v13.86h-1.42v-11.2a20.37,20.37,0,0,1-1.88,2.68,10.75,10.75,0,0,0-.78-1.5,24,24,0,0,0,4.26-8.13Zm5.28,15.73a15.64,15.64,0,0,1-4.94,2.06,7.68,7.68,0,0,0-.84-1,16.48,16.48,0,0,0,4.7-1.8Zm-1.24-14.06h-3.9v-1.15h12.72v1.15h-4.16V140h3.54v3.86H172.67V140h3.44Zm-3,13.18v-7.18h11V152Zm.88-9.1h2.14v-1.92H174Zm.5,4h8.18v-1.12h-8.18Zm0,2.06h8.18v-1.14h-8.18Zm0,2.1h8.18v-1.18h-8.18Zm5.06-12.24h-2.2V140h2.2Zm-2.2,4.08h2.2v-1.92h-2.2Zm3.16,9.26a43.06,43.06,0,0,1,4.8,1.94l-1.26.88a28.36,28.36,0,0,0-4.5-2Zm.28-11.18v1.92H183v-1.92Z"/><path class="cls-2" d="M193.89,141.87a2.73,2.73,0,0,0-2.26-1.34,1.78,1.78,0,0,0-1.88,1.92c0,2.9,5.4,2.82,5.4,7.18a3.54,3.54,0,0,1-3,3.74v2.46h-1.32v-2.42a5.9,5.9,0,0,1-3.38-1.66l.84-1.24a4.27,4.27,0,0,0,3,1.38,1.88,1.88,0,0,0,2.12-2.06c0-3.36-5.38-3.22-5.38-7.22a3.38,3.38,0,0,1,2.82-3.55v-2.44h1.32V139a4.43,4.43,0,0,1,2.76,1.73Z"/><path class="cls-2" d="M197.57,152.29c3.62-4.18,5.64-6.78,5.64-9.28,0-1.56-.66-2.7-2.12-2.7a3.34,3.34,0,0,0-2.52,1.6l-1.1-1a4.85,4.85,0,0,1,3.84-2.08c2.3,0,3.72,1.64,3.72,4.14,0,2.68-2.06,5.38-5,9,.78,0,1.5-.1,2.24-.1h3.36v1.54h-8.1Z"/><path class="cls-2" d="M207.91,149.77a4.47,4.47,0,0,1,2.24-3.92v-.08a4.57,4.57,0,0,1-1.72-3.42,3.54,3.54,0,1,1,7.08.08,5.23,5.23,0,0,1-1.7,3.64v.08a4.31,4.31,0,0,1,2.14,3.76c0,2.08-1.4,3.68-4,3.68A3.77,3.77,0,0,1,207.91,149.77Zm6.24.22c0-1.82-1.28-2.58-2.94-3.46a3.89,3.89,0,0,0-1.6,3.18,2.36,2.36,0,0,0,2.4,2.54A2,2,0,0,0,214.15,150Zm-.26-7.48a2.06,2.06,0,0,0-1.92-2.32,1.9,1.9,0,0,0-1.84,2.14c0,1.52,1.14,2.48,2.52,3.16A4.37,4.37,0,0,0,213.89,142.51Z"/><path class="cls-2" d="M218.33,146.13c0-5,1.6-7.3,3.94-7.3s3.94,2.34,3.94,7.3-1.6,7.46-3.94,7.46S218.33,151.11,218.33,146.13Zm6.12,0c0-4.32-.92-5.82-2.18-5.82s-2.18,1.5-2.18,5.82.92,6,2.18,6S224.45,150.43,224.45,146.13Z"/><path class="cls-2" d="M228.65,146.13c0-5,1.6-7.3,3.94-7.3s3.94,2.34,3.94,7.3-1.6,7.46-3.94,7.46S228.65,151.11,228.65,146.13Zm6.12,0c0-4.32-.92-5.82-2.18-5.82s-2.18,1.5-2.18,5.82.92,6,2.18,6S234.77,150.43,234.77,146.13Z"/><circle class="cls-3" cx="189.45" cy="574.51" r="52.98"/><path class="cls-4" d="M166.94,583l1.79-2.37a7.58,7.58,0,0,0,5.57,2.59c2.65,0,4.48-1.47,4.48-3.9,0-2.63-1.67-4.32-7-4.32v-2.72c4.64,0,6.18-1.76,6.18-4.13,0-2.08-1.38-3.39-3.62-3.42a6.88,6.88,0,0,0-4.7,2.23l-1.92-2.3a9.93,9.93,0,0,1,6.75-2.85c4.22,0,7.2,2.18,7.2,6.08a5.7,5.7,0,0,1-4.07,5.54v.16a6,6,0,0,1,4.87,5.89c0,4.25-3.55,6.75-7.87,6.75A9.77,9.77,0,0,1,166.94,583Z"/><path class="cls-4" d="M212,588.35h-3.07v-1.54H195.74v1.54h-3V578.14c-1.66.54-3.36,1-5,1.44a11.93,11.93,0,0,0-1.54-2.75,44.37,44.37,0,0,0,11.62-4.07,57.71,57.71,0,0,0-5.6-4.7,38.18,38.18,0,0,1-3.3,1.92,9.49,9.49,0,0,0-2-2.37,24.49,24.49,0,0,0,10.63-8.73l3.39.7c-.61.86-1.25,1.73-1.95,2.56h10.39l.49-.16,2,1.22a28.14,28.14,0,0,1-11.48,11.48H212Zm-15.68-23.49c-.57.51-1.15,1-1.73,1.47a61.55,61.55,0,0,1,6,4.8,24.61,24.61,0,0,0,6.81-6.27Zm12.61,19.23v-6.72H195.74v6.72Z"/><path class="cls-5" d="M86,307.36l1.7,10.25a68,68,0,0,0,30.52,46.27l6.11-10.59a55.7,55.7,0,0,1-24.53-37.68l-1.69-10.25c-.1-.61-.17-1.22-.25-1.84H85.44C85.58,304.8,85.75,306.08,86,307.36Z"/><path class="cls-5" d="M211.87,303.52c-.08.62-.15,1.23-.25,1.84l-1.69,10.25a55.67,55.67,0,0,1-24.53,37.68l6.11,10.6A68.07,68.07,0,0,0,222,317.61l1.69-10.25c.21-1.28.38-2.56.52-3.84Z"/><path class="cls-6" d="M154.85,226.16a69.81,69.81,0,0,0-69.41,77.36H97.82a57.53,57.53,0,1,1,114.05,0h12.38A69.81,69.81,0,0,0,154.85,226.16Z"/><path class="cls-7" d="M154.85,226.16a69.81,69.81,0,0,0-69.41,77.36H97.82a57.53,57.53,0,1,1,114.05,0h12.38A69.81,69.81,0,0,0,154.85,226.16Z"/><path class="cls-4" d="M123.15,365.11l-6.94-12a22.41,22.41,0,0,0-25.37-10.4,22.42,22.42,0,0,0-3.68,27.17l6.94,12a22.42,22.42,0,0,0,25.37,10.4A22.42,22.42,0,0,0,123.15,365.11Z"/><path class="cls-6" d="M123.15,365.11l-6.94-12a22.41,22.41,0,0,0-25.37-10.4,22.42,22.42,0,0,0-3.68,27.17l6.94,12a22.42,22.42,0,0,0,25.37,10.4A22.42,22.42,0,0,0,123.15,365.11Z"/><path class="cls-8" d="M133,359.44l-6.93-12a22.44,22.44,0,0,0-30.66-8.22h0a22.17,22.17,0,0,0-4.54,3.49,22.41,22.41,0,0,1,25.37,10.4l6.94,12a22.42,22.42,0,0,1-3.68,27.17,22.56,22.56,0,0,0,5.29-2.18h0A22.45,22.45,0,0,0,133,359.44Z"/><path class="cls-9" d="M123.15,365.11l-6.94-12a22.41,22.41,0,0,0-25.37-10.4,22.42,22.42,0,0,0-3.68,27.17l6.94,12a22.42,22.42,0,0,0,25.37,10.4A22.42,22.42,0,0,0,123.15,365.11Z"/><path class="cls-6" d="M215.59,381.86l6.94-12a22.45,22.45,0,0,0-8.21-30.66h0A22.59,22.59,0,0,0,209,337a22.43,22.43,0,0,1,3.68,27.18l-6.94,12a22.44,22.44,0,0,1-25.37,10.4,22.42,22.42,0,0,0,4.53,3.48h0A22.44,22.44,0,0,0,215.59,381.86Z"/><path class="cls-8" d="M205.77,376.19l6.94-12A22.43,22.43,0,0,0,209,337a22.44,22.44,0,0,0-25.37,10.4l-6.94,12a22.43,22.43,0,0,0,3.68,27.18A22.44,22.44,0,0,0,205.77,376.19Z"/><path class="cls-9" d="M215.59,381.86l6.94-12a22.45,22.45,0,0,0-8.21-30.66h0A22.59,22.59,0,0,0,209,337a22.43,22.43,0,0,1,3.68,27.18l-6.94,12a22.44,22.44,0,0,1-25.37,10.4,22.42,22.42,0,0,0,4.53,3.48h0A22.44,22.44,0,0,0,215.59,381.86Z"/><path class="cls-7" d="M126.16,389.22v33.87a19.35,19.35,0,0,0,19.35,19.36h17a19.35,19.35,0,0,1,19.36,19.35v20.91"/><path class="cls-7" d="M254.06,345v51.64a20,20,0,0,1-20,20h-15.3a20,20,0,0,0-20,20v46"/><path class="cls-7" d="M286.12,306.14V392.2a24.46,24.46,0,0,1-24.47,24.47H234"/><path class="cls-5" d="M288.82,253.79l-.54-1h-4.4a68.74,68.74,0,0,1,2.82,37.51h8.71A58.11,58.11,0,0,0,288.82,253.79Z"/><path class="cls-6" d="M286.7,290.33a68.7,68.7,0,0,1-4.88,15l-.39.85h9.3s3.89-10.41,4.68-15.81Z"/><path class="cls-7" d="M286.7,290.33a68.7,68.7,0,0,1-4.88,15l-.39.85h9.3s3.89-10.41,4.68-15.81Z"/><rect class="cls-8" x="272.79" y="276.75" width="18.54" height="18.54" rx="9.27" ry="9.27"/><rect class="cls-8" x="249.16" y="315.62" width="18.54" height="18.54" rx="9.27" ry="9.27" transform="translate(516.86 649.78) rotate(-180)"/><path class="cls-4" d="M253.79,329.2a68.7,68.7,0,0,0,4.88,15l.39.85h-9.3s-3.89-10.4-4.68-15.81Z"/><path class="cls-5" d="M251.67,292.66l.54-1h4.4a68.74,68.74,0,0,0-2.82,37.51h-8.71A58.11,58.11,0,0,1,251.67,292.66Z"/><path class="cls-7" d="M253.79,329.2a68.7,68.7,0,0,0,4.88,15l.39.85h-9.3s-3.89-10.4-4.68-15.81Z"/><path class="cls-6" d="M253.79,329.2a68.7,68.7,0,0,0,4.88,15l.39.85h-9.3s-3.89-10.4-4.68-15.81Z"/></svg>