<svg id="圖層_1" data-name="圖層 1" xmlns="http://www.w3.org/2000/svg" viewBox="0 0 1080 1080"><defs><style>.cls-1{fill:#fff;stroke:#08a39f;stroke-miterlimit:10;stroke-width:11.25px;}.cls-2{fill:#ffc636;opacity:0.5;}.cls-3{fill:#08a39f;opacity:0.3;}.cls-4{fill:#10665a;}</style></defs><title>180207</title><rect class="cls-1" x="130.39" y="332.73" width="879.45" height="464.75"/><rect class="cls-1" x="107.28" y="309.62" width="879.45" height="464.75"/><rect class="cls-1" x="84.17" y="286.51" width="879.45" height="464.75"/><circle class="cls-2" cx="282.31" cy="518.89" r="122.09"/><circle class="cls-2" cx="760.87" cy="518.89" r="122.09"/><circle class="cls-3" cx="523.89" cy="518.89" r="157.46"/><path class="cls-4" d="M321.18,564.5a7.66,7.66,0,0,1-.46-1.59,9.08,9.08,0,0,1-.15-1.6,7.15,7.15,0,0,1,2.13-5.39,7.53,7.53,0,0,1,5.47-2,8.49,8.49,0,0,1,4.1,1,10.36,10.36,0,0,1,3.49,3.57,16.4,16.4,0,0,0,5.7,5.62,17.92,17.92,0,0,0,16.78.07,10.84,10.84,0,0,0,4.86-6.3,24,24,0,0,0,1.14-4.79,49.75,49.75,0,0,0,.38-6.76,46.1,46.1,0,0,0-.38-6.68A24.53,24.53,0,0,0,363.1,535a12.55,12.55,0,0,0-4.94-6.6,14.35,14.35,0,0,0-7.82-2,13.89,13.89,0,0,0-11.85,5.77,15.84,15.84,0,0,1-4.1,3.72,9.23,9.23,0,0,1-4.71,1.14,7.82,7.82,0,0,1-6-2.35,9.13,9.13,0,0,1-2.2-6.46V483.85q0-7.44,7.44-7.44h43.44a7.75,7.75,0,0,1,5.85,2.12,8.32,8.32,0,0,1,0,10.94,7.72,7.72,0,0,1-5.85,2.12H338a.81.81,0,0,0-.91.92v23.84h.3a20.68,20.68,0,0,1,6.3-3.72,28.2,28.2,0,0,1,9.95-1.44q20.06,0,25.82,17a39.4,39.4,0,0,1,1.6,7.44,89.17,89.17,0,0,1,.53,10.63,71.2,71.2,0,0,1-.53,9.27,36.07,36.07,0,0,1-1.6,7,25.09,25.09,0,0,1-11,14A34.73,34.73,0,0,1,350,581.36q-11.7,0-19-4.94A24.77,24.77,0,0,1,321.18,564.5Z"/><path class="cls-4" d="M406.24,561.16c-.31-1-.61-2.2-.92-3.57a38.91,38.91,0,0,1-.68-5.62q-.22-3.57-.38-9.26t-.15-14.66q0-9,.15-14.66c.1-3.8.23-6.88.38-9.26a36.85,36.85,0,0,1,.68-5.55c.31-1.31.61-2.53.92-3.64a27.86,27.86,0,0,1,10.4-15q7.37-5.25,18.91-5.24T454.46,480a28.69,28.69,0,0,1,10.56,15c.3,1.11.6,2.33.91,3.64a36.85,36.85,0,0,1,.68,5.55c.15,2.38.28,5.46.38,9.26s.15,8.68.15,14.66-.05,10.86-.15,14.66-.23,6.88-.38,9.26a38.91,38.91,0,0,1-.68,5.62c-.31,1.37-.61,2.56-.91,3.57a28.69,28.69,0,0,1-10.56,15q-7.36,5.24-18.91,5.24t-18.91-5.24A27.86,27.86,0,0,1,406.24,561.16Zm16.7-3.19q2.9,8.21,12.61,8.2t12.76-8.2a13.62,13.62,0,0,0,.68-2.73c.15-1,.28-2.59.38-4.71s.18-5,.23-8.51.08-8.2.08-14,0-10.43-.08-14-.13-6.37-.23-8.5-.23-3.7-.38-4.71a13.62,13.62,0,0,0-.68-2.73q-3-8.2-12.76-8.21t-12.61,8.21a13.62,13.62,0,0,0-.68,2.73c-.15,1-.28,2.58-.38,4.71s-.18,5-.23,8.5-.07,8.21-.07,14,0,10.43.07,14,.13,6.38.23,8.51.23,3.7.38,4.71A13.62,13.62,0,0,0,422.94,558Z"/><path class="cls-4" d="M492.05,561.16c-.3-1-.61-2.2-.91-3.57a38.91,38.91,0,0,1-.68-5.62c-.16-2.38-.28-5.47-.38-9.26s-.16-8.69-.16-14.66.06-10.86.16-14.66.22-6.88.38-9.26a36.85,36.85,0,0,1,.68-5.55c.3-1.31.61-2.53.91-3.64a27.87,27.87,0,0,1,10.41-15q7.37-5.25,18.91-5.24T540.28,480a28.62,28.62,0,0,1,10.55,15c.31,1.11.61,2.33.91,3.64a35.37,35.37,0,0,1,.69,5.55c.15,2.38.27,5.46.38,9.26s.15,8.68.15,14.66-.05,10.86-.15,14.66-.23,6.88-.38,9.26a37.32,37.32,0,0,1-.69,5.62c-.3,1.37-.6,2.56-.91,3.57a28.62,28.62,0,0,1-10.55,15q-7.38,5.24-18.91,5.24t-18.91-5.24A27.87,27.87,0,0,1,492.05,561.16ZM508.76,558q2.88,8.21,12.61,8.2t12.75-8.2a13,13,0,0,0,.69-2.73c.15-1,.28-2.59.38-4.71s.17-5,.23-8.51.07-8.2.07-14,0-10.43-.07-14-.13-6.37-.23-8.5-.23-3.7-.38-4.71a13,13,0,0,0-.69-2.73q-3-8.2-12.75-8.21t-12.61,8.21a13.62,13.62,0,0,0-.68,2.73c-.16,1-.28,2.58-.38,4.71s-.18,5-.23,8.5-.08,8.21-.08,14,0,10.43.08,14,.12,6.38.23,8.51.22,3.7.38,4.71A13.62,13.62,0,0,0,508.76,558Z"/><path class="cls-4" d="M577.87,561.16c-.31-1-.61-2.2-.91-3.57a37.32,37.32,0,0,1-.69-5.62q-.22-3.57-.38-9.26t-.15-14.66q0-9,.15-14.66c.1-3.8.23-6.88.38-9.26a35.37,35.37,0,0,1,.69-5.55c.3-1.31.6-2.53.91-3.64a27.86,27.86,0,0,1,10.4-15q7.37-5.25,18.91-5.24T626.09,480a28.69,28.69,0,0,1,10.56,15c.3,1.11.61,2.33.91,3.64a36.85,36.85,0,0,1,.68,5.55c.16,2.38.28,5.46.38,9.26s.16,8.68.16,14.66-.06,10.86-.16,14.66-.22,6.88-.38,9.26a38.91,38.91,0,0,1-.68,5.62c-.3,1.37-.61,2.56-.91,3.57a28.69,28.69,0,0,1-10.56,15q-7.37,5.24-18.91,5.24t-18.91-5.24A27.86,27.86,0,0,1,577.87,561.16ZM594.58,558q2.88,8.21,12.6,8.2t12.76-8.2a13.62,13.62,0,0,0,.68-2.73c.16-1,.28-2.59.38-4.71s.18-5,.23-8.51.08-8.2.08-14,0-10.43-.08-14-.13-6.37-.23-8.5-.22-3.7-.38-4.71a13.62,13.62,0,0,0-.68-2.73q-3-8.2-12.76-8.21t-12.6,8.21a13,13,0,0,0-.69,2.73c-.15,1-.28,2.58-.38,4.71s-.18,5-.23,8.5-.07,8.21-.07,14,0,10.43.07,14,.13,6.38.23,8.51.23,3.7.38,4.71A13,13,0,0,0,594.58,558Z"/><path class="cls-4" d="M663.68,573.61a7.31,7.31,0,0,1-3.79-6.68,7.72,7.72,0,0,1,2.12-5.47,7.32,7.32,0,0,1,5.62-2.27,7.9,7.9,0,0,1,2.43.38,16.47,16.47,0,0,1,2.43,1,59.11,59.11,0,0,0,8.21,3.65,32.18,32.18,0,0,0,8.65,1.82V534.88q-13.07-2.11-20.43-9.79t-7.36-19.37A32.15,32.15,0,0,1,663.61,494a29.08,29.08,0,0,1,5.77-9.35,29.87,29.87,0,0,1,8.81-6.53A32.41,32.41,0,0,1,689.35,475v-5.62q0-5,4.41-5a4.38,4.38,0,0,1,3.34,1.29,5.23,5.23,0,0,1,1.22,3.72v5.47a47.43,47.43,0,0,1,10,1.9,43.34,43.34,0,0,1,8.51,3.57,7.68,7.68,0,0,1,4.1,7,7.43,7.43,0,0,1-2.05,5.24,6.85,6.85,0,0,1-5.24,2.2,8.66,8.66,0,0,1-3.95-.91q-2.9-1.22-5.62-2.12a34,34,0,0,0-5.77-1.37V520q13.81,2.28,20.88,9.87t7.06,19.44q0,12.91-7.44,21.34t-20.5,10.26v6.22a5.23,5.23,0,0,1-1.22,3.72,4.38,4.38,0,0,1-3.34,1.3c-2.94,0-4.41-1.68-4.41-5v-5.77a48.53,48.53,0,0,1-14.73-2.66A58.28,58.28,0,0,1,663.68,573.61Zm25.67-83.23a13.68,13.68,0,0,0-8.2,4.86,14.34,14.34,0,0,0-3,9.27,14.58,14.58,0,0,0,2.36,8.35q2.35,3.5,8.88,5.32Zm9,75.18q11.38-2.73,11.39-15.64a13.5,13.5,0,0,0-2.43-7.9q-2.43-3.49-9-5.47Z"/></svg>