<svg id="圖層_1" data-name="圖層 1" xmlns="http://www.w3.org/2000/svg" viewBox="0 0 1080 1080"><defs><style>.cls-1,.cls-2{fill:#fff;}.cls-2,.cls-4,.cls-5,.cls-6{stroke:#08a39f;stroke-width:11.25px;}.cls-2,.cls-4{stroke-miterlimit:10;}.cls-3{fill:#08a39f;opacity:0.3;}.cls-4,.cls-6{fill:none;}.cls-5{fill:#10665a;}.cls-5,.cls-6{stroke-linejoin:round;}</style></defs><title>180207</title><path class="cls-1" d="M631.64,500.27a254.66,254.66,0,0,0,28.16-81.39l6.35-38.43c.8-4.82,1.44-9.61,2-14.4,16.93-153.74-103.53-290.2-260.34-290.2S130.51,212.31,147.44,366.05c.53,4.79,1.17,9.58,2,14.4l6.35,38.43A254.79,254.79,0,0,0,184,500.34,85.28,85.28,0,0,0,167.7,513a84.15,84.15,0,0,0-13.8,101.93l26,45.07a84.19,84.19,0,1,0,145.82-84.19l-26-45.07a84.12,84.12,0,0,0-69.33-42,209.69,209.69,0,0,1-29.22-77.31l-6.36-38.43c-.37-2.3-.64-4.59-.94-6.89a215.79,215.79,0,1,1,427.82,0c-.31,2.3-.57,4.59-1,6.89l-6.35,38.44a209.75,209.75,0,0,1-29.23,77.32,83.92,83.92,0,0,0-69.32,41.9l-26,45.07a84.19,84.19,0,0,0,145.82,84.19l26-45.07A84.18,84.18,0,0,0,631.64,500.27Z"/><path class="cls-2" d="M149.41,380.45l6.35,38.43A255.2,255.2,0,0,0,270.25,592.45l22.94-39.72a208.76,208.76,0,0,1-92-141.36l-6.36-38.43c-.37-2.3-.64-4.59-.94-6.89H147.44C148,370.84,148.61,375.63,149.41,380.45Z"/><path class="cls-2" d="M621.69,366.05c-.31,2.3-.57,4.59-1,6.89l-6.35,38.44a208.76,208.76,0,0,1-92,141.35l22.93,39.72A255.14,255.14,0,0,0,659.8,418.88l6.35-38.43c.8-4.82,1.44-9.61,2-14.4Z"/><path class="cls-3" d="M407.78,75.85c-156.81,0-277.27,136.46-260.34,290.2h46.43a215.79,215.79,0,1,1,427.82,0h46.43C685.05,212.31,564.59,75.85,407.78,75.85Z"/><path class="cls-4" d="M407.78,75.85c-156.81,0-277.27,136.46-260.34,290.2h46.43a215.79,215.79,0,1,1,427.82,0h46.43C685.05,212.31,564.59,75.85,407.78,75.85Z"/><path class="cls-1" d="M288.9,597l-26-45.07a84.15,84.15,0,0,0-95.18-39,84.15,84.15,0,0,0-13.8,101.93l26,45.07a84.15,84.15,0,0,0,95.18,39A84.15,84.15,0,0,0,288.9,597Z"/><path class="cls-3" d="M288.9,597l-26-45.07a84.15,84.15,0,0,0-95.18-39,84.15,84.15,0,0,0-13.8,101.93l26,45.07a84.15,84.15,0,0,0,95.18,39A84.15,84.15,0,0,0,288.9,597Z"/><path class="cls-5" d="M325.74,575.76l-26-45.07a84.19,84.19,0,0,0-115-30.82h0a84.45,84.45,0,0,0-17,13.08,84.15,84.15,0,0,1,95.18,39l26,45.07A84.15,84.15,0,0,1,275.1,699a84,84,0,0,0,19.83-8.19h0A84.2,84.2,0,0,0,325.74,575.76Z"/><path class="cls-6" d="M288.9,597l-26-45.07a84.15,84.15,0,0,0-95.18-39,84.15,84.15,0,0,0-13.8,101.93l26,45.07a84.15,84.15,0,0,0,95.18,39A84.15,84.15,0,0,0,288.9,597Z"/><path class="cls-3" d="M635.64,659.86l26-45.07a84.2,84.2,0,0,0-30.81-115h0A84,84,0,0,0,611,491.59a84.15,84.15,0,0,1,13.8,101.93l-26,45.07a84.15,84.15,0,0,1-95.18,39,84.66,84.66,0,0,0,17,13.08h0A84.2,84.2,0,0,0,635.64,659.86Z"/><path class="cls-5" d="M598.8,638.59l26-45.07A84.15,84.15,0,0,0,611,491.59a84.15,84.15,0,0,0-95.18,39l-26,45.07a84.15,84.15,0,0,0,13.8,101.93A84.15,84.15,0,0,0,598.8,638.59Z"/><path class="cls-6" d="M635.64,659.86l26-45.07a84.2,84.2,0,0,0-30.81-115h0A84,84,0,0,0,611,491.59a84.15,84.15,0,0,1,13.8,101.93l-26,45.07a84.15,84.15,0,0,1-95.18,39,84.66,84.66,0,0,0,17,13.08h0A84.2,84.2,0,0,0,635.64,659.86Z"/><path class="cls-4" d="M300.17,687.47V814.53a72.59,72.59,0,0,0,72.6,72.6h63.74a72.61,72.61,0,0,1,72.6,72.6v78.42"/><path class="cls-1" d="M910.28,179.5l-2-3.63H891.77a257.43,257.43,0,0,1,15.62,98,34.74,34.74,0,0,0-57.21,26.52h0a34.77,34.77,0,0,0,48.39,32A254.75,254.75,0,0,1,884,372.67l-1.47,3.19h34.91s14.57-39,17.55-59.3A217.86,217.86,0,0,0,910.28,179.5Z"/><path class="cls-1" d="M831.07,446.19a34.74,34.74,0,0,0-57.21-26.52,257.38,257.38,0,0,1,15.62-98H773l-2,3.63a217.85,217.85,0,0,0-24.75,137.06c3,20.26,17.56,59.3,17.56,59.3h34.9l-1.47-3.2a255,255,0,0,1-14.53-40.3,34.77,34.77,0,0,0,48.39-32Z"/><path class="cls-4" d="M779.93,521.67V715.35a75.1,75.1,0,0,1-75.1,75.11H647.42a75.1,75.1,0,0,0-75.1,75.1v172.59"/><path class="cls-4" d="M900.19,375.86V698.67a91.8,91.8,0,0,1-91.79,91.79H704.83"/><path class="cls-2" d="M910.28,179.5l-2-3.63H891.77a257.88,257.88,0,0,1,10.56,140.69H935A217.86,217.86,0,0,0,910.28,179.5Z"/><path class="cls-3" d="M902.33,316.56A257.81,257.81,0,0,1,884,372.67l-1.47,3.19h34.91s14.57-39,17.55-59.3Z"/><path class="cls-4" d="M902.33,316.56A257.81,257.81,0,0,1,884,372.67l-1.47,3.19h34.91s14.57-39,17.55-59.3Z"/><rect class="cls-5" x="850.18" y="265.62" width="69.52" height="69.52" rx="34.76" ry="34.76"/><rect class="cls-5" x="761.54" y="411.43" width="69.52" height="69.52" rx="34.76" ry="34.76" transform="translate(1592.61 892.38) rotate(-180)"/><path class="cls-1" d="M778.92,462.37a257.91,257.91,0,0,0,18.29,56.1l1.47,3.2h-34.9s-14.58-39-17.56-59.3Z"/><path class="cls-2" d="M771,325.31l2-3.63h16.51a258,258,0,0,0-10.56,140.69h-32.7A217.85,217.85,0,0,1,771,325.31Z"/><path class="cls-4" d="M778.92,462.37a257.91,257.91,0,0,0,18.29,56.1l1.47,3.2h-34.9s-14.58-39-17.56-59.3Z"/><path class="cls-3" d="M778.92,462.37a257.91,257.91,0,0,0,18.29,56.1l1.47,3.2h-34.9s-14.58-39-17.56-59.3Z"/></svg>