<svg id="圖層_1" data-name="圖層 1" xmlns="http://www.w3.org/2000/svg" viewBox="0 0 134.28 134.28"><defs><style>.cls-1{fill:#f97919;}.cls-2{fill:#fff;}.cls-3{fill:none;stroke:#fff;stroke-linejoin:round;stroke-width:3px;opacity:0.7;}</style></defs><title>180209_</title><circle class="cls-1" cx="67.14" cy="68.14" r="52.98"/><path class="cls-2" d="M51.29,77.2v3.15H27.71V77.2H40.45A65.1,65.1,0,0,0,43.8,65.63l3.51.68A105.29,105.29,0,0,1,43.8,77.2ZM50.2,64.8H28.88V61.68h9.44a36.5,36.5,0,0,0-1.25-4.16l3.09-.78a34.34,34.34,0,0,1,1.41,4.13l-2.78.81H50.2ZM34.26,76.58A76.93,76.93,0,0,0,32.1,66.31l3.12-.76a86,86,0,0,1,2.37,10.17Z"/><path class="cls-2" d="M63.41,71.82A52.12,52.12,0,0,1,67,78.61l-2.89,1.53a17.53,17.53,0,0,0-.91-2.23c-6.11,1.92-7.15,2.33-7.88,2.83a11.43,11.43,0,0,0-1.19-3.15,1.94,1.94,0,0,0,1.19-1.82V58.33H66.27V71.17H58.49v5.12l3.46-1c-.41-.75-.83-1.5-1.22-2.18ZM58.49,61.08v2.21h4.68V61.08Zm4.68,7.33V66.05H58.49v2.36Zm13.86,5c0,1.4-.23,2.21-1.12,2.73a7.62,7.62,0,0,1-3.69.52,10.76,10.76,0,0,0-.86-2.91,20.53,20.53,0,0,0,2.19,0c.31,0,.44-.1.44-.44v-12H70.84v20H67.72V58.51H77Z"/><path class="cls-2" d="M84.18,68.91a17.35,17.35,0,0,0-4.05-2.5l1.69-2.26A15.69,15.69,0,0,1,86,66.41Zm2.24,3.79c-.86,2.79-2,5.78-3.07,8.33l-2.78-1.59a78.7,78.7,0,0,0,3.35-8.35ZM85.14,62.15a16.15,16.15,0,0,0-4-2.63l1.75-2.29A18,18,0,0,1,87,59.65ZM90.86,76a19.74,19.74,0,0,1-3.51,5.41,20.08,20.08,0,0,0-2.41-1.59,14.55,14.55,0,0,0,3.12-4.6Zm4.32-1H87.33V58h7.85Zm-2.7-14.27H89.93V62.9h2.55Zm0,4.65H89.93v2.21h2.55Zm0,4.71H89.93v2.23h2.55ZM94,75a28.13,28.13,0,0,1,2.73,4l-2.45,1.46a27.51,27.51,0,0,0-2.62-4.14Zm5.12-.31H96.48v-15h2.68Zm4.42-17.63V77.83c0,1.58-.29,2.39-1.2,2.86s-2.26.59-4.29.59a12.22,12.22,0,0,0-.88-3c1.32.05,2.57.05,3,.05s.57-.15.57-.54V57.05Z"/><circle class="cls-3" cx="67.14" cy="67.14" r="62.6"/></svg>