<svg id="圖層_1" data-name="圖層 1" xmlns="http://www.w3.org/2000/svg" viewBox="0 0 1080 1080"><defs><style>.cls-1{fill:#fff;}.cls-2{fill:#08a39f;opacity:0.3;}.cls-3,.cls-4,.cls-5{fill:none;stroke:#08a39f;}.cls-3{stroke-linecap:round;stroke-width:9px;}.cls-3,.cls-5{stroke-linejoin:round;}.cls-4{stroke-miterlimit:10;}.cls-4,.cls-5{stroke-width:5px;}</style></defs><title>180207</title><path class="cls-1" d="M853.14,666.1a237.56,237.56,0,0,0-6.82-33.5c-.86-3.05-1.79-6.06-2.77-9-.49-1.49-1-3-1.52-4.42a181.76,181.76,0,0,0-25.45-48c-17.6-23.55-62.71-52.46-92-69.32l-3.89-2.22L717,497.59l-1.75-1c-2.86-1.58-5.45-3-7.71-4.17L705,491.12,702.8,490c-2-1-3.51-1.7-4.32-2h0c-1.07-1.41-2.37-2.52-2.53-4.1-.28-2.85.09-7.62.09-11.89s-4.55-14.24-14.49-17.33-10.59.91-13.84,1.89c-3.79,1.15-7.77-1.59-7.77-1.59-7.51-7.1-16.28-22.13-20.87-38.83s-6.4-30.11-4.31-50.5c1-10.14,4.22-30.4,6.68-49.83h0s5.77-5.07,9.74-5.56c3.54-.44,9.64,3.5,13.73,0s0-12,3.22-16.07,6.72,1.17,10.22-2.92,6.43-13.44,3.2-19.29-19.85-11.1-18.68-18.11,6.72-5.26,9.35-7.6,4.09-4.09,0-12.89-16.07-12-16.07-15.06,4.38-16.46-2-24.64-16.07-2.93-20.74-8.48,1.46-11.68-5-18.4-24.84-1.68-35.06.08-12.27-4.09-13.36-9.64,1.09-15.49-7.1-19.58-20.74,2.63-26.59,7.3-6.13,15.2-10.59,17.83S527,160.15,520.57,161s-14.61,1.67-18.11,14.24,7.59,15.78,5.84,19.28-5.26,2.05-13.15,5-16.94,11.1-16.07,20.75,14,13.14,15.49,18.7.58,12-4.38,13.44-2.93-6.72-12-4.68-12.86,14.61-14,25.13,2.92,18.41,8.18,22.2,12.86-3.21,17.53-1.75,10.56,12.1,10.56,12.1h0c1.38,13.05,3.73,24.85,5.42,34.33,3.47,19.53,10,57.52,7.93,78.5a139.3,139.3,0,0,1-16,51.81c-8.62,15.75-26.94,33.66-26.94,33.66h0c-4.45.42-9.39-9.36-16.76-7.2-9.32,2.73-11.6,12.93-11.61,20h0s-45.1,17.37-73.19,63.21c-1.9,3.1-3.8,6.58-5.68,10.36q-1.69,3.4-3.36,7.13c-.38.83-.75,1.67-1.12,2.52-.74,1.69-1.47,3.43-2.21,5.2-.36.89-.73,1.78-1.09,2.69-.73,1.8-1.46,3.65-2.18,5.52L352.55,616q-1.07,2.87-2.13,5.79c-2.82,7.82-5.56,16-8.18,24.35-.65,2.07-1.3,4.16-1.94,6.25-1.27,4.18-2.52,8.37-3.73,12.54-.37,1.27-.74,2.54-1.1,3.81q-.8,2.78-1.56,5.51-.87,3.09-1.71,6.14c-.89,3.25-1.76,6.47-2.6,9.62l-1.22,4.62c-.31,1.17-.61,2.33-.91,3.47-.49,1.89-1,3.76-1.43,5.59-1.64,6.41-3.13,12.42-4.45,17.84-.18.77-.37,1.53-.55,2.28-.9,3.75-1.72,7.18-2.44,10.24-.28,1.22-.56,2.38-.81,3.48-.64,2.74-1.18,5.08-1.61,6.94l-11.63-36.07-15.39-47.69a42.55,42.55,0,0,1,2.95-8.37c.54-1.21,1.11-2.44,1.68-3.69s1.16-2.51,1.72-3.77,1.1-2.52,1.6-3.76.93-2.48,1.3-3.68a24.24,24.24,0,0,0,1.07-5.19c.42-5.54.62-10.11.63-14,0-2.74-.1-5.12-.29-7.21l-.12-1.22a31,31,0,0,0-2.41-9.37c-.11-.25-.23-.5-.34-.74-.24-.5-.49-1-.75-1.45-.13-.23-.26-.47-.4-.7-.27-.47-.55-.94-.85-1.4q-.66-1.05-1.38-2.13l-.49-.73c-.83-1.21-1.71-2.4-2.61-3.53-.18-.23-.37-.45-.55-.67-4.6-5.55-9.95-9.51-14.39-7.08-1,.57,4-17.89,13.7-28.75,8.54-9.56,22.52-18.55,33.86-36.78C331.54,503,341.4,476,335.3,450.78c-3.36-13.87-11.06-27.06-24.79-30.87S281.9,423.1,271,435.55,251.39,467.2,249.2,488s9.36,47.25,10.58,55.16c2.29,14.83-2,25.64-2.95,31h0l-1.51-1.32-.2-.17-1.43-1.21-.23-.2-1.41-1.15-.17-.13c-.48-.39-1-.76-1.42-1.12h0c-.46-.35-.9-.68-1.33-1l-.19-.14c-.41-.3-.8-.57-1.18-.83l-.2-.14-1.08-.69-.15-.09c-.35-.21-.68-.4-1-.56a10.53,10.53,0,0,0-2.32-.86,11.43,11.43,0,0,0-5.73.17,13.47,13.47,0,0,0-4.7,2.4,10,10,0,0,0-1.56,1.55,6.7,6.7,0,0,0-.68,1,48.76,48.76,0,0,0-2.09,4.77A71.27,71.27,0,0,0,225,585.56c-.09.47-.18.93-.25,1.37a24.94,24.94,0,0,0-.34,3.52,8.79,8.79,0,0,0,0,.92c.14,1.7.36,3.2.59,4.61.15.93.3,1.82.44,2.7.07.43.13.87.19,1.3.12.86.21,1.72.26,2.61.07,1.22-.15,4.14-.35,7.75,0,.32,0,.66-.06,1-.14,2.7-.26,5.71-.25,8.64,0,4.39.36,8.58,1.4,11.24.13.34.3.7.48,1.06l.09.17c.19.35.4.71.63,1.07l.12.2c.24.37.5.75.78,1.13l.07.08c.29.4.6.79.93,1.19l.05.06c.34.41.69.82,1.06,1.23l.11.12q.57.62,1.17,1.23l.05,0c.85.87,1.75,1.72,2.68,2.56h0l-7.26,22a9.79,9.79,0,0,0,18.64,6l4.46-13.94v.07c-.48,13-.84,28.54-1.1,44.73v.34c0,1.65,0,3.31-.08,5v.14l0,2.33v.38l0,2.22v.4l0,2.22c0,.13,0,.26,0,.38,0,.76,0,1.51,0,2.26,0,.12,0,.24,0,.36,0,.73,0,1.45,0,2.18,0,.19,0,.37,0,.56,0,.68,0,1.35,0,2,0,.2,0,.4,0,.6,0,.7,0,1.39,0,2.09,0,.13,0,.26,0,.38,0,.77,0,1.54,0,2.3v.18c0,.75,0,1.51,0,2.26v.73c0,.66,0,1.31,0,2v.28c0,1.63,0,3.26,0,4.87V737c-.05,6.45-.08,12.76-.11,18.8v.94c0,.59,0,1.17,0,1.75v.49c0,.65,0,1.29,0,1.93v2.78c0,.55,0,1.11,0,1.66V777c0,.4,0,.8,0,1.2V783c0,.35,0,.69,0,1v2.75c0,.31,0,.62,0,.93v1.77c0,.32,0,.64,0,1v.7c0,.33,0,.65,0,1v.75c0,.26,0,.51,0,.77v.8c0,.3,0,.58,0,.87V796c0,.3,0,.59,0,.89v.57c0,.32,0,.63,0,1,0,.14,0,.3,0,.44,0,.45,0,.89,0,1.32,0,2.71.11,5.57.23,8.55q.12,3,.3,6.1c.06,1,.12,2.09.19,3.15.55,8.48,1.39,17.53,2.46,26.47q.39,3.36.84,6.68c.44,3.32.9,6.6,1.4,9.8.16,1.07.33,2.13.5,3.18.85,5.25,1.76,10.25,2.73,14.85.38,1.84.78,3.61,1.18,5.3,1,4.24,2.05,8,3.13,11.12a72,72,0,0,0,9.61,18.84c.73,1,1.5,2,2.29,3a53.36,53.36,0,0,0,6.48,6.62,48.82,48.82,0,0,0,7.54,5.33,47.56,47.56,0,0,0,16.3,5.66c3,.47,6.06.81,9.2,1l2.37.11q3.56.12,7.19,0c.81,0,1.62-.08,2.43-.14a80.77,80.77,0,0,0,9.78-1.32,73.36,73.36,0,0,0,19.35-6.67q2.37-1.22,4.68-2.63c1.73-1.06,3.43-2.23,5.11-3.47q1.77-1.32,3.51-2.77a75.74,75.74,0,0,0,6.77-6.47c1.38-1.48,2.72-3.05,4-4.71l-.11-.28,0-.07.95-.06c-1.53,21.92-2.53,36.39-2.53,36.39h91.39c6.71,0,13.6,0,20.46-.08l2.06,0,10.21-.1,4-.06,5.93-.08,1.94,0c7.11-.11,13.84-.25,19.92-.4l4.82-.12,3-.09c6.41-.19,11.7-.4,15.4-.62l1.59-.1a33.64,33.64,0,0,0,3.89-.4,21.4,21.4,0,0,1,2.8-.26c3.12-.15,8.43-.22,15.28-.22h4.8l7.92,0h0l11.74.09h0l9.48.1h.07l16.78.18,6.92.08,10.4.12,3.52,0,3.47,0,10.32.11,6.65.06c8.85.07,17.24.12,24.72.13h8c4.2,0,8-.06,11.19-.12,3.88-.08,7-.19,9.1-.35s4.5-.3,7.07-.45c3.42-.21,7.19-.43,11.2-.72l3-.23c4.12-.34,8.44-.76,12.86-1.33,1.1-.14,2.21-.3,3.33-.46a155.17,155.17,0,0,0,20.11-4.18q1.65-.48,3.27-1c8.68-2.77,16.82-6.58,23.53-11.9.84-.66,1.65-1.35,2.45-2.06a46.72,46.72,0,0,0,4.44-4.57q1-1.23,2-2.52c.63-.87,1.25-1.81,1.87-2.83s1.23-2.11,1.84-3.27,1.21-2.39,1.8-3.68,1.18-2.66,1.76-4.08c.3-.71.58-1.44.87-2.18q.87-2.24,1.71-4.63c.28-.8.56-1.61.83-2.44.84-2.48,1.65-5.08,2.45-7.8.27-.9.54-1.82.8-2.74q.79-2.79,1.56-5.7c.25-1,.51-2,.76-3,.51-2,1-4,1.49-6.07.25-1,.49-2.07.73-3.12.29-1.24.57-2.49.85-3.75.9-4.08,1.78-8.28,2.62-12.57.44-2.25.88-4.52,1.3-6.81s.85-4.6,1.26-6.93l.6-3.51c.4-2.35.8-4.71,1.18-7.08.41-2.53.8-5.07,1.19-7.62q.48-3.12.93-6.26c.2-1.36.39-2.71.58-4.07.34-2.4.67-4.81,1-7.21s.63-4.81.93-7.21c1.8-14.37,3.26-28.53,4.33-41.62.8-9.82,1.39-19,1.74-27.31A303.2,303.2,0,0,0,853.14,666.1Z"/><path class="cls-2" d="M816.58,571.19C791,536.93,707.19,491.35,698.48,488h0a6,6,0,0,1,1.43,4.33c-.52,6.51-7.62,7-8.76,11.23s-.78,10,2.92,12.87,6.26-2.85,11.39,0,3.42,16.26.29,22.24-7.41,4.24-9.12,9.36,6.27,8.83,7.69,15.66-4,25.06-8.54,29.9-8.33-1.7-10.1,6.79c-2.25,10.76,4.25,10.15,5.26,14.56,1.24,5.46-2.85,15.66-6.55,19.08s-3.42,7.12-8,8.54-6.22-5.41-11.08-4.55-10.52,13.38-16.66,15.37-7.57-7.69-12.13-5.12.29,8.25-4.84,11.39-12.53,4.27-17.37,2.84-4.57-6.77-12.81-3.7c-11.67,4.36-7.53,13-10.51,18.62-3.24,6.15-22.15,12-32.16,11.43s-15.13-2.28-18.26-5.7,0-9.54-3.7-11.82-9.68-5.41-13.38-4.56-2.28,6-8,6.84-30.46-2-36.16-4.56-2.84-12.81-7.4-14.8-15.08,3.41-21.78-1.43-5.71-13.63-6.28-21,4.71-14.27,4.14-19.68S442.22,602,437.1,598.84s-1.87-7.82-5-11.53-8.54-5.55-9.11-14.3,3.13-20.72,8.82-25,8.26-2,11.11-7.4-.46-15.91-.46-24.1h0s-45.1,17.37-73.19,63.21c-24.33,39.69-47.58,140.87-53.09,164.72l-27-83.76c1.57-8,9.65-19.73,10.32-28.46,1.93-25.32-.74-30.41-5.91-38.17s-12.35-15.12-18-12c-4.24,2.31-5,8.88-4.25,14l-.13-.28A39.8,39.8,0,0,0,269,587c-2.12-4.34-17.51-18.49-23.61-21.64s-13.2.81-15,4.28c-3.15,6.1-6.26,17.17-5.86,21.69s1.29,7.68,1.48,11.22-2,21.54.74,28.63,16.86,18,22.37,19.17a8.88,8.88,0,0,0,1.88.19c-1.81,43.15-2.06,121.61-1.76,149.55.31,28.88,6.08,75.26,13,95.2s20.81,36.06,42.22,39.42c23.92,3.75,53.42-.61,74.43-27.11l-.13-.35.95-.06c-1.53,21.92-2.53,36.39-2.53,36.39h85.41c42.09.11,94.54-1,99.25-2.09,7.37-1.68,140.53,1.68,163.22,0s73.11-1.68,93.28-29.41,34.45-134.62,37-193.44S845.15,609.43,816.58,571.19Z"/><path class="cls-2" d="M557.17,330.28h0a19.83,19.83,0,0,0-14.37,6.15,19.48,19.48,0,0,0-9.77-3.1c-12.3,0-20.14,7-20.14,16.88,0,8.33,7.84,16.87,20.14,16.87a19.48,19.48,0,0,0,9.77-3.1,19.83,19.83,0,0,0,14.37,6.15h0a19.92,19.92,0,0,0,19.92-19.92h0A19.92,19.92,0,0,0,557.17,330.28Zm-19,27.28c-7,0-11.41-3.72-11.41-7.35,0-4.31,4.44-7.36,11.41-7.36.15,0,.29,0,.44,0a19.84,19.84,0,0,0-1.41,7.33h0a19.79,19.79,0,0,0,1.41,7.32C538.5,357.54,538.36,357.56,538.21,357.56Z"/><line class="cls-3" x1="585.98" y1="291.44" x2="600.57" y2="287.44"/><line class="cls-3" x1="537.24" y1="293.56" x2="525.27" y2="289.44"/><line class="cls-3" x1="554.92" y1="294.49" x2="554.92" y2="316.37"/><path class="cls-4" d="M497.77,470a139.3,139.3,0,0,0,16-51.81c2.12-21-4.46-59-7.93-78.5C503,323.28,498,299.86,499.61,275c1.13-17.52,8.88-54.28,37.63-72.24s62.16-11.27,81.37,7.94,25.5,51.77,25.89,67.22c.52,21-7.92,69.91-9.75,87.7-2.08,20.39-.27,33.8,4.32,50.5s13.36,31.73,20.87,38.83c0,0,14.73,51.51,17.51,69.11s9.27,53.43-3.71,74.43-54.66,42.93-85.85,49.42-67,4.94-93.89-9.27-37.86-34.06-41.88-47-1.4-31.72,4.16-47.47,13.94-38.61,14.55-40.46C470.83,503.7,489.15,485.79,497.77,470Z"/><path class="cls-4" d="M606.13,207.35c-2.37,8.16-7.12,21.92-19.52,33.61a81.1,81.1,0,0,1-32.8,18.42"/><path class="cls-4" d="M587,221.53c-2.65,7-9,15.55-20.29,23.86-10.16,7.5-23.67,12.61-30.23,14"/><path class="cls-4" d="M565.76,229.42c-6.07,9.63-18.36,20.09-28.15,24.85a61.21,61.21,0,0,1-32,6"/><path class="cls-4" d="M500.45,305.4s-5.88-10.64-10.56-12.1-12.27,5.55-17.53,1.75-9.35-11.68-8.18-22.2,5-23.08,14-25.13,7,6.14,12,4.68,5.84-7.89,4.38-13.44-14.61-9.06-15.49-18.7,8.18-17.83,16.07-20.75,11.4-1.46,13.15-5-9.35-6.72-5.84-19.28S514.14,161.9,520.57,161s10.66,4.39,15.12,1.76,4.75-13.15,10.59-17.83,18.41-11.39,26.59-7.3,6,14,7.1,19.58,3.13,11.39,13.36,9.64,28.63-6.81,35.06-.08.29,12.85,5,18.4,14.31.3,20.74,8.48,2,21.52,2,24.64,12,6.25,16.07,15.06,2.63,10.55,0,12.89-8.18.58-9.35,7.6,15.45,12.27,18.68,18.11.31,15.2-3.2,19.29-7-1.17-10.22,2.92.87,12.56-3.22,16.07-10.19-.44-13.73,0c-4,.49-9.74,5.56-9.74,5.56"/><path class="cls-4" d="M640,326.71c-3.63,14.1-11.44,36.18-27.08,54.23-11.24,13-26.77,22.45-43.09,22.4-11.49,0-28.12-5.45-37.43-12.56-9.82-7.48-20.2-20.13-22-23.77"/><path class="cls-4" d="M634.91,364.2c-3.52,8.66-14.26,24.21-27.85,33.24-21.5,14.28-44.14,12.26-57.63,8.85-10.3-2.61-29.68-12-36.54-19.52"/><path class="cls-5" d="M567.28,405.6c2.45-.19,19.79,25.64,21.3,29.41s-.37,4.52-5.09,6.22a13.06,13.06,0,0,1-12.44-2.64c-2.26-2.26-3.77-6.47-3.77-10.37Z"/><path class="cls-5" d="M567.28,405.6c-2.1,1-20.28,30.13-21.92,32.81-1.52,2.48-2.3,6.48,1.89,6.41,3.75-.05,13.41-1.45,16.08-3.27a9.5,9.5,0,0,0,3.78-7.39C567.12,431.81,567.28,405.6,567.28,405.6Z"/><polyline class="cls-5" points="567.28 428.22 568.88 473.34 578.19 467.07 573.9 440.5"/><polyline class="cls-5" points="561.71 442.33 558.84 467.66 568.74 469.39"/><path class="cls-5" d="M643.2,428.22C640,447.53,629.07,477,616.81,494.17c-14.1,19.79-27.72,27.42-41,31.8-11,3.63-43.21,6.48-59.66-6.17s-16.7-40.49-14.85-56.76"/><path class="cls-5" d="M648.66,439.6c-2.29,12.28-10.3,50.45-26.52,71-14.06,17.85-27.73,25.55-40.15,29.26-8.88,2.65-37.81,5.81-57.27-.07-18.3-5.54-25.77-15.2-28.79-25.16s-2.51-24.17-1-39.88"/><path class="cls-4" d="M538.59,357.41a19.9,19.9,0,0,1,0-14.41"/><path class="cls-4" d="M542.8,336.41a19.92,19.92,0,1,1,.19,27.8"/><path class="cls-5" d="M557.43,350.21s-12.1,16.87-24.4,16.87-20.14-8.54-20.14-16.87c0-9.89,7.84-16.88,20.14-16.88S557.43,350.21,557.43,350.21Z"/><path class="cls-5" d="M552,350.21s-6.86,7.35-13.83,7.35-11.41-3.72-11.41-7.35c0-4.31,4.44-7.36,11.41-7.36S552,350.21,552,350.21Z"/><path class="cls-4" d="M659.94,455s4,2.74,7.77,1.59c3.25-1,3.9-5,13.84-1.89S696,467.73,696,472s-.37,9-.09,11.89,4.29,4.19,3.94,8.43c-.52,6.51-7.62,7-8.76,11.23s-.78,10,2.92,12.87,6.26-2.85,11.39,0,3.42,16.26.29,22.24-7.41,4.24-9.12,9.36,6.27,8.83,7.69,15.66-4,25.06-8.54,29.9-8.33-1.7-10.1,6.79c-2.25,10.76,4.25,10.15,5.26,14.56,1.24,5.46-2.85,15.66-6.55,19.08s-3.42,7.12-8,8.54-6.22-5.41-11.08-4.55-10.52,13.38-16.66,15.37-7.57-7.69-12.13-5.12.29,8.25-4.84,11.39-12.53,4.27-17.37,2.84-4.57-6.77-12.81-3.7c-11.67,4.36-7.53,13-10.51,18.62-3.24,6.15-22.15,12-32.16,11.43s-15.13-2.28-18.26-5.7,0-9.54-3.7-11.82-9.68-5.41-13.38-4.56-2.28,6-8,6.84-30.46-2-36.16-4.56-2.84-12.81-7.4-14.8-15.08,3.41-21.78-1.43-5.71-13.63-6.28-21,4.71-14.27,4.14-19.68S442.22,602,437.1,598.84s-1.87-7.82-5-11.53-8.54-5.55-9.11-14.3,3.13-20.72,8.82-25,8.26-2,11.11-7.4-.46-15.91-.46-24.1c0-7.09,2.29-17.29,11.61-20,7.37-2.16,12.31,7.62,16.76,7.2"/><path class="cls-4" d="M740.11,699.34s-1.17,134.12-22.69,151.42C681,880,563.84,912.3,553.81,911.27c0,0-44.8-9.25-64.12-9.25s-50.91,8.72-66.76,15.13C404,924.8,393.05,939,411.54,942s142.85,1.19,150.22-.49,140.53,1.68,163.22,0,73.11-1.68,93.28-29.41,34.45-134.62,37-193.44-10.08-109.24-38.65-147.48C791,536.93,707.19,491.35,698.48,488"/><path class="cls-4" d="M442.46,516.52s-45.1,17.37-73.19,63.21-53.09,159.75-53.09,159.75"/><path class="cls-4" d="M395.58,697.68C393,712.33,377.1,943.62,377.1,943.62h85.41"/><path class="cls-4" d="M377.1,706.56c2.89,21,12.19,38.56,13.84,42"/><path class="cls-4" d="M357.8,864.56c-1.56-6.21-63.65-189.89-66.23-199.72s7-21.13,7.91-32.61c1.93-25.32-.74-30.41-5.91-38.17s-12.35-15.12-18-12-5.11,13.91-3,18.57a131.43,131.43,0,0,1,6.14,16.61"/><path class="cls-4" d="M230.35,569.68c1.79-3.47,8.89-7.43,15-4.28S266.83,582.7,269,587s3.34,18.3,4.72,23.22S270.92,624,269.93,628s.2,12.19-3.73,15.74-11.61,7.86-17.12,6.68-19.62-12.09-22.38-19.17-.53-25.09-.73-28.63-1.09-6.69-1.48-11.22S227.2,575.78,230.35,569.68Z"/><path class="cls-4" d="M250.42,656.58c-2,42.06-1.53,114.68-1.22,143.55s6.08,75.26,13,95.2,20.81,36.06,42.22,39.42c23.92,3.75,53.42-.61,74.43-27.11"/><path class="cls-4" d="M256.83,574.14c.95-5.35,5.24-16.16,2.95-31C258.56,535.24,247,508.77,249.2,488s10.86-39.9,21.82-52.44,25.76-19.45,39.49-15.64,21.43,17,24.79,30.87c6.1,25.2-3.76,52.18-12.21,65.74-11.34,18.23-25.32,27.22-33.86,36.78C279.5,564.2,273,584.48,273,584.48"/><path class="cls-4" d="M252.36,650.52l-6.05,18.92A9.8,9.8,0,0,1,234,675.75h0a9.78,9.78,0,0,1-6.31-12.33l7.26-22.06"/><path class="cls-4" d="M337.23,462.55c-10.2,1.53-23.38.47-37.11-3.53-14.08-4.11-26-10.51-33.8-17.49"/><path class="cls-4" d="M336.27,454.81c-9.55.77-21.14-.48-33.15-4-12.89-3.76-24-9.44-31.73-15.73"/><path class="cls-4" d="M310.07,533.65A108.59,108.59,0,0,1,252.33,517"/><path class="cls-4" d="M317.12,525c-9.89.79-21.89-.5-34.32-4.13C269.45,517,258,511.07,250,504.56"/><path class="cls-4" d="M334.26,489.59A159.08,159.08,0,0,1,254,466.22"/><path class="cls-4" d="M330.5,501.37a158.87,158.87,0,0,1-79.83-23.28"/><circle class="cls-4" cx="325.97" cy="476.9" r="4.18"/><circle class="cls-4" cx="268.8" cy="459.64" r="4.18"/><circle class="cls-4" cx="295.86" cy="471.42" r="4.18"/></svg>