<svg xmlns="http://www.w3.org/2000/svg" viewBox="0 0 177.61 31.67"><defs><style>.cls-1{fill:#08a39f;}</style></defs><title>sign up</title><g id="圖層_1" data-name="圖層 1"><path class="cls-1" d="M54,31a3,3,0,0,1-2.75-3V6.56A5.58,5.58,0,0,1,56.85,1h6.44A10.47,10.47,0,0,1,73.83,11,10.34,10.34,0,0,1,63.51,21.64H58.33a1.16,1.16,0,0,0-1.16,1.16v5.26A2.94,2.94,0,0,1,54,31Zm4.31-15.27h5.05a4.51,4.51,0,0,0,4.55-4.2,4.44,4.44,0,0,0-4.42-4.65H58.33A1.16,1.16,0,0,0,57.17,8v6.53A1.15,1.15,0,0,0,58.33,15.73Z"/><path class="cls-1" d="M28.54,16.8a1.23,1.23,0,0,1,0-1.61L36.33,6A3.11,3.11,0,0,0,31.5,2.08l-6.34,8.08a1.24,1.24,0,0,1-1,.47,1.25,1.25,0,0,1-1-.47L16.86,2.08A3.08,3.08,0,0,0,14.77,1a3.15,3.15,0,0,0-2.29.68A3.12,3.12,0,0,0,12,6l7.78,9.17a1.23,1.23,0,0,1,0,1.61L12,26a3.11,3.11,0,0,0,.44,4.38,3.16,3.16,0,0,0,2,.7,3.12,3.12,0,0,0,2.42-1.15l6.33-8.08a1.25,1.25,0,0,1,1-.47,1.24,1.24,0,0,1,1,.47l6.34,8.08a3.09,3.09,0,0,0,2.41,1.15A3.11,3.11,0,0,0,36.32,26Z"/><path class="cls-1" d="M43.85,13.37a2.92,2.92,0,1,0-2.92-2.92A2.93,2.93,0,0,0,43.85,13.37Z"/><path class="cls-1" d="M43.85,20A2.92,2.92,0,1,0,46.78,23,2.92,2.92,0,0,0,43.85,20Z"/><path class="cls-1" d="M99,26.84,89.23,2.6v0a.8.8,0,0,0-.08-.16.54.54,0,0,0,0-.11A1,1,0,0,0,89,2.17l-.07-.11-.09-.12a.44.44,0,0,0-.08-.11l-.1-.12-.09-.09-.12-.12-.09-.07-.13-.1-.1-.08L88,1.18l-.12-.08-.12-.05L87.62,1h0a.32.32,0,0,0-.09,0L87.34.88l-.12,0-.16,0-.13,0-.15,0H86.2l-.13,0-.16,0-.13,0-.14,0-.15.05-.1,0h0L85.22,1l-.13.07L85,1.17l-.14.09-.08.06-.15.11-.08.07-.13.12-.08.09-.11.12L84.12,2,84,2.06a.75.75,0,0,0-.07.12l-.08.13-.06.12-.06.14,0,0L74,26.84a3,3,0,0,0,1.64,3.84,3.06,3.06,0,0,0,1.1.21A3,3,0,0,0,79.5,29l1-2.39a1.26,1.26,0,0,1,1.17-.79h9.72a1.25,1.25,0,0,1,1.17.79l1,2.39a3,3,0,0,0,2.74,1.85,3,3,0,0,0,1.1-.21A3,3,0,0,0,99,26.84ZM83.51,19.22l2.37-7a.66.66,0,0,1,1.22,0l2.37,7a.64.64,0,0,1-.6.89H84.12A.65.65,0,0,1,83.51,19.22Z"/><path class="cls-1" d="M106.53,31.06a3,3,0,0,1-2.7-3V5.63A4.51,4.51,0,0,1,107,1.26a4.23,4.23,0,0,1,4.91,2l9.29,16.63c.46.84,1,.77,1,.2v-16a3,3,0,0,1,2.7-3A2.92,2.92,0,0,1,128,4V26.13a4.5,4.5,0,0,1-3.13,4.37,4.25,4.25,0,0,1-4.92-2l-9.29-15.83a.55.55,0,0,0-1,.29V28.11A2.92,2.92,0,0,1,106.53,31.06Z"/><path class="cls-1" d="M149.55,18.94a3,3,0,0,0,2.94-3.15,3,3,0,0,0-3-2.76h-7.88a1.79,1.79,0,0,1-1.79-1.79V8.89a1.79,1.79,0,0,1,1.79-1.78h8.69a3,3,0,0,0,3-2.76,3,3,0,0,0-2.94-3.15H137.71A3.83,3.83,0,0,0,133.89,5V26.89a3.83,3.83,0,0,0,3.82,3.83h12.55a3,3,0,0,0,3-2.76,3,3,0,0,0-2.94-3.15h-8.79A1.79,1.79,0,0,1,139.78,23V20.72a1.79,1.79,0,0,1,1.79-1.78Z"/><path class="cls-1" d="M174.15,30.72H162.92a3.76,3.76,0,0,1-3.68-3.83V4.43a3,3,0,0,1,2.65-3,2.89,2.89,0,0,1,3,3V23a1.76,1.76,0,0,0,1.73,1.78h7.4A3,3,0,0,1,177,27.57,2.9,2.9,0,0,1,174.15,30.72Z"/><path class="cls-1" d="M4.7,9.78V7.59A2,2,0,0,1,5.5,6,3,3,0,0,0,6.66,3.51,3.06,3.06,0,0,0,3.73.6a3,3,0,0,0-3.12,3A3,3,0,0,0,1.79,6a2,2,0,0,1,.79,1.54V9.78a1.94,1.94,0,0,1-.77,1.51A3,3,0,0,0,.67,13.62V28.09a3.05,3.05,0,0,0,3,3,3,3,0,0,0,3-3V13.62a2.92,2.92,0,0,0-1.14-2.33A1.92,1.92,0,0,1,4.7,9.78Z"/></g></svg>