<svg xmlns:dc="http://purl.org/dc/elements/1.1/" xmlns:cc="http://creativecommons.org/ns#" xmlns:rdf="http://www.w3.org/1999/02/22-rdf-syntax-ns#" xmlns:svg="http://www.w3.org/2000/svg" xmlns="http://www.w3.org/2000/svg" xmlns:sodipodi="http://sodipodi.sourceforge.net/DTD/sodipodi-0.dtd" xmlns:inkscape="http://www.inkscape.org/namespaces/inkscape" viewBox="0 0 511.99998 639.999975" version="1.1" x="0px" y="0px"><g transform="translate(-91.214475,-152.15558)"><path style="color:#000000;font-style:normal;font-variant:normal;font-weight:normal;font-stretch:normal;font-size:medium;line-height:normal;font-family:sans-serif;text-indent:0;text-align:start;text-decoration:none;text-decoration-line:none;text-decoration-style:solid;text-decoration-color:#000000;letter-spacing:normal;word-spacing:normal;text-transform:none;direction:ltr;block-progression:tb;writing-mode:lr-tb;baseline-shift:baseline;text-anchor:start;white-space:normal;clip-rule:nonzero;display:inline;overflow:visible;visibility:visible;opacity:1;isolation:auto;mix-blend-mode:normal;color-interpolation:sRGB;color-interpolation-filters:linearRGB;solid-color:#000000;solid-opacity:1;fill:#000000;fill-opacity:1;fill-rule:nonzero;stroke:none;stroke-width:15;stroke-linecap:round;stroke-linejoin:round;stroke-miterlimit:4;stroke-dasharray:none;stroke-dashoffset:0;stroke-opacity:1;color-rendering:auto;image-rendering:auto;shape-rendering:auto;text-rendering:auto;enable-background:accumulate" d="m 168.61643,207.15557 c -11.46087,0 -20.9232,9.39812 -20.9232,20.78125 l 0,235.97852 c 0,3.54336 0.9183,6.89499 2.52691,9.83007 -1.37964,1.03779 -2.57352,2.20357 -3.53571,3.40039 -3.07898,3.82984 -4.75422,7.84952 -6.45001,11.25586 l -47.545218,95.50391 c -1.740467,3.49611 -1.868608,7.66422 -0.761022,10.96875 1.107585,3.30453 3.13583,5.84169 5.421547,7.85937 4.571433,4.03536 10.323913,6.42188 16.634343,6.42188 l 466.46154,0 c 6.31043,0 12.06094,-2.38651 16.63238,-6.42188 2.28571,-2.01769 4.31593,-4.55484 5.42351,-7.85937 1.10759,-3.30453 0.97748,-7.47264 -0.76299,-10.96875 l -47.54326,-95.50391 c -1.69578,-3.40634 -3.37297,-7.42602 -6.45197,-11.25586 -0.9619,-1.19646 -2.15463,-2.36283 -3.53375,-3.40039 1.60862,-2.93508 2.52692,-6.28671 2.52692,-9.83007 l 0,-235.97852 c 0,-11.38313 -9.46232,-20.78125 -20.9232,-20.78125 l -357.19682,0 z m 0,15 357.19682,0 c 3.35535,0 5.82074,2.44867 5.82074,5.78125 l 0,235.97852 c 0,3.33258 -2.46539,5.78125 -5.82074,5.78125 l -357.19682,0 c -3.35534,0 -5.82074,-2.44867 -5.82074,-5.78125 l 0,-235.97852 c 0,-3.33258 2.4654,-5.78125 5.82074,-5.78125 z m 301.82702,8.51758 a 7.5519858,7.50075 0 0 0 -5.26029,12.8789 l 42.43044,42.14258 a 7.5519858,7.50075 0 1 0 10.67791,-10.60547 l -42.43044,-42.14257 a 7.5519858,7.50075 0 0 0 -5.41762,-2.27344 z m -45.91699,1.06445 a 7.5519858,7.50075 0 0 0 -5.26029,12.87891 l 87.2757,86.68359 a 7.5519858,7.50075 0 1 0 10.67989,-10.60742 l -87.27572,-86.68164 a 7.5519858,7.50075 0 0 0 -5.41958,-2.27344 z m -83.85602,0.0391 a 7.5519858,7.50075 0 1 0 0,15 l 13.0888,0 a 7.5519858,7.50075 0 1 0 0,-15 l -13.0888,0 z M 183.9588,352.67315 a 7.5519858,7.50075 0 0 0 -5.26029,12.8789 l 87.27571,86.6836 a 7.5519858,7.50075 0 1 0 10.67791,-10.60547 l -87.27374,-86.68359 a 7.5519858,7.50075 0 0 0 -5.41959,-2.27344 z m -1.07172,45.60547 a 7.5519858,7.50075 0 0 0 -5.2603,12.8789 l 42.43045,42.14258 a 7.5519858,7.50075 0 1 0 10.67988,-10.60742 L 188.30666,400.5501 a 7.5519858,7.50075 0 0 0 -5.41958,-2.27148 z m -21.35976,86.52148 371.37307,0 c 1.73616,0 1.76213,0.11295 3.04213,1.70508 1.27999,1.59213 2.8429,4.78719 4.71362,8.54492 l 47.4056,95.22266 c -0.0751,0.15806 -0.30652,0.62487 -1.0147,1.25 -1.57079,1.38659 -4.86528,2.63281 -6.60143,2.63281 l -466.46154,0 c -1.73616,0 -5.03064,-1.24622 -6.60143,-2.63281 -0.70819,-0.62513 -0.93961,-1.09194 -1.0147,-1.25 l 47.40364,-95.22266 c 1.87071,-3.75773 3.43559,-6.95279 4.71559,-8.54492 1.27999,-1.59213 1.30399,-1.70508 3.04015,-1.70508 z m 11.62968,18.85547 a 7.5519858,7.50075 0 1 0 0,15 l 348.11567,0 a 7.5519858,7.50075 0 1 0 0,-15 l -348.11567,0 z m -15.90084,32 a 7.5519858,7.50075 0 1 0 0,15 l 379.91736,0 a 7.5519858,7.50075 0 1 0 0,-15 l -379.91736,0 z m 134.51612,28 a 7.5519858,7.50075 0 1 0 0,15 l 110.88511,0 a 7.5519858,7.50075 0 1 0 0,-15 l -110.88511,0 z"/></g><text x="0" y="526.99998" fill="#000000" font-size="5px" font-weight="bold" font-family="'Helvetica Neue', Helvetica, Arial-Unicode, Arial, Sans-serif">Created by Ali Coşkun</text><text x="0" y="531.99998" fill="#000000" font-size="5px" font-weight="bold" font-family="'Helvetica Neue', Helvetica, Arial-Unicode, Arial, Sans-serif">from the Noun Project</text></svg>