<svg xmlns="http://www.w3.org/2000/svg" xmlns:xlink="http://www.w3.org/1999/xlink" version="1.1" x="0px" y="0px" viewBox="0 0 64 80" enable-background="new 0 0 64 64" xml:space="preserve"><g><g><path d="M18,40.701h-4c-0.552,0-1-0.448-1-1v-3h-3c-0.552,0-1-0.448-1-1v-4c0-0.552,0.448-1,1-1h3v-3c0-0.552,0.448-1,1-1h4    c0.552,0,1,0.448,1,1v3h3c0.552,0,1,0.448,1,1v4c0,0.552-0.448,1-1,1h-3v3C19,40.253,18.552,40.701,18,40.701z M15,38.701h2v-3    c0-0.552,0.448-1,1-1h3v-2h-3c-0.552,0-1-0.448-1-1v-3h-2v3c0,0.552-0.448,1-1,1h-3v2h3c0.552,0,1,0.448,1,1V38.701z"/><path d="M24,49.644c-2.757,0-5-2.243-5-5s2.243-5,5-5s5,2.243,5,5S26.757,49.644,24,49.644z M24,41.644c-1.654,0-3,1.346-3,3    s1.346,3,3,3s3-1.346,3-3S25.654,41.644,24,41.644z"/><path d="M40,49.644c-2.757,0-5-2.243-5-5s2.243-5,5-5s5,2.243,5,5S42.757,49.644,40,49.644z M40,41.644c-1.654,0-3,1.346-3,3    s1.346,3,3,3s3-1.346,3-3S41.654,41.644,40,41.644z"/><rect x="28" y="42.644" width="8" height="2"/><path d="M41,24.5H23c-0.552,0-1-0.448-1-1s0.448-1,1-1h18c0.552,0,1,0.448,1,1S41.552,24.5,41,24.5z"/><path d="M16,46.757c-7.168,0-13-5.832-13-13s5.832-13,13-13s13,5.832,13,13c0,2.649-0.792,5.198-2.291,7.371l-1.646-1.136    C26.33,38.155,27,35.999,27,33.757c0-6.065-4.935-11-11-11s-11,4.935-11,11s4.935,11,11,11c1.116,0,2.217-0.167,3.271-0.495    l0.594,1.91C18.618,46.561,17.318,46.757,16,46.757z"/><path d="M48,46.757c-1.306,0-2.596-0.193-3.833-0.575l0.589-1.911c1.046,0.322,2.138,0.486,3.244,0.486c6.065,0,11-4.935,11-11    s-4.935-11-11-11s-11,4.935-11,11c0,2.205,0.649,4.332,1.878,6.149l-1.657,1.12C35.768,38.876,35,36.363,35,33.757    c0-7.168,5.832-13,13-13s13,5.832,13,13S55.168,46.757,48,46.757z"/><rect x="30" y="38.644" width="4" height="2"/><rect x="30" y="26.644" width="4" height="2"/><rect x="31" y="32.644" width="2" height="2"/><rect x="39" y="43.5" width="2" height="2"/><rect x="23" y="43.5" width="2" height="2"/><path d="M48,31.701c-1.654,0-3-1.346-3-3s1.346-3,3-3s3,1.346,3,3S49.654,31.701,48,31.701z M48,27.701c-0.551,0-1,0.449-1,1    s0.449,1,1,1s1-0.449,1-1S48.551,27.701,48,27.701z"/><path d="M48,41.701c-1.654,0-3-1.346-3-3s1.346-3,3-3s3,1.346,3,3S49.654,41.701,48,41.701z M48,37.701c-0.551,0-1,0.449-1,1    s0.449,1,1,1s1-0.449,1-1S48.551,37.701,48,37.701z"/><path d="M53,36.701c-1.654,0-3-1.346-3-3s1.346-3,3-3s3,1.346,3,3S54.654,36.701,53,36.701z M53,32.701c-0.551,0-1,0.449-1,1    s0.449,1,1,1s1-0.449,1-1S53.551,32.701,53,32.701z"/><path d="M43,36.701c-1.654,0-3-1.346-3-3s1.346-3,3-3s3,1.346,3,3S44.654,36.701,43,36.701z M43,32.701c-0.551,0-1,0.449-1,1    s0.449,1,1,1s1-0.449,1-1S43.551,32.701,43,32.701z"/><path d="M33,23.5h-2v-3c0-1.654,1.346-3,3-3h4c0.551,0,1-0.449,1-1v-1c0-0.551-0.449-1-1-1H26c-1.654,0-3-1.346-3-3v-1    c0-1.654,1.346-3,3-3h4c0.551,0,1-0.449,1-1v-4h2v4c0,1.654-1.346,3-3,3h-4c-0.551,0-1,0.449-1,1v1c0,0.551,0.449,1,1,1h12    c1.654,0,3,1.346,3,3v1c0,1.654-1.346,3-3,3h-4c-0.551,0-1,0.449-1,1V23.5z"/><path d="M11.48,62.5h-0.128c-2.317,0-4.549-0.984-6.124-2.701c-1.599-1.742-2.399-4.099-2.196-6.466l0.97-14.898l1.996,0.13    L5.026,53.484c-0.157,1.831,0.454,3.633,1.675,4.963c1.215,1.324,2.866,2.053,4.65,2.053h0.128c2.467,0,4.729-1.466,5.765-3.735    l3.96-8.68l1.819,0.83l-3.96,8.68C17.706,60.575,14.729,62.5,11.48,62.5z"/><path d="M52.648,62.5H52.52c-3.248,0-6.225-1.925-7.584-4.905l-3.96-8.68l1.819-0.83l3.96,8.68    c1.036,2.269,3.298,3.735,5.765,3.735h0.128c1.784,0,3.436-0.729,4.65-2.053c1.222-1.331,1.833-3.132,1.677-4.943l-0.974-14.939    l1.996-0.13l0.972,14.919c0.202,2.346-0.599,4.703-2.198,6.445C57.197,61.516,54.965,62.5,52.648,62.5z"/><path d="M20.02,22.696L19.18,18.5h-6.36l-0.839,4.196l-1.961-0.393l1-5C11.113,16.836,11.523,16.5,12,16.5h8    c0.477,0,0.887,0.336,0.98,0.804l1,5L20.02,22.696z"/><path d="M52.02,22.696L51.18,18.5h-6.36l-0.839,4.196l-1.961-0.393l1-5C43.113,16.836,43.523,16.5,44,16.5h8    c0.477,0,0.887,0.336,0.98,0.804l1,5L52.02,22.696z"/></g></g><text x="0" y="79" fill="#000000" font-size="5px" font-weight="bold" font-family="'Helvetica Neue', Helvetica, Arial-Unicode, Arial, Sans-serif">Created by Petai Jantrapoon</text><text x="0" y="84" fill="#000000" font-size="5px" font-weight="bold" font-family="'Helvetica Neue', Helvetica, Arial-Unicode, Arial, Sans-serif">from the Noun Project</text></svg>