<svg xmlns="http://www.w3.org/2000/svg" xmlns:xlink="http://www.w3.org/1999/xlink" version="1.1" x="0px" y="0px" viewBox="0 0 91 113.75" enable-background="new 0 0 91 91" xml:space="preserve"><g><g><g><path d="M68.48,59.191c1.111,0.516,2.344,0.811,3.646,0.811c4.807,0,8.715-3.91,8.715-8.717s-3.908-8.716-8.715-8.716     c-1.303,0-2.535,0.295-3.646,0.811c-1.111-0.516-2.344-0.811-3.648-0.811c-4.805,0-8.713,3.91-8.713,8.716     s3.908,8.717,8.713,8.717C66.137,60.002,67.369,59.707,68.48,59.191z M69.352,51.285c0,0.988-0.328,1.896-0.871,2.641     c-0.541-0.744-0.869-1.652-0.869-2.641c0-0.99,0.328-1.898,0.869-2.643C69.023,49.387,69.352,50.295,69.352,51.285z      M76.643,51.285c0,2.436-1.941,4.414-4.357,4.5c0.799-1.316,1.266-2.852,1.266-4.5s-0.467-3.186-1.266-4.502     C74.701,46.869,76.643,48.848,76.643,51.285z M60.318,51.285c0-2.438,1.943-4.416,4.357-4.502     c-0.797,1.316-1.266,2.854-1.266,4.502s0.469,3.184,1.266,4.5C62.262,55.701,60.318,53.721,60.318,51.285z"/><path d="M2.574,82.306h40.066v5.818c0,1.16,0.941,2.1,2.102,2.1c1.158,0,2.1-0.939,2.1-2.1V38.051h39.916v28.565H52.73     c-1.16,0-2.1,0.941-2.1,2.102s0.939,2.1,2.1,2.1h34.027v2.475c0,2.654-2.16,4.814-4.814,4.814H52.73c-1.16,0-2.1,0.939-2.1,2.1     s0.939,2.1,2.1,2.1h29.213c4.971,0,9.014-4.043,9.014-9.014v-37.34c0-1.16-0.939-2.1-2.1-2.1H46.842v-5.088     c0-1.16-0.941-2.1-2.1-2.1c-1.16,0-2.102,0.939-2.102,2.1v12.629c-8.756,0.531-15.725,7.798-15.725,16.683     c0,8.886,6.969,16.159,15.725,16.688v3.342H14.475c-0.354-5.52-4.463-10.025-9.801-10.979V47.695     c4.9-0.875,8.768-4.742,9.643-9.644h23.529c1.16,0,2.1-0.939,2.1-2.1s-0.939-2.1-2.1-2.1H2.574c-1.162,0-2.102,0.939-2.102,2.1     v44.254C0.473,81.366,1.412,82.306,2.574,82.306z M31.117,58.076c0-6.568,5.084-11.963,11.523-12.484v24.974     C36.201,70.044,31.117,64.646,31.117,58.076z M10.273,78.106h-5.6v-6.678C7.686,72.28,9.959,74.907,10.273,78.106z      M10.016,38.051c-0.729,2.582-2.762,4.615-5.342,5.344v-5.344H10.016z"/><path d="M10.838,55.176c-1.158,0-2.1,0.941-2.1,2.1c0,1.16,0.941,2.102,2.1,2.102h10.633c1.16,0,2.1-0.941,2.1-2.102     c0-1.158-0.939-2.1-2.1-2.1H10.838z"/><path d="M64.84,10.143c0-1.16-0.941-2.1-2.102-2.1H46.842v-5.18c0-1.16-0.941-2.1-2.1-2.1c-1.16,0-2.102,0.939-2.102,2.1v5.18     h-9.195c-1.16,0-2.1,0.939-2.1,2.1s0.939,2.1,2.1,2.1h29.293C63.898,12.243,64.84,11.303,64.84,10.143z"/><path d="M64.898,18.836c0.537,0,1.074-0.205,1.484-0.615l6.594-6.592c0.82-0.818,0.82-2.148,0-2.969l-6.592-6.596     c-0.82-0.82-2.15-0.82-2.971-0.002c-0.82,0.82-0.82,2.15,0,2.971l5.107,5.111l-5.107,5.107c-0.82,0.818-0.82,2.148,0,2.969     C63.824,18.631,64.361,18.836,64.898,18.836z"/><path d="M21.211,16.375c0.82-0.82,0.82-2.148,0-2.969s-2.15-0.82-2.971,0l-6.592,6.596c-0.82,0.82-0.82,2.148,0,2.969     l6.594,6.592c0.41,0.41,0.947,0.615,1.484,0.615s1.074-0.205,1.484-0.615c0.82-0.82,0.82-2.148,0-2.969l-5.107-5.109     L21.211,16.375z"/><path d="M49.834,23.584c1.158,0,2.1-0.939,2.1-2.1s-0.941-2.1-2.1-2.1h-2.992v-2.381c0-1.16-0.941-2.1-2.1-2.1     c-1.16,0-2.102,0.939-2.102,2.1v2.381h-20.51c-1.16,0-2.1,0.939-2.1,2.1s0.939,2.1,2.1,2.1H49.834z"/></g></g></g><text x="0" y="106" fill="#000000" font-size="5px" font-weight="bold" font-family="'Helvetica Neue', Helvetica, Arial-Unicode, Arial, Sans-serif">Created by BomSymbols</text><text x="0" y="111" fill="#000000" font-size="5px" font-weight="bold" font-family="'Helvetica Neue', Helvetica, Arial-Unicode, Arial, Sans-serif">from the Noun Project</text></svg>