<svg xmlns:dc="http://purl.org/dc/elements/1.1/" xmlns:cc="http://creativecommons.org/ns#" xmlns:rdf="http://www.w3.org/1999/02/22-rdf-syntax-ns#" xmlns:svg="http://www.w3.org/2000/svg" xmlns="http://www.w3.org/2000/svg" xmlns:sodipodi="http://sodipodi.sourceforge.net/DTD/sodipodi-0.dtd" xmlns:inkscape="http://www.inkscape.org/namespaces/inkscape" viewBox="0 0 511.99998 639.999975" version="1.1" x="0px" y="0px"><g transform="translate(-91.214475,-152.15558)"><path style="color:#000000;font-style:normal;font-variant:normal;font-weight:normal;font-stretch:normal;font-size:medium;line-height:normal;font-family:sans-serif;text-indent:0;text-align:start;text-decoration:none;text-decoration-line:none;text-decoration-style:solid;text-decoration-color:#000000;letter-spacing:normal;word-spacing:normal;text-transform:none;direction:ltr;block-progression:tb;writing-mode:lr-tb;baseline-shift:baseline;text-anchor:start;white-space:normal;clip-rule:nonzero;display:inline;overflow:visible;visibility:visible;opacity:1;isolation:auto;mix-blend-mode:normal;color-interpolation:sRGB;color-interpolation-filters:linearRGB;solid-color:#000000;solid-opacity:1;fill:#000000;fill-opacity:1;fill-rule:nonzero;stroke:none;stroke-width:14.99748039;stroke-linecap:round;stroke-linejoin:round;stroke-miterlimit:4;stroke-dasharray:none;stroke-dashoffset:0;stroke-opacity:1;color-rendering:auto;image-rendering:auto;shape-rendering:auto;text-rendering:auto;enable-background:accumulate" d="M 98.386719 0 A 7.50075 7.50075 0 0 0 93.416016 12.980469 L 243.63086 157.41406 L 41.457031 157.41406 C 18.619311 157.41406 9.4739031e-015 176.03533 0 198.87305 L 0 470.54102 C 0 493.37873 18.619311 512 41.457031 512 L 470.54297 512 C 493.38069 512 512 493.37873 512 470.54102 L 512 198.87305 C 512 176.03533 493.38069 157.41406 470.54297 157.41406 L 269.36914 157.41406 L 419.58398 12.980469 A 7.50075 7.50075 0 0 0 414.38672 0 A 7.50075 7.50075 0 0 0 409.1875 2.1679688 L 256.5 148.97852 L 103.8125 2.1679688 A 7.50075 7.50075 0 0 0 98.386719 0 z M 41.457031 172.41211 L 470.54297 172.41211 C 485.3315 172.41211 497.00195 184.08452 497.00195 198.87305 L 497.00195 470.54102 C 497.00195 485.32954 485.3315 497.00195 470.54297 497.00195 L 41.457031 497.00195 C 26.668501 497.00195 14.998047 485.32954 14.998047 470.54102 L 14.998047 198.87305 C 14.998047 184.08452 26.668501 172.41211 41.457031 172.41211 z M 143.56445 217.66016 C 95.241533 217.66016 56.105469 256.79817 56.105469 305.12109 L 56.105469 369.12109 C 56.105469 417.44401 95.241533 456.58008 143.56445 456.58008 L 368.43555 456.58008 C 416.75847 456.58008 455.89453 417.44401 455.89453 369.12109 L 455.89453 305.12109 C 455.89453 256.79817 416.75847 217.66016 368.43555 217.66016 L 143.56445 217.66016 z M 143.56445 232.66016 L 368.43555 232.66016 C 408.70793 232.66016 440.89453 264.84872 440.89453 305.12109 L 440.89453 369.12109 C 440.89453 409.39347 408.70793 441.58008 368.43555 441.58008 L 143.56445 441.58008 C 103.29207 441.58008 71.105469 409.39347 71.105469 369.12109 L 71.105469 305.12109 C 71.105469 264.84872 103.29207 232.66016 143.56445 232.66016 z " transform="translate(91.214475,152.15558)"/></g><text x="0" y="526.99998" fill="#000000" font-size="5px" font-weight="bold" font-family="'Helvetica Neue', Helvetica, Arial-Unicode, Arial, Sans-serif">Created by Ali Coşkun</text><text x="0" y="531.99998" fill="#000000" font-size="5px" font-weight="bold" font-family="'Helvetica Neue', Helvetica, Arial-Unicode, Arial, Sans-serif">from the Noun Project</text></svg>