<svg xmlns:dc="http://purl.org/dc/elements/1.1/" xmlns:cc="http://creativecommons.org/ns#" xmlns:rdf="http://www.w3.org/1999/02/22-rdf-syntax-ns#" xmlns:svg="http://www.w3.org/2000/svg" xmlns="http://www.w3.org/2000/svg" xmlns:sodipodi="http://sodipodi.sourceforge.net/DTD/sodipodi-0.dtd" xmlns:inkscape="http://www.inkscape.org/namespaces/inkscape" viewBox="0 0 511.99998 639.999975" version="1.1" x="0px" y="0px"><g transform="translate(-91.214475,-152.15558)"><path style="color:#000000;font-style:normal;font-variant:normal;font-weight:normal;font-stretch:normal;font-size:medium;line-height:normal;font-family:sans-serif;text-indent:0;text-align:start;text-decoration:none;text-decoration-line:none;text-decoration-style:solid;text-decoration-color:#000000;letter-spacing:normal;word-spacing:normal;text-transform:none;direction:ltr;block-progression:tb;writing-mode:lr-tb;baseline-shift:baseline;text-anchor:start;white-space:normal;clip-rule:nonzero;display:inline;overflow:visible;visibility:visible;opacity:1;isolation:auto;mix-blend-mode:normal;color-interpolation:sRGB;color-interpolation-filters:linearRGB;solid-color:#000000;solid-opacity:1;fill:#000000;fill-opacity:1;fill-rule:nonzero;stroke:none;stroke-width:15.04595184;stroke-linecap:round;stroke-linejoin:round;stroke-miterlimit:4;stroke-dasharray:none;stroke-dashoffset:0;stroke-opacity:1;color-rendering:auto;image-rendering:auto;shape-rendering:auto;text-rendering:auto;enable-background:accumulate" d="m 163.34533,152.15557 c -13.47818,0 -24.56446,11.08432 -24.56446,24.5625 l 0,462.87305 c 0,13.47818 11.08628,24.56445 24.56446,24.56445 l 367.73828,0 c 13.47819,0 24.56445,-11.08627 24.56445,-24.56445 l 0,-462.87305 c 0,-13.47818 -11.08626,-24.5625 -24.56445,-24.5625 l -367.73828,0 z m 0,15.04492 367.73828,0 c 5.40298,0 9.51758,4.1146 9.51758,9.51758 l 0,462.87305 c 0,5.40297 -4.1146,9.51757 -9.51758,9.51757 l -367.73828,0 c -5.40297,0 -9.51953,-4.1146 -9.51953,-9.51757 l 0,-462.87305 c 0,-5.40298 4.11656,-9.51758 9.51953,-9.51758 z m 312.91602,13.22852 a 7.5,7.5 0 0 0 -7.5,7.5 7.5,7.5 0 0 0 7.5,7.5 7.5,7.5 0 0 0 7.5,-7.5 7.5,7.5 0 0 0 -7.5,-7.5 z m -163.04688,0.22656 a 7.50075,7.50075 0 1 0 0,15 l 68,0 a 7.50075,7.50075 0 1 0 0,-15 l -68,0 z M 191.7008,206.02666 c -10.94498,0 -19.99024,9.04525 -19.99024,19.99024 l 0,339.27344 c 0,10.94498 9.04526,19.99023 19.99024,19.99023 l 311.02539,0 c 10.94499,0 19.99023,-9.04525 19.99023,-19.99023 l 0,-339.27344 c 0,-10.94499 -9.04524,-19.99024 -19.99023,-19.99024 l -311.02539,0 z m 0,15 311.02539,0 c 2.89445,0 4.99023,2.09579 4.99023,4.99024 l 0,339.27344 c 0,2.89444 -2.09578,4.99023 -4.99023,4.99023 l -311.02539,0 c -2.89444,0 -4.99024,-2.09579 -4.99024,-4.99023 l 0,-339.27344 c 0,-2.89445 2.0958,-4.99024 4.99024,-4.99024 z m 63.3125,13.29493 a 7.50075,7.50075 0 0 0 -5.15625,2.26953 l -48.08399,48.08398 a 7.50075,7.50075 0 1 0 10.60743,10.60742 l 48.08398,-48.08398 a 7.50075,7.50075 0 0 0 -5.45117,-12.87695 z m 44.25,6.30859 a 7.50075,7.50075 0 0 0 -5.15625,2.26953 l -85.67188,85.67188 a 7.50075,7.50075 0 1 0 10.60547,10.60742 l 85.67383,-85.67383 a 7.50075,7.50075 0 0 0 -5.45117,-12.875 z m 47.95117,351.32812 c -13.99442,0 -25.5,11.50558 -25.5,25.5 0,13.99443 11.50558,25.5 25.5,25.5 13.99443,0 25.5,-11.50557 25.5,-25.5 0,-13.99442 -11.50557,-25.5 -25.5,-25.5 z m 0,15 c 5.88783,0 10.5,4.61218 10.5,10.5 0,5.88783 -4.61217,10.5 -10.5,10.5 -5.88782,0 -10.5,-4.61217 -10.5,-10.5 0,-5.88782 4.61218,-10.5 10.5,-10.5 z"/></g><text x="0" y="526.99998" fill="#000000" font-size="5px" font-weight="bold" font-family="'Helvetica Neue', Helvetica, Arial-Unicode, Arial, Sans-serif">Created by Ali Coşkun</text><text x="0" y="531.99998" fill="#000000" font-size="5px" font-weight="bold" font-family="'Helvetica Neue', Helvetica, Arial-Unicode, Arial, Sans-serif">from the Noun Project</text></svg>