<svg xmlns:dc="http://purl.org/dc/elements/1.1/" xmlns:cc="http://creativecommons.org/ns#" xmlns:rdf="http://www.w3.org/1999/02/22-rdf-syntax-ns#" xmlns:svg="http://www.w3.org/2000/svg" xmlns="http://www.w3.org/2000/svg" xmlns:sodipodi="http://sodipodi.sourceforge.net/DTD/sodipodi-0.dtd" xmlns:inkscape="http://www.inkscape.org/namespaces/inkscape" viewBox="0 0 511.99998 639.999975" version="1.1" x="0px" y="0px"><g transform="translate(-91.214475,-152.15558)"><path style="color:#000000;font-style:normal;font-variant:normal;font-weight:normal;font-stretch:normal;font-size:medium;line-height:normal;font-family:sans-serif;text-indent:0;text-align:start;text-decoration:none;text-decoration-line:none;text-decoration-style:solid;text-decoration-color:#000000;letter-spacing:normal;word-spacing:normal;text-transform:none;direction:ltr;block-progression:tb;writing-mode:lr-tb;baseline-shift:baseline;text-anchor:start;white-space:normal;clip-rule:nonzero;display:inline;overflow:visible;visibility:visible;opacity:1;isolation:auto;mix-blend-mode:normal;color-interpolation:sRGB;color-interpolation-filters:linearRGB;solid-color:#000000;solid-opacity:1;fill:#000000;fill-opacity:1;fill-rule:nonzero;stroke:none;stroke-width:14.98537731;stroke-linecap:round;stroke-linejoin:round;stroke-miterlimit:4;stroke-dasharray:none;stroke-dashoffset:0;stroke-opacity:1;color-rendering:auto;image-rendering:auto;shape-rendering:auto;text-rendering:auto;enable-background:accumulate" d="m 227.90099,152.15557 c -13.46307,0 -24.53516,11.07208 -24.53516,24.53515 l 0,462.92969 c 0,13.46308 11.07209,24.53516 24.53516,24.53516 l 238.62695,0 c 13.46307,0 24.53516,-11.07208 24.53516,-24.53516 l 0,-462.92969 c 0,-13.46307 -11.07209,-24.53515 -24.53516,-24.53515 l -238.62695,0 z m 0,14.98632 238.62695,0 c 5.42038,0 9.55078,4.12845 9.55078,9.54883 l 0,34.38867 -257.72656,0 0,-34.38867 c 0,-5.42038 4.12845,-9.54883 9.54883,-9.54883 z m 208.76367,13.28907 a 7.5,7.5 0 0 0 -7.5,7.5 7.5,7.5 0 0 0 7.5,7.5 7.5,7.5 0 0 0 7.5,-7.5 7.5,7.5 0 0 0 -7.5,-7.5 z m -123.44922,0.22461 a 7.50075,7.50075 0 1 0 0,15 l 68,0 a 7.50075,7.50075 0 1 0 0,-15 l -68,0 z m -94.86328,45.42382 257.72656,0 0,344.54883 -257.72656,0 0,-344.54883 z m 63.66211,8.24414 a 7.50075,7.50075 0 0 0 -5.15625,2.26954 l -48.08398,48.08398 a 7.50075,7.50075 0 1 0 10.60742,10.60547 l 48.08203,-48.08399 a 7.50075,7.50075 0 0 0 -5.44922,-12.875 z m 44.25,6.30665 a 7.50075,7.50075 0 0 0 -5.15625,2.26953 l -85.67383,85.67382 a 7.50075,7.50075 0 1 0 10.60742,10.60743 l 85.67383,-85.67383 a 7.50075,7.50075 0 0 0 -5.45117,-12.87695 z m -107.91211,344.99804 257.72656,0 0,53.99219 c 0,5.42038 -4.1304,9.55078 -9.55078,9.55078 l -238.62695,0 c -5.42038,0 -9.54883,-4.1304 -9.54883,-9.55078 l 0,-53.99219 z m 128.86328,6.33203 c -13.99443,0 -25.5,11.50558 -25.5,25.5 0,13.99443 11.50557,25.5 25.5,25.5 13.99442,0 25.5,-11.50557 25.5,-25.5 0,-13.99442 -11.50558,-25.5 -25.5,-25.5 z m 0,15 c 5.88782,0 10.5,4.61218 10.5,10.5 0,5.88783 -4.61218,10.5 -10.5,10.5 -5.88783,0 -10.5,-4.61217 -10.5,-10.5 0,-5.88782 4.61217,-10.5 10.5,-10.5 z"/></g><text x="0" y="526.99998" fill="#000000" font-size="5px" font-weight="bold" font-family="'Helvetica Neue', Helvetica, Arial-Unicode, Arial, Sans-serif">Created by Ali Coşkun</text><text x="0" y="531.99998" fill="#000000" font-size="5px" font-weight="bold" font-family="'Helvetica Neue', Helvetica, Arial-Unicode, Arial, Sans-serif">from the Noun Project</text></svg>