<svg xmlns="http://www.w3.org/2000/svg" xmlns:xlink="http://www.w3.org/1999/xlink" version="1.1" x="0px" y="0px" viewBox="0 0 91 113.75" enable-background="new 0 0 91 91" xml:space="preserve"><g><g><g><path d="M88.572,34.365H31.92c-1.16,0-2.102,0.941-2.102,2.1v37.314c0,1.16,0.941,2.102,2.102,2.102h43.088v9.113l-8.389-5.443     c-0.805-0.521-1.861-0.432-2.566,0.217l-6.855,6.316l-7.896-6.4c-0.744-0.605-1.805-0.627-2.574-0.057l-8.76,6.51l-6.908-6.369     c-0.727-0.666-1.818-0.74-2.627-0.176l-7.486,5.236V8.434c0-0.014,0.004-0.025,0.004-0.039c0-0.027-0.004-0.053-0.004-0.08V7.785     c0-0.197-0.037-0.383-0.086-0.563C20.717,6.201,20.4,5.24,19.934,4.377h51.375c2.039,0,3.699,1.803,3.699,4.018v20.359     c0,1.162,0.939,2.102,2.1,2.102s2.1-0.939,2.1-2.102V8.395c0-4.531-3.543-8.219-7.898-8.219h-58.26c-0.002,0-0.004,0-0.004,0     C8.691,0.182,5.148,3.865,5.148,8.395l0.004,50.459c0.025,0.566-0.092,2.898-1.109,3.963c-0.246,0.258-0.635,0.553-1.457,0.553     H2.512c-1.158,0-2.102,0.939-2.102,2.1s0.943,2.1,2.102,2.1h14.232v21.291c0,0.781,0.436,1.5,1.129,1.861     c0.697,0.363,1.533,0.309,2.174-0.141l9.406-6.578l6.947,6.4c0.4,0.369,0.91,0.557,1.424,0.557c0.436,0,0.877-0.137,1.252-0.416     l8.848-6.572l8.039,6.52c0.811,0.658,1.979,0.617,2.744-0.088l6.992-6.441l10.266,6.66c0.645,0.418,1.469,0.451,2.145,0.084     s1.098-1.076,1.098-1.846V75.881h3.666c4.301,0,7.799-3.498,7.799-7.801V36.465C90.672,35.307,89.732,34.365,88.572,34.365z      M8.551,63.369c0.865-2.145,0.813-4.342,0.799-4.607V8.395c0-2.215,1.662-4.018,3.703-4.018c2.023,0,3.67,1.781,3.691,3.977     v55.016H8.551z M86.471,38.566v23.645H34.02V38.566H86.471z M82.873,71.68H34.02v-5.27h52.451v1.67     C86.471,70.066,84.857,71.68,82.873,71.68z"/><path d="M69.869,56.393c1.07,0,2.086-0.225,3.008-0.627c0.922,0.402,1.938,0.627,3.006,0.627c4.166,0,7.553-3.389,7.553-7.555     s-3.387-7.555-7.553-7.555c-1.068,0-2.084,0.225-3.006,0.627c-0.922-0.402-1.938-0.627-3.008-0.627     c-4.162,0-7.549,3.389-7.549,7.555S65.707,56.393,69.869,56.393z M73.227,48.838c0,0.525-0.131,1.016-0.348,1.459     c-0.217-0.443-0.35-0.934-0.35-1.459s0.133-1.016,0.35-1.459C73.096,47.822,73.227,48.313,73.227,48.838z M79.236,48.838     c0,1.572-1.09,2.887-2.553,3.248c0.471-0.986,0.744-2.084,0.744-3.248s-0.273-2.262-0.744-3.248     C78.146,45.951,79.236,47.266,79.236,48.838z M69.074,45.59c-0.473,0.984-0.744,2.084-0.744,3.248s0.271,2.264,0.744,3.25     c-1.463-0.361-2.555-1.676-2.555-3.25S67.611,45.949,69.074,45.59z"/><path d="M47.973,50.938h1.502c1.162,0,2.102-0.939,2.102-2.1s-0.939-2.1-2.102-2.1h-1.502c-1.158,0-2.1,0.939-2.1,2.1     S46.814,50.938,47.973,50.938z"/><path d="M55.488,50.938h1.502c1.16,0,2.102-0.939,2.102-2.1s-0.941-2.1-2.102-2.1h-1.502c-1.16,0-2.1,0.939-2.1,2.1     S54.328,50.938,55.488,50.938z"/><path d="M40.459,50.938h1.502c1.162,0,2.1-0.939,2.1-2.1s-0.938-2.1-2.1-2.1h-1.502c-1.158,0-2.1,0.939-2.1,2.1     S39.301,50.938,40.459,50.938z"/><path d="M39.486,15.156c0,1.16,0.939,2.102,2.1,2.102s2.1-0.941,2.1-2.102c0-3.014-2.609-5.496-5.932-5.764V9.326     c0-1.16-0.939-2.1-2.1-2.1s-2.1,0.939-2.1,2.1v0.041c-3.572,0.023-6.471,2.611-6.471,5.789v0.199     c0,1.293,0.629,3.164,3.625,4.736c0.107,0.057,0.227,0.084,0.342,0.121c0.002,0.002,0.004,0.002,0.006,0.002     c0.07,0.021,0.133,0.059,0.205,0.072l0.082,0.018c0.039,0.01,0.074,0.027,0.115,0.035l2.096,0.428v3.699     c-1.342-0.018-2.277-0.85-2.277-1.602c0-1.158-0.939-2.1-2.1-2.1s-2.1,0.941-2.1,2.1c0,3.188,2.902,5.781,6.477,5.805v0.209     c0,1.158,0.939,2.1,2.1,2.1s2.1-0.941,2.1-2.1v-0.234c3.318-0.268,5.928-2.756,5.928-5.779V22.67     c0-1.301-0.645-3.188-3.699-4.789c-0.049-0.025-0.104-0.033-0.154-0.057c-0.098-0.045-0.199-0.078-0.305-0.107     c-0.033-0.008-0.063-0.027-0.098-0.035l-0.039-0.008c-0.008-0.002-0.014-0.004-0.021-0.006l-1.611-0.332v-3.709     C38.797,13.826,39.486,14.52,39.486,15.156z M39.48,22.865c0,0.715-0.758,1.348-1.727,1.541v-2.779l0.523,0.105     c0.865,0.494,1.17,0.893,1.203,0.938V22.865z M32.412,16.236c-0.955-0.541-1.129-0.904-1.127-0.885v-0.195     c0-0.744,0.93-1.568,2.27-1.586v2.902L32.412,16.236z"/><path d="M49.105,14.574h10.182c1.16,0,2.1-0.939,2.1-2.1s-0.939-2.1-2.1-2.1H49.105c-1.158,0-2.1,0.939-2.1,2.1     S47.947,14.574,49.105,14.574z"/><path d="M65.711,14.574c1.158,0,2.1-0.939,2.1-2.1s-0.941-2.1-2.1-2.1h-0.455c-1.162,0-2.102,0.939-2.102,2.1     s0.939,2.1,2.102,2.1H65.711z"/><path d="M49.105,21.484h3.074c1.16,0,2.1-0.939,2.1-2.102c0-1.158-0.939-2.1-2.1-2.1h-3.074c-1.158,0-2.1,0.941-2.1,2.1     C47.006,20.545,47.947,21.484,49.105,21.484z"/><path d="M70.535,19.383c0-1.158-0.941-2.1-2.102-2.1h-9.381c-1.16,0-2.1,0.941-2.1,2.1c0,1.162,0.939,2.102,2.1,2.102h9.381     C69.594,21.484,70.535,20.545,70.535,19.383z"/><path d="M49.383,28.996H60.32c1.162,0,2.1-0.939,2.1-2.1s-0.938-2.102-2.1-2.102H49.383c-1.158,0-2.1,0.941-2.1,2.102     S48.225,28.996,49.383,28.996z"/><path d="M66.322,24.795c-1.16,0-2.102,0.941-2.102,2.102s0.941,2.1,2.102,2.1h1.127c1.16,0,2.102-0.939,2.102-2.1     s-0.941-2.102-2.102-2.102H66.322z"/></g></g></g><text x="0" y="106" fill="#000000" font-size="5px" font-weight="bold" font-family="'Helvetica Neue', Helvetica, Arial-Unicode, Arial, Sans-serif">Created by BomSymbols</text><text x="0" y="111" fill="#000000" font-size="5px" font-weight="bold" font-family="'Helvetica Neue', Helvetica, Arial-Unicode, Arial, Sans-serif">from the Noun Project</text></svg>