<svg id="圖層_1" data-name="圖層 1" xmlns="http://www.w3.org/2000/svg" viewBox="0 0 383.25 709.51"><defs><style>.cls-1{fill:#f97919;}.cls-2{fill:#10665a;}.cls-3,.cls-6{fill:#08a39f;}.cls-3{opacity:0.3;}.cls-4{fill:none;stroke:#08a39f;stroke-miterlimit:10;stroke-width:3px;}.cls-5{fill:#fff;}.cls-7{fill:#ffc636;}</style></defs><title>180208_carousel</title><path class="cls-1" d="M124.88,97.7h-10V94h14.76v2.67c-5.16,6.3-5.85,10.83-6.21,19.53H119C119.36,108.5,120.65,103.58,124.88,97.7Z"/><path class="cls-1" d="M133,106h8.19v3.15H133Z"/><path class="cls-1" d="M145.58,112.64h4.77v-14h-4V95.87A14.4,14.4,0,0,0,151.49,94h3.27v18.63h4.17v3.57H145.58Z"/><path class="cls-1" d="M163.73,112.64h4.77v-14h-4V95.87A14.4,14.4,0,0,0,169.64,94h3.27v18.63h4.17v3.57H163.73Z"/><path class="cls-1" d="M207.8,96.68H199l2.82.57c-.6,1.08-1.26,2.13-1.86,3.06h6.45v15.18c0,1.59-.39,2.28-1.5,2.7a15.88,15.88,0,0,1-5.1.45,9.45,9.45,0,0,0-1-2.61c1.44.06,3.15.06,3.6,0s.66-.15.66-.6V103.19h-4.65V104c0,.57.06.84.57.84h1.47a8.15,8.15,0,0,0,1.74-.18,21.07,21.07,0,0,0,.21,2.37,6.85,6.85,0,0,1-1.89.21h-2.4c-2.43,0-2.85-1.14-2.85-3.27v-.75h-2.13a5.27,5.27,0,0,1-3.9,4.62h10.86v7.32h-8.67v1.23h-3v-8.28l-1.14.27a6.61,6.61,0,0,0-1.41-2.22v12.6h-3.42V100.31h6.18a29.39,29.39,0,0,0-1.38-3l2-.63h-8.19v-3H193a21.11,21.11,0,0,0-.69-2.24l3.45-.88c.36,1,.78,2.13,1,3.12h11ZM186,105.92c2.79-.48,3.75-1.29,4.11-2.73H186Zm10.68-5.61a22.06,22.06,0,0,0,1.56-3.63h-7.56c.54,1,1.17,2.16,1.5,2.94l-1.92.69Zm-5.16,10v2.4h5.82v-2.4Z"/><path class="cls-1" d="M212.06,105.32h11.43v13.35h-3.57v-1.35h-4.47v1.5h-3.39Zm3.39,3.42v5.16h4.47v-5.16Zm18.33-5.91H216.2V92h17.58Zm-3.63-7.44h-10.5v4h10.5Zm7.68,9.93V118.7h-3.6v-1.38h-4.77v1.5H226v-13.5Zm-3.6,8.58v-5.16h-4.77v5.16Z"/><path class="cls-1" d="M256.64,104.9v4.23l1.26-1.89c3,1.14,7.62,2.94,10,4.08l-2,3.21c-2-1.11-6.18-2.94-9.24-4.23v8.49h-3.81V104.9h-11v-3.54h10.83V90.77h3.78v3.57h9.72v3.42h-9.72v3.6H269v3.54Z"/><path class="cls-2" d="M161.51,141v2.7H168v7c0,.86-.2,1.3-.84,1.56a12.51,12.51,0,0,1-3.5.26,5.67,5.67,0,0,0-.52-1.48c1.36,0,2.56,0,2.9,0s.46-.12.46-.4v-5.52h-5v9.7H160v-9.7h-4.68v7.42h-1.48v-8.88H160V141h-8.1v-1.46h8.52a24.86,24.86,0,0,0-1.32-2.63l1.42-.44a17.17,17.17,0,0,1,1.56,3l-.26.1h7.94V141Z"/><path class="cls-2" d="M177.23,137.1a34.61,34.61,0,0,1-1.56,3.91v13.86h-1.42v-11.2a20.37,20.37,0,0,1-1.88,2.68,10.75,10.75,0,0,0-.78-1.5,24,24,0,0,0,4.26-8.13Zm5.28,15.73a15.64,15.64,0,0,1-4.94,2.06,7.68,7.68,0,0,0-.84-1,16.48,16.48,0,0,0,4.7-1.8Zm-1.24-14.06h-3.9v-1.15h12.72v1.15h-4.16V140h3.54v3.86H177.83V140h3.44Zm-3,13.18v-7.18h11V152Zm.88-9.1h2.14v-1.92h-2.14Zm.5,4h8.18v-1.12h-8.18Zm0,2.06h8.18v-1.14h-8.18Zm0,2.1h8.18v-1.18h-8.18Zm5.06-12.24h-2.2V140h2.2Zm-2.2,4.08h2.2v-1.92h-2.2Zm3.16,9.26a43.06,43.06,0,0,1,4.8,1.94l-1.26.88a28.36,28.36,0,0,0-4.5-2Zm.28-11.18v1.92h2.2v-1.92Z"/><path class="cls-2" d="M199.05,141.87a2.73,2.73,0,0,0-2.26-1.34,1.78,1.78,0,0,0-1.88,1.92c0,2.9,5.4,2.82,5.4,7.18a3.54,3.54,0,0,1-3,3.74v2.46H196v-2.42a5.9,5.9,0,0,1-3.38-1.66l.84-1.24a4.27,4.27,0,0,0,3,1.38,1.88,1.88,0,0,0,2.12-2.06c0-3.36-5.38-3.22-5.38-7.22a3.38,3.38,0,0,1,2.82-3.55v-2.44h1.32V139a4.43,4.43,0,0,1,2.76,1.73Z"/><path class="cls-2" d="M203.09,151.83h3.1V141.29h-2.48v-1.18a7.29,7.29,0,0,0,2.92-1.05H208v12.77h2.82v1.52h-7.74Z"/><path class="cls-2" d="M213.17,146.13c0-5,1.6-7.3,3.94-7.3s3.94,2.34,3.94,7.3-1.6,7.46-3.94,7.46S213.17,151.11,213.17,146.13Zm6.12,0c0-4.32-.92-5.82-2.18-5.82s-2.18,1.5-2.18,5.82.92,6,2.18,6S219.29,150.43,219.29,146.13Z"/><path class="cls-2" d="M223.49,146.13c0-5,1.6-7.3,3.94-7.3s3.94,2.34,3.94,7.3-1.6,7.46-3.94,7.46S223.49,151.11,223.49,146.13Zm6.12,0c0-4.32-.92-5.82-2.18-5.82s-2.18,1.5-2.18,5.82.92,6,2.18,6S229.61,150.43,229.61,146.13Z"/><path class="cls-3" d="M191.48,350c9.21-1.65,15.62-5.78,22.17-12.42,3.86-3.92,9.46-7.32,15.21-7.32a19.63,19.63,0,0,1,16.43,9.07V259.64a8.66,8.66,0,0,0-8.66-8.66H147.14a8.67,8.67,0,0,0-8.67,8.66v87.92c16-5.61,9.05-27.11,26.55-27.11,9.43,0,14.25,8.48,17,15.18,2.27,5.44,4.69,10.87,9.42,14.36"/><rect class="cls-4" x="138.47" y="250.98" width="106.82" height="169.29" rx="8.66" ry="8.66"/><path class="cls-5" d="M195.11,267.1h-.06l-2.13,1.5a1.59,1.59,0,0,1-1,.29,1.29,1.29,0,0,1-.94-.41,1.41,1.41,0,0,1-.4-1,1.76,1.76,0,0,1,.86-1.4l3.09-2.18a4.76,4.76,0,0,1,1-.56,2.79,2.79,0,0,1,1-.18,1.62,1.62,0,0,1,1.26.51,2,2,0,0,1,.47,1.36V281.1a1.67,1.67,0,0,1-.44,1.23,1.72,1.72,0,0,1-2.3,0,1.67,1.67,0,0,1-.44-1.23Z"/><path class="cls-5" d="M206.44,279.17c-.06-.19-.11-.42-.17-.67a7.09,7.09,0,0,1-.13-1.05c0-.45,0-1-.07-1.73s0-1.63,0-2.74,0-2,0-2.74,0-1.29.07-1.74a6.44,6.44,0,0,1,.13-1c.06-.25.11-.48.17-.68a5.22,5.22,0,0,1,1.94-2.8,6.87,6.87,0,0,1,7.07,0,5.34,5.34,0,0,1,2,2.8l.17.68a7.85,7.85,0,0,1,.13,1c0,.45.05,1,.07,1.74s0,1.62,0,2.74,0,2,0,2.74-.05,1.28-.07,1.73a8.76,8.76,0,0,1-.13,1.05c-.06.25-.12.48-.17.67a5.35,5.35,0,0,1-2,2.79,6.87,6.87,0,0,1-7.07,0A5.24,5.24,0,0,1,206.44,279.17Zm3.12-.6a2.24,2.24,0,0,0,2.36,1.53,2.28,2.28,0,0,0,2.38-1.53,2.37,2.37,0,0,0,.13-.51c0-.19,0-.48.07-.88s0-.93.05-1.59,0-1.54,0-2.61,0-2,0-2.62,0-1.19-.05-1.59,0-.69-.07-.88a2.37,2.37,0,0,0-.13-.51,2.28,2.28,0,0,0-2.38-1.53,2.24,2.24,0,0,0-2.36,1.53,3.15,3.15,0,0,0-.13.51c0,.19-.05.49-.07.88s0,.93,0,1.59,0,1.54,0,2.62,0,1.95,0,2.61,0,1.19,0,1.59,0,.69.07.88A3.15,3.15,0,0,0,209.56,278.57Z"/><path class="cls-5" d="M222.48,279.17c-.06-.19-.11-.42-.17-.67a7.09,7.09,0,0,1-.13-1.05c0-.45-.05-1-.07-1.73s0-1.63,0-2.74,0-2,0-2.74,0-1.29.07-1.74a6.44,6.44,0,0,1,.13-1c.06-.25.11-.48.17-.68a5.19,5.19,0,0,1,2-2.8,6.85,6.85,0,0,1,7.06,0,5.34,5.34,0,0,1,2,2.8c.05.2.11.43.17.68a7.85,7.85,0,0,1,.13,1c0,.45,0,1,.07,1.74s0,1.62,0,2.74,0,2,0,2.74-.05,1.28-.07,1.73a8.76,8.76,0,0,1-.13,1.05c-.06.25-.12.48-.17.67a5.35,5.35,0,0,1-2,2.79,6.85,6.85,0,0,1-7.06,0A5.2,5.2,0,0,1,222.48,279.17Zm3.12-.6A2.24,2.24,0,0,0,228,280.1a2.28,2.28,0,0,0,2.38-1.53,2.37,2.37,0,0,0,.13-.51c0-.19.05-.48.07-.88s0-.93.05-1.59,0-1.54,0-2.61,0-2,0-2.62,0-1.19-.05-1.59,0-.69-.07-.88a2.37,2.37,0,0,0-.13-.51,2.28,2.28,0,0,0-2.38-1.53,2.24,2.24,0,0,0-2.36,1.53,2.39,2.39,0,0,0-.12.51c0,.19-.06.49-.08.88s0,.93,0,1.59,0,1.54,0,2.62,0,1.95,0,2.61,0,1.19,0,1.59a8.71,8.71,0,0,0,.08.88A2.39,2.39,0,0,0,225.6,278.57Z"/><rect class="cls-6" x="149.35" y="263.9" width="25.1" height="25.1"/><path class="cls-4" d="M138.47,347.56c16-5.61,9.05-27.11,26.55-27.11,9.43,0,14.25,8.48,17,15.18s5.81,13.37,13.09,16.45c6.8,2.88,17.45,5.14,28.44,6.1"/><path class="cls-4" d="M191.48,350c9.21-1.65,15.62-5.78,22.17-12.42,3.86-3.92,9.46-7.32,15.21-7.32a19.63,19.63,0,0,1,16.43,9.07"/><path class="cls-4" d="M138.8,379.19c18.63-2.37,25.74,28.46,25.74,41.08"/><path class="cls-4" d="M245.29,376.4c-9.93,0-22.81,10.42-29.12,23.27-5.06,10.31-19.78,19-25.78,20.6"/><path class="cls-4" d="M161.9,385.48c8.51,6.18,26.2,10.36,37.93,8.53"/><circle class="cls-7" cx="191.07" cy="574.51" r="52.98"/><path class="cls-5" d="M152.63,583h4.83V567.64h-4v-2.19a13.56,13.56,0,0,0,4.8-1.68h2.61V583h4.32v2.85h-12.6Z"/><path class="cls-5" d="M169,574.72c0-7.65,2.79-11.37,7.14-11.37s7.14,3.75,7.14,11.37-2.82,11.52-7.14,11.52S169,582.4,169,574.72Zm11,0c0-6.33-1.59-8.64-3.84-8.64s-3.84,2.31-3.84,8.64,1.59,8.79,3.84,8.79S180,581.11,180,574.72Z"/><path class="cls-5" d="M186.62,574.72c0-7.65,2.79-11.37,7.14-11.37s7.14,3.75,7.14,11.37-2.82,11.52-7.14,11.52S186.62,582.4,186.62,574.72Zm11,0c0-6.33-1.59-8.64-3.84-8.64s-3.84,2.31-3.84,8.64,1.59,8.79,3.84,8.79S197.6,581.11,197.6,574.72Z"/><path class="cls-5" d="M228.29,588.19h-2.88v-1.44H213.05v1.44h-2.79v-9.57c-1.56.51-3.15,1-4.71,1.35a11.39,11.39,0,0,0-1.44-2.58A41.6,41.6,0,0,0,215,573.58a54.12,54.12,0,0,0-5.25-4.41,33.48,33.48,0,0,1-3.09,1.8,9.06,9.06,0,0,0-1.92-2.22,23,23,0,0,0,10-8.19l3.18.66c-.57.81-1.17,1.62-1.83,2.4h9.75l.45-.15,1.92,1.14a26.41,26.41,0,0,1-10.77,10.77h10.89Zm-14.7-22c-.54.48-1.08.93-1.62,1.38a57.37,57.37,0,0,1,5.61,4.5,23.18,23.18,0,0,0,6.39-5.88Zm11.82,18v-6.3H213.05v6.3Z"/></svg>