<svg id="圖層_1" data-name="圖層 1" xmlns="http://www.w3.org/2000/svg" viewBox="0 0 383.25 709.51"><defs><style>.cls-1{fill:#f97919;}.cls-2,.cls-8{fill:#10665a;}.cls-3{fill:#ffc636;}.cls-4,.cls-9{fill:#fff;}.cls-5,.cls-6{fill:none;}.cls-5,.cls-8,.cls-9{stroke:#08a39f;}.cls-5,.cls-6,.cls-7,.cls-8{stroke-miterlimit:10;}.cls-5{stroke-width:6px;}.cls-6,.cls-7{stroke:#10665a;}.cls-6,.cls-7,.cls-8,.cls-9{stroke-width:3px;}.cls-7{fill:#08a39f;}.cls-9{stroke-linejoin:round;}</style></defs><title>180208_carousel</title><path class="cls-1" d="M44.48,113.39,47,110.33a8.73,8.73,0,0,0,5.64,2.46c2.31,0,3.54-1,3.54-2.55s-1.35-2.16-3.33-3l-3-1.26c-2.25-.93-4.5-2.73-4.5-6,0-3.63,3.18-6.42,7.68-6.42a9.85,9.85,0,0,1,7,2.85L57.8,99.23a7.08,7.08,0,0,0-4.71-1.83c-2,0-3.21.87-3.21,2.34s1.59,2.16,3.48,2.91l2.91,1.23c2.7,1.11,4.47,2.82,4.47,6,0,3.63-3,6.72-8.16,6.72A11.83,11.83,0,0,1,44.48,113.39Z"/><path class="cls-1" d="M64.49,110.33v-7.44H62.12V99.62l2.58-.21.51-4.5H68.9v4.5H73v3.48H68.9v7.44c0,1.92.78,2.82,2.28,2.82a4.91,4.91,0,0,0,1.65-.36l.72,3.21a10.86,10.86,0,0,1-3.54.63C66,116.63,64.49,114.11,64.49,110.33Z"/><path class="cls-1" d="M75.41,111.65c0-3.6,2.91-5.49,9.66-6.21-.06-1.65-.78-2.91-2.85-2.91a9.49,9.49,0,0,0-4.62,1.59L76,101.21A13.42,13.42,0,0,1,83,99c4.26,0,6.45,2.55,6.45,7.41v9.81h-3.6l-.33-1.8h-.09a7.9,7.9,0,0,1-5.07,2.22A4.77,4.77,0,0,1,75.41,111.65Zm9.66-.12v-3.39c-4.08.54-5.46,1.65-5.46,3.15,0,1.32.93,1.89,2.22,1.89A4.45,4.45,0,0,0,85.07,111.53Z"/><path class="cls-1" d="M93.62,122.63l.81-3.39a4.52,4.52,0,0,0,1.17.21,3.22,3.22,0,0,0,3.15-2.55l.3-1-6.54-16.5H97l2.67,7.8c.51,1.5.93,3.12,1.41,4.74h.15c.39-1.56.81-3.18,1.2-4.74l2.31-7.8h4.23l-6,17.31c-1.47,4-3.27,6.24-7,6.24A7.11,7.11,0,0,1,93.62,122.63Z"/><path class="cls-1" d="M124.61,116.21l-4.56-8.4H117v8.4h-4.44V94h7.74c4.65,0,8.34,1.62,8.34,6.72a6.36,6.36,0,0,1-4.24,6.39l5.2,9.09ZM117,104.3h2.88c2.85,0,4.4-1.2,4.4-3.57s-1.55-3.21-4.4-3.21H117Z"/><path class="cls-1" d="M131.69,107.84c0-5.46,3.81-8.85,7.83-8.85,4.62,0,7,3.39,7,8a7.73,7.73,0,0,1-.21,2H136a4.41,4.41,0,0,0,4.65,4.2,6.92,6.92,0,0,0,3.78-1.17l1.5,2.7a10.6,10.6,0,0,1-5.88,1.86C135.35,116.63,131.69,113.36,131.69,107.84Zm11.07-1.71c0-2.28-1-3.72-3.18-3.72-1.77,0-3.33,1.26-3.66,3.72Z"/><path class="cls-1" d="M149.39,111.65c0-3.6,2.9-5.49,9.65-6.21,0-1.65-.78-2.91-2.84-2.91a9.49,9.49,0,0,0-4.63,1.59L150,101.21A13.36,13.36,0,0,1,157,99c4.26,0,6.45,2.55,6.45,7.41v9.81h-3.59l-.33-1.8h-.1a7.9,7.9,0,0,1-5.07,2.22A4.76,4.76,0,0,1,149.39,111.65Zm9.65-.12v-3.39c-4.08.54-5.46,1.65-5.46,3.15,0,1.32.94,1.89,2.22,1.89A4.44,4.44,0,0,0,159,111.53Z"/><path class="cls-1" d="M168.44,111.5V92.27h4.38v19.44c0,1,.47,1.32.89,1.32a2.56,2.56,0,0,0,.61-.06l.54,3.27a6.1,6.1,0,0,1-2.29.39C169.52,116.63,168.44,114.62,168.44,111.5Z"/><path class="cls-1" d="M177.67,100.07c1.92-.21,4.44-.57,7.17-1v-3.3h-6.45V93.05h6.45V90.8h3.6v7.8l1.59-.21.12,2.61c-4.2.72-8.67,1.44-12,2Zm23.13,15.15c0,1.74-.42,2.58-1.68,3.06s-3,.51-5.4.51a12.54,12.54,0,0,0-1.11-3.12c1.44.09,3.39.09,3.81.09s.72-.15.72-.57v-2c-4.11.84-8.43,1.62-11.73,2.19l-1-3.06c2.28-.27,5.37-.78,8.64-1.35a43.59,43.59,0,0,0-8-2.34l1.35-2.4a39.28,39.28,0,0,1,8.85,2.46l-1.11,2.1,3-.54V106H184.75v1.68c0,3.57-.66,8.43-4.14,11.43a14.7,14.7,0,0,0-2.67-2.43c3-2.61,3.33-6.24,3.33-9.06V103.1H200.8Zm-.54-16c.87,0,1.08-.36,1.2-2.28a10.73,10.73,0,0,0,3.15,1.2c-.39,3.15-1.32,4.08-4,4.08h-4.2c-3.54,0-4.44-1-4.44-4.08V90.8h3.63v2.25h6.93v2.76h-6.93v2.31c0,.93.21,1.08,1.32,1.08Z"/><path class="cls-1" d="M228.85,114.89c2.46,0,2.91-.51,3.24-3.36a10.88,10.88,0,0,0,3.42,1.23c-.6,4.23-1.8,5.46-6.42,5.46h-9.78c-5.52,0-7.14-1.08-7.14-5.28V101.66c-.66.63-1.32,1.26-1.95,1.8a27.91,27.91,0,0,0-2.91-2.7,24.55,24.55,0,0,0,7.83-10.14l3.69,1.11a30.92,30.92,0,0,1-1.53,3h15.84s0,1-.06,1.5c-.27,9.42-.54,12.93-1.38,14.1a2.92,2.92,0,0,1-2.19,1.35,17.08,17.08,0,0,1-3.45.12,8,8,0,0,0-.93-3.39,19,19,0,0,0,2.43.09.94.94,0,0,0,.93-.42c.48-.63.72-3.18.93-10H215.14c-.57.78-1.14,1.5-1.71,2.19h11.46v9.6h-9.18v3c0,1.74.48,2,3.6,2Zm-13.14-11.52v3.3h5.7v-3.3Z"/><path class="cls-1" d="M244.81,92.06h2.94l-7.44,29.61h-2.94Z"/><path class="cls-1" d="M261,106.73c-1.17.33-2.34.66-3.54,1v7.11c0,1.74-.3,2.61-1.32,3.12s-2.43.66-4.56.66a10.9,10.9,0,0,0-1-3.24c1.2,0,2.43,0,2.82,0s.57-.15.57-.57v-6.21l-3.09.78-.93-3.39c1.14-.24,2.52-.54,4-.9V99.8h-3.69V96.5h3.69V90.83h3.48V96.5h3.36v3.3h-3.36v4.44c1-.27,2.07-.54,3.12-.78Zm12.78,8.34c.84,0,1-.9,1.11-4.68a10,10,0,0,0,3.24,1.5c-.36,4.86-1.23,6.57-4,6.57h-3.3c-3.09,0-3.93-1.17-3.93-5v-7.11l-5.16.81-.57-3.39,5.73-.84V96.26c-1.56.27-3.15.51-4.68.69A12.23,12.23,0,0,0,261.07,94a54.68,54.68,0,0,0,12.18-3l3,2.7a46.57,46.57,0,0,1-5.85,1.74v6.9l7.05-1,.57,3.3-7.62,1.2v7.62c0,1.38.12,1.59,1,1.59Z"/><path class="cls-1" d="M291.91,108.62l-2.88.75v9.45h-3.39v-8.61l-4,1-.87-3.63c1.32-.24,3-.6,4.83-1V100H283.9a25.18,25.18,0,0,1-1.08,4c-.6-.27-1.86-.75-2.52-1a38,38,0,0,0,1.8-10l2.7.42c-.09,1-.21,2.07-.36,3.12h1.2V90.83H289v5.82h2.58V100H289v5.85l2.49-.57Zm16.38-.06h-2.88v6.27c0,1.77-.33,2.7-1.53,3.27a12.61,12.61,0,0,1-5,.63,15.49,15.49,0,0,0-1.08-3.54c1.41.06,3,.06,3.51.06s.57-.12.57-.51v-6.18h-9.54v-3.27h9.54v-2.1h3.54v2.1h2.88Zm-10.2-11.85h-5.64V93.47h5.64V90.8h3.54v2.67h6v3.24h-6v2.55h5v3.3H293.56v-3.3h4.53Zm-1.74,11.94a27.16,27.16,0,0,1,3.6,4.5L297.13,115a26.32,26.32,0,0,0-3.42-4.71Z"/><path class="cls-1" d="M332.41,114.89c2.46,0,2.91-.51,3.24-3.36a10.88,10.88,0,0,0,3.42,1.23c-.6,4.23-1.8,5.46-6.42,5.46h-9.78c-5.52,0-7.14-1.08-7.14-5.28V101.66c-.66.63-1.32,1.26-2,1.8a27.91,27.91,0,0,0-2.91-2.7,24.55,24.55,0,0,0,7.83-10.14l3.69,1.11a30.92,30.92,0,0,1-1.53,3H336.7s0,1-.06,1.5c-.27,9.42-.54,12.93-1.38,14.1a2.92,2.92,0,0,1-2.19,1.35,17.08,17.08,0,0,1-3.45.12,8,8,0,0,0-.93-3.39,19,19,0,0,0,2.43.09.94.94,0,0,0,.93-.42c.48-.63.72-3.18.93-10H318.7c-.57.78-1.14,1.5-1.71,2.19h11.46v9.6h-9.18v3c0,1.74.48,2,3.6,2Zm-13.14-11.52v3.3H325v-3.3Z"/><path class="cls-2" d="M125.13,141v2.7h6.48v7c0,.86-.2,1.3-.84,1.56a12.51,12.51,0,0,1-3.5.26,5.67,5.67,0,0,0-.52-1.48c1.36,0,2.56,0,2.9,0s.46-.12.46-.4v-5.52h-5v9.7h-1.5v-9.7H119v7.42h-1.48v-8.88h6.16V141h-8.1v-1.46h8.52a24.86,24.86,0,0,0-1.32-2.63l1.42-.44a17.17,17.17,0,0,1,1.56,3l-.26.1h7.94V141Z"/><path class="cls-2" d="M140.85,137.1a34.61,34.61,0,0,1-1.56,3.91v13.86h-1.42v-11.2a20.37,20.37,0,0,1-1.88,2.68,10.75,10.75,0,0,0-.78-1.5,24,24,0,0,0,4.26-8.13Zm5.28,15.73a15.64,15.64,0,0,1-4.94,2.06,7.68,7.68,0,0,0-.84-1,16.48,16.48,0,0,0,4.7-1.8Zm-1.24-14.06H141v-1.15h12.72v1.15h-4.16V140h3.54v3.86H141.45V140h3.44Zm-3,13.18v-7.18h11V152Zm.88-9.1h2.14v-1.92h-2.14Zm.5,4h8.18v-1.12h-8.18Zm0,2.06h8.18v-1.14h-8.18Zm0,2.1h8.18v-1.18h-8.18Zm5.06-12.24h-2.2V140h2.2Zm-2.2,4.08h2.2v-1.92h-2.2Zm3.16,9.26a43.06,43.06,0,0,1,4.8,1.94l-1.26.88a28.36,28.36,0,0,0-4.5-2Zm.28-11.18v1.92h2.2v-1.92Z"/><path class="cls-2" d="M162.67,141.87a2.73,2.73,0,0,0-2.26-1.34,1.78,1.78,0,0,0-1.88,1.92c0,2.9,5.4,2.82,5.4,7.18a3.54,3.54,0,0,1-3,3.74v2.46h-1.32v-2.42a5.9,5.9,0,0,1-3.38-1.66l.84-1.24a4.27,4.27,0,0,0,3,1.38,1.88,1.88,0,0,0,2.12-2.06c0-3.36-5.38-3.22-5.38-7.22a3.38,3.38,0,0,1,2.82-3.55v-2.44h1.32V139a4.43,4.43,0,0,1,2.76,1.73Z"/><path class="cls-2" d="M166.71,151.83h3.1V141.29h-2.48v-1.18a7.29,7.29,0,0,0,2.92-1.05h1.38v12.77h2.82v1.52h-7.74Z"/><path class="cls-2" d="M185,149.39h-1.58v4h-1.72v-4h-5.36v-1.22l4.82-9.11h2.26v8.87H185Zm-3.3-1.46v-4.6c0-.78,0-1.64.08-2.6h-.08c-.3.78-.68,1.64-1,2.34l-2.62,4.86Z"/><path class="cls-2" d="M187,149.77a4.47,4.47,0,0,1,2.24-3.92v-.08a4.57,4.57,0,0,1-1.72-3.42,3.54,3.54,0,1,1,7.08.08,5.23,5.23,0,0,1-1.7,3.64v.08a4.31,4.31,0,0,1,2.14,3.76c0,2.08-1.4,3.68-4,3.68A3.77,3.77,0,0,1,187,149.77Zm6.24.22c0-1.82-1.28-2.58-2.94-3.46a3.89,3.89,0,0,0-1.6,3.18,2.36,2.36,0,0,0,2.4,2.54A2,2,0,0,0,193.25,150Zm-.26-7.48a2.06,2.06,0,0,0-1.92-2.32,1.9,1.9,0,0,0-1.84,2.14c0,1.52,1.14,2.48,2.52,3.16A4.37,4.37,0,0,0,193,142.51Z"/><path class="cls-2" d="M197.43,146.13c0-5,1.6-7.3,3.94-7.3s3.94,2.34,3.94,7.3-1.6,7.46-3.94,7.46S197.43,151.11,197.43,146.13Zm6.12,0c0-4.32-.92-5.82-2.18-5.82s-2.18,1.5-2.18,5.82.92,6,2.18,6S203.55,150.43,203.55,146.13Z"/><path class="cls-2" d="M208.83,147h5.72v1.46h-5.72Z"/><path class="cls-2" d="M224.59,141.87a2.73,2.73,0,0,0-2.26-1.34,1.78,1.78,0,0,0-1.88,1.92c0,2.9,5.4,2.82,5.4,7.18a3.54,3.54,0,0,1-3,3.74v2.46h-1.32v-2.42a5.9,5.9,0,0,1-3.38-1.66l.84-1.24a4.27,4.27,0,0,0,3,1.38,1.88,1.88,0,0,0,2.12-2.06c0-3.36-5.38-3.22-5.38-7.22a3.38,3.38,0,0,1,2.82-3.55v-2.44h1.32V139a4.43,4.43,0,0,1,2.76,1.73Z"/><path class="cls-2" d="M228.27,152.29c3.62-4.18,5.64-6.78,5.64-9.28,0-1.56-.66-2.7-2.12-2.7a3.34,3.34,0,0,0-2.52,1.6l-1.1-1a4.85,4.85,0,0,1,3.84-2.08c2.3,0,3.72,1.64,3.72,4.14,0,2.68-2.06,5.38-5,9,.78,0,1.5-.1,2.24-.1h3.36v1.54h-8.1Z"/><path class="cls-2" d="M238.59,152.29c3.62-4.18,5.64-6.78,5.64-9.28,0-1.56-.66-2.7-2.12-2.7a3.34,3.34,0,0,0-2.52,1.6l-1.1-1a4.85,4.85,0,0,1,3.84-2.08c2.3,0,3.72,1.64,3.72,4.14,0,2.68-2.06,5.38-5,9,.78,0,1.5-.1,2.24-.1h3.36v1.54h-8.1Z"/><path class="cls-2" d="M248.93,149.77a4.47,4.47,0,0,1,2.24-3.92v-.08a4.57,4.57,0,0,1-1.72-3.42,3.54,3.54,0,1,1,7.08.08,5.23,5.23,0,0,1-1.7,3.64v.08a4.31,4.31,0,0,1,2.14,3.76c0,2.08-1.4,3.68-4,3.68A3.77,3.77,0,0,1,248.93,149.77Zm6.24.22c0-1.82-1.28-2.58-2.94-3.46a3.89,3.89,0,0,0-1.6,3.18,2.36,2.36,0,0,0,2.4,2.54A2,2,0,0,0,255.17,150Zm-.26-7.48a2.06,2.06,0,0,0-1.92-2.32,1.9,1.9,0,0,0-1.84,2.14c0,1.52,1.14,2.48,2.52,3.16A4.37,4.37,0,0,0,254.91,142.51Z"/><path class="cls-2" d="M259.35,146.13c0-5,1.6-7.3,3.94-7.3s3.94,2.34,3.94,7.3-1.6,7.46-3.94,7.46S259.35,151.11,259.35,146.13Zm6.12,0c0-4.32-.92-5.82-2.18-5.82s-2.18,1.5-2.18,5.82.92,6,2.18,6S265.47,150.43,265.47,146.13Z"/><circle class="cls-3" cx="190.01" cy="574.51" r="52.98"/><path class="cls-4" d="M159.16,582.81h5.15V566.43h-4.22v-2.34a14.42,14.42,0,0,0,5.12-1.79H168v20.51h4.61v3H159.16Z"/><path class="cls-4" d="M176,583.13l1.75-2.4a7.57,7.57,0,0,0,5.51,2.53c2.65,0,4.67-1.89,4.67-5s-1.79-4.93-4.48-4.93a6.26,6.26,0,0,0-3.78,1.34l-1.79-1.18.71-11.17h11.93v3.1h-8.73l-.55,6.05a6.65,6.65,0,0,1,3.23-.83c3.94,0,7.17,2.34,7.17,7.49a7.77,7.77,0,0,1-7.93,8.16A10.41,10.41,0,0,1,176,583.13Z"/><path class="cls-4" d="M221.11,588.35H218v-1.54H204.86v1.54h-3V578.14c-1.66.54-3.36,1-5,1.44a12.31,12.31,0,0,0-1.54-2.75,44.37,44.37,0,0,0,11.62-4.07,57.71,57.71,0,0,0-5.6-4.7A38.18,38.18,0,0,1,198,570a9.7,9.7,0,0,0-2-2.37,24.49,24.49,0,0,0,10.63-8.73l3.39.7c-.61.86-1.25,1.73-1.95,2.56h10.39l.49-.16,2,1.22a28.14,28.14,0,0,1-11.48,11.48h11.61Zm-15.68-23.49c-.57.51-1.15,1-1.73,1.47a61.55,61.55,0,0,1,6,4.8,24.61,24.61,0,0,0,6.81-6.27ZM218,584.09v-6.72H204.86v6.72Z"/><line class="cls-5" x1="167" y1="349.04" x2="324.63" y2="349.04"/><line class="cls-5" x1="168.68" y1="365.54" x2="322.95" y2="365.54"/><line class="cls-5" x1="170.27" y1="382.04" x2="321.36" y2="382.04"/><line class="cls-5" x1="171.86" y1="398.54" x2="319.77" y2="398.54"/><path class="cls-6" d="M299.22,441.62H192.41a18,18,0,0,1-18-16.31L165.34,331h161l-9.1,94.36A18,18,0,0,1,299.22,441.62Z"/><path class="cls-2" d="M173.55,416l.9,9.31a18,18,0,0,0,18,16.31H299.22a18,18,0,0,0,18-16.31l.9-9.31Z"/><path class="cls-6" d="M173.55,416l.9,9.31a18,18,0,0,0,18,16.31H299.22a18,18,0,0,0,18-16.31l.9-9.31Z"/><path class="cls-7" d="M245.82,266.48h0a20.84,20.84,0,0,1,20.83,20.84V416h7.47V287.32A28.3,28.3,0,0,0,245.82,259h0a28.3,28.3,0,0,0-28.31,28.31V416H225V287.32A20.84,20.84,0,0,1,245.82,266.48Z"/><path class="cls-8" d="M149.32,248.45v-3a13.69,13.69,0,0,0-13.69-13.69h0a13.69,13.69,0,0,0-13.69,13.69V248h5.34v-2.55a8.35,8.35,0,0,1,16.7,0v3Z"/><path class="cls-8" d="M134.63,246.66h0a60.56,60.56,0,0,0-60.44,56.73l-7.13,112.4a24.77,24.77,0,0,0,24.71,26.33h86a24.75,24.75,0,0,0,24.7-26.38l-7.36-112.47A60.56,60.56,0,0,0,134.63,246.66Z"/><path class="cls-8" d="M129.75,265.75h0A59.4,59.4,0,0,0,70.47,321.4l-5.93,93.46a25.64,25.64,0,0,0,25.59,27.26h79.25A25.64,25.64,0,0,0,195,414.86L189,321.4A59.41,59.41,0,0,0,129.75,265.75Z"/><rect class="cls-8" x="61.25" y="351.68" width="119.2" height="90.44" rx="17.63" ry="17.63"/><line class="cls-8" x1="61.25" y1="377.32" x2="180.45" y2="377.32"/><rect class="cls-9" x="109.75" y="302.93" width="24.38" height="24.38" transform="translate(258.54 6.07) rotate(45)"/><polygon class="cls-4" points="98.61 417.19 95.09 428.5 88.26 418.83 76.43 418.98 83.5 409.5 79.7 398.29 90.91 402.09 100.4 395.01 100.24 406.85 109.91 413.68 98.61 417.19"/><polygon class="cls-4" points="163.29 337.27 161.08 344.39 156.78 338.3 149.32 338.39 153.78 332.42 151.39 325.36 158.45 327.75 164.42 323.29 164.33 330.75 170.41 335.05 163.29 337.27"/><polygon class="cls-4" points="93.48 298.07 92.07 302.62 89.32 298.73 84.56 298.79 87.41 294.98 85.88 290.47 90.39 292 94.2 289.16 94.14 293.91 98.03 296.66 93.48 298.07"/><polygon class="cls-4" points="175.91 312.68 174.5 317.22 171.75 313.33 166.99 313.4 169.84 309.58 168.31 305.08 172.81 306.6 176.63 303.76 176.57 308.52 180.45 311.26 175.91 312.68"/><polygon class="cls-4" points="165.45 400.32 163.24 407.44 158.93 401.36 151.47 401.45 155.94 395.48 153.54 388.42 160.6 390.81 166.58 386.35 166.48 393.81 172.57 398.11 165.45 400.32"/></svg>