<svg id="圖層_1" data-name="圖層 1" xmlns="http://www.w3.org/2000/svg" xmlns:xlink="http://www.w3.org/1999/xlink" viewBox="0 0 383.25 709.51"><defs><style>.cls-1,.cls-12,.cls-8{fill:none;}.cls-2{font-size:30px;fill:#f97919;font-family:NotoSansHant-Bold-B5pc-H, Noto Sans T Chinese;font-weight:700;}.cls-2,.cls-3{letter-spacing:0.02em;}.cls-3{font-size:20px;fill:#10665a;font-family:NotoSansMonoCJKtc-Regular-B5pc-H, Noto Sans Mono CJK TC;}.cls-10,.cls-4{fill:#ffc636;}.cls-5{font-size:32px;font-family:NotoSansHant-Medium-B5pc-H, Noto Sans T Chinese;letter-spacing:0.02em;}.cls-11,.cls-5,.cls-6,.cls-9{fill:#fff;}.cls-11,.cls-12,.cls-6{stroke:#08a39f;}.cls-11,.cls-12,.cls-6,.cls-9{stroke-miterlimit:10;}.cls-12,.cls-6,.cls-9{stroke-width:3px;}.cls-7{clip-path:url(#clip-path);}.cls-8,.cls-9{stroke:#ffc636;}.cls-8{stroke-linecap:round;stroke-linejoin:round;}.cls-10{font-size:40.49px;font-family:DINNextRoundedLTW01-Medium, DINNextRoundedLTW01-Medium;letter-spacing:0.02em;}.cls-11{stroke-width:5px;}</style><clipPath id="clip-path"><rect class="cls-1" x="73.69" y="279.64" width="234.47" height="123.91"/></clipPath></defs><title>180208_carousel</title><text class="cls-2" transform="translate(70.41 116.21)">中保生活館抵用券</text><text class="cls-3" transform="translate(145.87 153.35)">市價$1000</text><circle class="cls-4" cx="192.09" cy="574.51" r="52.98"/><text class="cls-5" transform="translate(156.67 585.85)">20名</text><rect class="cls-6" x="86.02" y="291.96" width="234.47" height="123.91"/><rect class="cls-6" x="79.86" y="285.8" width="234.47" height="123.91"/><rect class="cls-6" x="73.69" y="279.64" width="234.47" height="123.91"/><g class="cls-7"><polygon class="cls-8" points="72.28 304.37 72.28 287.88 58 279.64 43.73 287.88 43.73 304.37 58 312.61 72.28 304.37"/><line class="cls-8" x1="43.73" y1="287.88" x2="58" y2="296.12"/><line class="cls-8" x1="72.28" y1="287.88" x2="58" y2="296.12"/><line class="cls-8" x1="58" y1="296.12" x2="58" y2="312.61"/><polygon class="cls-8" points="100.83 304.37 100.83 287.88 86.56 279.64 72.28 287.88 72.28 304.37 86.56 312.61 100.83 304.37"/><line class="cls-8" x1="72.28" y1="287.88" x2="86.55" y2="296.12"/><line class="cls-8" x1="100.83" y1="287.88" x2="86.55" y2="296.12"/><line class="cls-8" x1="86.55" y1="296.12" x2="86.55" y2="312.61"/><polygon class="cls-8" points="129.38 304.37 129.38 287.88 115.11 279.64 100.83 287.88 100.83 304.37 115.11 312.61 129.38 304.37"/><line class="cls-8" x1="100.83" y1="287.88" x2="115.11" y2="296.12"/><line class="cls-8" x1="129.38" y1="287.88" x2="115.11" y2="296.12"/><line class="cls-8" x1="115.11" y1="296.12" x2="115.11" y2="312.61"/><polygon class="cls-8" points="157.93 304.37 157.93 287.88 143.66 279.64 129.38 287.88 129.38 304.37 143.66 312.61 157.93 304.37"/><line class="cls-8" x1="129.38" y1="287.88" x2="143.66" y2="296.12"/><line class="cls-8" x1="157.93" y1="287.88" x2="143.66" y2="296.12"/><line class="cls-8" x1="143.66" y1="296.12" x2="143.66" y2="312.61"/><polygon class="cls-8" points="186.49 304.37 186.49 287.88 172.21 279.64 157.93 287.88 157.93 304.37 172.21 312.61 186.49 304.37"/><line class="cls-8" x1="157.93" y1="287.88" x2="172.21" y2="296.12"/><line class="cls-8" x1="186.48" y1="287.88" x2="172.21" y2="296.12"/><line class="cls-8" x1="172.21" y1="296.12" x2="172.21" y2="312.61"/><polygon class="cls-8" points="215.04 304.37 215.04 287.88 200.76 279.64 186.49 287.88 186.49 304.37 200.76 312.61 215.04 304.37"/><line class="cls-8" x1="186.48" y1="287.88" x2="200.76" y2="296.12"/><line class="cls-8" x1="215.04" y1="287.88" x2="200.76" y2="296.12"/><line class="cls-8" x1="200.76" y1="296.12" x2="200.76" y2="312.61"/><polygon class="cls-8" points="243.59 304.37 243.59 287.88 229.31 279.64 215.04 287.88 215.04 304.37 229.31 312.61 243.59 304.37"/><line class="cls-8" x1="215.04" y1="287.88" x2="229.31" y2="296.12"/><line class="cls-8" x1="243.59" y1="287.88" x2="229.31" y2="296.12"/><line class="cls-8" x1="229.31" y1="296.12" x2="229.31" y2="312.61"/><polygon class="cls-8" points="272.14 304.37 272.14 287.88 257.86 279.64 243.59 287.88 243.59 304.37 257.86 312.61 272.14 304.37"/><line class="cls-8" x1="243.59" y1="287.88" x2="257.86" y2="296.12"/><line class="cls-8" x1="272.14" y1="287.88" x2="257.86" y2="296.12"/><line class="cls-8" x1="257.86" y1="296.12" x2="257.86" y2="312.61"/><polygon class="cls-8" points="300.69 304.37 300.69 287.88 286.42 279.64 272.14 287.88 272.14 304.37 286.42 312.61 300.69 304.37"/><line class="cls-8" x1="272.14" y1="287.88" x2="286.42" y2="296.12"/><line class="cls-8" x1="300.69" y1="287.88" x2="286.42" y2="296.12"/><line class="cls-8" x1="286.42" y1="296.12" x2="286.42" y2="312.61"/><polygon class="cls-8" points="329.24 304.37 329.24 287.88 314.97 279.64 300.69 287.88 300.69 304.37 314.97 312.61 329.24 304.37"/><line class="cls-8" x1="300.69" y1="287.88" x2="314.97" y2="296.12"/><line class="cls-8" x1="329.24" y1="287.88" x2="314.97" y2="296.12"/><line class="cls-8" x1="314.97" y1="296.12" x2="314.97" y2="312.61"/><polygon class="cls-8" points="357.79 304.37 357.79 287.88 343.52 279.64 329.24 287.88 329.24 304.37 343.52 312.61 357.79 304.37"/><line class="cls-8" x1="329.24" y1="287.88" x2="343.52" y2="296.12"/><line class="cls-8" x1="357.79" y1="287.88" x2="343.52" y2="296.12"/><line class="cls-8" x1="343.52" y1="296.12" x2="343.52" y2="312.61"/><polygon class="cls-8" points="72.28 353.82 72.28 337.33 58 329.09 43.73 337.33 43.73 353.82 58 362.06 72.28 353.82"/><line class="cls-8" x1="43.73" y1="337.33" x2="58" y2="345.58"/><line class="cls-8" x1="72.28" y1="337.33" x2="58" y2="345.58"/><line class="cls-8" x1="58" y1="345.58" x2="58" y2="362.06"/><polygon class="cls-8" points="100.83 353.82 100.83 337.33 86.56 329.09 72.28 337.33 72.28 353.82 86.56 362.06 100.83 353.82"/><line class="cls-8" x1="72.28" y1="337.33" x2="86.55" y2="345.58"/><line class="cls-8" x1="100.83" y1="337.33" x2="86.55" y2="345.58"/><line class="cls-8" x1="86.55" y1="345.58" x2="86.55" y2="362.06"/><polygon class="cls-8" points="129.38 353.82 129.38 337.33 115.11 329.09 100.83 337.33 100.83 353.82 115.11 362.06 129.38 353.82"/><line class="cls-8" x1="100.83" y1="337.33" x2="115.11" y2="345.58"/><line class="cls-8" x1="129.38" y1="337.33" x2="115.11" y2="345.58"/><line class="cls-8" x1="115.11" y1="345.58" x2="115.11" y2="362.06"/><polygon class="cls-8" points="157.93 353.82 157.93 337.33 143.66 329.09 129.38 337.33 129.38 353.82 143.66 362.06 157.93 353.82"/><line class="cls-8" x1="129.38" y1="337.33" x2="143.66" y2="345.58"/><line class="cls-8" x1="157.93" y1="337.33" x2="143.66" y2="345.58"/><line class="cls-8" x1="143.66" y1="345.58" x2="143.66" y2="362.06"/><polygon class="cls-8" points="186.49 353.82 186.49 337.33 172.21 329.09 157.93 337.33 157.93 353.82 172.21 362.06 186.49 353.82"/><line class="cls-8" x1="157.93" y1="337.33" x2="172.21" y2="345.58"/><line class="cls-8" x1="186.48" y1="337.33" x2="172.21" y2="345.58"/><line class="cls-8" x1="172.21" y1="345.58" x2="172.21" y2="362.06"/><polygon class="cls-8" points="215.04 353.82 215.04 337.33 200.76 329.09 186.49 337.33 186.49 353.82 200.76 362.06 215.04 353.82"/><line class="cls-8" x1="186.48" y1="337.33" x2="200.76" y2="345.58"/><line class="cls-8" x1="215.04" y1="337.33" x2="200.76" y2="345.58"/><line class="cls-8" x1="200.76" y1="345.58" x2="200.76" y2="362.06"/><polygon class="cls-8" points="243.59 353.82 243.59 337.33 229.31 329.09 215.04 337.33 215.04 353.82 229.31 362.06 243.59 353.82"/><line class="cls-8" x1="215.04" y1="337.33" x2="229.31" y2="345.58"/><line class="cls-8" x1="243.59" y1="337.33" x2="229.31" y2="345.58"/><line class="cls-8" x1="229.31" y1="345.58" x2="229.31" y2="362.06"/><polygon class="cls-8" points="272.14 353.82 272.14 337.33 257.86 329.09 243.59 337.33 243.59 353.82 257.86 362.06 272.14 353.82"/><line class="cls-8" x1="243.59" y1="337.33" x2="257.86" y2="345.58"/><line class="cls-8" x1="272.14" y1="337.33" x2="257.86" y2="345.58"/><line class="cls-8" x1="257.86" y1="345.58" x2="257.86" y2="362.06"/><polygon class="cls-8" points="300.69 353.82 300.69 337.33 286.42 329.09 272.14 337.33 272.14 353.82 286.42 362.06 300.69 353.82"/><line class="cls-8" x1="272.14" y1="337.33" x2="286.42" y2="345.58"/><line class="cls-8" x1="300.69" y1="337.33" x2="286.42" y2="345.58"/><line class="cls-8" x1="286.42" y1="345.58" x2="286.42" y2="362.06"/><polygon class="cls-8" points="329.24 353.82 329.24 337.33 314.97 329.09 300.69 337.33 300.69 353.82 314.97 362.06 329.24 353.82"/><line class="cls-8" x1="300.69" y1="337.33" x2="314.97" y2="345.58"/><line class="cls-8" x1="329.24" y1="337.33" x2="314.97" y2="345.58"/><line class="cls-8" x1="314.97" y1="345.58" x2="314.97" y2="362.06"/><polygon class="cls-8" points="357.79 353.82 357.79 337.33 343.52 329.09 329.24 337.33 329.24 353.82 343.52 362.06 357.79 353.82"/><line class="cls-8" x1="329.24" y1="337.33" x2="343.52" y2="345.58"/><line class="cls-8" x1="357.79" y1="337.33" x2="343.52" y2="345.58"/><line class="cls-8" x1="343.52" y1="345.58" x2="343.52" y2="362.06"/><polygon class="cls-8" points="58 329.09 58 312.61 43.73 304.37 29.45 312.61 29.45 329.09 43.73 337.33 58 329.09"/><line class="cls-8" x1="29.45" y1="312.61" x2="43.73" y2="320.85"/><line class="cls-8" x1="58" y1="312.61" x2="43.73" y2="320.85"/><line class="cls-8" x1="43.73" y1="320.85" x2="43.73" y2="337.33"/><polygon class="cls-8" points="86.56 329.09 86.56 312.61 72.28 304.37 58 312.61 58 329.09 72.28 337.33 86.56 329.09"/><line class="cls-8" x1="58" y1="312.61" x2="72.28" y2="320.85"/><line class="cls-8" x1="86.55" y1="312.61" x2="72.28" y2="320.85"/><line class="cls-8" x1="72.28" y1="320.85" x2="72.28" y2="337.33"/><polygon class="cls-8" points="115.11 329.09 115.11 312.61 100.83 304.37 86.56 312.61 86.56 329.09 100.83 337.33 115.11 329.09"/><line class="cls-8" x1="86.55" y1="312.61" x2="100.83" y2="320.85"/><line class="cls-8" x1="115.11" y1="312.61" x2="100.83" y2="320.85"/><line class="cls-8" x1="100.83" y1="320.85" x2="100.83" y2="337.33"/><polygon class="cls-8" points="143.66 329.09 143.66 312.61 129.38 304.37 115.11 312.61 115.11 329.09 129.38 337.33 143.66 329.09"/><line class="cls-8" x1="115.11" y1="312.61" x2="129.38" y2="320.85"/><line class="cls-8" x1="143.66" y1="312.61" x2="129.38" y2="320.85"/><line class="cls-8" x1="129.38" y1="320.85" x2="129.38" y2="337.33"/><polygon class="cls-8" points="172.21 329.09 172.21 312.61 157.93 304.37 143.66 312.61 143.66 329.09 157.93 337.33 172.21 329.09"/><line class="cls-8" x1="143.66" y1="312.61" x2="157.93" y2="320.85"/><line class="cls-8" x1="172.21" y1="312.61" x2="157.93" y2="320.85"/><line class="cls-8" x1="157.93" y1="320.85" x2="157.93" y2="337.33"/><polygon class="cls-8" points="200.76 329.09 200.76 312.61 186.49 304.37 172.21 312.61 172.21 329.09 186.49 337.33 200.76 329.09"/><line class="cls-8" x1="172.21" y1="312.61" x2="186.49" y2="320.85"/><line class="cls-8" x1="200.76" y1="312.61" x2="186.49" y2="320.85"/><line class="cls-8" x1="186.49" y1="320.85" x2="186.49" y2="337.33"/><polygon class="cls-8" points="229.31 329.09 229.31 312.61 215.04 304.37 200.76 312.61 200.76 329.09 215.04 337.33 229.31 329.09"/><line class="cls-8" x1="200.76" y1="312.61" x2="215.04" y2="320.85"/><line class="cls-8" x1="229.31" y1="312.61" x2="215.04" y2="320.85"/><line class="cls-8" x1="215.04" y1="320.85" x2="215.04" y2="337.33"/><polygon class="cls-8" points="257.86 329.09 257.86 312.61 243.59 304.37 229.31 312.61 229.31 329.09 243.59 337.33 257.86 329.09"/><line class="cls-8" x1="229.31" y1="312.61" x2="243.59" y2="320.85"/><line class="cls-8" x1="257.86" y1="312.61" x2="243.59" y2="320.85"/><line class="cls-8" x1="243.59" y1="320.85" x2="243.59" y2="337.33"/><polygon class="cls-8" points="286.42 329.09 286.42 312.61 272.14 304.37 257.86 312.61 257.86 329.09 272.14 337.33 286.42 329.09"/><line class="cls-8" x1="257.86" y1="312.61" x2="272.14" y2="320.85"/><line class="cls-8" x1="286.42" y1="312.61" x2="272.14" y2="320.85"/><line class="cls-8" x1="272.14" y1="320.85" x2="272.14" y2="337.33"/><polygon class="cls-8" points="314.97 329.09 314.97 312.61 300.69 304.37 286.42 312.61 286.42 329.09 300.69 337.33 314.97 329.09"/><line class="cls-8" x1="286.42" y1="312.61" x2="300.69" y2="320.85"/><line class="cls-8" x1="314.97" y1="312.61" x2="300.69" y2="320.85"/><line class="cls-8" x1="300.69" y1="320.85" x2="300.69" y2="337.33"/><polygon class="cls-8" points="343.52 329.09 343.52 312.61 329.24 304.37 314.97 312.61 314.97 329.09 329.24 337.33 343.52 329.09"/><line class="cls-8" x1="314.97" y1="312.61" x2="329.24" y2="320.85"/><line class="cls-8" x1="343.52" y1="312.61" x2="329.24" y2="320.85"/><line class="cls-8" x1="329.24" y1="320.85" x2="329.24" y2="337.33"/><polygon class="cls-8" points="72.28 403.27 72.28 386.79 58 378.54 43.73 386.79 43.73 403.27 58 411.51 72.28 403.27"/><line class="cls-8" x1="43.73" y1="386.79" x2="58" y2="395.03"/><line class="cls-8" x1="72.28" y1="386.79" x2="58" y2="395.03"/><line class="cls-8" x1="58" y1="395.03" x2="58" y2="411.51"/><polygon class="cls-8" points="100.83 403.27 100.83 386.79 86.56 378.54 72.28 386.79 72.28 403.27 86.56 411.51 100.83 403.27"/><line class="cls-8" x1="72.28" y1="386.79" x2="86.55" y2="395.03"/><line class="cls-8" x1="100.83" y1="386.79" x2="86.55" y2="395.03"/><line class="cls-8" x1="86.55" y1="395.03" x2="86.55" y2="411.51"/><polygon class="cls-8" points="129.38 403.27 129.38 386.79 115.11 378.54 100.83 386.79 100.83 403.27 115.11 411.51 129.38 403.27"/><line class="cls-8" x1="100.83" y1="386.79" x2="115.11" y2="395.03"/><line class="cls-8" x1="129.38" y1="386.79" x2="115.11" y2="395.03"/><line class="cls-8" x1="115.11" y1="395.03" x2="115.11" y2="411.51"/><polygon class="cls-8" points="157.93 403.27 157.93 386.79 143.66 378.54 129.38 386.79 129.38 403.27 143.66 411.51 157.93 403.27"/><line class="cls-8" x1="129.38" y1="386.79" x2="143.66" y2="395.03"/><line class="cls-8" x1="157.93" y1="386.79" x2="143.66" y2="395.03"/><line class="cls-8" x1="143.66" y1="395.03" x2="143.66" y2="411.51"/><polygon class="cls-8" points="186.49 403.27 186.49 386.79 172.21 378.54 157.93 386.79 157.93 403.27 172.21 411.51 186.49 403.27"/><line class="cls-8" x1="157.93" y1="386.79" x2="172.21" y2="395.03"/><line class="cls-8" x1="186.48" y1="386.79" x2="172.21" y2="395.03"/><line class="cls-8" x1="172.21" y1="395.03" x2="172.21" y2="411.51"/><polygon class="cls-8" points="215.04 403.27 215.04 386.79 200.76 378.54 186.49 386.79 186.49 403.27 200.76 411.51 215.04 403.27"/><line class="cls-8" x1="186.48" y1="386.79" x2="200.76" y2="395.03"/><line class="cls-8" x1="215.04" y1="386.79" x2="200.76" y2="395.03"/><line class="cls-8" x1="200.76" y1="395.03" x2="200.76" y2="411.51"/><polygon class="cls-8" points="243.59 403.27 243.59 386.79 229.31 378.54 215.04 386.79 215.04 403.27 229.31 411.51 243.59 403.27"/><line class="cls-8" x1="215.04" y1="386.79" x2="229.31" y2="395.03"/><line class="cls-8" x1="243.59" y1="386.79" x2="229.31" y2="395.03"/><line class="cls-8" x1="229.31" y1="395.03" x2="229.31" y2="411.51"/><polygon class="cls-8" points="272.14 403.27 272.14 386.79 257.86 378.54 243.59 386.79 243.59 403.27 257.86 411.51 272.14 403.27"/><line class="cls-8" x1="243.59" y1="386.79" x2="257.86" y2="395.03"/><line class="cls-8" x1="272.14" y1="386.79" x2="257.86" y2="395.03"/><line class="cls-8" x1="257.86" y1="395.03" x2="257.86" y2="411.51"/><polygon class="cls-8" points="300.69 403.27 300.69 386.79 286.42 378.54 272.14 386.79 272.14 403.27 286.42 411.51 300.69 403.27"/><line class="cls-8" x1="272.14" y1="386.79" x2="286.42" y2="395.03"/><line class="cls-8" x1="300.69" y1="386.79" x2="286.42" y2="395.03"/><line class="cls-8" x1="286.42" y1="395.03" x2="286.42" y2="411.51"/><polygon class="cls-8" points="329.24 403.27 329.24 386.79 314.97 378.54 300.69 386.79 300.69 403.27 314.97 411.51 329.24 403.27"/><line class="cls-8" x1="300.69" y1="386.79" x2="314.97" y2="395.03"/><line class="cls-8" x1="329.24" y1="386.79" x2="314.97" y2="395.03"/><line class="cls-8" x1="314.97" y1="395.03" x2="314.97" y2="411.51"/><polygon class="cls-8" points="357.79 403.27 357.79 386.79 343.52 378.54 329.24 386.79 329.24 403.27 343.52 411.51 357.79 403.27"/><line class="cls-8" x1="329.24" y1="386.79" x2="343.52" y2="395.03"/><line class="cls-8" x1="357.79" y1="386.79" x2="343.52" y2="395.03"/><line class="cls-8" x1="343.52" y1="395.03" x2="343.52" y2="411.51"/><polygon class="cls-8" points="58 378.54 58 362.06 43.73 353.82 29.45 362.06 29.45 378.54 43.73 386.79 58 378.54"/><line class="cls-8" x1="29.45" y1="362.06" x2="43.73" y2="370.3"/><line class="cls-8" x1="58" y1="362.06" x2="43.73" y2="370.3"/><line class="cls-8" x1="43.73" y1="370.3" x2="43.73" y2="386.79"/><polygon class="cls-8" points="86.56 378.54 86.56 362.06 72.28 353.82 58 362.06 58 378.54 72.28 386.79 86.56 378.54"/><line class="cls-8" x1="58" y1="362.06" x2="72.28" y2="370.3"/><line class="cls-8" x1="86.55" y1="362.06" x2="72.28" y2="370.3"/><line class="cls-8" x1="72.28" y1="370.3" x2="72.28" y2="386.79"/><polygon class="cls-8" points="115.11 378.54 115.11 362.06 100.83 353.82 86.56 362.06 86.56 378.54 100.83 386.79 115.11 378.54"/><line class="cls-8" x1="86.55" y1="362.06" x2="100.83" y2="370.3"/><line class="cls-8" x1="115.11" y1="362.06" x2="100.83" y2="370.3"/><line class="cls-8" x1="100.83" y1="370.3" x2="100.83" y2="386.79"/><polygon class="cls-8" points="143.66 378.54 143.66 362.06 129.38 353.82 115.11 362.06 115.11 378.54 129.38 386.79 143.66 378.54"/><line class="cls-8" x1="115.11" y1="362.06" x2="129.38" y2="370.3"/><line class="cls-8" x1="143.66" y1="362.06" x2="129.38" y2="370.3"/><line class="cls-8" x1="129.38" y1="370.3" x2="129.38" y2="386.79"/><polygon class="cls-8" points="172.21 378.54 172.21 362.06 157.93 353.82 143.66 362.06 143.66 378.54 157.93 386.79 172.21 378.54"/><line class="cls-8" x1="143.66" y1="362.06" x2="157.93" y2="370.3"/><line class="cls-8" x1="172.21" y1="362.06" x2="157.93" y2="370.3"/><line class="cls-8" x1="157.93" y1="370.3" x2="157.93" y2="386.79"/><polygon class="cls-8" points="200.76 378.54 200.76 362.06 186.49 353.82 172.21 362.06 172.21 378.54 186.49 386.79 200.76 378.54"/><line class="cls-8" x1="172.21" y1="362.06" x2="186.49" y2="370.3"/><line class="cls-8" x1="200.76" y1="362.06" x2="186.49" y2="370.3"/><line class="cls-8" x1="186.49" y1="370.3" x2="186.49" y2="386.79"/><polygon class="cls-8" points="229.31 378.54 229.31 362.06 215.04 353.82 200.76 362.06 200.76 378.54 215.04 386.79 229.31 378.54"/><line class="cls-8" x1="200.76" y1="362.06" x2="215.04" y2="370.3"/><line class="cls-8" x1="229.31" y1="362.06" x2="215.04" y2="370.3"/><line class="cls-8" x1="215.04" y1="370.3" x2="215.04" y2="386.79"/><polygon class="cls-8" points="257.86 378.54 257.86 362.06 243.59 353.82 229.31 362.06 229.31 378.54 243.59 386.79 257.86 378.54"/><line class="cls-8" x1="229.31" y1="362.06" x2="243.59" y2="370.3"/><line class="cls-8" x1="257.86" y1="362.06" x2="243.59" y2="370.3"/><line class="cls-8" x1="243.59" y1="370.3" x2="243.59" y2="386.79"/><polygon class="cls-8" points="286.42 378.54 286.42 362.06 272.14 353.82 257.86 362.06 257.86 378.54 272.14 386.79 286.42 378.54"/><line class="cls-8" x1="257.86" y1="362.06" x2="272.14" y2="370.3"/><line class="cls-8" x1="286.42" y1="362.06" x2="272.14" y2="370.3"/><line class="cls-8" x1="272.14" y1="370.3" x2="272.14" y2="386.79"/><polygon class="cls-8" points="314.97 378.54 314.97 362.06 300.69 353.82 286.42 362.06 286.42 378.54 300.69 386.79 314.97 378.54"/><line class="cls-8" x1="286.42" y1="362.06" x2="300.69" y2="370.3"/><line class="cls-8" x1="314.97" y1="362.06" x2="300.69" y2="370.3"/><line class="cls-8" x1="300.69" y1="370.3" x2="300.69" y2="386.79"/><polygon class="cls-8" points="343.52 378.54 343.52 362.06 329.24 353.82 314.97 362.06 314.97 378.54 329.24 386.79 343.52 378.54"/><line class="cls-8" x1="314.97" y1="362.06" x2="329.24" y2="370.3"/><line class="cls-8" x1="343.52" y1="362.06" x2="329.24" y2="370.3"/><line class="cls-8" x1="329.24" y1="370.3" x2="329.24" y2="386.79"/></g><path class="cls-9" d="M240.7,376.82H141.15A17.79,17.79,0,0,0,123.37,359V323.72a17.78,17.78,0,0,0,17.78-17.78H240.7a17.79,17.79,0,0,0,17.79,17.78V359A17.8,17.8,0,0,0,240.7,376.82Z"/><text class="cls-10" transform="translate(143.49 355.91)">$100</text><line class="cls-11" x1="84.07" y1="295.73" x2="123.37" y2="295.73"/><rect class="cls-12" x="73.69" y="279.64" width="234.47" height="123.91"/></svg>