<svg id="圖層_1" data-name="圖層 1" xmlns="http://www.w3.org/2000/svg" viewBox="0 0 383.25 709.51"><defs><style>.cls-1{font-size:28px;fill:#f97919;font-family:NotoSansHant-Bold-B5pc-H, Noto Sans T Chinese;font-weight:700;letter-spacing:0.02em;}.cls-2{font-size:20px;font-family:NotoSansMonoCJKtc-Regular-B5pc-H, Noto Sans Mono CJK TC;letter-spacing:0.02em;}.cls-11,.cls-2{fill:#10665a;}.cls-3,.cls-7{fill:#ffc636;}.cls-4{font-size:32px;font-family:NotoSansHant-Medium-B5pc-H, Noto Sans T Chinese;letter-spacing:0.02em;}.cls-10,.cls-4,.cls-5{fill:#fff;}.cls-10,.cls-11,.cls-5,.cls-8,.cls-9{stroke:#08a39f;stroke-width:3px;}.cls-5,.cls-8{stroke-linecap:round;stroke-linejoin:round;}.cls-6{fill:#08a39f;opacity:0.3;}.cls-7{opacity:0.6;}.cls-8,.cls-9{fill:none;}.cls-10,.cls-11,.cls-9{stroke-miterlimit:10;}</style></defs><title>180208_carousel</title><text class="cls-1" transform="translate(120.73 81.97)">中保潔菌家<tspan x="-14.22" y="38">水管清潔服務</tspan></text><text class="cls-2" transform="translate(145.41 153.35)">市價$4800</text><circle class="cls-3" cx="190.01" cy="574.51" r="52.98"/><text class="cls-4" transform="translate(165.79 585.85)">6名</text><path class="cls-5" d="M120.38,407.61h82.48a0,0,0,0,1,0,0v69.52a0,0,0,0,1,0,0H79.22a0,0,0,0,1,0,0V448.77A41.16,41.16,0,0,1,120.38,407.61Z" transform="translate(282.08 884.75) rotate(-180)"/><path class="cls-5" d="M174.33,436.15a28.54,28.54,0,0,0,0-57.07H79.22v57.07Z"/><path class="cls-5" d="M132.64,389.9H192a0,0,0,0,1,0,0v35.43a0,0,0,0,1,0,0h-59.4a17.72,17.72,0,0,1-17.72-17.72v0a17.72,17.72,0,0,1,17.72-17.72Z" transform="translate(306.96 815.23) rotate(-180)"/><path class="cls-5" d="M97.8,355.88h0a8.79,8.79,0,0,1,8.79,8.79V412.5a0,0,0,0,1,0,0H89a0,0,0,0,1,0,0V364.67A8.79,8.79,0,0,1,97.8,355.88Z" transform="translate(195.59 768.38) rotate(-180)"/><rect class="cls-5" x="89" y="366.6" width="52.04" height="12.31" transform="translate(230.04 745.52) rotate(-180)"/><rect class="cls-5" x="89" y="349.38" width="31.95" height="6.5" transform="translate(209.96 705.25) rotate(-180)"/><path class="cls-6" d="M121,349.38v6.5H106.59V366.6H141v12.31H106.59v24.8a8.8,8.8,0,0,1-17.59,0V349.38Z"/><polygon class="cls-5" points="120.19 414.96 150.45 414.96 139.63 378.91 131 378.91 120.19 414.96"/><polygon class="cls-5" points="138.88 395.23 143.18 409.56 127.46 409.56 131.75 395.23 138.88 395.23"/><polygon class="cls-7" points="138.88 395.23 143.18 409.56 127.46 409.56 131.75 395.23 138.88 395.23"/><polygon class="cls-8" points="138.88 395.23 143.18 409.56 127.46 409.56 131.75 395.23 138.88 395.23"/><line class="cls-9" x1="123.46" y1="309.52" x2="118.29" y2="323.73"/><line class="cls-9" x1="106.59" y1="306.54" x2="106.59" y2="321.66"/><line class="cls-9" x1="89.72" y1="309.52" x2="94.89" y2="323.73"/><line class="cls-8" x1="131" y1="378.91" x2="131" y2="366.6"/><path class="cls-10" d="M142.5,359.71l41.79-41.79,19.41,19.42-41.78,41.79a13.73,13.73,0,0,1-19.42-19.42Z"/><path class="cls-10" d="M218.36,283.85a13.72,13.72,0,0,1,19.41,0h0a13.74,13.74,0,0,1,0,19.42L203.7,337.34l-19.41-19.42Z"/><circle class="cls-10" cx="262.83" cy="238.57" r="32.04"/><path class="cls-10" d="M234.75,277.73h10.11l17.5,21,17.23-21H290.9a25.4,25.4,0,0,1,25.4,25.39V434H209.36V303.12A25.39,25.39,0,0,1,234.75,277.73Z"/><path class="cls-6" d="M234.75,277.73h10.11l17.5,21,17.23-21H290.9a25.4,25.4,0,0,1,25.4,25.39V434H209.36V303.12A25.39,25.39,0,0,1,234.75,277.73Z"/><polygon class="cls-10" points="244.86 277.73 279.59 277.73 262.36 298.77 244.86 277.73"/><line class="cls-9" x1="262.36" y1="298.77" x2="262.36" y2="434"/><polygon class="cls-5" points="240.26 277.73 245.24 307.97 262.69 299.86 248.09 277.73 240.26 277.73"/><polygon class="cls-5" points="284.79 277.73 279.81 307.97 262.36 299.86 276.96 277.73 284.79 277.73"/><rect class="cls-11" x="209.36" y="434" width="106.94" height="43.14" transform="translate(525.66 911.13) rotate(-180)"/></svg>