<svg id="圖層_1" data-name="圖層 1" xmlns="http://www.w3.org/2000/svg" viewBox="0 0 383.25 709.51"><defs><style>.cls-1{font-size:20px;font-family:NotoSansMonoCJKtc-Regular-B5pc-H, Noto Sans Mono CJK TC;letter-spacing:0.02em;}.cls-1,.cls-10{fill:#10665a;}.cls-2{fill:#ffc636;}.cls-3{font-size:32px;font-family:NotoSansHant-Medium-B5pc-H, Noto Sans T Chinese;letter-spacing:0.02em;}.cls-3,.cls-6,.cls-9{fill:#fff;}.cls-4{font-size:28px;fill:#f97919;font-family:NotoSansHant-Bold-B5pc-H, Noto Sans T Chinese;font-weight:700;letter-spacing:0.02em;}.cls-5,.cls-8{fill:none;}.cls-10,.cls-5,.cls-6,.cls-8,.cls-9{stroke:#08a39f;stroke-width:3px;}.cls-5,.cls-9{stroke-linecap:round;stroke-linejoin:round;}.cls-10,.cls-6,.cls-8{stroke-miterlimit:10;}.cls-7{fill:#08a39f;opacity:0.3;}</style></defs><title>180208_carousel</title><text class="cls-1" transform="translate(140.51 153.35)">市價$10080</text><circle class="cls-2" cx="189.45" cy="574.51" r="52.98"/><text class="cls-3" transform="translate(166.04 585.85)">4名</text><text class="cls-4" transform="translate(120.73 81.97)">中保無限家<tspan x="-14.22" y="38">冷氣清潔服務</tspan></text><rect class="cls-5" x="101.54" y="382.05" width="133.66" height="45.53" transform="translate(336.74 809.63) rotate(180)"/><polygon class="cls-5" points="235.2 382.05 101.54 382.05 45.05 361.29 45.05 344.3 101.54 365.06 235.2 365.06 235.2 382.05"/><circle class="cls-5" cx="54.05" cy="355.79" r="3.93"/><circle class="cls-5" cx="110.36" cy="373.68" r="3.93"/><circle class="cls-5" cx="168.24" cy="373.68" r="3.93"/><circle class="cls-5" cx="226.13" cy="373.68" r="3.93"/><polygon class="cls-5" points="235.2 427.58 101.54 427.58 45.05 406.82 45.05 320.25 178.71 344.3 235.2 365.06 235.2 427.58"/><line class="cls-5" x1="101.54" y1="382.05" x2="101.54" y2="365.06"/><path class="cls-6" d="M217.21,258.4l-38.5-6.1H45.05v92H178.71l38.5-6.1a21.32,21.32,0,0,0,18-21.05V279.46A21.32,21.32,0,0,0,217.21,258.4Z"/><path class="cls-7" d="M217.21,258.4l-38.5-6.1H45.05v92H178.71l38.5-6.1a21.32,21.32,0,0,0,18-21.05V279.46A21.32,21.32,0,0,0,217.21,258.4Z"/><path class="cls-6" d="M83.55,338.2l-38.5,6.1v-92l38.5,6.1a21.32,21.32,0,0,1,18,21.06v37.69A21.32,21.32,0,0,1,83.55,338.2Z"/><line class="cls-8" x1="106.93" y1="272.83" x2="225.86" y2="272.83"/><line class="cls-8" x1="107.96" y1="283.02" x2="227.91" y2="283.02"/><line class="cls-8" x1="107.96" y1="293.21" x2="227.91" y2="293.21"/><line class="cls-8" x1="107.96" y1="303.4" x2="227.91" y2="303.4"/><line class="cls-8" x1="107.96" y1="313.58" x2="227.91" y2="313.58"/><line class="cls-8" x1="106.93" y1="323.77" x2="225.86" y2="323.77"/><path class="cls-6" d="M271.71,315.84h0a10.75,10.75,0,0,0-15.22,0L231,341.35l-21.52-21.52a10.77,10.77,0,1,0-15.23,15.23l29.06,29.06a11,11,0,0,0,15.38,0l33-33.06A10.75,10.75,0,0,0,271.71,315.84Z"/><line class="cls-8" x1="236.2" y1="336.12" x2="251.43" y2="351.35"/><circle class="cls-6" cx="290.9" cy="281.08" r="25.12"/><path class="cls-6" d="M268.89,311.78h7.92l13.73,16.5,13.51-16.5h8.87a19.9,19.9,0,0,1,19.91,19.91V434.31H249V331.69A19.9,19.9,0,0,1,268.89,311.78Z"/><path class="cls-7" d="M268.89,311.78h7.92l13.73,16.5,13.51-16.5h8.87a19.9,19.9,0,0,1,19.91,19.91V434.31H249V331.69A19.9,19.9,0,0,1,268.89,311.78Z"/><polygon class="cls-6" points="276.81 311.78 304.05 311.78 290.54 328.28 276.81 311.78"/><line class="cls-8" x1="290.54" y1="328.28" x2="290.54" y2="434.31"/><polygon class="cls-9" points="273.21 311.78 277.11 335.49 290.8 329.13 279.35 311.78 273.21 311.78"/><polygon class="cls-9" points="308.13 311.78 304.22 335.49 290.54 329.13 301.99 311.78 308.13 311.78"/><rect class="cls-10" x="248.98" y="434.31" width="83.85" height="33.83" transform="translate(581.81 902.44) rotate(-180)"/><path class="cls-6" d="M130.83,291.42H152a0,0,0,0,1,0,0v5.09a0,0,0,0,1,0,0H130.83a2.54,2.54,0,0,1-2.54-2.54v0a2.54,2.54,0,0,1,2.54-2.54Z"/><rect class="cls-10" x="141.36" y="284.88" width="65.15" height="17.12" rx="8.56" ry="8.56"/><path class="cls-10" d="M151.36,324.44h0a22.44,22.44,0,0,0,22.44,22.43h13.93a18.77,18.77,0,0,0,18.78-18.77v-7.33A18.78,18.78,0,0,0,187.73,302H173.8A22.44,22.44,0,0,0,151.36,324.44Zm35.29,13.71h0V310.79h0a11.86,11.86,0,0,1,11.86,11.86v3.64A11.86,11.86,0,0,1,186.65,338.15Z"/><path class="cls-6" d="M177.38,276.68h1.07a8.2,8.2,0,0,1,8.2,8.2v0a0,0,0,0,1,0,0H169.18a0,0,0,0,1,0,0v0A8.2,8.2,0,0,1,177.38,276.68Z"/><line class="cls-8" x1="197.94" y1="284.88" x2="197.94" y2="302"/></svg>