<svg id="圖層_1" data-name="圖層 1" xmlns="http://www.w3.org/2000/svg" viewBox="0 0 383.25 709.51"><defs><style>.cls-1{font-size:28px;fill:#f97919;font-family:NotoSansHant-Bold-B5pc-H, Noto Sans T Chinese;font-weight:700;}.cls-1,.cls-3{letter-spacing:0.02em;}.cls-2{letter-spacing:0em;}.cls-4{letter-spacing:0em;}.cls-5{font-size:20px;fill:#10665a;font-family:NotoSansMonoCJKtc-Regular-B5pc-H, Noto Sans Mono CJK TC;letter-spacing:0.02em;}.cls-13,.cls-6,.cls-9{fill:#ffc636;}.cls-7{font-size:32px;font-family:NotoSansHant-Medium-B5pc-H, Noto Sans T Chinese;letter-spacing:0.02em;}.cls-7,.cls-8{fill:#fff;}.cls-10,.cls-12,.cls-13,.cls-16,.cls-8{stroke:#08a39f;}.cls-10,.cls-12,.cls-13,.cls-16,.cls-17,.cls-8{stroke-linecap:round;stroke-linejoin:round;}.cls-10,.cls-13,.cls-16,.cls-17,.cls-8{stroke-width:3px;}.cls-17,.cls-9{opacity:0.6;}.cls-10,.cls-12,.cls-17{fill:none;}.cls-11,.cls-15,.cls-16{fill:#08a39f;}.cls-11,.cls-14{opacity:0.3;}.cls-12{stroke-width:5px;}.cls-17{stroke:#fff;}</style></defs><title>180208_carousel</title><text class="cls-1" transform="translate(35.39 81.97)">棧直火廚房晚間雙人套餐<tspan class="cls-2"><tspan x="25.9" y="38">U</tspan><tspan class="cls-3" x="46.96" y="38">S</tspan><tspan class="cls-4" x="64.88" y="38">/</tspan><tspan class="cls-3" x="75.85" y="38">CH三板斧丁牛排</tspan></tspan></text><text class="cls-5" transform="translate(145.67 153.35)">市價$3520</text><circle class="cls-6" cx="191.07" cy="574.51" r="52.98"/><text class="cls-7" transform="translate(166.04 585.85)">8名</text><path class="cls-8" d="M238.44,477.13H165.38a44.74,44.74,0,0,1-44.6-48.29l4-50.69a389,389,0,0,0,0-61.82l-4-50.7a44.74,44.74,0,0,1,44.6-48.29h73.06A44.73,44.73,0,0,1,283,265.63l-4,50.7a389,389,0,0,0,0,61.82l4,50.69A44.73,44.73,0,0,1,238.44,477.13Z"/><path class="cls-9" d="M238.44,477.13H165.38a44.74,44.74,0,0,1-44.6-48.29l4-50.69a389,389,0,0,0,0-61.82l-4-50.7a44.74,44.74,0,0,1,44.6-48.29h73.06A44.73,44.73,0,0,1,283,265.63l-4,50.7a389,389,0,0,0,0,61.82l4,50.69A44.73,44.73,0,0,1,238.44,477.13Z"/><path class="cls-10" d="M238.44,477.13H165.38a44.74,44.74,0,0,1-44.6-48.29l4-50.69a389,389,0,0,0,0-61.82l-4-50.7a44.74,44.74,0,0,1,44.6-48.29h73.06A44.73,44.73,0,0,1,283,265.63l-4,50.7a389,389,0,0,0,0,61.82l4,50.69A44.73,44.73,0,0,1,238.44,477.13Z"/><path class="cls-8" d="M103.77,435.9l-21.31-2.29L93.81,372q4.39-23.84,7-48l8.06-75,25.21,2.71-6.52,60.59a642.57,642.57,0,0,1-12.86,76.24Z"/><path class="cls-9" d="M103.77,435.9l-21.31-2.29L93.81,372q4.39-23.84,7-48l8.06-75,25.21,2.71-6.52,60.59a642.57,642.57,0,0,1-12.86,76.24Z"/><path class="cls-10" d="M103.77,435.9l-21.31-2.29L93.81,372q4.39-23.84,7-48l8.06-75,25.21,2.71-6.52,60.59a642.57,642.57,0,0,1-12.86,76.24Z"/><path class="cls-8" d="M114.42,265.07l-4,37,.51.05a99.9,99.9,0,0,1,61.53,30.29h0a112.6,112.6,0,0,0,8.87-82.55h0l-.63.4a99.85,99.85,0,0,1-64.23,15Z"/><path class="cls-11" d="M114.42,265.07l-4,37,.51.05a99.9,99.9,0,0,1,61.53,30.29h0a112.6,112.6,0,0,0,8.87-82.55h0l-.63.4a99.85,99.85,0,0,1-64.23,15Z"/><path class="cls-10" d="M114.42,265.07l-4,37,.51.05a99.9,99.9,0,0,1,61.53,30.29h0a112.6,112.6,0,0,0,8.87-82.55h0l-.63.4a99.85,99.85,0,0,1-64.23,15Z"/><path class="cls-8" d="M132.5,309.74l-34.15-3.67,5-46.15,34.15,3.68h0a97.6,97.6,0,0,1-5,46.14Z"/><path class="cls-11" d="M132.5,309.74l-34.15-3.67,5-46.15,34.15,3.68h0a97.6,97.6,0,0,1-5,46.14Z"/><path class="cls-10" d="M132.5,309.74l-34.15-3.67,5-46.15,34.15,3.68h0a97.6,97.6,0,0,1-5,46.14Z"/><path class="cls-12" d="M228.23,432.6h8.71a4.63,4.63,0,0,1,4.63,4.63v14.43a4.63,4.63,0,0,1-4.63,4.63h-8.71a0,0,0,0,1,0,0V432.6A0,0,0,0,1,228.23,432.6Z" transform="translate(640.2 741.82) rotate(154.13)"/><path class="cls-12" d="M287.16,406.26h8.71a0,0,0,0,1,0,0v23.69a0,0,0,0,1,0,0h-8.71a4.63,4.63,0,0,1-4.63-4.63V410.89a4.63,4.63,0,0,1,4.63-4.63Z" transform="translate(731.86 668.09) rotate(154.13)"/><circle class="cls-8" cx="261.84" cy="430.85" r="29.89"/><circle class="cls-9" cx="261.84" cy="430.85" r="29.89"/><circle class="cls-10" cx="261.84" cy="430.85" r="29.89"/><ellipse class="cls-13" cx="252.18" cy="415.67" rx="5.64" ry="8.18" transform="translate(-214.99 550.34) rotate(-74.84)"/><ellipse class="cls-13" cx="245.61" cy="421.85" rx="5.64" ry="8.18" transform="translate(-225.8 548.56) rotate(-74.84)"/><circle class="cls-8" cx="273.21" cy="438.43" r="11.06"/><circle class="cls-8" cx="273.43" cy="422.57" r="11.06"/><g class="cls-14"><circle class="cls-15" cx="273.21" cy="438.43" r="11.06"/><circle class="cls-15" cx="273.43" cy="422.57" r="11.06"/></g><rect class="cls-8" x="257.23" y="439.61" width="14.03" height="14.03" transform="translate(648.01 795.94) rotate(162.92)"/><rect class="cls-8" x="248.57" y="437.54" width="14.03" height="14.03" transform="translate(630.46 794.44) rotate(162.92)"/><rect class="cls-8" x="241.24" y="433.57" width="14.03" height="14.03" transform="translate(614.95 788.83) rotate(162.92)"/><path class="cls-8" d="M236,325.12c-19.35-11.95-56.74-22.83-76.59-26.31L155,309.47a17.06,17.06,0,0,0,9.28,22.35l11.5,4.7a195,195,0,0,0,24.78,8.24l12,3.12a17.06,17.06,0,0,0,20.82-12.34Z"/><path class="cls-16" d="M236,325.12l2.66-10.55h0a369.31,369.31,0,0,0-75.37-25.07h0l-3.88,9.31C179.25,302.29,216.64,313.17,236,325.12Z"/><line class="cls-10" x1="169.38" y1="305.75" x2="193.8" y2="337.38"/><line class="cls-10" x1="192.9" y1="312.73" x2="206.96" y2="331.59"/><path class="cls-8" d="M226.59,337.2c-21.13-8.41-59.84-12.63-80-12.61l-2.53,11.27a17,17,0,0,0,13,20.39l12.13,2.64a194.19,194.19,0,0,0,25.84,3.81l12.38,1a17.05,17.05,0,0,0,18.36-15.76Z"/><path class="cls-16" d="M226.59,337.2l.79-10.86h0a370,370,0,0,0-78.58-11.59h0l-2.2,9.84C166.75,324.57,205.46,328.79,226.59,337.2Z"/><line class="cls-10" x1="157.63" y1="329.7" x2="187.17" y2="356.6"/><line class="cls-10" x1="182" y1="332.48" x2="199.12" y2="348.62"/><path class="cls-8" d="M219.43,350.73c-22.27-4.61-61.12-2.05-81,1.47l-.53,11.54a17.05,17.05,0,0,0,16.37,17.82l12.41.49a196.21,196.21,0,0,0,26.11-.73l12.36-1.19a17,17,0,0,0,15.34-18.71Z"/><path class="cls-16" d="M219.43,350.73l-1.11-10.83h0a369.25,369.25,0,0,0-79.4,2.23h0l-.46,10.07C158.31,348.68,197.16,346.12,219.43,350.73Z"/><line class="cls-10" x1="150.21" y1="355.32" x2="183.98" y2="376.68"/><line class="cls-10" x1="174.7" y1="353.82" x2="194.36" y2="366.74"/><path class="cls-8" d="M214.73,365.3c-22.73-.68-60.55,8.6-79.49,15.51l1.49,11.45A17,17,0,0,0,155.94,407l12.31-1.67A195.7,195.7,0,0,0,193.83,400l12-3.31a17.05,17.05,0,0,0,11.86-21.09Z"/><path class="cls-16" d="M214.73,365.3l-3-10.47h0a369,369,0,0,0-77.81,16h0l1.29,10C154.18,373.9,192,364.62,214.73,365.3Z"/><line class="cls-10" x1="147.36" y1="381.83" x2="184.33" y2="397.01"/><line class="cls-10" x1="171.21" y1="376.11" x2="192.82" y2="385.42"/><path class="cls-8" d="M212.63,380.46c-22.5,3.28-58.14,19-75.59,29.08l3.45,11A17.06,17.06,0,0,0,162,431.71l11.83-3.79a194.25,194.25,0,0,0,24.28-9.62L209.29,413a17.06,17.06,0,0,0,8-22.84Z"/><path class="cls-16" d="M212.63,380.46l-4.75-9.8h0A370.22,370.22,0,0,0,134,399.91h0l3,9.63C154.49,399.44,190.13,383.74,212.63,380.46Z"/><line class="cls-10" x1="149.15" y1="408.44" x2="188.19" y2="416.97"/><line class="cls-10" x1="171.65" y1="398.67" x2="194.54" y2="404.08"/><path class="cls-8" d="M213.19,395.76c-21.59,7.14-54,28.79-69.38,41.76l5.31,10.25A17,17,0,0,0,172.2,455l11-5.78a193.57,193.57,0,0,0,22.25-13.69l10.11-7.2a17.06,17.06,0,0,0,3.93-23.88Z"/><path class="cls-16" d="M213.19,395.76l-6.37-8.83h0a370.21,370.21,0,0,0-67.65,41.63h0l4.64,9C159.23,424.55,191.6,402.9,213.19,395.76Z"/><line class="cls-10" x1="155.54" y1="434.34" x2="195.47" y2="435.96"/><line class="cls-10" x1="176" y1="420.8" x2="199.48" y2="422.16"/><path class="cls-16" d="M201.42,264.64c5.73-2.11,68,31.35,69.09,36.28s0,14.89,0,14.89,28.29,5.26,28.29,9.07-7.08,14-12.52,14.05-18.22-7.54-22.3-9.51c-8.08-3.9-21.35,13.8-24.53,24.59-4,13.55-13.67,25.92-16.88,22.88S244.68,325,244.68,325s-9.05-.37-14.41-7.38c-7.14-9.33-38.28-32.06-39.47-37.41C189.71,275.3,192.17,268.05,201.42,264.64Z"/><path class="cls-17" d="M268.09,324.5c0-.78,19,2.56,19.83,3.54s-1.77,6.5-4.13,6.49S267.94,330.33,268.09,324.5Z"/><path class="cls-17" d="M199.76,271.3c2.48-.93,58.33,28.67,60.23,32.82s3.46,13.43,0,14.07-17.34-2.38-21-4.21-39.63-33.27-41.16-35.17S197,272.34,199.76,271.3Z"/><path class="cls-8" d="M262.26,346.21l-8.67-1.4a6.6,6.6,0,0,1-5.24-8.51l1.64-5.16,22.57,7.17-2.11,3.88A7.88,7.88,0,0,1,262.26,346.21Z"/><path class="cls-8" d="M258.23,354.93l-9.57-.47a7.19,7.19,0,0,1-6.71-8.59l1.15-5.79,25.34,5-1.81,4.46A8.6,8.6,0,0,1,258.23,354.93Z"/><path class="cls-8" d="M256.31,365.71l-10.47.46a7.87,7.87,0,0,1-8.19-8.67l.66-6.42,28.11,2.9-1.51,5A9.41,9.41,0,0,1,256.31,365.71Z"/><path class="cls-8" d="M256.49,377.13l-11.37,1.4a8.62,8.62,0,0,1-9.67-8.76l.18-7,30.88.76-1.22,5.62A10.3,10.3,0,0,1,256.49,377.13Z"/><path class="cls-8" d="M258.93,388.69,246.65,391a9.38,9.38,0,0,1-11.13-8.84l-.32-7.68,33.66-1.38-.93,6.2A11.25,11.25,0,0,1,258.93,388.69Z"/><circle class="cls-13" cx="258.19" cy="260.41" r="16.28"/><circle class="cls-13" cx="224.08" cy="242.21" r="16.28"/></svg>