<?xml version="1.0" encoding="utf-8"?>
<!-- Generator: Adobe Illustrator 18.1.1, SVG Export Plug-In . SVG Version: 6.00 Build 0)  -->
<!DOCTYPE svg PUBLIC "-//W3C//DTD SVG 1.1//EN" "http://www.w3.org/Graphics/SVG/1.1/DTD/svg11.dtd">
<svg version="1.1" id="Layer_1" xmlns="http://www.w3.org/2000/svg" xmlns:xlink="http://www.w3.org/1999/xlink" x="0px" y="0px"
	 viewBox="0 0 53.3 48.7" enable-background="new 0 0 53.3 48.7" xml:space="preserve">
<g>
	<g>
		<polygon fill="#08A39F" points="45.2,42.9 45.2,41.4 9.6,41.4 9.6,7.3 43.7,7.3 43.7,42.9 45.2,42.9 45.2,41.4 45.2,42.9 
			46.7,42.9 46.7,4.3 6.6,4.3 6.6,44.4 46.7,44.4 46.7,42.9 		"/>
	</g>
	<g>
		<path fill="#08A39F" d="M31.7,18.2c-0.6-0.1-1.5-0.2-2-0.2c-1.5,0-1.6,0.6-1.6,1.7v1.8h3.7l-0.3,3.8h-3.3v11.4h-4.6V25.2h-2.4
			v-3.8h2.4v-2.3c0-3.2,1.5-5,5.3-5c1.3,0,2.3,0.2,3.5,0.4L31.7,18.2z"/>
	</g>
</g>
</svg>
