<svg id="圖層_1" data-name="圖層 1" xmlns="http://www.w3.org/2000/svg" viewBox="0 0 1080 1080"><defs><style>.cls-1{fill:#fff;}.cls-2,.cls-4{fill:#08a39f;}.cls-2{opacity:0.3;}.cls-3{fill:none;stroke:#08a39f;stroke-miterlimit:10;stroke-width:11.25px;}</style></defs><title>180207</title><rect class="cls-1" x="339.66" y="222.51" width="400.67" height="634.98" rx="32.5" ry="32.5"/><path class="cls-2" d="M538.49,593.9c34.55-6.22,58.6-21.68,83.15-46.59,14.49-14.71,35.5-27.46,57-27.49,42.09-.06,61.66,34,61.66,34V255a32.51,32.51,0,0,0-32.5-32.5H372.16a32.51,32.51,0,0,0-32.5,32.5V584.76c59.87-21,34-101.68,99.6-101.68,35.36,0,53.45,31.8,63.92,56.92,8.5,20.41,17.56,40.77,35.31,53.9"/><rect class="cls-3" x="339.66" y="222.51" width="400.67" height="634.98" rx="32.5" ry="32.5"/><path class="cls-1" d="M552.11,283h-.21l-8,5.64a6.08,6.08,0,0,1-3.62,1.07,4.75,4.75,0,0,1-3.52-1.55,5.11,5.11,0,0,1-1.49-3.67q0-2.88,3.2-5.22l11.61-8.2a16.92,16.92,0,0,1,3.67-2.08,10.24,10.24,0,0,1,3.78-.69,6.11,6.11,0,0,1,4.74,1.92A7.26,7.26,0,0,1,564,275.3v60.17a6.25,6.25,0,0,1-1.65,4.63,6.47,6.47,0,0,1-8.63,0,6.25,6.25,0,0,1-1.65-4.63Z"/><path class="cls-1" d="M594.6,328.23c-.21-.71-.43-1.55-.64-2.51a27.72,27.72,0,0,1-.48-3.94c-.1-1.66-.19-3.83-.26-6.49s-.11-6.09-.11-10.28,0-7.61.11-10.28.16-4.82.26-6.49a26.31,26.31,0,0,1,.48-3.89c.21-.92.43-1.77.64-2.56a19.55,19.55,0,0,1,7.3-10.49q5.16-3.68,13.25-3.67t13.26,3.67a20.08,20.08,0,0,1,7.4,10.49c.22.79.43,1.64.64,2.56a23.84,23.84,0,0,1,.48,3.89q.17,2.5.27,6.49c.07,2.67.11,6.09.11,10.28s0,7.61-.11,10.28-.16,4.83-.27,6.49a25.06,25.06,0,0,1-.48,3.94c-.21,1-.42,1.8-.64,2.51a20.08,20.08,0,0,1-7.4,10.49q-5.16,3.67-13.26,3.67t-13.25-3.67A19.55,19.55,0,0,1,594.6,328.23ZM606.32,326q2,5.75,8.83,5.75t9-5.75a10,10,0,0,0,.48-1.92c.11-.71.19-1.81.27-3.3s.12-3.48.16-6,0-5.75,0-9.8,0-7.31,0-9.8-.09-4.47-.16-6-.16-2.59-.27-3.3a10,10,0,0,0-.48-1.92q-2.13-5.75-9-5.75T606.32,284a8.7,8.7,0,0,0-.48,1.92q-.17,1.07-.27,3.3t-.16,6c0,2.49,0,5.75,0,9.8s0,7.31,0,9.8.09,4.47.16,6,.16,2.59.27,3.3A8.7,8.7,0,0,0,606.32,326Z"/><path class="cls-1" d="M654.77,328.23c-.21-.71-.43-1.55-.64-2.51a27.72,27.72,0,0,1-.48-3.94c-.1-1.66-.19-3.83-.26-6.49s-.11-6.09-.11-10.28,0-7.61.11-10.28.16-4.82.26-6.49a26.31,26.31,0,0,1,.48-3.89c.21-.92.43-1.77.64-2.56a19.55,19.55,0,0,1,7.3-10.49q5.16-3.68,13.25-3.67t13.26,3.67a20.08,20.08,0,0,1,7.4,10.49c.22.79.43,1.64.64,2.56a23.84,23.84,0,0,1,.48,3.89q.17,2.5.27,6.49c.07,2.67.11,6.09.11,10.28s0,7.61-.11,10.28-.16,4.83-.27,6.49a25.06,25.06,0,0,1-.48,3.94c-.21,1-.42,1.8-.64,2.51a20.08,20.08,0,0,1-7.4,10.49q-5.16,3.67-13.26,3.67t-13.25-3.67A19.55,19.55,0,0,1,654.77,328.23ZM666.49,326q2,5.75,8.83,5.75t8.95-5.75a10,10,0,0,0,.48-1.92c.11-.71.19-1.81.27-3.3s.12-3.48.16-6,.05-5.75.05-9.8,0-7.31-.05-9.8-.09-4.47-.16-6-.16-2.59-.27-3.3a10,10,0,0,0-.48-1.92q-2.13-5.75-8.95-5.75T666.49,284A8.7,8.7,0,0,0,666,286q-.16,1.07-.27,3.3t-.16,6c0,2.49-.05,5.75-.05,9.8s0,7.31.05,9.8.09,4.47.16,6,.16,2.59.27,3.3A8.7,8.7,0,0,0,666.49,326Z"/><rect class="cls-4" x="380.46" y="270.99" width="94.15" height="94.15"/><path class="cls-3" d="M339.66,584.76c59.87-21,34-101.68,99.6-101.68,35.36,0,53.45,31.8,63.92,56.92s21.77,50.17,49.09,61.74c25.49,10.78,65.43,19.26,106.66,22.87"/><path class="cls-3" d="M538.49,593.9c34.55-6.22,58.6-21.68,83.15-46.59,14.49-14.71,35.5-27.46,57-27.49,42.09-.06,61.66,34,61.66,34"/><path class="cls-3" d="M340.89,703.42c69.89-8.9,96.57,106.73,96.57,154.07"/><path class="cls-3" d="M740.34,692.93c-37.25,0-85.59,39.08-109.24,87.28-19,38.69-74.17,71.28-96.68,77.28"/><path class="cls-3" d="M427.54,727c31.93,23.16,98.26,38.85,142.26,32"/></svg>