<svg id="圖層_1" data-name="圖層 1" xmlns="http://www.w3.org/2000/svg" viewBox="0 0 1080 1080"><defs><style>.cls-1,.cls-4{fill:#fff;}.cls-1,.cls-3{stroke:#08a39f;stroke-miterlimit:10;stroke-width:11.25px;}.cls-2{fill:#08a39f;opacity:0.3;}.cls-3{fill:none;}</style></defs><title>180207</title><rect class="cls-1" x="333.07" y="140.57" width="413.85" height="798.87" rx="66.75" ry="66.75"/><rect class="cls-2" x="333.07" y="140.57" width="413.85" height="798.87" rx="66.75" ry="66.75"/><rect class="cls-3" x="333.07" y="140.57" width="413.85" height="798.87" rx="66.75" ry="66.75"/><rect class="cls-1" x="359.13" y="238.65" width="361.73" height="602.71"/><line class="cls-3" x1="513.48" y1="188.09" x2="566.52" y2="188.09"/><circle class="cls-3" cx="538.26" cy="540" r="130.8"/><circle class="cls-2" cx="538.26" cy="540" r="130.8"/><path class="cls-4" d="M507.93,620a12.35,12.35,0,0,1-9.13-3.54q-3.54-3.54-3.54-9.77V484.24a11.4,11.4,0,0,1,3-8.26,10.8,10.8,0,0,1,8.16-3.12h45.75a55.09,55.09,0,0,1,19.43,3.33,45.28,45.28,0,0,1,15.25,9.24,41.18,41.18,0,0,1,9.88,14.28,47,47,0,0,1,3.54,18.47,47.52,47.52,0,0,1-3.54,18.68,41.08,41.08,0,0,1-9.88,14.28,45.28,45.28,0,0,1-15.25,9.24,55.09,55.09,0,0,1-19.43,3.33H521.89A1.14,1.14,0,0,0,520.6,565v41.66q0,6.23-3.55,9.77A12.34,12.34,0,0,1,507.93,620Zm42.73-79.24q11.39,0,17.83-6.12t6.44-16.43q0-10.09-6.44-16.32t-17.83-6.23H521.89a1.14,1.14,0,0,0-1.29,1.29v42.52a1.14,1.14,0,0,0,1.29,1.29Z"/></svg>