<svg id="圖層_1" data-name="圖層 1" xmlns="http://www.w3.org/2000/svg" viewBox="0 0 383.25 383.25"><defs><style>.cls-1,.cls-6{fill:#fff;}.cls-1,.cls-4,.cls-5,.cls-6,.cls-7{stroke:#08a39f;stroke-width:3px;}.cls-1,.cls-4{stroke-linecap:round;stroke-linejoin:round;}.cls-2{fill:#08a39f;opacity:0.3;}.cls-3{fill:#ffc636;opacity:0.6;}.cls-4,.cls-5{fill:none;}.cls-5,.cls-6,.cls-7{stroke-miterlimit:10;}.cls-7{fill:#10665a;}</style></defs><title>180208_carousel</title><path class="cls-1" d="M120.38,257.4h82.48a0,0,0,0,1,0,0v69.52a0,0,0,0,1,0,0H79.22a0,0,0,0,1,0,0V298.57A41.16,41.16,0,0,1,120.38,257.4Z" transform="translate(282.08 584.33) rotate(-180)"/><path class="cls-1" d="M174.33,285.94a28.54,28.54,0,0,0,0-57.07H79.22v57.07Z"/><path class="cls-1" d="M132.64,239.69H192a0,0,0,0,1,0,0v35.43a0,0,0,0,1,0,0h-59.4a17.72,17.72,0,0,1-17.72-17.72v0A17.72,17.72,0,0,1,132.64,239.69Z" transform="translate(306.96 514.81) rotate(-180)"/><path class="cls-1" d="M97.8,205.67h0a8.79,8.79,0,0,1,8.79,8.79v47.83a0,0,0,0,1,0,0H89a0,0,0,0,1,0,0V214.46A8.79,8.79,0,0,1,97.8,205.67Z" transform="translate(195.59 467.96) rotate(-180)"/><rect class="cls-1" x="89" y="216.39" width="52.04" height="12.31" transform="translate(230.04 445.1) rotate(-180)"/><rect class="cls-1" x="89" y="199.17" width="31.95" height="6.5" transform="translate(209.96 404.83) rotate(-180)"/><path class="cls-2" d="M121,199.17v6.5H106.59v10.72H141V228.7H106.59v24.8a8.8,8.8,0,0,1-17.59,0V199.17Z"/><polygon class="cls-1" points="120.19 264.75 150.45 264.75 139.63 228.7 131 228.7 120.19 264.75"/><polygon class="cls-1" points="138.88 245.02 143.18 259.35 127.46 259.35 131.75 245.02 138.88 245.02"/><polygon class="cls-3" points="138.88 245.02 143.18 259.35 127.46 259.35 131.75 245.02 138.88 245.02"/><polygon class="cls-4" points="138.88 245.02 143.18 259.35 127.46 259.35 131.75 245.02 138.88 245.02"/><line class="cls-5" x1="123.46" y1="159.31" x2="118.29" y2="173.52"/><line class="cls-5" x1="106.59" y1="156.33" x2="106.59" y2="171.45"/><line class="cls-5" x1="89.72" y1="159.31" x2="94.89" y2="173.52"/><line class="cls-4" x1="131" y1="228.7" x2="131" y2="216.39"/><path class="cls-6" d="M142.5,209.5l41.79-41.79,19.41,19.42-41.78,41.79A13.73,13.73,0,0,1,142.5,209.5Z"/><path class="cls-6" d="M218.36,133.64a13.72,13.72,0,0,1,19.41,0h0a13.74,13.74,0,0,1,0,19.42L203.7,187.13l-19.41-19.42Z"/><circle class="cls-6" cx="262.83" cy="88.36" r="32.04"/><path class="cls-6" d="M234.75,127.52h10.11l17.5,21,17.23-21H290.9a25.4,25.4,0,0,1,25.4,25.39V283.79H209.36V152.91A25.39,25.39,0,0,1,234.75,127.52Z"/><path class="cls-2" d="M234.75,127.52h10.11l17.5,21,17.23-21H290.9a25.4,25.4,0,0,1,25.4,25.39V283.79H209.36V152.91A25.39,25.39,0,0,1,234.75,127.52Z"/><polygon class="cls-6" points="244.86 127.52 279.59 127.52 262.36 148.56 244.86 127.52"/><line class="cls-5" x1="262.36" y1="148.56" x2="262.36" y2="283.79"/><polygon class="cls-1" points="240.26 127.52 245.24 157.76 262.69 149.65 248.09 127.52 240.26 127.52"/><polygon class="cls-1" points="284.79 127.52 279.81 157.76 262.36 149.65 276.96 127.52 284.79 127.52"/><rect class="cls-7" x="209.36" y="283.79" width="106.94" height="43.14" transform="translate(525.66 610.71) rotate(-180)"/></svg>