<svg id="圖層_1" data-name="圖層 1" xmlns="http://www.w3.org/2000/svg" xmlns:xlink="http://www.w3.org/1999/xlink" viewBox="0 0 383.25 383.25"><defs><style>.cls-1,.cls-4,.cls-8{fill:none;}.cls-2,.cls-5,.cls-7{fill:#fff;}.cls-2,.cls-7,.cls-8{stroke:#08a39f;}.cls-2,.cls-5,.cls-7,.cls-8{stroke-miterlimit:10;}.cls-2,.cls-5,.cls-8{stroke-width:3px;}.cls-3{clip-path:url(#clip-path);}.cls-4,.cls-5{stroke:#ffc636;}.cls-4{stroke-linecap:round;stroke-linejoin:round;}.cls-6{font-size:40.49px;fill:#ffc636;font-family:DINNextRoundedLTW01-Medium, DINNextRoundedLTW01-Medium;letter-spacing:0.02em;}.cls-7{stroke-width:5px;}</style><clipPath id="clip-path"><rect class="cls-1" x="73.69" y="123.51" width="234.47" height="123.91"/></clipPath></defs><title>180208_carousel</title><rect class="cls-2" x="86.02" y="135.83" width="234.47" height="123.91"/><rect class="cls-2" x="79.86" y="129.67" width="234.47" height="123.91"/><rect class="cls-2" x="73.69" y="123.51" width="234.47" height="123.91"/><g class="cls-3"><polygon class="cls-4" points="72.28 148.24 72.28 131.75 58 123.51 43.73 131.75 43.73 148.24 58 156.48 72.28 148.24"/><line class="cls-4" x1="43.73" y1="131.75" x2="58" y2="140"/><line class="cls-4" x1="72.28" y1="131.75" x2="58" y2="140"/><line class="cls-4" x1="58" y1="140" x2="58" y2="156.48"/><polygon class="cls-4" points="100.83 148.24 100.83 131.75 86.56 123.51 72.28 131.75 72.28 148.24 86.56 156.48 100.83 148.24"/><line class="cls-4" x1="72.28" y1="131.75" x2="86.55" y2="140"/><line class="cls-4" x1="100.83" y1="131.75" x2="86.55" y2="140"/><line class="cls-4" x1="86.55" y1="140" x2="86.55" y2="156.48"/><polygon class="cls-4" points="129.38 148.24 129.38 131.75 115.11 123.51 100.83 131.75 100.83 148.24 115.11 156.48 129.38 148.24"/><line class="cls-4" x1="100.83" y1="131.75" x2="115.11" y2="140"/><line class="cls-4" x1="129.38" y1="131.75" x2="115.11" y2="140"/><line class="cls-4" x1="115.11" y1="140" x2="115.11" y2="156.48"/><polygon class="cls-4" points="157.93 148.24 157.93 131.75 143.66 123.51 129.38 131.75 129.38 148.24 143.66 156.48 157.93 148.24"/><line class="cls-4" x1="129.38" y1="131.75" x2="143.66" y2="140"/><line class="cls-4" x1="157.93" y1="131.75" x2="143.66" y2="140"/><line class="cls-4" x1="143.66" y1="140" x2="143.66" y2="156.48"/><polygon class="cls-4" points="186.49 148.24 186.49 131.75 172.21 123.51 157.93 131.75 157.93 148.24 172.21 156.48 186.49 148.24"/><line class="cls-4" x1="157.93" y1="131.75" x2="172.21" y2="140"/><line class="cls-4" x1="186.48" y1="131.75" x2="172.21" y2="140"/><line class="cls-4" x1="172.21" y1="140" x2="172.21" y2="156.48"/><polygon class="cls-4" points="215.04 148.24 215.04 131.75 200.76 123.51 186.49 131.75 186.49 148.24 200.76 156.48 215.04 148.24"/><line class="cls-4" x1="186.48" y1="131.75" x2="200.76" y2="140"/><line class="cls-4" x1="215.04" y1="131.75" x2="200.76" y2="140"/><line class="cls-4" x1="200.76" y1="140" x2="200.76" y2="156.48"/><polygon class="cls-4" points="243.59 148.24 243.59 131.75 229.31 123.51 215.04 131.75 215.04 148.24 229.31 156.48 243.59 148.24"/><line class="cls-4" x1="215.04" y1="131.75" x2="229.31" y2="140"/><line class="cls-4" x1="243.59" y1="131.75" x2="229.31" y2="140"/><line class="cls-4" x1="229.31" y1="140" x2="229.31" y2="156.48"/><polygon class="cls-4" points="272.14 148.24 272.14 131.75 257.86 123.51 243.59 131.75 243.59 148.24 257.86 156.48 272.14 148.24"/><line class="cls-4" x1="243.59" y1="131.75" x2="257.86" y2="140"/><line class="cls-4" x1="272.14" y1="131.75" x2="257.86" y2="140"/><line class="cls-4" x1="257.86" y1="140" x2="257.86" y2="156.48"/><polygon class="cls-4" points="300.69 148.24 300.69 131.75 286.42 123.51 272.14 131.75 272.14 148.24 286.42 156.48 300.69 148.24"/><line class="cls-4" x1="272.14" y1="131.75" x2="286.42" y2="140"/><line class="cls-4" x1="300.69" y1="131.75" x2="286.42" y2="140"/><line class="cls-4" x1="286.42" y1="140" x2="286.42" y2="156.48"/><polygon class="cls-4" points="329.24 148.24 329.24 131.75 314.97 123.51 300.69 131.75 300.69 148.24 314.97 156.48 329.24 148.24"/><line class="cls-4" x1="300.69" y1="131.75" x2="314.97" y2="140"/><line class="cls-4" x1="329.24" y1="131.75" x2="314.97" y2="140"/><line class="cls-4" x1="314.97" y1="140" x2="314.97" y2="156.48"/><polygon class="cls-4" points="357.79 148.24 357.79 131.75 343.52 123.51 329.24 131.75 329.24 148.24 343.52 156.48 357.79 148.24"/><line class="cls-4" x1="329.24" y1="131.75" x2="343.52" y2="140"/><line class="cls-4" x1="357.79" y1="131.75" x2="343.52" y2="140"/><line class="cls-4" x1="343.52" y1="140" x2="343.52" y2="156.48"/><polygon class="cls-4" points="72.28 197.69 72.28 181.21 58 172.96 43.73 181.21 43.73 197.69 58 205.93 72.28 197.69"/><line class="cls-4" x1="43.73" y1="181.21" x2="58" y2="189.45"/><line class="cls-4" x1="72.28" y1="181.21" x2="58" y2="189.45"/><line class="cls-4" x1="58" y1="189.45" x2="58" y2="205.93"/><polygon class="cls-4" points="100.83 197.69 100.83 181.21 86.56 172.96 72.28 181.21 72.28 197.69 86.56 205.93 100.83 197.69"/><line class="cls-4" x1="72.28" y1="181.21" x2="86.55" y2="189.45"/><line class="cls-4" x1="100.83" y1="181.21" x2="86.55" y2="189.45"/><line class="cls-4" x1="86.55" y1="189.45" x2="86.55" y2="205.93"/><polygon class="cls-4" points="129.38 197.69 129.38 181.21 115.11 172.96 100.83 181.21 100.83 197.69 115.11 205.93 129.38 197.69"/><line class="cls-4" x1="100.83" y1="181.21" x2="115.11" y2="189.45"/><line class="cls-4" x1="129.38" y1="181.21" x2="115.11" y2="189.45"/><line class="cls-4" x1="115.11" y1="189.45" x2="115.11" y2="205.93"/><polygon class="cls-4" points="157.93 197.69 157.93 181.21 143.66 172.96 129.38 181.21 129.38 197.69 143.66 205.93 157.93 197.69"/><line class="cls-4" x1="129.38" y1="181.21" x2="143.66" y2="189.45"/><line class="cls-4" x1="157.93" y1="181.21" x2="143.66" y2="189.45"/><line class="cls-4" x1="143.66" y1="189.45" x2="143.66" y2="205.93"/><polygon class="cls-4" points="186.49 197.69 186.49 181.21 172.21 172.96 157.93 181.21 157.93 197.69 172.21 205.93 186.49 197.69"/><line class="cls-4" x1="157.93" y1="181.21" x2="172.21" y2="189.45"/><line class="cls-4" x1="186.48" y1="181.21" x2="172.21" y2="189.45"/><line class="cls-4" x1="172.21" y1="189.45" x2="172.21" y2="205.93"/><polygon class="cls-4" points="215.04 197.69 215.04 181.21 200.76 172.96 186.49 181.21 186.49 197.69 200.76 205.93 215.04 197.69"/><line class="cls-4" x1="186.48" y1="181.21" x2="200.76" y2="189.45"/><line class="cls-4" x1="215.04" y1="181.21" x2="200.76" y2="189.45"/><line class="cls-4" x1="200.76" y1="189.45" x2="200.76" y2="205.93"/><polygon class="cls-4" points="243.59 197.69 243.59 181.21 229.31 172.96 215.04 181.21 215.04 197.69 229.31 205.93 243.59 197.69"/><line class="cls-4" x1="215.04" y1="181.21" x2="229.31" y2="189.45"/><line class="cls-4" x1="243.59" y1="181.21" x2="229.31" y2="189.45"/><line class="cls-4" x1="229.31" y1="189.45" x2="229.31" y2="205.93"/><polygon class="cls-4" points="272.14 197.69 272.14 181.21 257.86 172.96 243.59 181.21 243.59 197.69 257.86 205.93 272.14 197.69"/><line class="cls-4" x1="243.59" y1="181.21" x2="257.86" y2="189.45"/><line class="cls-4" x1="272.14" y1="181.21" x2="257.86" y2="189.45"/><line class="cls-4" x1="257.86" y1="189.45" x2="257.86" y2="205.93"/><polygon class="cls-4" points="300.69 197.69 300.69 181.21 286.42 172.96 272.14 181.21 272.14 197.69 286.42 205.93 300.69 197.69"/><line class="cls-4" x1="272.14" y1="181.21" x2="286.42" y2="189.45"/><line class="cls-4" x1="300.69" y1="181.21" x2="286.42" y2="189.45"/><line class="cls-4" x1="286.42" y1="189.45" x2="286.42" y2="205.93"/><polygon class="cls-4" points="329.24 197.69 329.24 181.21 314.97 172.96 300.69 181.21 300.69 197.69 314.97 205.93 329.24 197.69"/><line class="cls-4" x1="300.69" y1="181.21" x2="314.97" y2="189.45"/><line class="cls-4" x1="329.24" y1="181.21" x2="314.97" y2="189.45"/><line class="cls-4" x1="314.97" y1="189.45" x2="314.97" y2="205.93"/><polygon class="cls-4" points="357.79 197.69 357.79 181.21 343.52 172.96 329.24 181.21 329.24 197.69 343.52 205.93 357.79 197.69"/><line class="cls-4" x1="329.24" y1="181.21" x2="343.52" y2="189.45"/><line class="cls-4" x1="357.79" y1="181.21" x2="343.52" y2="189.45"/><line class="cls-4" x1="343.52" y1="189.45" x2="343.52" y2="205.93"/><polygon class="cls-4" points="58 172.96 58 156.48 43.73 148.24 29.45 156.48 29.45 172.96 43.73 181.21 58 172.96"/><line class="cls-4" x1="29.45" y1="156.48" x2="43.73" y2="164.72"/><line class="cls-4" x1="58" y1="156.48" x2="43.73" y2="164.72"/><line class="cls-4" x1="43.73" y1="164.72" x2="43.73" y2="181.21"/><polygon class="cls-4" points="86.56 172.96 86.56 156.48 72.28 148.24 58 156.48 58 172.96 72.28 181.21 86.56 172.96"/><line class="cls-4" x1="58" y1="156.48" x2="72.28" y2="164.72"/><line class="cls-4" x1="86.55" y1="156.48" x2="72.28" y2="164.72"/><line class="cls-4" x1="72.28" y1="164.72" x2="72.28" y2="181.21"/><polygon class="cls-4" points="115.11 172.96 115.11 156.48 100.83 148.24 86.56 156.48 86.56 172.96 100.83 181.21 115.11 172.96"/><line class="cls-4" x1="86.55" y1="156.48" x2="100.83" y2="164.72"/><line class="cls-4" x1="115.11" y1="156.48" x2="100.83" y2="164.72"/><line class="cls-4" x1="100.83" y1="164.72" x2="100.83" y2="181.21"/><polygon class="cls-4" points="143.66 172.96 143.66 156.48 129.38 148.24 115.11 156.48 115.11 172.96 129.38 181.21 143.66 172.96"/><line class="cls-4" x1="115.11" y1="156.48" x2="129.38" y2="164.72"/><line class="cls-4" x1="143.66" y1="156.48" x2="129.38" y2="164.72"/><line class="cls-4" x1="129.38" y1="164.72" x2="129.38" y2="181.21"/><polygon class="cls-4" points="172.21 172.96 172.21 156.48 157.93 148.24 143.66 156.48 143.66 172.96 157.93 181.21 172.21 172.96"/><line class="cls-4" x1="143.66" y1="156.48" x2="157.93" y2="164.72"/><line class="cls-4" x1="172.21" y1="156.48" x2="157.93" y2="164.72"/><line class="cls-4" x1="157.93" y1="164.72" x2="157.93" y2="181.21"/><polygon class="cls-4" points="200.76 172.96 200.76 156.48 186.49 148.24 172.21 156.48 172.21 172.96 186.49 181.21 200.76 172.96"/><line class="cls-4" x1="172.21" y1="156.48" x2="186.49" y2="164.72"/><line class="cls-4" x1="200.76" y1="156.48" x2="186.49" y2="164.72"/><line class="cls-4" x1="186.49" y1="164.72" x2="186.49" y2="181.21"/><polygon class="cls-4" points="229.31 172.96 229.31 156.48 215.04 148.24 200.76 156.48 200.76 172.96 215.04 181.21 229.31 172.96"/><line class="cls-4" x1="200.76" y1="156.48" x2="215.04" y2="164.72"/><line class="cls-4" x1="229.31" y1="156.48" x2="215.04" y2="164.72"/><line class="cls-4" x1="215.04" y1="164.72" x2="215.04" y2="181.21"/><polygon class="cls-4" points="257.86 172.96 257.86 156.48 243.59 148.24 229.31 156.48 229.31 172.96 243.59 181.21 257.86 172.96"/><line class="cls-4" x1="229.31" y1="156.48" x2="243.59" y2="164.72"/><line class="cls-4" x1="257.86" y1="156.48" x2="243.59" y2="164.72"/><line class="cls-4" x1="243.59" y1="164.72" x2="243.59" y2="181.21"/><polygon class="cls-4" points="286.42 172.96 286.42 156.48 272.14 148.24 257.86 156.48 257.86 172.96 272.14 181.21 286.42 172.96"/><line class="cls-4" x1="257.86" y1="156.48" x2="272.14" y2="164.72"/><line class="cls-4" x1="286.42" y1="156.48" x2="272.14" y2="164.72"/><line class="cls-4" x1="272.14" y1="164.72" x2="272.14" y2="181.21"/><polygon class="cls-4" points="314.97 172.96 314.97 156.48 300.69 148.24 286.42 156.48 286.42 172.96 300.69 181.21 314.97 172.96"/><line class="cls-4" x1="286.42" y1="156.48" x2="300.69" y2="164.72"/><line class="cls-4" x1="314.97" y1="156.48" x2="300.69" y2="164.72"/><line class="cls-4" x1="300.69" y1="164.72" x2="300.69" y2="181.21"/><polygon class="cls-4" points="343.52 172.96 343.52 156.48 329.24 148.24 314.97 156.48 314.97 172.96 329.24 181.21 343.52 172.96"/><line class="cls-4" x1="314.97" y1="156.48" x2="329.24" y2="164.72"/><line class="cls-4" x1="343.52" y1="156.48" x2="329.24" y2="164.72"/><line class="cls-4" x1="329.24" y1="164.72" x2="329.24" y2="181.21"/><polygon class="cls-4" points="72.28 247.14 72.28 230.66 58 222.42 43.73 230.66 43.73 247.14 58 255.38 72.28 247.14"/><line class="cls-4" x1="43.73" y1="230.66" x2="58" y2="238.9"/><line class="cls-4" x1="72.28" y1="230.66" x2="58" y2="238.9"/><line class="cls-4" x1="58" y1="238.9" x2="58" y2="255.38"/><polygon class="cls-4" points="100.83 247.14 100.83 230.66 86.56 222.42 72.28 230.66 72.28 247.14 86.56 255.38 100.83 247.14"/><line class="cls-4" x1="72.28" y1="230.66" x2="86.55" y2="238.9"/><line class="cls-4" x1="100.83" y1="230.66" x2="86.55" y2="238.9"/><line class="cls-4" x1="86.55" y1="238.9" x2="86.55" y2="255.38"/><polygon class="cls-4" points="129.38 247.14 129.38 230.66 115.11 222.42 100.83 230.66 100.83 247.14 115.11 255.38 129.38 247.14"/><line class="cls-4" x1="100.83" y1="230.66" x2="115.11" y2="238.9"/><line class="cls-4" x1="129.38" y1="230.66" x2="115.11" y2="238.9"/><line class="cls-4" x1="115.11" y1="238.9" x2="115.11" y2="255.38"/><polygon class="cls-4" points="157.93 247.14 157.93 230.66 143.66 222.42 129.38 230.66 129.38 247.14 143.66 255.38 157.93 247.14"/><line class="cls-4" x1="129.38" y1="230.66" x2="143.66" y2="238.9"/><line class="cls-4" x1="157.93" y1="230.66" x2="143.66" y2="238.9"/><line class="cls-4" x1="143.66" y1="238.9" x2="143.66" y2="255.38"/><polygon class="cls-4" points="186.49 247.14 186.49 230.66 172.21 222.42 157.93 230.66 157.93 247.14 172.21 255.38 186.49 247.14"/><line class="cls-4" x1="157.93" y1="230.66" x2="172.21" y2="238.9"/><line class="cls-4" x1="186.48" y1="230.66" x2="172.21" y2="238.9"/><line class="cls-4" x1="172.21" y1="238.9" x2="172.21" y2="255.38"/><polygon class="cls-4" points="215.04 247.14 215.04 230.66 200.76 222.42 186.49 230.66 186.49 247.14 200.76 255.38 215.04 247.14"/><line class="cls-4" x1="186.48" y1="230.66" x2="200.76" y2="238.9"/><line class="cls-4" x1="215.04" y1="230.66" x2="200.76" y2="238.9"/><line class="cls-4" x1="200.76" y1="238.9" x2="200.76" y2="255.38"/><polygon class="cls-4" points="243.59 247.14 243.59 230.66 229.31 222.42 215.04 230.66 215.04 247.14 229.31 255.38 243.59 247.14"/><line class="cls-4" x1="215.04" y1="230.66" x2="229.31" y2="238.9"/><line class="cls-4" x1="243.59" y1="230.66" x2="229.31" y2="238.9"/><line class="cls-4" x1="229.31" y1="238.9" x2="229.31" y2="255.38"/><polygon class="cls-4" points="272.14 247.14 272.14 230.66 257.86 222.42 243.59 230.66 243.59 247.14 257.86 255.38 272.14 247.14"/><line class="cls-4" x1="243.59" y1="230.66" x2="257.86" y2="238.9"/><line class="cls-4" x1="272.14" y1="230.66" x2="257.86" y2="238.9"/><line class="cls-4" x1="257.86" y1="238.9" x2="257.86" y2="255.38"/><polygon class="cls-4" points="300.69 247.14 300.69 230.66 286.42 222.42 272.14 230.66 272.14 247.14 286.42 255.38 300.69 247.14"/><line class="cls-4" x1="272.14" y1="230.66" x2="286.42" y2="238.9"/><line class="cls-4" x1="300.69" y1="230.66" x2="286.42" y2="238.9"/><line class="cls-4" x1="286.42" y1="238.9" x2="286.42" y2="255.38"/><polygon class="cls-4" points="329.24 247.14 329.24 230.66 314.97 222.42 300.69 230.66 300.69 247.14 314.97 255.38 329.24 247.14"/><line class="cls-4" x1="300.69" y1="230.66" x2="314.97" y2="238.9"/><line class="cls-4" x1="329.24" y1="230.66" x2="314.97" y2="238.9"/><line class="cls-4" x1="314.97" y1="238.9" x2="314.97" y2="255.38"/><polygon class="cls-4" points="357.79 247.14 357.79 230.66 343.52 222.42 329.24 230.66 329.24 247.14 343.52 255.38 357.79 247.14"/><line class="cls-4" x1="329.24" y1="230.66" x2="343.52" y2="238.9"/><line class="cls-4" x1="357.79" y1="230.66" x2="343.52" y2="238.9"/><line class="cls-4" x1="343.52" y1="238.9" x2="343.52" y2="255.38"/><polygon class="cls-4" points="58 222.42 58 205.93 43.73 197.69 29.45 205.93 29.45 222.42 43.73 230.66 58 222.42"/><line class="cls-4" x1="29.45" y1="205.93" x2="43.73" y2="214.17"/><line class="cls-4" x1="58" y1="205.93" x2="43.73" y2="214.17"/><line class="cls-4" x1="43.73" y1="214.17" x2="43.73" y2="230.66"/><polygon class="cls-4" points="86.56 222.42 86.56 205.93 72.28 197.69 58 205.93 58 222.42 72.28 230.66 86.56 222.42"/><line class="cls-4" x1="58" y1="205.93" x2="72.28" y2="214.17"/><line class="cls-4" x1="86.55" y1="205.93" x2="72.28" y2="214.17"/><line class="cls-4" x1="72.28" y1="214.17" x2="72.28" y2="230.66"/><polygon class="cls-4" points="115.11 222.42 115.11 205.93 100.83 197.69 86.56 205.93 86.56 222.42 100.83 230.66 115.11 222.42"/><line class="cls-4" x1="86.55" y1="205.93" x2="100.83" y2="214.17"/><line class="cls-4" x1="115.11" y1="205.93" x2="100.83" y2="214.17"/><line class="cls-4" x1="100.83" y1="214.17" x2="100.83" y2="230.66"/><polygon class="cls-4" points="143.66 222.42 143.66 205.93 129.38 197.69 115.11 205.93 115.11 222.42 129.38 230.66 143.66 222.42"/><line class="cls-4" x1="115.11" y1="205.93" x2="129.38" y2="214.17"/><line class="cls-4" x1="143.66" y1="205.93" x2="129.38" y2="214.17"/><line class="cls-4" x1="129.38" y1="214.17" x2="129.38" y2="230.66"/><polygon class="cls-4" points="172.21 222.42 172.21 205.93 157.93 197.69 143.66 205.93 143.66 222.42 157.93 230.66 172.21 222.42"/><line class="cls-4" x1="143.66" y1="205.93" x2="157.93" y2="214.17"/><line class="cls-4" x1="172.21" y1="205.93" x2="157.93" y2="214.17"/><line class="cls-4" x1="157.93" y1="214.17" x2="157.93" y2="230.66"/><polygon class="cls-4" points="200.76 222.42 200.76 205.93 186.49 197.69 172.21 205.93 172.21 222.42 186.49 230.66 200.76 222.42"/><line class="cls-4" x1="172.21" y1="205.93" x2="186.49" y2="214.17"/><line class="cls-4" x1="200.76" y1="205.93" x2="186.49" y2="214.17"/><line class="cls-4" x1="186.49" y1="214.17" x2="186.49" y2="230.66"/><polygon class="cls-4" points="229.31 222.42 229.31 205.93 215.04 197.69 200.76 205.93 200.76 222.42 215.04 230.66 229.31 222.42"/><line class="cls-4" x1="200.76" y1="205.93" x2="215.04" y2="214.17"/><line class="cls-4" x1="229.31" y1="205.93" x2="215.04" y2="214.17"/><line class="cls-4" x1="215.04" y1="214.17" x2="215.04" y2="230.66"/><polygon class="cls-4" points="257.86 222.42 257.86 205.93 243.59 197.69 229.31 205.93 229.31 222.42 243.59 230.66 257.86 222.42"/><line class="cls-4" x1="229.31" y1="205.93" x2="243.59" y2="214.17"/><line class="cls-4" x1="257.86" y1="205.93" x2="243.59" y2="214.17"/><line class="cls-4" x1="243.59" y1="214.17" x2="243.59" y2="230.66"/><polygon class="cls-4" points="286.42 222.42 286.42 205.93 272.14 197.69 257.86 205.93 257.86 222.42 272.14 230.66 286.42 222.42"/><line class="cls-4" x1="257.86" y1="205.93" x2="272.14" y2="214.17"/><line class="cls-4" x1="286.42" y1="205.93" x2="272.14" y2="214.17"/><line class="cls-4" x1="272.14" y1="214.17" x2="272.14" y2="230.66"/><polygon class="cls-4" points="314.97 222.42 314.97 205.93 300.69 197.69 286.42 205.93 286.42 222.42 300.69 230.66 314.97 222.42"/><line class="cls-4" x1="286.42" y1="205.93" x2="300.69" y2="214.17"/><line class="cls-4" x1="314.97" y1="205.93" x2="300.69" y2="214.17"/><line class="cls-4" x1="300.69" y1="214.17" x2="300.69" y2="230.66"/><polygon class="cls-4" points="343.52 222.42 343.52 205.93 329.24 197.69 314.97 205.93 314.97 222.42 329.24 230.66 343.52 222.42"/><line class="cls-4" x1="314.97" y1="205.93" x2="329.24" y2="214.17"/><line class="cls-4" x1="343.52" y1="205.93" x2="329.24" y2="214.17"/><line class="cls-4" x1="329.24" y1="214.17" x2="329.24" y2="230.66"/></g><path class="cls-5" d="M240.7,220.69H141.15a17.78,17.78,0,0,0-17.78-17.78V167.59a17.78,17.78,0,0,0,17.78-17.78H240.7a17.79,17.79,0,0,0,17.79,17.78v35.32A17.79,17.79,0,0,0,240.7,220.69Z"/><text class="cls-6" transform="translate(143.49 199.79)">$100</text><line class="cls-7" x1="84.07" y1="139.6" x2="123.37" y2="139.6"/><rect class="cls-8" x="73.69" y="123.51" width="234.47" height="123.91"/></svg>