<svg id="圖層_1" data-name="圖層 1" xmlns="http://www.w3.org/2000/svg" viewBox="0 0 383.25 383.25"><defs><style>.cls-1{fill:#fff;}.cls-1,.cls-3,.cls-5,.cls-6,.cls-9{stroke:#08a39f;}.cls-1,.cls-10,.cls-3,.cls-5,.cls-6,.cls-9{stroke-linecap:round;stroke-linejoin:round;}.cls-1,.cls-10,.cls-3,.cls-6,.cls-9{stroke-width:3px;}.cls-2,.cls-6{fill:#ffc636;}.cls-10,.cls-2{opacity:0.6;}.cls-10,.cls-3,.cls-5{fill:none;}.cls-4,.cls-8,.cls-9{fill:#08a39f;}.cls-4,.cls-7{opacity:0.3;}.cls-5{stroke-width:5px;}.cls-10{stroke:#fff;}</style></defs><title>180208_carousel</title><path class="cls-1" d="M238.44,321.52H165.38a44.74,44.74,0,0,1-44.6-48.29l4-50.69a389.13,389.13,0,0,0,0-61.83l-4-50.69a44.74,44.74,0,0,1,44.6-48.29h73.06A44.73,44.73,0,0,1,283,110l-4,50.69a389.13,389.13,0,0,0,0,61.83l4,50.69A44.73,44.73,0,0,1,238.44,321.52Z"/><path class="cls-2" d="M238.44,321.52H165.38a44.74,44.74,0,0,1-44.6-48.29l4-50.69a389.13,389.13,0,0,0,0-61.83l-4-50.69a44.74,44.74,0,0,1,44.6-48.29h73.06A44.73,44.73,0,0,1,283,110l-4,50.69a389.13,389.13,0,0,0,0,61.83l4,50.69A44.73,44.73,0,0,1,238.44,321.52Z"/><path class="cls-3" d="M238.44,321.52H165.38a44.74,44.74,0,0,1-44.6-48.29l4-50.69a389.13,389.13,0,0,0,0-61.83l-4-50.69a44.74,44.74,0,0,1,44.6-48.29h73.06A44.73,44.73,0,0,1,283,110l-4,50.69a389.13,389.13,0,0,0,0,61.83l4,50.69A44.73,44.73,0,0,1,238.44,321.52Z"/><path class="cls-1" d="M103.77,280.29,82.46,278l11.35-61.57q4.39-23.85,7-48l8.06-75,25.21,2.71-6.52,60.59A642.57,642.57,0,0,1,114.69,233Z"/><path class="cls-2" d="M103.77,280.29,82.46,278l11.35-61.57q4.39-23.85,7-48l8.06-75,25.21,2.71-6.52,60.59A642.57,642.57,0,0,1,114.69,233Z"/><path class="cls-3" d="M103.77,280.29,82.46,278l11.35-61.57q4.39-23.85,7-48l8.06-75,25.21,2.71-6.52,60.59A642.57,642.57,0,0,1,114.69,233Z"/><path class="cls-1" d="M114.42,109.46l-4,37,.51.05a99.9,99.9,0,0,1,61.53,30.29h0a112.6,112.6,0,0,0,8.87-82.55h0l-.63.4a99.92,99.92,0,0,1-64.23,15Z"/><path class="cls-4" d="M114.42,109.46l-4,37,.51.05a99.9,99.9,0,0,1,61.53,30.29h0a112.6,112.6,0,0,0,8.87-82.55h0l-.63.4a99.92,99.92,0,0,1-64.23,15Z"/><path class="cls-3" d="M114.42,109.46l-4,37,.51.05a99.9,99.9,0,0,1,61.53,30.29h0a112.6,112.6,0,0,0,8.87-82.55h0l-.63.4a99.92,99.92,0,0,1-64.23,15Z"/><path class="cls-1" d="M132.5,154.13l-34.15-3.67,5-46.15L137.46,108h0a97.63,97.63,0,0,1-5,46.15Z"/><path class="cls-4" d="M132.5,154.13l-34.15-3.67,5-46.15L137.46,108h0a97.63,97.63,0,0,1-5,46.15Z"/><path class="cls-3" d="M132.5,154.13l-34.15-3.67,5-46.15L137.46,108h0a97.63,97.63,0,0,1-5,46.15Z"/><path class="cls-5" d="M228.23,277h8.71a4.63,4.63,0,0,1,4.63,4.63V296a4.63,4.63,0,0,1-4.63,4.63h-8.71a0,0,0,0,1,0,0V277A0,0,0,0,1,228.23,277Z" transform="translate(572.29 446.2) rotate(154.13)"/><path class="cls-5" d="M287.16,250.65h8.71a0,0,0,0,1,0,0v23.69a0,0,0,0,1,0,0h-8.71a4.63,4.63,0,0,1-4.63-4.63V255.28a4.63,4.63,0,0,1,4.63-4.63Z" transform="translate(663.95 372.47) rotate(154.13)"/><circle class="cls-1" cx="261.84" cy="275.24" r="29.89"/><circle class="cls-2" cx="261.84" cy="275.24" r="29.89"/><circle class="cls-3" cx="261.84" cy="275.24" r="29.89"/><ellipse class="cls-6" cx="252.18" cy="260.06" rx="5.64" ry="8.18" transform="translate(-64.8 435.43) rotate(-74.84)"/><ellipse class="cls-6" cx="245.61" cy="266.24" rx="5.64" ry="8.18" transform="translate(-75.61 433.66) rotate(-74.84)"/><circle class="cls-1" cx="273.21" cy="282.82" r="11.06"/><circle class="cls-1" cx="273.43" cy="266.96" r="11.06"/><g class="cls-7"><circle class="cls-8" cx="273.21" cy="282.82" r="11.06"/><circle class="cls-8" cx="273.43" cy="266.96" r="11.06"/></g><rect class="cls-1" x="257.23" y="284" width="14.03" height="14.03" transform="translate(602.31 491.58) rotate(162.92)"/><rect class="cls-1" x="248.57" y="281.93" width="14.03" height="14.03" transform="translate(584.76 490.08) rotate(162.92)"/><rect class="cls-1" x="241.24" y="277.96" width="14.03" height="14.03" transform="translate(569.24 484.47) rotate(162.92)"/><path class="cls-1" d="M236,169.51c-19.35-11.95-56.74-22.83-76.59-26.31L155,153.86a17.06,17.06,0,0,0,9.28,22.35l11.5,4.7a195,195,0,0,0,24.78,8.24l12,3.12a17.06,17.06,0,0,0,20.82-12.34Z"/><path class="cls-9" d="M236,169.51,238.65,159h0a369.28,369.28,0,0,0-75.37-25.06h0l-3.88,9.31C179.25,146.68,216.64,157.56,236,169.51Z"/><line class="cls-3" x1="169.38" y1="150.14" x2="193.8" y2="181.77"/><line class="cls-3" x1="192.9" y1="157.12" x2="206.96" y2="175.98"/><path class="cls-1" d="M226.59,181.59c-21.13-8.41-59.84-12.63-80-12.61l-2.53,11.27a17,17,0,0,0,13,20.39l12.13,2.64a194.19,194.19,0,0,0,25.84,3.81l12.38,1a17.05,17.05,0,0,0,18.36-15.76Z"/><path class="cls-9" d="M226.59,181.59l.79-10.86h0a369.34,369.34,0,0,0-78.58-11.59h0L146.6,169C166.75,169,205.46,173.18,226.59,181.59Z"/><line class="cls-3" x1="157.63" y1="174.09" x2="187.17" y2="200.99"/><line class="cls-3" x1="182" y1="176.87" x2="199.12" y2="193.01"/><path class="cls-1" d="M219.43,195.12c-22.27-4.61-61.12-2.05-81,1.47l-.53,11.54A17.05,17.05,0,0,0,154.3,226l12.41.49a194.54,194.54,0,0,0,26.11-.74l12.36-1.18a17,17,0,0,0,15.34-18.71Z"/><path class="cls-9" d="M219.43,195.12l-1.11-10.83h0a369.25,369.25,0,0,0-79.4,2.23h0l-.46,10.07C158.31,193.07,197.16,190.51,219.43,195.12Z"/><line class="cls-3" x1="150.21" y1="199.71" x2="183.98" y2="221.07"/><line class="cls-3" x1="174.7" y1="198.21" x2="194.36" y2="211.13"/><path class="cls-1" d="M214.73,209.68c-22.73-.67-60.55,8.61-79.49,15.52l1.49,11.45a17,17,0,0,0,19.21,14.71l12.31-1.68a194,194,0,0,0,25.58-5.25l12-3.31A17.05,17.05,0,0,0,217.66,220Z"/><path class="cls-9" d="M214.73,209.68l-3-10.46h0a369,369,0,0,0-77.81,16h0l1.29,10C154.18,218.29,192,209,214.73,209.68Z"/><line class="cls-3" x1="147.36" y1="226.22" x2="184.33" y2="241.4"/><line class="cls-3" x1="171.21" y1="220.5" x2="192.82" y2="229.81"/><path class="cls-1" d="M212.63,224.85c-22.5,3.28-58.14,19-75.59,29.08l3.45,11A17.07,17.07,0,0,0,162,276.1l11.83-3.79a194.25,194.25,0,0,0,24.28-9.62l11.21-5.34a17,17,0,0,0,8-22.83Z"/><path class="cls-9" d="M212.63,224.85l-4.75-9.8h0A370.22,370.22,0,0,0,134,244.3h0l3,9.63C154.49,243.83,190.13,228.13,212.63,224.85Z"/><line class="cls-3" x1="149.15" y1="252.83" x2="188.19" y2="261.36"/><line class="cls-3" x1="171.65" y1="243.06" x2="194.54" y2="248.47"/><path class="cls-1" d="M213.19,240.15c-21.59,7.14-54,28.79-69.38,41.76l5.31,10.25a17,17,0,0,0,23.08,7.25l11-5.78a193.57,193.57,0,0,0,22.25-13.69l10.11-7.2a17.06,17.06,0,0,0,3.93-23.88Z"/><path class="cls-9" d="M213.19,240.15l-6.37-8.83h0A369.66,369.66,0,0,0,139.17,273h0l4.64,9C159.23,268.94,191.6,247.29,213.19,240.15Z"/><line class="cls-3" x1="155.54" y1="278.73" x2="195.47" y2="280.35"/><line class="cls-3" x1="176" y1="265.19" x2="199.48" y2="266.55"/><path class="cls-9" d="M201.42,109c5.73-2.12,68,31.35,69.09,36.28s0,14.89,0,14.89,28.29,5.26,28.29,9.07-7.08,14-12.52,14-18.22-7.54-22.3-9.51c-8.08-3.9-21.35,13.8-24.53,24.59-4,13.54-13.67,25.92-16.88,22.88s22.11-51.91,22.11-51.91-9.05-.37-14.41-7.38c-7.14-9.33-38.28-32.06-39.47-37.41C189.71,119.69,192.17,112.44,201.42,109Z"/><path class="cls-10" d="M268.09,168.89c0-.78,19,2.56,19.83,3.54s-1.77,6.5-4.13,6.49S267.94,174.72,268.09,168.89Z"/><path class="cls-10" d="M199.76,115.69c2.48-.93,58.33,28.67,60.23,32.82s3.46,13.43,0,14.07-17.34-2.38-21-4.21-39.63-33.27-41.16-35.17S197,116.73,199.76,115.69Z"/><path class="cls-1" d="M262.26,190.6l-8.67-1.4a6.6,6.6,0,0,1-5.24-8.52l1.64-5.15,22.57,7.17-2.11,3.87A7.87,7.87,0,0,1,262.26,190.6Z"/><path class="cls-1" d="M258.23,199.32l-9.57-.47a7.2,7.2,0,0,1-6.71-8.6l1.15-5.78,25.34,5L266.63,194A8.6,8.6,0,0,1,258.23,199.32Z"/><path class="cls-1" d="M256.31,210.1l-10.47.46a7.87,7.87,0,0,1-8.19-8.67l.66-6.42,28.11,2.9-1.51,5A9.41,9.41,0,0,1,256.31,210.1Z"/><path class="cls-1" d="M256.49,221.52l-11.37,1.4a8.62,8.62,0,0,1-9.67-8.76l.18-7,30.88.76-1.22,5.62A10.31,10.31,0,0,1,256.49,221.52Z"/><path class="cls-1" d="M258.93,233.07l-12.28,2.34a9.38,9.38,0,0,1-11.13-8.84l-.32-7.68,33.66-1.38-.93,6.2A11.22,11.22,0,0,1,258.93,233.07Z"/><circle class="cls-6" cx="258.19" cy="104.8" r="16.28"/><circle class="cls-6" cx="224.08" cy="86.59" r="16.28"/></svg>