<svg id="圖層_1" data-name="圖層 1" xmlns="http://www.w3.org/2000/svg" viewBox="0 0 1080 1080"><defs><style>.cls-1,.cls-7{fill:#fff;}.cls-2,.cls-3{fill:none;}.cls-2,.cls-6,.cls-7{stroke:#08a39f;}.cls-2,.cls-3,.cls-5,.cls-6{stroke-miterlimit:10;}.cls-2{stroke-width:22.51px;}.cls-3,.cls-5{stroke:#10665a;}.cls-3,.cls-5,.cls-6,.cls-7{stroke-width:11.25px;}.cls-4,.cls-6{fill:#10665a;}.cls-5{fill:#08a39f;}.cls-7{stroke-linejoin:round;}</style></defs><title>180207</title><path class="cls-1" d="M938.53,927.67H537.9a67.71,67.71,0,0,1-67.39-61.2L436.37,512.54h603.69l-34.14,353.93A67.7,67.7,0,0,1,938.53,927.67Z"/><line class="cls-2" x1="442.6" y1="580.39" x2="1033.84" y2="580.39"/><line class="cls-2" x1="448.89" y1="642.28" x2="1027.55" y2="642.28"/><line class="cls-2" x1="454.86" y1="704.18" x2="1021.58" y2="704.18"/><line class="cls-2" x1="460.83" y1="766.07" x2="1015.61" y2="766.07"/><path class="cls-3" d="M938.53,927.67H537.9a67.71,67.71,0,0,1-67.39-61.2L436.37,512.54h603.69l-34.14,353.93A67.7,67.7,0,0,1,938.53,927.67Z"/><path class="cls-4" d="M467.15,831.57l3.36,34.9a67.71,67.71,0,0,0,67.39,61.2H938.53a67.7,67.7,0,0,0,67.39-61.2l3.37-34.9Z"/><path class="cls-3" d="M467.15,831.57l3.36,34.9a67.71,67.71,0,0,0,67.39,61.2H938.53a67.7,67.7,0,0,0,67.39-61.2l3.37-34.9Z"/><path class="cls-5" d="M738.22,270.74h0a78.14,78.14,0,0,1,78.14,78.15V831.57h28V348.89A106.17,106.17,0,0,0,738.22,242.71h0A106.18,106.18,0,0,0,632,348.89V831.57h28V348.89A78.15,78.15,0,0,1,738.22,270.74Z"/><path class="cls-6" d="M376.28,203.12V191.83a51.35,51.35,0,0,0-51.35-51.35h0a51.35,51.35,0,0,0-51.35,51.35v9.56h20v-9.56a31.33,31.33,0,1,1,62.65,0v11.29Z"/><path class="cls-6" d="M321.19,196.38h0A227.19,227.19,0,0,0,94.46,409.18L67.73,830.77a92.87,92.87,0,0,0,92.68,98.75H482.83a92.88,92.88,0,0,0,92.67-98.94L547.88,408.71A227.18,227.18,0,0,0,321.19,196.38Z"/><path class="cls-6" d="M302.88,268h0A222.82,222.82,0,0,0,80.51,476.72L58.28,827.28a96.15,96.15,0,0,0,96,102.24H451.52a96.16,96.16,0,0,0,96-102.24L525.26,476.72A222.82,222.82,0,0,0,302.88,268Z"/><rect class="cls-6" x="45.94" y="590.3" width="447.1" height="339.22" rx="66.13" ry="66.13"/><line class="cls-6" x1="45.94" y1="686.49" x2="493.04" y2="686.49"/><rect class="cls-7" x="227.86" y="407.44" width="91.45" height="91.45" transform="translate(400.57 -60.72) rotate(45)"/><polygon class="cls-1" points="186.05 836.04 172.87 878.43 147.24 842.18 102.86 842.75 129.41 807.18 115.15 765.14 157.19 779.39 192.76 752.85 192.2 797.23 228.44 822.86 186.05 836.04"/><polygon class="cls-1" points="428.69 536.24 420.39 562.95 404.24 540.12 376.27 540.47 393 518.06 384.02 491.57 410.5 500.56 432.92 483.83 432.56 511.8 455.39 527.94 428.69 536.24"/><polygon class="cls-1" points="166.84 389.24 161.54 406.28 151.23 391.71 133.38 391.94 144.06 377.63 138.33 360.73 155.23 366.46 169.53 355.79 169.31 373.63 183.88 383.94 166.84 389.24"/><polygon class="cls-1" points="476 444.01 470.7 461.05 460.4 446.48 442.55 446.71 453.22 432.4 447.49 415.5 464.39 421.23 478.7 410.56 478.47 428.4 493.04 438.71 476 444.01"/><polygon class="cls-1" points="436.77 772.76 428.47 799.47 412.32 776.63 384.36 776.99 401.08 754.58 392.1 728.09 418.59 737.08 441 720.35 440.64 748.31 463.48 764.46 436.77 772.76"/></svg>