<svg id="圖層_1" data-name="圖層 1" xmlns="http://www.w3.org/2000/svg" viewBox="0 0 383.25 383.25"><defs><style>.cls-1,.cls-4{fill:none;}.cls-1,.cls-2,.cls-4,.cls-5,.cls-6{stroke:#08a39f;stroke-width:3px;}.cls-1,.cls-5{stroke-linecap:round;stroke-linejoin:round;}.cls-2,.cls-5{fill:#fff;}.cls-2,.cls-4,.cls-6{stroke-miterlimit:10;}.cls-3{fill:#08a39f;opacity:0.3;}.cls-6{fill:#10665a;}</style></defs><title>180208_carousel</title><rect class="cls-1" x="101.54" y="225.68" width="133.66" height="45.53" transform="translate(336.74 496.89) rotate(180)"/><polygon class="cls-1" points="235.2 225.68 101.54 225.68 45.05 204.92 45.05 187.93 101.54 208.69 235.2 208.69 235.2 225.68"/><circle class="cls-1" cx="54.05" cy="199.41" r="3.93"/><circle class="cls-1" cx="110.36" cy="217.31" r="3.93"/><circle class="cls-1" cx="168.24" cy="217.31" r="3.93"/><circle class="cls-1" cx="226.13" cy="217.31" r="3.93"/><polygon class="cls-1" points="235.2 271.21 101.54 271.21 45.05 250.45 45.05 163.88 178.71 187.93 235.2 208.69 235.2 271.21"/><line class="cls-1" x1="101.54" y1="225.68" x2="101.54" y2="208.69"/><path class="cls-2" d="M217.21,102l-38.5-6.1H45.05v92H178.71l38.5-6.1a21.32,21.32,0,0,0,18-21.06V123.08A21.32,21.32,0,0,0,217.21,102Z"/><path class="cls-3" d="M217.21,102l-38.5-6.1H45.05v92H178.71l38.5-6.1a21.32,21.32,0,0,0,18-21.06V123.08A21.32,21.32,0,0,0,217.21,102Z"/><path class="cls-2" d="M83.55,181.83l-38.5,6.1v-92l38.5,6.1a21.32,21.32,0,0,1,18,21v37.69A21.32,21.32,0,0,1,83.55,181.83Z"/><line class="cls-4" x1="106.93" y1="116.46" x2="225.86" y2="116.46"/><line class="cls-4" x1="107.96" y1="126.65" x2="227.91" y2="126.65"/><line class="cls-4" x1="107.96" y1="136.83" x2="227.91" y2="136.83"/><line class="cls-4" x1="107.96" y1="147.02" x2="227.91" y2="147.02"/><line class="cls-4" x1="107.96" y1="157.21" x2="227.91" y2="157.21"/><line class="cls-4" x1="106.93" y1="167.4" x2="225.86" y2="167.4"/><path class="cls-2" d="M271.71,159.46h0a10.77,10.77,0,0,0-15.22,0L231,185l-21.52-21.52a10.77,10.77,0,1,0-15.23,15.23l29.06,29.06a11,11,0,0,0,15.38,0l33-33.06A10.76,10.76,0,0,0,271.71,159.46Z"/><line class="cls-4" x1="236.2" y1="179.75" x2="251.43" y2="194.98"/><circle class="cls-2" cx="290.9" cy="124.7" r="25.12"/><path class="cls-2" d="M268.89,155.41h7.92l13.73,16.5,13.51-16.5h8.87a19.9,19.9,0,0,1,19.91,19.91V277.94H249V175.32A19.9,19.9,0,0,1,268.89,155.41Z"/><path class="cls-3" d="M268.89,155.41h7.92l13.73,16.5,13.51-16.5h8.87a19.9,19.9,0,0,1,19.91,19.91V277.94H249V175.32A19.9,19.9,0,0,1,268.89,155.41Z"/><polygon class="cls-2" points="276.81 155.41 304.05 155.41 290.54 171.91 276.81 155.41"/><line class="cls-4" x1="290.54" y1="171.91" x2="290.54" y2="277.94"/><polygon class="cls-5" points="273.21 155.41 277.11 179.12 290.8 172.76 279.35 155.41 273.21 155.41"/><polygon class="cls-5" points="308.13 155.41 304.22 179.12 290.54 172.76 301.99 155.41 308.13 155.41"/><rect class="cls-6" x="248.98" y="277.94" width="83.85" height="33.83" transform="translate(581.81 589.7) rotate(-180)"/><path class="cls-2" d="M130.83,135H152a0,0,0,0,1,0,0v5.09a0,0,0,0,1,0,0H130.83a2.54,2.54,0,0,1-2.54-2.54v0A2.54,2.54,0,0,1,130.83,135Z"/><rect class="cls-6" x="141.36" y="128.51" width="65.15" height="17.12" rx="8.56" ry="8.56"/><path class="cls-6" d="M151.36,168.07h0A22.44,22.44,0,0,0,173.8,190.5h13.93a18.77,18.77,0,0,0,18.78-18.77V164.4a18.77,18.77,0,0,0-18.78-18.77H173.8A22.44,22.44,0,0,0,151.36,168.07Zm35.29,13.71h0V154.42h0a11.86,11.86,0,0,1,11.86,11.86v3.64A11.86,11.86,0,0,1,186.65,181.78Z"/><path class="cls-2" d="M177.38,120.31h1.07a8.2,8.2,0,0,1,8.2,8.2v0a0,0,0,0,1,0,0H169.18a0,0,0,0,1,0,0v0a8.2,8.2,0,0,1,8.2-8.2Z"/><line class="cls-4" x1="197.94" y1="128.51" x2="197.94" y2="145.63"/></svg>