<svg id="圖層_1" data-name="圖層 1" xmlns="http://www.w3.org/2000/svg" viewBox="0 0 134.28 134.28"><defs><style>.cls-1{fill:#f97919;}.cls-2{fill:#fff;}.cls-3{fill:none;stroke:#fff;stroke-linejoin:round;stroke-width:3px;opacity:0.7;}</style></defs><title>180207</title><circle class="cls-1" cx="67.14" cy="68.14" r="52.98"/><path class="cls-2" d="M51.29,77.2v3.15H27.71V77.2H40.45A65.1,65.1,0,0,0,43.8,65.63l3.51.68A105.29,105.29,0,0,1,43.8,77.2ZM50.2,64.8H28.88V61.68h9.44a36.5,36.5,0,0,0-1.25-4.16l3.09-.78a34.34,34.34,0,0,1,1.41,4.13l-2.78.81H50.2ZM34.26,76.58A76.93,76.93,0,0,0,32.1,66.31l3.12-.76a86,86,0,0,1,2.37,10.17Z"/><path class="cls-2" d="M63.41,71.82A52.12,52.12,0,0,1,67,78.61l-2.89,1.53a17.53,17.53,0,0,0-.91-2.23c-6.11,1.92-7.15,2.33-7.88,2.83a11.43,11.43,0,0,0-1.19-3.15,1.94,1.94,0,0,0,1.19-1.82V58.33H66.27V71.17H58.49v5.12l3.46-1c-.41-.75-.83-1.5-1.22-2.18ZM58.49,61.08v2.21h4.68V61.08Zm4.68,7.33V66.05H58.49v2.36Zm13.86,5c0,1.4-.23,2.21-1.12,2.73a7.62,7.62,0,0,1-3.69.52,10.76,10.76,0,0,0-.86-2.91,20.53,20.53,0,0,0,2.19,0c.31,0,.44-.1.44-.44v-12H70.84v20H67.72V58.51H77Z"/><path class="cls-2" d="M104.52,76.6h-4.45a31.83,31.83,0,0,1,4.42,2.63l-2,2.13A36.87,36.87,0,0,0,97.16,78l1.43-1.41H94.17l1.74,1.31a36.54,36.54,0,0,1-6.53,3.35,12.18,12.18,0,0,0-1.9-2.08,25.22,25.22,0,0,0,5.2-2.58H88.42V75.28c-2.5,1-5.15,2-7.31,2.83L80,75c.83-.21,1.82-.52,2.94-.89V65.94H80.33V63h2.58V57.39h2.91V63H88.5v2.93H85.82V73.2l2.39-.81L88.5,74h1.92V62.82h3.77c.08-.41.16-.85.21-1.3H89.25V59.05h5.51c.08-.7.13-1.35.19-1.95l3.3.11c-.11.6-.24,1.22-.39,1.84h6v2.47H97.26c-.1.45-.21.89-.34,1.3h5.57V74h2ZM93.13,64.77v1.1H99.7v-1.1Zm6.57,2.68H93.13v1H99.7ZM93.13,71.2H99.7V70.13H93.13Zm0,2.78H99.7V72.86H93.13Z"/><circle class="cls-3" cx="67.14" cy="67.14" r="62.6"/></svg>