<svg id="圖層_1" data-name="圖層 1" xmlns="http://www.w3.org/2000/svg" viewBox="0 0 1000 428.32"><defs><style>.cls-1{fill:#ddd;stroke-width:15px;}.cls-1,.cls-2{stroke:#000;stroke-miterlimit:10;}.cls-2{fill:#fff;stroke-width:10px;}.cls-3{font-size:160.34px;font-family:CP&U-Fo, CP&U Fo-83pv-RKSJ-H;}</style></defs><title>headerBG</title><rect class="cls-1" x="11.53" y="35.62" width="46.13" height="300.93"/><rect class="cls-1" x="942.34" y="35.62" width="46.13" height="300.93"/><path class="cls-1" d="M942.34,382.6c-36.87,0-36.87,33.5-73.74,33.5s-36.87-33.5-73.74-33.5S758,416.1,721.13,416.1s-36.86-33.5-73.73-33.5-36.86,33.5-73.73,33.5-36.86-33.5-73.73-33.5-36.86,33.5-73.72,33.5-36.86-33.5-73.72-33.5-36.85,33.5-73.71,33.5-36.86-33.5-73.72-33.5-36.86,33.5-73.71,33.5-36.85-33.5-73.7-33.5V59c36.85,0,36.85,33.5,73.7,33.5S168.22,59,205.07,59s36.86,33.5,73.72,33.5S315.65,59,352.5,59s36.86,33.5,73.72,33.5S463.08,59,499.94,59s36.86,33.5,73.73,33.5S610.53,59,647.4,59s36.86,33.5,73.73,33.5S758,59,794.86,59s36.87,33.5,73.74,33.5S905.47,59,942.34,59Z"/><rect class="cls-1" x="11.53" y="12.22" width="976.95" height="46.81" rx="22.85" ry="22.85"/><rect class="cls-2" x="153.65" y="138.13" width="692.69" height="200"/><text class="cls-3" transform="translate(179.32 299.2)">進場須知</text></svg>