<svg id="圖層_1" data-name="圖層 1" xmlns="http://www.w3.org/2000/svg" viewBox="0 0 587.38 285.36"><defs><style>.cls-1{fill:#fff;}</style></defs><title>180207</title><path class="cls-1" d="M143,272.49a7.57,7.57,0,0,1-6.91-7.64V211.18a14,14,0,0,1,14-14h16.14c14.1,0,26,11,26.45,25.13A25.93,25.93,0,0,1,166.74,249h-13a2.91,2.91,0,0,0-2.91,2.91v13.21A7.4,7.4,0,0,1,143,272.49Zm10.81-38.3h12.66a11.31,11.31,0,0,0,11.41-10.55A11.11,11.11,0,0,0,166.74,212h-13a2.91,2.91,0,0,0-2.91,2.91v16.39A2.91,2.91,0,0,0,153.76,234.19Z"/><path class="cls-1" d="M79,236.86a3.12,3.12,0,0,1,0-4l19.54-23a7.81,7.81,0,0,0-12.12-9.86L70.55,220.19a3.12,3.12,0,0,1-4.92,0L49.74,199.94a7.81,7.81,0,1,0-12.11,9.87l19.53,23a3.1,3.1,0,0,1,0,4l-19.53,23a7.81,7.81,0,1,0,12.11,9.86l15.89-20.25a3.12,3.12,0,0,1,4.92,0l15.9,20.25a7.81,7.81,0,1,0,12.1-9.87Z"/><path class="cls-1" d="M117.44,228.27a7.34,7.34,0,1,0-7.33-7.34A7.34,7.34,0,0,0,117.44,228.27Z"/><path class="cls-1" d="M117.44,245a7.33,7.33,0,1,0,7.34,7.33A7.34,7.34,0,0,0,117.44,245Z"/><path class="cls-1" d="M255.68,262l-24.41-60.79,0-.07c-.05-.13-.12-.27-.18-.4s-.09-.18-.13-.27l-.21-.35c-.06-.09-.11-.19-.17-.27s-.15-.21-.22-.31-.14-.19-.21-.27l-.26-.3a2.39,2.39,0,0,0-.22-.23l-.31-.29-.22-.2-.33-.24-.25-.19-.31-.19c-.11-.06-.21-.13-.32-.18l-.28-.14-.39-.18-.07,0-.21-.08-.41-.14-.32-.08-.39-.09-.33-.06-.38-.05-.34,0h-.72l-.39,0-.33.05-.39.06-.33.08-.36.1c-.13,0-.25.08-.37.12l-.25.09-.07,0-.36.17c-.1,0-.21.09-.31.15l-.29.17c-.11.07-.23.13-.34.21l-.22.16a4.22,4.22,0,0,0-.36.27l-.2.17-.33.31-.22.24-.25.29c-.08.09-.15.19-.23.29l-.2.28c-.07.1-.13.21-.19.31l-.19.32c0,.1-.1.2-.14.3s-.12.24-.17.36,0,.05,0,.08L193.13,262a7.41,7.41,0,0,0,4.11,9.63,7.29,7.29,0,0,0,2.76.54,7.41,7.41,0,0,0,6.87-4.65l2.41-6a3.15,3.15,0,0,1,2.93-2H236.6a3.15,3.15,0,0,1,2.93,2l2.41,6a7.4,7.4,0,0,0,6.87,4.65,7.29,7.29,0,0,0,2.76-.54A7.41,7.41,0,0,0,255.68,262Zm-38.76-19.12,6-17.68a1.65,1.65,0,0,1,3.05,0l5.95,17.68a1.64,1.64,0,0,1-1.52,2.25H218.45A1.64,1.64,0,0,1,216.92,242.92Z"/><path class="cls-1" d="M274.68,272.62a7.5,7.5,0,0,1-6.77-7.64V208.83a11.3,11.3,0,0,1,7.86-11,10.65,10.65,0,0,1,12.32,5l23.31,41.72c1.16,2.1,2.58,1.93,2.58.5V205a7.51,7.51,0,0,1,6.77-7.64,7.31,7.31,0,0,1,7.73,7.38v55.57a11.3,11.3,0,0,1-7.86,11,10.65,10.65,0,0,1-12.32-5L285,226.54a1.38,1.38,0,0,0-2.58.72v38A7.31,7.31,0,0,1,274.68,272.62Z"/><path class="cls-1" d="M382.6,242.22a7.4,7.4,0,0,0,7.37-7.9,7.57,7.57,0,0,0-7.63-6.91H362.56a4.49,4.49,0,0,1-4.48-4.49V217a4.49,4.49,0,0,1,4.48-4.49h21.81a7.57,7.57,0,0,0,7.63-6.91,7.4,7.4,0,0,0-7.38-7.89H352.88a9.57,9.57,0,0,0-9.57,9.59v54.85a9.58,9.58,0,0,0,9.57,9.59h31.49a7.58,7.58,0,0,0,7.63-6.91,7.41,7.41,0,0,0-7.38-7.9H362.56a4.49,4.49,0,0,1-4.48-4.48V246.7a4.49,4.49,0,0,1,4.48-4.48Z"/><path class="cls-1" d="M444.31,271.77H416.13a9.43,9.43,0,0,1-9.24-9.59V205.83a7.46,7.46,0,0,1,6.66-7.64,7.24,7.24,0,0,1,7.6,7.39v46.9a4.41,4.41,0,0,0,4.33,4.48h18.58a7.4,7.4,0,0,1,7.36,6.91A7.29,7.29,0,0,1,444.31,271.77Z"/><path class="cls-1" d="M19.21,219.25v-5.5a5,5,0,0,1,2-3.94,7.58,7.58,0,0,0,2.92-6.28,7.6,7.6,0,0,0-15.19.3,7.57,7.57,0,0,0,3,6,4.91,4.91,0,0,1,2,3.86v5.56A4.84,4.84,0,0,1,12,223a7.41,7.41,0,0,0-2.85,5.86v36.29a7.65,7.65,0,0,0,7.43,7.46A7.44,7.44,0,0,0,24,265.18V228.89A7.41,7.41,0,0,0,21.14,223,4.84,4.84,0,0,1,19.21,219.25Z"/></svg>