<svg id="圖層_1" data-name="圖層 1" xmlns="http://www.w3.org/2000/svg" viewBox="0 0 1080 1080"><defs><style>.cls-1{fill:#fff;}.cls-2{fill:#08a39f;opacity:0.3;}.cls-3,.cls-4,.cls-5{fill:none;stroke:#08a39f;}.cls-3{stroke-linecap:round;stroke-width:9px;}.cls-3,.cls-5{stroke-linejoin:round;}.cls-4{stroke-miterlimit:10;}.cls-4,.cls-5{stroke-width:5px;}</style></defs><title>180207</title><path class="cls-1" d="M875,829.19s-1.58-58.92-2.27-63.64h10.14c-3.42-33-12.37-135.89-32.89-181.57-14.26-31.73-52-63.25-93-87C709.23,469.2,653.64,435,637,394.89c-7.17-17.32-4.78-45.43-1.59-57.16,4-14.81,9.38-24.75,14-46.84,4.7-22.31,4.65-58.34,4.65-58.34h0c.76-29.43-8-49.41-29.08-68.51-11.35-10.3-25.79-14.5-39.09-15.65,2.14-3.5-3-5.35-8-5.56s-10.57,2.6-7.69,5.64h0c-10.64.88-19.77,3.37-25.12,6C533,160.39,521.79,167,511.23,182.73s-13.82,29.76-14.09,39.42c-14.48,2.3-32.27,6-37,9.31-6.55,4.58-6.63,10.38,4.5,13,5.41,1.27,19,1.94,34.8,2.12,0,0,0,41.38,5.64,60.49S515.28,335,520,349.58c6.75,21,3,52.3-8.29,67.3s-48.56,46.89-82.29,71c-13.23,9.45-27.2,19.51-40.74,31.21h0c-16.86,14.56-33.06,31.66-46.32,53.25-22.28,36.3-29.46,108.34-31,127.16L292.2,651c-.25-1.38-.49-2.76-.71-4.15-1.21-7.93,2.13-19.56,0-28.62s-14.6-26.44-21.95-31.34c-2.94-2-5.68-3.11-7.89-3L261,551.3h3.68c17-.14,37-10.75,44.14-28.57,9.9-24.87,4.82-50.79-12.9-68.46-19.42-19.37-56.18-26.1-82.67,1.74-22.77,23.92-19,58-3.69,77.77,10.2,13.15,25.31,16.46,39.17,17.27v.26l.63,34h0a78.72,78.72,0,0,0-10-3.52c-4.12-1.2-11.66-2.91-14.17.89-3.93,5.93-2,17.33,2.48,19.53,2.4,1.18,6.51,1.54,10.84,1.34-4.15.34-12.14,1.26-13.56,3.41-1.57,2.4-4.56,10.15-4.67,13.36s1.65,10.06,4.18,12.06c.63-2.38,0,0,0,0h0a15.53,15.53,0,0,0-.32,5.95c.58,4.66,2.82,6.57,5.83,7.46a4.48,4.48,0,0,0,1.08.14h0c-2.8,1.66-3.14,7-.16,11.68,1.12,1.8,3,2.38,5.16,2.3v0c5.95,14,13.85,17.94,16.65,24.92,3.18,7.92,10.61,112.7,14.31,133.51,4.28,24,13,65.79,29,89.79,18.26,27.32,46.31,33.11,65.12,26.7a52.87,52.87,0,0,0,13.37-6.93H815.74c26.24.1,45.13-15.74,53.53-41.46,6.52-20,6.64-41.43,5.69-57.22Z"/><path class="cls-2" d="M625,164c-11.35-10.3-25.79-14.5-39.09-15.65h0c2.14-3.5-3-5.35-8-5.56s-10.57,2.6-7.69,5.64h0c-10.64.88-19.77,3.37-25.12,6C533,160.39,521.79,167,511.23,182.73s-13.82,29.76-14.09,39.42c-14.48,2.3-32.27,6-37,9.31-6.55,4.58-6.63,10.38,4.5,13s56.9,2.68,85.8,1.21,61.8-2.81,85.14-13.1l18.51,0C654.87,203.12,646.08,183.14,625,164Z"/><path class="cls-2" d="M775.09,567a202.61,202.61,0,0,1,6.73-54.31h0c-8-5.52-16.35-10.77-24.83-15.7-5.83-3.38-11.78-6.87-17.75-10.45h0a580.83,580.83,0,0,0-6.4,60.56h0c3.89,1.8,7.74,4,10.49,5.6,6.29,3.68,22.56,15.22,27.81,15.22A7.3,7.3,0,0,0,775.09,567Z"/><path class="cls-2" d="M404.34,927.87c-1.43-134.64-3-298.82,25.06-440-13.23,9.45-27.2,19.51-40.74,31.2h0c-25.49,83.87-15.81,243.93-6.72,408.82Z"/><path class="cls-2" d="M296,454.26c-19.42-19.37-56.18-26.1-82.67,1.74-22.77,23.92-19,58-3.69,77.77,14.37,18.53,38.49,17.52,55.12,17.52,17-.14,37-10.75,44.14-28.57C318.76,497.85,313.68,471.93,296,454.26Z"/><path class="cls-2" d="M744.87,749.31s-11.73-47.58-14-116.38h0c4.43,2.84,8.39,5.55,9.81,7.38,3.3,4.24,2.9,62.63,4.17,109Z"/><line class="cls-3" x1="598.11" y1="266.61" x2="613.59" y2="262.76"/><line class="cls-3" x1="546.77" y1="267.42" x2="532.37" y2="264.12"/><line class="cls-3" x1="570.4" y1="268.51" x2="570.4" y2="295.97"/><path class="cls-4" d="M635.6,232.57c-23.34,10.29-56.17,11.62-85.14,13.1s-74.66,1.41-85.8-1.21-11.05-8.42-4.5-13,38.41-10,51.46-11.23c15.6-1.5,52.4-3.59,80.1,1.21C612.62,225.06,635.6,232.57,635.6,232.57Z"/><path class="cls-4" d="M635.6,232.57l18.51,0c.76-29.43-8-49.41-29.08-68.51-24.9-22.59-65.74-16.53-79.91-9.58C533,160.39,521.79,167,511.23,182.73s-13.82,29.76-14.09,39.43"/><path class="cls-4" d="M570.21,148.47c-2.88-3,2.65-5.85,7.69-5.64s10.18,2.06,8,5.56"/><path class="cls-4" d="M499.35,246.64c0,12,.13,41.32,5.75,60.43S515.28,335,520,349.58c6.75,21,3,52.3-8.29,67.3s-48.56,46.89-82.29,71c-29.71,21.21-63.16,45.53-87.06,84.46C316.58,614.28,311,704.06,311,704.06"/><path class="cls-4" d="M640.34,401.88c-11.63,10.88-58,33.26-65.87,33.15-6.44-.09-46.61-19-57.37-27.45"/><path class="cls-4" d="M574.47,435c-10.21,21-25.08,39.6-27.53,41.78s-4.36,3.85-8.38,2.13c-2.24-1-28.14-24.12-40.89-46.2"/><path class="cls-4" d="M574.47,435c8.5,23.79,24.11,42.53,25.22,43.38a7.11,7.11,0,0,0,8.44.52c4.74-2.77,35.36-29.36,50.64-50.49"/><path class="cls-4" d="M627,235.84c4.2,10.8,19,27.78,25.85,28.87"/><path class="cls-4" d="M514.33,246.62c-2.09,6.72-10.23,17-14.68,18.44"/><path class="cls-4" d="M639.92,243.54c3.12,5,9.74,12.3,13.47,12.73"/><path class="cls-4" d="M788.46,610.39c-2.65-7.17,4.72-33.06,4.72-39.36s1.3-12.07-5.13-10.5-11.66,7.35-16.91,7.35-21.52-11.54-27.81-15.22-18.37-10.49-23.62-8.39-6.3,4.72-6.3,8.39,3.68,5.25,3.68,9.45-8.4,4.2-11,11,0,23.61,3.67,28.86,4.72,4.2,5.77,8.4-3.14,7.34-1,11S737,635.58,740.7,640.3s2.76,76.54,4.67,124.2c2.17,54,8.45,103,19,125.06s31.94,38.24,51.42,38.31c26.24.1,45.13-15.74,53.53-41.46s6.19-53.89,4.72-69.27c-2.1-22-21.18-61.95-36.73-97.08C825.66,693.87,792.13,620.36,788.46,610.39Z"/><path class="cls-5" d="M730.88,632.93c2.26,68.8,14,116.38,14,116.38"/><path class="cls-5" d="M739.24,486.5a580.83,580.83,0,0,0-6.4,60.56"/><path class="cls-5" d="M775.09,567a202.61,202.61,0,0,1,6.73-54.31"/><path class="cls-4" d="M857.36,765.55h25.47c-3.42-33-12.37-135.89-32.89-181.57-14.26-31.73-52-63.25-93-87C709.23,469.2,653.64,435,637,394.89c-7.17-17.32-4.78-45.43-1.59-57.16,4-14.81,9.38-24.75,14-46.84,4.7-22.31,4.65-58.34,4.65-58.34"/><path class="cls-4" d="M872.68,765.52c.69,4.5,2.28,63.67,2.28,63.67"/><path class="cls-5" d="M404.34,927.87c-1.43-134.64-3-298.82,25.06-440"/><path class="cls-5" d="M388.66,519.05c-25.49,83.87-15.81,243.93-6.72,408.82h432"/><path class="cls-5" d="M375.9,813.52c-15.64-41.58-74.17-99.55-84.41-166.63-1.21-7.93,2.13-19.56,0-28.62s-14.6-26.44-21.95-31.34c-5.28-3.52-9.9-4.44-12,0-2.38,5.05-1,13,3.68,20.81s4.16,6.86,4.89,10"/><line class="cls-4" x1="373.92" y1="765.55" x2="348.53" y2="765.55"/><path class="cls-5" d="M225.25,582.62c2.51-3.8,10.05-2.09,14.17-.89,3.58,1,12.3,3.7,15.36,6.83,2.69,2.76,2,10.06-1.23,11.75-5.56,3-20.26,4.58-25.82,1.84C223.29,600,221.32,588.55,225.25,582.62Z"/><path class="cls-5" d="M242.68,622.08c2.8-.23,11.49,1,12.3,5.69.49,2.78-1.45,7.31-9.12,11.9-6.32,3.78-12.78,7-15.83,6.06s-5.25-2.8-5.83-7.46.58-9.33,4.43-11.78c2.51-1.6,17-4.32,21.81-7.12s5.94-8.86,4.43-10.49-5.83-3.27-11.9-4.43-15.82-.8-18,2.45c-1.57,2.4-4.56,10.15-4.67,13.36s1.66,10.08,4.19,12.06"/><path class="cls-5" d="M231.1,645.88c-2.8,1.66-3.14,7-.16,11.68,2.7,4.31,9.78,1.72,14.31-.59,6.53-3.33,14.17-11.85,13-16.09s-10.49-1.71-12.37-1.21"/><path class="cls-5" d="M236.11,659.88c5.95,14,13.85,17.94,16.65,24.92,3.18,7.92,10.61,112.7,14.31,133.51,4.28,24,13,65.79,29,89.79,18.26,27.32,46.31,33.11,65.12,26.7A55,55,0,0,0,381.61,922"/><circle class="cls-5" cx="574.47" cy="471.93" r="6.41"/><circle class="cls-5" cx="574.47" cy="614.97" r="6.41"/><circle class="cls-5" cx="574.47" cy="758.01" r="6.41"/><circle class="cls-5" cx="574.47" cy="901.05" r="6.41"/><path class="cls-5" d="M255.49,492.7c-13.42,10.85-5.52,28.22,9.28,26.35,9.36-1.18,18.4-12.14,19.61-26.35,1.13-13.25-9-27-26-27.18-15.86-.17-39.07,20.86-35.22,49.3s25.09,36.61,41.58,36.47c17-.14,37-10.75,44.14-28.57,9.9-24.87,4.82-50.79-12.9-68.46-19.42-19.37-56.18-26.1-82.67,1.74-22.77,23.92-19,58-3.69,77.77,14.37,18.53,38.49,17.52,55.12,17.52"/><path class="cls-5" d="M262.13,609.27l1.11,59.65a6.14,6.14,0,0,1-6,6.25h0a6.15,6.15,0,0,1-6.25-6l-.29-15.91"/><line class="cls-5" x1="261.04" y1="551.3" x2="261.65" y2="584.05"/><line class="cls-5" x1="249.4" y1="585.25" x2="248.77" y2="551.3"/></svg>