<svg id="圖層_1" data-name="圖層 1" xmlns="http://www.w3.org/2000/svg" viewBox="0 0 1080 1080"><defs><style>.cls-1{fill:#fff;}.cls-2{fill:#08a39f;opacity:0.3;}.cls-3,.cls-4,.cls-5{fill:none;stroke:#08a39f;}.cls-3{stroke-miterlimit:10;}.cls-3,.cls-4{stroke-width:5px;}.cls-4,.cls-5{stroke-linejoin:round;}.cls-5{stroke-linecap:round;stroke-width:9px;}</style></defs><title>180207</title><path class="cls-1" d="M843,739.31c-2.47-52.87-13.56-131.13-43-164.37-36-40.74-117.25-60.17-143.29-93.37h0c3.67-3.2,6.27-5.92,6.84-7.36,1.9-4.75-6.95-9.18-8.22-12s-2.84-16.13-5.38-19-15.49-3.79-16.76-7.91,5.53-19.68,3.17-24c-3-5.59-28-2.35-42-11.33-6.43-19.21-8.8-38.28-4.92-56.48,6.37-29.94,9.84-68.48,1.85-93.61h0c6.73,2.62,8.27-.09,8.91-3,.83-3.73-4.69-34.92-10-38.09-1.26-.75-9.24-2.76-9.24-2.76-1.3-5.46-13.84-18.32-17.54-32.34-3-11.15-7.62-21.23-13.71-24.28s-20.46-3.41-26.8-.93c-9.38,3.67-19.76,16.09-31.33,23.91-6.16,4.17-22.63,17.53-30,34.3,0,0-7.9,2-9.3,2.85-5.23,3-10.76,32.72-10.83,36.56,0,2.68,3.17,4.9,6.72,3.79h0c-4.22,16-4,41.35-.17,67,3.43,23,18.76,46.66,14.32,85.27-5.71,0-29.9,3.14-37.95,12.74s-1,29.62-3.11,36-15.36,7.77-25.18,13.87c-9.61,6-9.9,18.64-2.34,29.59-12.06,17.51-86.79,45.49-121.37,99.09-28.82,44.69-34.93,146.36-36,170.35-1.44,32.36,0,125.16,6.19,167.39H750.29c20.83,4.13,41.71,2.77,58.8-9.23C847.91,894.59,845.43,792.17,843,739.31Z"/><path class="cls-2" d="M500.65,621.73v7.17h0l-.34,46.37c6.14,1,50.14,17.83,54.23,16.57s5.51-10.41,7.4-11.45l.13-51.49v-7.17Zm14.16,26.39a5.82,5.82,0,1,1,5.82-5.81A5.81,5.81,0,0,1,514.81,648.12Z"/><polygon class="cls-2" points="608.24 646.14 594.51 646.14 598.18 621.73 604.56 621.73 608.24 646.14"/><path class="cls-2" d="M590.14,208.75c-1.26-.75-9.24-2.76-9.24-2.76-1.3-5.46-13.84-18.32-17.54-32.34-3-11.15-7.62-21.23-13.71-24.28s-20.46-3.41-26.8-.93c-9.38,3.67-19.76,16.09-31.33,23.91-6.16,4.17-22.63,17.53-30,34.3,0,0-7.9,2-9.3,2.85-5.23,3-10.76,32.72-10.83,36.56,0,2.68,3.17,4.9,6.72,3.8,4.3-1.34,44.09-11.21,70.25-11.59s66.14,9,72.86,11.59,8.27-.1,8.91-3C601,243.11,595.48,211.92,590.14,208.75Z"/><polygon class="cls-2" points="461.1 688.91 447.37 688.91 451.04 664.5 457.42 664.5 461.1 688.91"/><path class="cls-3" d="M448.15,249.85c4.3-1.33,44.09-11.2,70.25-11.58s66.14,9,72.86,11.58,8.27-.09,8.91-3c.83-3.73-4.69-34.92-10-38.09-4.48-2.65-33.37-8.32-69.87-8.22-31.53.09-62.78,6-68,9s-10.76,32.72-10.83,36.56C441.39,248.74,444.6,251,448.15,249.85Z"/><path class="cls-3" d="M484.82,241.92c.5,3.06,3.16,15.84,7.84,16.52s11.25-6,13.34-6.57c2.43-.71,4.57,6,8.08,5.79s6.76-8.57,8.76-8.47,3.41,7.94,8.57,8,11.21-8.92,13.45-17"/><path class="cls-3" d="M461.56,206.65c7.33-16.77,23.8-30.13,30-34.3,11.57-7.82,22-20.24,31.33-23.91,6.34-2.48,20.7-2.11,26.8.93s10.76,13.13,13.71,24.28c3.7,14,14.42,23.4,17.54,32.33"/><line class="cls-3" x1="491.18" y1="219.14" x2="488.85" y2="232.26"/><line class="cls-3" x1="514.84" y1="216.65" x2="513.93" y2="227.44"/><line class="cls-3" x1="537.51" y1="216.65" x2="537.51" y2="225.72"/><line class="cls-3" x1="557.93" y1="216.65" x2="558.93" y2="222.04"/><line class="cls-3" x1="577.36" y1="217.64" x2="581.84" y2="231.92"/><line class="cls-3" x1="470.42" y1="217.97" x2="465.77" y2="236.24"/><path class="cls-3" d="M515.75,171.15c-3.63,4.08-16.1,19.76-20.09,25.9"/><line class="cls-3" x1="526.05" y1="164.5" x2="522.06" y2="188.08"/><line class="cls-3" x1="538.17" y1="171.15" x2="539.17" y2="187.09"/><path class="cls-3" d="M448.15,249.85c-4.22,16-4,41.35-.17,67,4.43,29.74,28.82,60.65,4.47,123.6,12.89,18,71.05,49.76,77.11,49.76,7.47,0,69.83-26.55,81.7-53.11-17.74-31.39-28.22-63.66-21.85-93.6s9.84-68.48,1.85-93.61"/><path class="cls-3" d="M594.32,399.93c14,9,39,5.74,42,11.34,2.36,4.35-4.43,19.92-3.17,24s14.23,5.07,16.77,7.91,4.11,16.13,5.37,19,10.12,7.27,8.22,12-25.61,23.4-38.26,27.2c-6.18,1.85-87.24-2.48-95.52-2.22s-43.9,10.12-55.06,10.56c-8.75.34-73.46-4.59-81-15.5s-7.27-23.62,2.34-29.59c9.82-6.1,23.1-7.53,25.18-13.87s-4.93-26.36,3.11-36,32.24-12.74,37.95-12.74"/><path class="cls-3" d="M438.9,483.29c41.54,1.07,75.41,8.74,90.28,12.26,8.28,0,44.43-10.12,51.44-10.9a48.23,48.23,0,0,1,16.09,1.3"/><line class="cls-3" x1="451.04" y1="508.27" x2="451.04" y2="664.5"/><line class="cls-3" x1="457.42" y1="508.84" x2="457.42" y2="664.5"/><polygon class="cls-4" points="461.1 688.91 447.37 688.91 451.04 664.5 457.42 664.5 461.1 688.91"/><path class="cls-3" d="M656.71,481.57c26,33.2,107.29,52.63,143.29,93.37,29.39,33.24,40.48,111.5,43,164.37s5,155.28-33.86,182.54-97.16-.34-130.2-22.64-38.82-39.64-62.35-46.49c-16.66-4.84-54.13-18.79-57.43-49.35s28.2-91.38,48.94-94.87c23.76-4,52.62,24.06,64.81,36.77,17.61,18.38,85.34,41.53,98.23,61.77"/><path class="cls-3" d="M781.57,624.69c-35.43,38.71-69,96.77-69,130.07"/><path class="cls-3" d="M596.2,715.33c-3-3.28-16.13-6.24-23.59-.58s-19.4,27.66-21.68,41c-2.47,14.47,7,21.06,9.19,30.35"/><path class="cls-3" d="M393.72,494.25c-12.06,17.51-86.79,45.49-121.37,99.09-28.82,44.69-34.93,146.36-36,170.35-1.44,32.36,0,125.16,6.19,167.39H750.29"/><path class="cls-3" d="M274.56,649.2c16.79,2.32,64.87,89.21,66.61,99.06"/><line class="cls-3" x1="347.73" y1="811.92" x2="347.73" y2="931.08"/><path class="cls-3" d="M579.14,711.56c0-7.08-7.65-36.4-17.2-31.17-1.89,1-3.31,10.19-7.4,11.45s-48.09-15.53-54.23-16.57c-4.13-.71-8.62,2.07-8.91,5.46-1,11.45,4,15.73,4,19s-1.65,8.57-1.06,14.42,3.66,13.41,4.54,16.33-.88,8.77,1.46,13.32S511.88,755.56,517.9,757c8.34,2.05,32.62,2.72,32.62,2.72"/><polyline class="cls-4" points="500.31 675.27 500.65 628.9 562.07 628.9 561.94 680.39"/><circle class="cls-4" cx="514.81" cy="642.31" r="5.82"/><rect class="cls-4" x="500.65" y="621.73" width="61.41" height="7.17"/><path class="cls-3" d="M511.49,754.14v57.2a9.29,9.29,0,0,0,9.29,9.29h0a9.29,9.29,0,0,0,9.29-9.29V758.65"/><line class="cls-3" x1="511.49" y1="560.23" x2="511.49" y2="621.73"/><rect class="cls-3" x="507.28" y="551.79" width="8.43" height="8.43"/><path class="cls-3" d="M587.53,361.7c-4.67,79.67-50.06,160.37-76,190.09"/><path class="cls-3" d="M462.3,402.08c0,32.78,18.61,109.18,49.19,149.71"/><line class="cls-3" x1="598.18" y1="501.72" x2="598.18" y2="621.73"/><line class="cls-3" x1="604.56" y1="501.72" x2="604.56" y2="621.73"/><polygon class="cls-4" points="608.24 646.14 594.51 646.14 598.18 621.73 604.56 621.73 608.24 646.14"/><line class="cls-5" x1="535.44" y1="279.96" x2="551.06" y2="279.36"/><line class="cls-5" x1="474.37" y1="281.56" x2="489.99" y2="281.96"/><line class="cls-5" x1="509.81" y1="284.37" x2="509.81" y2="307.59"/></svg>