<svg id="圖層_1" data-name="圖層 1" xmlns="http://www.w3.org/2000/svg" viewBox="0 0 1080 1080"><defs><style>.cls-1{fill:#fff;}.cls-2,.cls-4{fill:#08a39f;}.cls-2,.cls-3{opacity:0.3;}.cls-5,.cls-6,.cls-7{fill:none;stroke:#08a39f;}.cls-5,.cls-6{stroke-miterlimit:10;}.cls-5{stroke-width:4.26px;}.cls-6,.cls-7{stroke-width:5px;}.cls-7{stroke-linejoin:round;}</style></defs><title>180207</title><path class="cls-1" d="M853,582.23C808.56,528,702.24,470.6,658.69,427.87h0V412l-5.85.65a82.9,82.9,0,0,1-11.3-41.31,91.61,91.61,0,0,1,1.21-12.57c10.09,1.23,17.54-5.6,18.41-15.68.57-6.64,1.46-27.24-2.75-44.69a11.57,11.57,0,0,0,6.94-10.61v-21.3a11.56,11.56,0,0,0-4.92-9.47l-11-7.75v-9.73l75.78-35.86v88.08h-1a3.12,3.12,0,0,0,0,6.24,3.12,3.12,0,1,0,0,6.23H724l-2.92,81.61h14.4l-2.92-81.61h-.2a3.12,3.12,0,1,0,0-6.23,3.12,3.12,0,0,0,0-6.24h-1V204.1a6.92,6.92,0,0,0-6.92-6.92H712.78L586.29,131,448.88,203.66l74.3,35.86v5.69l-10.6,5.39a6.66,6.66,0,0,0-3.63,5.93V294a6.65,6.65,0,0,0,4,6.09h0c-.83,5.22-5.32,31.17-1.56,46s17.89,12.66,17.93,12.65a73.93,73.93,0,0,1,1,11c0,12.88-8.1,39.18-11.07,43.53h0L508.05,412v18h0c-34.68,54.45-125.65,94.85-166.84,141,0,0,1.36-24.84,2.75-51.17l.62,0-.62-.09c1.44-27.27,2.92-56.12,3-60.61,0-1.59,1.16-5.11,2.85-9.51A14.53,14.53,0,0,0,360,448.12h0a14.61,14.61,0,0,0,6.07-18.88l-4-8.68a40.83,40.83,0,0,0,2.36-6.46c1-7.83-5.74-8.1-7.6-11.79-1.22-2.41,1.46-6.69-.66-11.09-.1-.21-.21-.39-.31-.57h0s3.62-2.23,4.52-5.54c.8-2.93,1.39-14.62-1.7-17.25-2.71-2.32-12.78-1.52-14.11-1.52-.94-1.34.73-8.16-2.1-11.51-2.23-2.63-6.5-2.5-11.15-.37h0l-8-17.27a13.29,13.29,0,0,0-18.58-6l-16.16,9.12a13.28,13.28,0,0,0-4.5,19l14.4,21.4a8.1,8.1,0,0,0-1.45,2.61c-1.54,5.78-3.14,43.12-5.84,51.75s-25.52,80.05-25.52,80.05l1.36.08c-14.91-.11-27.5.24-34.09.95,0,0-37.48,129.93-38,153.45S201,720.28,229.5,729C289.7,747.54,364,726.74,364,726.74c-6.74,46.71-18.81,174.81-15.86,205H700.52s11.21,4.81,16.36,6.72c35.26,13.11,93.72,18,117.47-9.63s40.5-85.38,47.49-153.4C888.72,708.58,887,623.77,853,582.23Z"/><path class="cls-2" d="M725.17,203.66,586.29,131,448.88,203.66l74.3,35.86v6.38a13.4,13.4,0,0,1,9.41-3.84H635.06a13.37,13.37,0,0,1,6.3,1.57l.18.1,7.85,5.52v-9.73Z"/><g class="cls-3"><path class="cls-4" d="M585.55,848.34s7.05-13,18.53-31.1h0l-51.94-98.12a16.19,16.19,0,0,1-26-17.36c-4.1-3.14-7.06-6-7.39-7.79-.95-5.22,5.69-10.43,4.74-13.75s-.19-7.93,1.71-12,5.34-4.53,6.29-7.85c.76-2.66-.1-6.15-.24-9.75C490.94,639,394.07,598.73,350.47,561.48c-3.74,3.69-6.24,6.18-9,9.25,2-19.42,3.34-36.26,4.17-50.58-33.05-4.88-95-5.92-112.74-4,0,0-37.48,129.93-38,153.45S199.37,718,229.5,729c28.78,10.52,95.95,11.31,134.47-2.29,0,14-18.81,174.81-15.86,205H700.52A355.45,355.45,0,0,1,585.55,848.34Z"/><polygon class="cls-4" points="700.52 931.75 700.52 931.75 700.52 931.75 700.52 931.75"/></g><path class="cls-2" d="M821.72,551.05c-31,39.4-165.72,96.45-206.59,106.79h0c11.36,13.54,60.67,70.74,60.67,70.74C629,768.37,585.55,848.34,585.55,848.34c43.21,47.55,95.35,76.75,131.33,90.13,35.26,13.11,93.72,18,117.47-9.63s40.5-85.38,47.49-153.4C888.72,708.58,887,623.77,853,582.23,844.3,571.66,834.17,561.73,821.72,551.05Z"/><path class="cls-2" d="M658.69,427.87V412l-64.89,7.28-12,23.59-12-23.59L508.05,412v18c27.05,34.58,73.76,56.75,73.76,56.75S638.83,459.66,658.69,427.87Z"/><rect class="cls-5" x="519.15" y="242.06" width="129.35" height="65.36" rx="13.44" ry="13.44"/><path class="cls-5" d="M641.54,243.73,660.43,257a11.56,11.56,0,0,1,4.92,9.47v21.3a11.57,11.57,0,0,1-6.94,10.61l-16.87,7.37"/><path class="cls-5" d="M526.2,243.67l-13.62,6.93a6.66,6.66,0,0,0-3.63,5.93V294a6.64,6.64,0,0,0,4,6.09l14.33,6.22"/><path class="cls-4" d="M571.83,325.46a4.26,4.26,0,0,1-4.26-4.26V307.42h8.51V321.2A4.25,4.25,0,0,1,571.83,325.46Z"/><path class="cls-6" d="M523.19,245.62v-45c12.53-11.64,35.45-19.44,61.63-19.44,28.39,0,52.93,9.16,64.57,22.44v45"/><polyline class="cls-7" points="523.18 239.52 448.88 203.66 586.29 131.02 725.17 203.66 649.39 239.52"/><path class="cls-6" d="M712.78,197.18h11.71a6.92,6.92,0,0,1,6.92,6.92v87.64h-6.24V203.66"/><rect class="cls-7" x="721.1" y="291.74" width="14.39" height="6.24" rx="3.12" ry="3.12"/><rect class="cls-7" x="721.1" y="297.98" width="14.39" height="6.24" rx="3.12" ry="3.12"/><polygon class="cls-7" points="735.49 385.82 721.1 385.82 724.01 304.21 732.57 304.21 735.49 385.82"/><path class="cls-7" d="M652.2,301.09c-.52,16.83-10.66,55-10.66,70.23a82.9,82.9,0,0,0,11.3,41.31"/><path class="cls-7" d="M522.4,304.21c.79,31.64,7.89,50.74,7.86,65.55,0,12.88-8.1,39.18-11.07,43.53"/><path class="cls-7" d="M658.69,427.87V412l-64.89,7.28-12,23.59-12-23.59L508.05,412v18c27.05,34.58,73.76,56.75,73.76,56.75S638.83,459.66,658.69,427.87Z"/><path class="cls-6" d="M658.69,427.87C702.24,470.6,808.56,528,853,582.23c34,41.54,35.76,126.35,28.88,193.21-7,68-23.75,125.8-47.49,153.4s-82.21,22.74-117.47,9.63c-36-13.38-88.12-42.58-131.33-90.13,0,0,43.4-80,90.25-119.76,0,0,62.91,64.19,104.63,84.73"/><path class="cls-6" d="M508.05,430c-34.68,54.45-125.65,94.85-166.84,141"/><path class="cls-6" d="M658.41,298.38c4.21,17.45,3.32,38.05,2.75,44.69-.87,10.08-8.32,16.91-18.41,15.68"/><path class="cls-6" d="M513,300.11c-.84,5.22-5.33,31.17-1.57,46s17.93,12.65,17.93,12.65"/><path class="cls-6" d="M669.2,437.47c-26.32,37.94-87.39,66.95-87.39,66.95s-47-19.21-81.25-63.85"/><path class="cls-6" d="M675.8,728.58s-60-69.63-62.88-73.43S612.66,642,608.4,639c-7.23-5.15-15.91,1.34-21.79-.55s-20.33-13.48-26.48-17.56c-4.63-3.07-12.6-4.65-15.92-.39s-.94,9.09-3.19,13.69c-2.09,4.26-9.21,9.28-9.68,13.55s1.13,9.38.18,12.7-4.4,3.81-6.3,7.85-2.65,8.65-1.7,12-5.69,8.53-4.74,13.75S542,712.46,551,718.15s53.06,99.09,53.06,99.09"/><rect class="cls-6" x="579.73" y="682.64" width="32.47" height="45.89" rx="8.63" ry="8.63" transform="translate(731.25 -208.05) rotate(48.61)"/><path class="cls-6" d="M618.21,696.12l3.53,4A8.63,8.63,0,0,1,621,712.3l-21.48,18.93a8.63,8.63,0,0,1-12.18-.77l-3.53-4"/><path class="cls-6" d="M621.27,700.78a151.09,151.09,0,0,1,19.84-12.36"/><path class="cls-6" d="M571,750.56A153,153,0,0,1,587.82,730"/><path class="cls-6" d="M607.21,684.36A157.51,157.51,0,0,1,626.7,672"/><path class="cls-6" d="M559.86,730.4a163.6,163.6,0,0,1,13.64-16.32"/><path class="cls-6" d="M552.14,719.12a16.2,16.2,0,0,1-17.34,2.51h0a16.19,16.19,0,0,1-8.51-20.27"/><path class="cls-6" d="M556.27,618.94l8.51-23.4a14.73,14.73,0,0,1,20-8.37l18.74,8.53a14.74,14.74,0,0,1,6.78,20.55l-11.6,20.93"/><line class="cls-6" x1="599.63" y1="606.69" x2="585.61" y2="637.75"/><path class="cls-6" d="M349.74,449.67A14.56,14.56,0,0,0,360,448.12h0a14.61,14.61,0,0,0,6.07-18.88l-4.23-9.1"/><path class="cls-6" d="M331.3,354.45l-8-17.27a13.29,13.29,0,0,0-18.58-6l-16.16,9.12a13.28,13.28,0,0,0-4.5,19l14.4,21.4"/><line class="cls-6" x1="293.45" y1="350.99" x2="306.14" y2="373.66"/><path class="cls-6" d="M335.83,616.89c13.37-96.27,11-147,11.11-157.7.08-6.16,17-41.25,17.46-45.09,1-7.83-5.74-8.1-7.6-11.79-1.22-2.41,1.46-6.69-.66-11.09-1.93-4-5-2.74-6.55-6.38-1.42-3.36,3.88-6.89,1.89-11.13-2.65-5.67-5.18-4.84-6.94-7.38-.94-1.34.73-8.16-2.1-11.51-3.28-3.87-11-1.77-17.83,3.93S298.53,377.54,297,383.32s-3.14,43.12-5.84,51.75-25.52,80.05-25.52,80.05"/><path class="cls-6" d="M344.54,366.33c1.33,0,11.4-.8,14.11,1.52,3.09,2.63,2.5,14.32,1.7,17.25-.9,3.31-4.52,5.54-4.52,5.54"/><path class="cls-6" d="M344.58,519.89c-33.05-4.89-94-5.66-111.68-3.74,0,0-37.48,129.93-38,153.45S199.37,718,229.5,729c28.78,10.52,99.79,12.41,134.48-2.25"/><path class="cls-6" d="M821.72,551.05c-31,39.4-165.72,96.45-206.59,106.79"/><path class="cls-6" d="M745.86,494c-8.47,24.16-117.19,128.24-139.47,143.85"/><path class="cls-6" d="M437.67,496.09c22.3,42.72,86.07,106.55,106.54,124.37"/><path class="cls-6" d="M350.47,561.48c64.07,47.34,145.36,77.36,180.81,89.17"/><path class="cls-6" d="M366.48,712.23c-5.5,22.62-21.75,185-18.37,219.52H700.52"/><path class="cls-6" d="M757,684.36c-3.49,23.72-23.76,84.32-28.94,91.43"/></svg>