<svg id="圖層_1" data-name="圖層 1" xmlns="http://www.w3.org/2000/svg" viewBox="0 0 1080 1080"><defs><style>.cls-1{fill:#fff;}.cls-2,.cls-5,.cls-6,.cls-7,.cls-8{fill:none;}.cls-2,.cls-5,.cls-6,.cls-8{stroke:#08a39f;}.cls-2,.cls-7,.cls-8{stroke-linecap:round;}.cls-2,.cls-6,.cls-7,.cls-8{stroke-linejoin:round;}.cls-2{stroke-width:9px;}.cls-3,.cls-8{opacity:0.3;}.cls-4{fill:#08a39f;}.cls-5{stroke-miterlimit:10;}.cls-5,.cls-6{stroke-width:5px;}.cls-7{stroke:#fff;}.cls-7,.cls-8{stroke-width:20px;}</style></defs><title>180207</title><path class="cls-1" d="M893.85,315.74q-6.29,4.32-12.48,8.08c-6-6.85-31.78-47.71-28.15-63,2-8.56,14.51-13.2,13.39-16.65-1.44-4.48-19.44,1.74-19.44,1.74,6.43-10.54,15.43-12.56,14.11-14.92-3-5.36-25.57,4.35-25.57,4.35,8.27-11.45,19-12.78,16.19-16-4.66-5.23-18.55,1.27-30.93,9.2,7-10.05,22.43-16,21-18.79-2.52-4.79-20.12,1-29.22,5.66-9.49,4.83-18.5,13.63-22.69,11.89-3.72-1.55-2.43-6.94-2.84-12.31s-3.32-5.81-6.12-1.9-15.82,37.12-8.94,69.43,33,73.56,49.5,123.06,3.2,112.62-8.73,140.16c-12.53,28.89-43.52,62.64-89.58,75-41.24,11.08-75.48-1.21-100.31-26.9h0v-32H603.6c-6.23-20.33-6.71-45.2-2.57-62.57,5.63-23.6,20.64-68.71,19.16-105.39C619,364.26,610.57,332,588.57,308s-62.49-26-85.93-6.19c-24.39,20.61-36.44,51.56-37.81,89.37S477.2,468.84,480,498.4c1.76,18.87-.94,42.67-8.4,63.43H453.62v31.63h0c-20.55,22.76-64.3,36.79-104.36,25.76-50.93-14-78.08-55.41-88.08-87.61-9.13-29.37-6.91-96.4,6.22-142.94,12.5-44.3,33.85-90.15,38.82-109.92,7.06-28.07,3.71-55.83-1.61-64.69-4.2-7-7.63-4.42-8,.94s.89,10.76-2.84,12.31c-4.18,1.74-13.2-7.06-22.69-11.89-9.1-4.63-26.7-10.45-29.22-5.66-1.47,2.79,14,8.74,21,18.79-12.38-7.93-26.27-14.43-30.92-9.2-2.83,3.18,7.92,4.51,16.18,16,0,0-22.57-9.71-25.57-4.35-1.32,2.36,7.68,4.38,14.11,14.92,0,0-18-6.22-19.44-1.74-1.11,3.45,11.37,8.09,13.39,16.65,3.63,15.32-23.91,57.34-30,64.21q-7.14-4.28-14.43-9.26S130,416.19,136.36,518.68c6.82,109,37,189.17,143.75,268.17v238.57H799.89V786.85c106.76-79,136.93-159.13,143.75-268.17C950,416.19,893.85,315.74,893.85,315.74Z"/><line class="cls-2" x1="500.93" y1="354.5" x2="516.86" y2="354.5"/><line class="cls-2" x1="563.14" y1="354.5" x2="579.07" y2="354.5"/><line class="cls-2" x1="540" y1="350.79" x2="540" y2="377.45"/><g class="cls-3"><circle class="cls-4" cx="538.12" cy="601.98" r="5.95"/><circle class="cls-4" cx="538.12" cy="733.75" r="5.95"/><circle class="cls-4" cx="538.12" cy="865.53" r="5.95"/><circle class="cls-4" cx="538.12" cy="997.3" r="5.95"/></g><path class="cls-5" d="M603.6,561.83c-6.23-20.33-6.71-45.2-2.57-62.57,5.63-23.6,20.64-68.71,19.16-105.39C619,364.26,610.57,332,588.57,308s-62.49-26-85.93-6.19c-24.39,20.61-36.44,51.56-37.81,89.37S477.2,468.84,480,498.4c1.76,18.87-.94,42.67-8.4,63.43"/><path class="cls-6" d="M881.37,323.82c-6-6.85-31.78-47.71-28.15-63,2-8.56,14.51-13.2,13.39-16.65-1.44-4.48-19.44,1.74-19.44,1.74,6.43-10.54,15.43-12.56,14.11-14.92-3-5.36-25.57,4.35-25.57,4.35,8.27-11.45,19-12.78,16.19-16-4.66-5.23-18.55,1.27-30.93,9.2,7-10.05,22.43-16,21-18.79-2.52-4.79-20.12,1-29.22,5.66-9.49,4.83-18.5,13.63-22.69,11.89-3.72-1.55-2.43-6.94-2.84-12.31s-3.32-5.81-6.12-1.9-15.82,37.12-8.94,69.43,33,73.56,49.5,123.06,3.2,112.62-8.73,140.16c-12.53,28.89-43.52,62.64-89.58,75-41.24,11.08-75.48-1.21-100.31-26.9h0v-32H572a39.73,39.73,0,0,0-33.9,19h0a39.76,39.76,0,0,0-33.91-19H453.62v31.63h0c-20.55,22.76-64.3,36.79-104.36,25.76-50.93-14-78.08-55.41-88.08-87.61-9.13-29.37-6.91-96.4,6.22-142.94,12.5-44.3,33.85-90.15,38.82-109.92,7.06-28.07,3.71-55.83-1.61-64.69-4.2-7-7.63-4.42-8,.94s.89,10.76-2.83,12.31c-4.19,1.74-13.21-7.06-22.7-11.89-9.1-4.63-26.7-10.45-29.22-5.66-1.47,2.79,14,8.74,21,18.79-12.38-7.93-26.27-14.43-30.92-9.2-2.83,3.18,7.92,4.51,16.18,16,0,0-22.57-9.71-25.57-4.35-1.32,2.36,7.68,4.38,14.11,14.92,0,0-18-6.22-19.44-1.74-1.11,3.45,11.37,8.09,13.39,16.65,3.63,15.32-23.92,57.36-30,64.21"/><circle class="cls-5" cx="538.12" cy="601.98" r="5.95"/><circle class="cls-5" cx="538.12" cy="733.75" r="5.95"/><circle class="cls-5" cx="538.12" cy="865.53" r="5.95"/><circle class="cls-5" cx="538.12" cy="997.3" r="5.95"/><line class="cls-5" x1="544.07" y1="601.98" x2="554.57" y2="601.98"/><line class="cls-5" x1="521.67" y1="601.98" x2="532.17" y2="601.98"/><line class="cls-5" x1="544.07" y1="733.75" x2="554.57" y2="733.75"/><line class="cls-5" x1="521.67" y1="733.75" x2="532.17" y2="733.75"/><line class="cls-5" x1="544.07" y1="865.53" x2="554.57" y2="865.53"/><line class="cls-5" x1="521.67" y1="865.53" x2="532.17" y2="865.53"/><line class="cls-5" x1="544.07" y1="997.3" x2="554.57" y2="997.3"/><line class="cls-5" x1="521.67" y1="997.3" x2="532.17" y2="997.3"/><path class="cls-6" d="M802.92,358.1c24.18-8,56.54-18.73,90.93-42.36,0,0,56.19,100.45,49.79,202.94-6.82,109-37,189.17-143.75,268.17v238.57H280.11V786.85c-106.76-79-136.93-159.13-143.75-268.17-6.4-102.49,49.79-202.94,49.79-202.94,34.39,23.63,66.75,34.36,90.93,42.36"/><path class="cls-7" d="M428,183.21C453.25,157.72,494,139.06,540,139.06s86.75,18.66,112,44.15"/><path class="cls-7" d="M377.21,124.91c29-41.59,91-70.33,162.79-70.33s133.76,28.74,162.79,70.33"/><path class="cls-7" d="M470.45,248.63c19.11-18.06,40.75-28.18,69.55-28.18h0c28.8,0,50.44,10.12,69.55,28.18"/><path class="cls-8" d="M428,183.21C453.25,157.72,494,139.06,540,139.06s86.75,18.66,112,44.15"/><path class="cls-8" d="M377.21,124.91c29-41.59,91-70.33,162.79-70.33s133.76,28.74,162.79,70.33"/><path class="cls-8" d="M470.45,248.63c19.11-18.06,40.75-28.18,69.55-28.18h0c28.8,0,50.44,10.12,69.55,28.18"/></svg>