<svg xmlns="http://www.w3.org/2000/svg" xmlns:xlink="http://www.w3.org/1999/xlink" version="1.1" x="0px" y="0px" viewBox="0 0 91 113.75" enable-background="new 0 0 91 91" xml:space="preserve"><g><g><path d="M17.494,56.561h11.99c1.16,0,2.102-0.939,2.102-2.1s-0.941-2.1-2.102-2.1h-11.99c-1.16,0-2.1,0.939-2.1,2.1    S16.333,56.561,17.494,56.561z"/><path d="M29.484,60.242h-4.063c-1.16,0-2.1,0.939-2.1,2.1s0.939,2.1,2.1,2.1h4.063c1.16,0,2.102-0.939,2.102-2.1    S30.644,60.242,29.484,60.242z"/><path d="M55.895,67.834c-0.387,0.4-0.605,0.939-0.605,1.494s0.219,1.092,0.605,1.479c0.402,0.402,0.941,0.621,1.494,0.621    c0.555,0,1.092-0.219,1.479-0.621c0.387-0.387,0.623-0.924,0.623-1.479s-0.236-1.094-0.623-1.494    C58.096,67.061,56.684,67.061,55.895,67.834z"/><path d="M68.285,54.691h-0.002c-1.158,0.002-2.098,0.941-2.098,2.102c0.002,3.438-1.67,6.662-4.473,8.631    c-0.949,0.666-1.178,1.977-0.512,2.924c0.408,0.584,1.059,0.895,1.721,0.895c0.416,0,0.838-0.125,1.205-0.381    c3.922-2.752,6.262-7.264,6.26-12.07C70.385,55.631,69.445,54.691,68.285,54.691z"/><path d="M40.662,86.74c10.27,0,20.067-3.844,27.59-10.824c0.205-0.189,0.359-0.41,0.471-0.648c0.762-0.48,1.506-0.998,2.209-1.578    l0.961,0.961c-0.43,0.656-0.666,1.42-0.666,2.225c0,1.092,0.426,2.117,1.197,2.889l9.598,9.594    c0.771,0.773,1.797,1.199,2.885,1.199c1.092,0,2.117-0.426,2.885-1.197l1.777-1.775c0.773-0.773,1.197-1.803,1.197-2.893    c-0.002-1.094-0.43-2.115-1.195-2.879l-9.598-9.6c-1.338-1.336-3.531-1.514-5.105-0.525l-0.969-0.971    c2.539-3.086,4.07-6.719,4.633-10.475c0.191-0.205,0.357-0.438,0.455-0.719c1.277-3.666,2.012-7.484,2.199-11.377h3.43    c1.16,0,2.1-0.941,2.1-2.102c0-25.198-20.498-45.698-45.694-45.698c-1.16,0-2.1,0.939-2.1,2.1v3.186    C17.353,6.548,0.085,24.375,0.085,46.166C0.085,68.537,18.289,86.74,40.662,86.74z M86.516,84.697l-1.609,1.607l-9.512-9.346    l1.609-1.775L86.516,84.697z M69.521,69.305c-0.002,0.002-0.002,0.002-0.004,0.004l-0.002,0.002    c-3.283,3.279-7.643,5.086-12.279,5.086c-4.639,0-8.998-1.807-12.28-5.088c-6.771-6.77-6.771-17.789,0-24.563    c3.282-3.281,7.641-5.086,12.28-5.086s9.002,1.805,12.281,5.086C76.289,51.52,76.289,62.535,69.521,69.305z M82.463,43.945h-8.105    c-0.574-0.75-1.184-1.482-1.869-2.17c-4.074-4.072-9.492-6.316-15.252-6.316c-5.244,0-10.193,1.879-14.116,5.287V4.599    C64.336,5.662,81.4,22.73,82.463,43.945z M38.921,9.833v35.842c-5.152,8.319-4.143,19.397,3.064,26.602    c4.055,4.055,9.438,6.293,15.167,6.316c-5.061,2.576-10.691,3.945-16.491,3.945c-20.059,0-36.375-16.316-36.375-36.373    C4.287,26.691,19.669,10.744,38.921,9.833z"/><path d="M48.162,47.461c-1.16,0-2.1,0.941-2.1,2.1c0,1.16,0.939,2.102,2.1,2.102h20.125c1.16,0,2.1-0.941,2.1-2.102    c0-1.158-0.939-2.1-2.1-2.1H48.162z"/><path d="M23.455,41.134c-1.514,0-2.793-0.914-2.793-1.994c0-1.16-0.939-2.1-2.1-2.1s-2.1,0.939-2.1,2.1    c0,3.416,3.137,6.195,6.992,6.195h0.168v0.449c0,1.161,0.939,2.1,2.102,2.1c1.16,0,2.1-0.939,2.1-2.1v-0.469    c3.648-0.201,6.551-2.891,6.551-6.176v-0.223c0-1.369-0.688-3.365-3.965-5.096c-0.064-0.033-0.139-0.045-0.205-0.072    c-0.037-0.018-0.078-0.027-0.117-0.041c-0.08-0.027-0.156-0.068-0.24-0.086l-1.811-0.369l-0.213-0.043v-4.541    c1.314,0.154,2.357,0.98,2.357,1.947c0,1.16,0.939,2.1,2.1,2.1s2.1-0.939,2.1-2.1c0-3.277-2.904-5.961-6.557-6.16v-0.283    c0-1.16-0.939-2.1-2.1-2.1c-1.162,0-2.102,0.939-2.102,2.1v0.264h-0.168c-3.852,0-6.984,2.771-6.984,6.18v0.221    c0,1.988,1.305,3.686,3.883,5.041c0.176,0.094,0.363,0.16,0.557,0.199l0.148,0.031c0.023,0.006,0.045,0.018,0.07,0.021l2.494,0.51    v4.494H23.455z M30.173,39.14c0,0.975-1.039,1.807-2.35,1.961v-3.604l0.883,0.182c1.1,0.625,1.438,1.123,1.467,1.238V39.14z     M20.669,30.617c0-1.072,1.275-1.98,2.785-1.98h0.168v3.711l-1.561-0.32c-1.1-0.621-1.381-1.092-1.393-1.189V30.617z"/></g></g><text x="0" y="106" fill="#000000" font-size="5px" font-weight="bold" font-family="'Helvetica Neue', Helvetica, Arial-Unicode, Arial, Sans-serif">Created by BomSymbols</text><text x="0" y="111" fill="#000000" font-size="5px" font-weight="bold" font-family="'Helvetica Neue', Helvetica, Arial-Unicode, Arial, Sans-serif">from the Noun Project</text></svg>