<?xml version="1.0" encoding="utf-8"?>
<!-- Generator: Adobe Illustrator 18.1.1, SVG Export Plug-In . SVG Version: 6.00 Build 0)  -->
<!DOCTYPE svg PUBLIC "-//W3C//DTD SVG 1.1//EN" "http://www.w3.org/Graphics/SVG/1.1/DTD/svg11.dtd">
<svg version="1.1" xmlns="http://www.w3.org/2000/svg" xmlns:xlink="http://www.w3.org/1999/xlink" x="0px" y="0px"
	 viewBox="0 0 150.4 74.7" enable-background="new 0 0 150.4 74.7" xml:space="preserve">
<g id="圖層_3">
</g>
<g id="圖層_2">
</g>
<g id="圖層_1">
	<g>
		<path fill="#F97919" d="M112,64.6H38.5C23.9,64.6,12,52.8,12,38.2v0c0-14.6,11.8-26.4,26.4-26.4H112c14.6,0,26.4,11.8,26.4,26.4v0
			C138.4,52.8,126.6,64.6,112,64.6z"/>
		<g>
			<g>
				<path fill="#FFFFFF" d="M58.3,30.7h3.6v2.1h-8.2v-2.1h3.8c-0.3-0.7-0.8-1.6-1.3-2.3l1.9-0.9c0.6,0.8,1.3,1.8,1.5,2.6L58.3,30.7z
					 M54.4,36.9h7v1.9h-7V36.9z M54.7,33.9h6.7v1.9h-6.7V33.9z M61.5,46.2h-4.4v1h-2.3V40h6.7V46.2z M57.1,41.9v2.5h2v-2.5H57.1z
					 M73.7,44.3v2.4H62.1v-2.4h4.3v-4.5h-3.6v-2.4h3.6v-3.7h-4v-2.4H67c-0.4-0.9-1.2-2-1.8-3l2-1.1c0.8,1,1.8,2.3,2.2,3.2L68,31.3
					h5.2v2.4H69v3.7h3.8v2.4H69v4.5H73.7z"/>
				<path fill="#FFFFFF" d="M95.5,38.8h-1.9v5.9c0,1.1-0.2,1.8-0.8,2.3c-0.7,0.4-1.5,0.5-2.8,0.5c-0.1-0.7-0.4-1.8-0.8-2.5
					c0.6,0,1.3,0,1.5,0c0.2,0,0.3-0.1,0.3-0.3v-5.8h-2.2v8.3h-2.4v-8.3h-2.1v8.3H82v-8.3h-2v8.7h-2.5v-8.7h-2v-2.5h2v-7.7h16.1v7.7
					h1.9V38.8z M82,36.3v-5.2h-2v5.2H82z M86.5,36.3v-5.2h-2.1v5.2H86.5z M91,36.3v-5.2h-2.2v5.2H91z"/>
			</g>
		</g>
		<g>
			<path fill="#FFFFFF" d="M38.5,70.8c-17.8,0-32.4-14-33.4-31.5C5,38.7,5,38,5,37.4c0-9.3,3.8-17.6,10-23.7
				c6.2-6,14.7-9.8,24.2-9.8h72c9.4,0,18,3.7,24.2,9.8c6.2,6,10,14.4,10,23.7c0,0.7,0,1.3-0.1,2c-1,17.5-15.6,31.5-33.4,31.5H38.5
				C38.5,70.8,38.5,70.8,38.5,70.8 M111.2,1.4h-72c-10.1,0-19.3,4-25.9,10.5C6.7,18.4,2.5,27.4,2.5,37.4c0,0.7,0,1.4,0.1,2.1
				c1.1,18.8,16.8,33.8,35.9,33.8l0,0H112c19.1,0,34.8-15,35.9-33.8c0-0.7,0.1-1.4,0.1-2.1c0-10-4.1-19-10.8-25.4
				C130.5,5.4,121.3,1.4,111.2,1.4"/>
		</g>
	</g>
</g>
</svg>
