<?xml version="1.0" encoding="utf-8"?>
<!-- Generator: Adobe Illustrator 18.1.1, SVG Export Plug-In . SVG Version: 6.00 Build 0)  -->
<!DOCTYPE svg PUBLIC "-//W3C//DTD SVG 1.1//EN" "http://www.w3.org/Graphics/SVG/1.1/DTD/svg11.dtd">
<svg version="1.1" xmlns="http://www.w3.org/2000/svg" xmlns:xlink="http://www.w3.org/1999/xlink" x="0px" y="0px"
	 viewBox="0 0 150.4 74.7" enable-background="new 0 0 150.4 74.7" xml:space="preserve">
<g id="圖層_3">
</g>
<g id="圖層_2">
</g>
<g id="圖層_1">
	<g>
		<path fill="#F97919" d="M111.4,64.9H37.9c-14.6,0-26.4-11.8-26.4-26.4v0C11.4,23.9,23.3,12,37.9,12h73.5
			c14.6,0,26.4,11.8,26.4,26.4v0C137.8,53.1,126,64.9,111.4,64.9z"/>
		<g>
			<g>
				<path fill="#FFFFFF" d="M69.4,42.7H66l2.1,0.5c-0.3,0.7-0.7,1.4-1,2h5.5v2.2H53.6v-2.2h5.3c-0.2-0.6-0.5-1.4-0.9-1.9l1.7-0.5
					h-3.1v-5.6c-0.7,0.5-1.5,0.9-2.3,1.3c-0.3-0.6-1.1-1.4-1.6-1.9c1.2-0.5,2.5-1.3,3.7-2.3c-0.6-0.6-1.5-1.3-2.3-1.8l1.4-1.4
					c0.8,0.5,1.8,1.1,2.4,1.7c0.6-0.7,1.2-1.4,1.6-2.2h-5.1v-2.1h6.4l0.4-0.1l1.7,0.9c-0.6,1.5-1.4,2.9-2.3,4.2h5.2
					c-1.2-1.5-2.1-3.2-2.8-5l2.3-0.7c0.3,0.8,0.7,1.5,1.1,2.2c0.8-0.6,1.7-1.4,2.2-2.1l1.9,1.4c-0.9,0.8-2.1,1.6-3,2.3
					c0.3,0.4,0.6,0.7,1,1.1c0.9-0.7,1.9-1.6,2.5-2.3l1.9,1.3c-0.9,0.8-2,1.6-2.9,2.3c1.1,0.9,2.3,1.6,3.7,2.1
					c-0.6,0.5-1.4,1.5-1.7,2.1c-0.8-0.4-1.6-0.8-2.3-1.3V42.7z M59.4,34.7c-0.7,0.8-1.5,1.4-2.4,2h12.1c-0.8-0.6-1.5-1.2-2.3-2v0.8
					h-7.4V34.7z M66.6,38.8h-7.5v1.9h7.5V38.8z M64.5,45.1c0.4-0.8,0.9-1.7,1.1-2.5h-5.2c0.5,0.7,0.8,1.5,1,2.1l-1.1,0.4H64.5z"/>
				<path fill="#FFFFFF" d="M86.5,28.9c0,4.1,0.6,11.9,8.5,16.6c-0.6,0.5-1.6,1.6-2.1,2.2c-4.4-2.7-6.7-6.7-7.9-10.6
					c-1.6,4.8-4.2,8.4-7.9,10.6c-0.5-0.5-1.7-1.6-2.3-2.1c4.5-2.3,7-6.4,8.2-12l1.3,0.2C84.1,33,84,32.2,84,31.5h-4.9v-2.6H86.5z"/>
			</g>
		</g>
		<g>
			<path fill="#FFFFFF" d="M37.9,71.1c-17.8,0-32.4-14-33.4-31.5c0-0.7-0.1-1.3-0.1-2c0-9.3,3.8-17.6,10-23.7
				c6.2-6,14.7-9.8,24.2-9.8h72c9.4,0,18,3.7,24.2,9.8c6.2,6,10,14.4,10,23.7c0,0.7,0,1.3-0.1,2c-1,17.5-15.6,31.5-33.4,31.5H37.9
				C37.9,71.1,37.9,71.1,37.9,71.1 M110.6,1.7h-72c-10.1,0-19.3,4-25.9,10.5C6.1,18.7,1.9,27.7,1.9,37.6c0,0.7,0,1.4,0.1,2.1
				c1.1,18.8,16.8,33.8,35.9,33.8l0,0h73.5c19.1,0,34.8-15,35.9-33.8c0-0.7,0.1-1.4,0.1-2.1c0-10-4.1-19-10.8-25.4
				C129.9,5.7,120.7,1.7,110.6,1.7"/>
		</g>
	</g>
</g>
</svg>
