<?xml version="1.0" encoding="utf-8"?>
<!-- Generator: Adobe Illustrator 18.1.1, SVG Export Plug-In . SVG Version: 6.00 Build 0)  -->
<!DOCTYPE svg PUBLIC "-//W3C//DTD SVG 1.1//EN" "http://www.w3.org/Graphics/SVG/1.1/DTD/svg11.dtd">
<svg version="1.1" xmlns="http://www.w3.org/2000/svg" xmlns:xlink="http://www.w3.org/1999/xlink" x="0px" y="0px"
	 viewBox="0 0 280.5 76.4" enable-background="new 0 0 280.5 76.4" xml:space="preserve">
<g id="圖層_3">
</g>
<g id="圖層_2">
</g>
<g id="圖層_1">
	<g>
		<path fill="#F97919" d="M243.1,65.5H37.4C22.8,65.5,11,53.6,11,39v0c0-14.6,11.8-26.4,26.4-26.4h205.6c14.6,0,26.4,11.8,26.4,26.4
			v0C269.5,53.6,257.6,65.5,243.1,65.5z"/>
		<g>
			<g>
				<path fill="#FFFFFF" d="M75.9,30.5h8v2.7h-4.8v4.1h4.1V40h-4.1v6.5h-3.2V30.5z"/>
				<path fill="#FFFFFF" d="M86.2,43.3c0-2.7,2.1-4,5.8-4.6c0-1.3-0.7-2.1-1.6-2.1c-0.8,0-1.5,0.3-2.7,1l-1.2-2.1
					c1.5-0.9,2.9-1.4,4.5-1.4c2.5,0,4.1,1.7,4.1,5v7.4h-2.5l-0.3-1.4h-0.1c-0.8,1.1-1.8,1.6-3,1.6C87.3,46.7,86.2,45.4,86.2,43.3z
					 M92,43.2v-2.5c-2.1,0.4-2.7,1.1-2.7,2.3c0,0.9,0.5,1.3,1.1,1.3C90.9,44.3,91.5,43.8,92,43.2z"/>
				<path fill="#FFFFFF" d="M97.4,40.4c0-4,2.6-6.3,5.6-6.3c1.4,0,2.3,0.5,3.1,1.3l-1.5,2c-0.5-0.5-0.9-0.8-1.4-0.8
					c-1.5,0-2.6,1.5-2.6,3.8c0,2.3,1.1,3.8,2.5,3.8c0.8,0,1.4-0.3,2-0.9l1.2,2.1c-1,1-2.3,1.4-3.6,1.4
					C99.8,46.8,97.4,44.4,97.4,40.4z"/>
				<path fill="#FFFFFF" d="M108.3,40.4c0-3.9,2.3-6.3,4.9-6.3c2.8,0,4.3,2.4,4.3,5.7c0,0.6-0.1,1.2-0.1,1.5h-5.9c0.2,2,1.2,3,2.6,3
					c0.7,0,1.3-0.2,2-0.6l1.1,1.9c-1,0.7-2.2,1.1-3.4,1.1C110.6,46.7,108.3,44.4,108.3,40.4z M114.8,39.2c0-1.6-0.5-2.6-1.5-2.6
					c-0.9,0-1.7,0.9-1.9,2.6H114.8z"/>
				<path fill="#FFFFFF" d="M122.5,45.2h-0.1l-0.2,1.2h-2.5V29.9h3.1v3.6l-0.1,1.9c0.6-0.8,1.4-1.2,2.2-1.2c2.3,0,3.6,2.1,3.6,6.1
					c0,4.5-1.9,6.5-3.9,6.5C123.9,46.8,123.2,46.3,122.5,45.2z M125.4,40.3c0-2.5-0.5-3.6-1.3-3.6c-0.5,0-0.9,0.3-1.3,1.1v5.5
					c0.3,0.7,0.7,0.9,1.1,0.9C124.7,44.2,125.4,43.1,125.4,40.3z"/>
				<path fill="#FFFFFF" d="M130.3,40.4c0-4.2,2.2-6.3,4.7-6.3c2.5,0,4.7,2.1,4.7,6.3s-2.2,6.3-4.7,6.3
					C132.5,46.7,130.3,44.7,130.3,40.4z M136.5,40.4c0-2.5-0.6-3.8-1.5-3.8c-0.9,0-1.5,1.3-1.5,3.8c0,2.5,0.5,3.7,1.5,3.7
					C136,44.2,136.5,42.9,136.5,40.4z"/>
				<path fill="#FFFFFF" d="M141.4,40.4c0-4.2,2.2-6.3,4.7-6.3c2.5,0,4.7,2.1,4.7,6.3s-2.2,6.3-4.7,6.3
					C143.6,46.7,141.4,44.7,141.4,40.4z M147.6,40.4c0-2.5-0.6-3.8-1.5-3.8c-0.9,0-1.5,1.3-1.5,3.8c0,2.5,0.5,3.7,1.5,3.7
					C147,44.2,147.6,42.9,147.6,40.4z"/>
				<path fill="#FFFFFF" d="M152.9,29.9h3.1v9.5h0.1l2.9-5h3.3l-3.2,5l3.3,7.1h-3.2l-2-4.9l-1.2,1.9v3h-3.1V29.9z"/>
				<path fill="#FFFFFF" d="M168.3,31.5h3.6v2.1h-8.2v-2.1h3.8c-0.3-0.7-0.8-1.6-1.3-2.3l1.9-0.9c0.6,0.8,1.3,1.8,1.5,2.6
					L168.3,31.5z M164.5,37.8h7v1.9h-7V37.8z M164.8,34.7h6.7v1.9h-6.7V34.7z M171.5,47.1h-4.4v1h-2.3v-7.2h6.7V47.1z M167.1,42.7
					v2.5h2v-2.5H167.1z M183.7,45.1v2.4h-11.5v-2.4h4.3v-4.5h-3.6v-2.4h3.6v-3.7h-4v-2.4h4.6c-0.4-0.9-1.2-2-1.8-3l2-1.1
					c0.8,1,1.8,2.3,2.2,3.2l-1.4,0.8h5.2v2.4H179v3.7h3.8v2.4H179v4.5H183.7z"/>
				<path fill="#FFFFFF" d="M205.5,39.7h-1.9v5.9c0,1.1-0.2,1.8-0.8,2.3c-0.7,0.4-1.5,0.5-2.8,0.5c-0.1-0.7-0.4-1.8-0.8-2.5
					c0.6,0,1.3,0,1.5,0s0.3-0.1,0.3-0.3v-5.8h-2.2V48h-2.4v-8.3h-2.1V48H192v-8.3h-2v8.7h-2.5v-8.7h-2v-2.5h2v-7.7h16.1v7.7h1.9
					V39.7z M192,37.2V32h-2v5.2H192z M196.5,37.2V32h-2.1v5.2H196.5z M201.1,37.2V32h-2.2v5.2H201.1z"/>
			</g>
		</g>
		<g>
			<path fill="#FFFFFF" d="M37.4,71.7L37.4,71.7c-9.2,0-17.6-3.7-23.6-9.8C7.7,55.8,4,47.4,4,38.2c0-9.2,3.7-17.6,9.8-23.6
				c6.1-6.1,14.4-9.8,23.6-9.8h205.6c9.2,0,17.6,3.7,23.6,9.8c6.1,6.1,9.8,14.4,9.8,23.6c0,9.2-3.7,17.6-9.8,23.6
				c-6.1,6.1-14.4,9.8-23.6,9.8H37.4 M243.1,2.3H37.4C17.6,2.3,1.5,18.4,1.5,38.2c0,19.8,16.1,35.9,35.9,35.9l0,0h205.6
				c19.8,0,35.9-16.1,35.9-35.9C279,18.4,262.9,2.3,243.1,2.3"/>
		</g>
	</g>
</g>
</svg>
