<svg xmlns="http://www.w3.org/2000/svg" viewBox="0 0 1920 1080"><defs><style>.cls-1{fill:#fff;}</style></defs><title>sign up</title><g id="圖層_2" data-name="圖層 2"><polyline class="cls-1" points="286.14 139 258.39 139 258.39 165.15 286.14 165.15 286.14 139"/><polyline class="cls-1" points="313.89 139 286.14 139 286.14 165.15 313.89 165.15 313.89 139"/><polyline class="cls-1" points="319.4 180.88 305.53 180.88 305.53 193.96 319.4 193.96 319.4 180.88"/><polyline class="cls-1" points="348.57 180.88 334.7 180.88 334.7 193.96 348.57 193.96 348.57 180.88"/><polyline class="cls-1" points="341.64 139 313.89 139 313.89 165.15 341.64 165.15 341.64 139"/><path class="cls-1" d="M1469.43,250.58a6.93,6.93,0,1,0,6.92,6.93,6.93,6.93,0,0,0-6.92-6.93"/><path class="cls-1" d="M1494.39,250.58a6.93,6.93,0,1,0,6.93,6.93,6.92,6.92,0,0,0-6.93-6.93"/><path class="cls-1" d="M1519.36,250.58a6.93,6.93,0,1,0,6.92,6.93,6.92,6.92,0,0,0-6.92-6.93"/><path class="cls-1" d="M422.5,976.09a6.93,6.93,0,1,0,6.92,6.92,6.92,6.92,0,0,0-6.92-6.92"/><path class="cls-1" d="M445.43,976.09a6.93,6.93,0,1,0,6.92,6.92,6.92,6.92,0,0,0-6.92-6.92"/><path class="cls-1" d="M57.57,456.08V425.31L84.22,440.7,57.57,456.08m-2.42-35v39.16L89.07,440.7l-1.82-1.05-32.1-18.53"/><path class="cls-1" d="M1693.46,404.43l-2.12,2.12a5.06,5.06,0,0,1,1.22,1.88,6.31,6.31,0,0,1,.3,2.08c0,1.41-.32,3.06-.33,4.87a9.35,9.35,0,0,0,.47,3.06,8.33,8.33,0,0,0,5,4.95,9.27,9.27,0,0,0,3.06.47c1.79,0,3.41-.33,4.81-.33h.06a6.31,6.31,0,0,1,2.08.3,5.06,5.06,0,0,1,1.88,1.22,4.83,4.83,0,0,1,1.21,1.88,6.2,6.2,0,0,1,.31,2.07c0,1.42-.32,3.06-.33,4.88a9.35,9.35,0,0,0,.47,3.06,8.35,8.35,0,0,0,5,4.94,9,9,0,0,0,3.06.47c1.79,0,3.41-.33,4.81-.33h.06a6.2,6.2,0,0,1,2.07.31,4.75,4.75,0,0,1,1.88,1.22,4.68,4.68,0,0,1,1.22,1.88,6.2,6.2,0,0,1,.31,2.07c0,1.42-.32,3.06-.33,4.87a9.37,9.37,0,0,0,.47,3.07,8.35,8.35,0,0,0,5,4.94,9.06,9.06,0,0,0,3.06.47c1.79,0,3.41-.32,4.81-.32h.06a6.21,6.21,0,0,1,2.07.3,4.89,4.89,0,0,1,1.89,1.22,5,5,0,0,1,1.22,1.88,6.27,6.27,0,0,1,.3,2.08c0,1.41-.32,3.05-.33,4.87a9.35,9.35,0,0,0,.47,3.06,8.33,8.33,0,0,0,5,4.95,9.37,9.37,0,0,0,3.07.47c1.78,0,3.41-.33,4.8-.33h.06a6.26,6.26,0,0,1,2.08.31,4.89,4.89,0,0,1,1.89,1.22,5,5,0,0,1,1.22,1.88,6.31,6.31,0,0,1,.3,2.08c0,1.41-.32,3.06-.33,4.86a9.13,9.13,0,0,0,.48,3.07,7.83,7.83,0,0,0,1.93,3l2.12-2.12a4.89,4.89,0,0,1-1.22-1.89,6.49,6.49,0,0,1-.31-2.08c0-1.41.32-3.05.33-4.86a9.35,9.35,0,0,0-.47-3.06,8.33,8.33,0,0,0-5-4.95,9.13,9.13,0,0,0-3.07-.48c-1.78,0-3.41.33-4.8.33h-.06a6.27,6.27,0,0,1-2.08-.3,5.09,5.09,0,0,1-1.89-1.22,4.86,4.86,0,0,1-1.21-1.89,6.2,6.2,0,0,1-.31-2.07c0-1.41.32-3.06.33-4.87a9.27,9.27,0,0,0-.47-3.06,8.33,8.33,0,0,0-5-4.95,9.09,9.09,0,0,0-3.06-.47c-1.79,0-3.41.32-4.81.32H1738a6.31,6.31,0,0,1-2.08-.3,5.38,5.38,0,0,1-3.1-3.1,6.27,6.27,0,0,1-.3-2.08c0-1.41.32-3.05.32-4.87a8.85,8.85,0,0,0-.47-3.06,7.87,7.87,0,0,0-1.92-3,8,8,0,0,0-3-1.92,9.11,9.11,0,0,0-3.06-.48c-1.79,0-3.42.33-4.81.33h-.06a6.27,6.27,0,0,1-2.08-.3,5.38,5.38,0,0,1-3.1-3.1,6.21,6.21,0,0,1-.3-2.07c0-1.42.32-3.06.33-4.88a9.35,9.35,0,0,0-.47-3.06,8.35,8.35,0,0,0-5-4.94,9,9,0,0,0-3.06-.47c-1.79,0-3.42.33-4.82.33h0a6.2,6.2,0,0,1-2.07-.31,5.24,5.24,0,0,1-3.1-3.1,6.2,6.2,0,0,1-.31-2.07c0-1.41.32-3.06.33-4.87a9.27,9.27,0,0,0-.47-3.06,7.83,7.83,0,0,0-1.93-3"/><path class="cls-1" d="M475,586.33a2.5,2.5,0,0,0-1.77,4.27l.71.71a2.51,2.51,0,0,0,3.54,0,2.52,2.52,0,0,0,0-3.54l-.71-.71a2.53,2.53,0,0,0-1.77-.73m-8.48-8.48a2.5,2.5,0,0,0-1.77,4.27l.7.7a2.5,2.5,0,1,0,3.54-3.53l-.71-.71a2.45,2.45,0,0,0-1.76-.73M458,569.36a2.5,2.5,0,0,0-1.77,4.27l.71.71a2.5,2.5,0,0,0,3.54-3.54l-.71-.71a2.53,2.53,0,0,0-1.77-.73m-8.48-8.48a2.5,2.5,0,0,0-1.77,4.27l.7.7a2.5,2.5,0,1,0,3.54-3.53l-.71-.71a2.45,2.45,0,0,0-1.76-.73M441,552.39a2.5,2.5,0,0,0-1.77,4.27l.71.71a2.5,2.5,0,1,0,3.54-3.54l-.71-.71a2.53,2.53,0,0,0-1.77-.73m-8.49-8.48a2.45,2.45,0,0,0-1.76.73,2.49,2.49,0,0,0,0,3.53l.71.71a2.45,2.45,0,0,0,1.76.73,2.5,2.5,0,0,0,1.77-4.27l-.71-.7a2.49,2.49,0,0,0-1.77-.73M424,535.42a2.5,2.5,0,0,0-1.77,4.27l.71.7a2.5,2.5,0,0,0,1.77.74,2.46,2.46,0,0,0,1.76-.74,2.49,2.49,0,0,0,0-3.53l-.7-.71a2.53,2.53,0,0,0-1.77-.73"/><path class="cls-1" d="M1543.9,651.72h0m-13.6-10.52a10.52,10.52,0,0,0-10.52,10.52h3a7.51,7.51,0,0,1,7.52-7.52,8.43,8.43,0,0,1,6.72,3.36l3.12,4.16-3.12,4.16a8.42,8.42,0,0,1-6.72,3.35,7.51,7.51,0,0,1-7.52-7.51h-3a10.52,10.52,0,0,0,10.52,10.51,11.38,11.38,0,0,0,9.11-4.55l2.61-3.47-1.88-2.49,1.88-2.5-2.61-3.47a11.41,11.41,0,0,0-9.11-4.55"/><path class="cls-1" d="M1564.26,651.72h0m-10.51-10.52a11.41,11.41,0,0,0-9.12,4.55l-2.61,3.47-1.88,2.5,1.88,2.49,2.61,3.47a11.39,11.39,0,0,0,9.12,4.55,10.52,10.52,0,0,0,10.51-10.51h-3a7.51,7.51,0,0,1-7.51,7.51,8.4,8.4,0,0,1-6.72-3.35l-3.13-4.16h0l3.13-4.16a8.41,8.41,0,0,1,6.72-3.36,7.51,7.51,0,0,1,7.51,7.52h3a10.52,10.52,0,0,0-10.51-10.52"/><path class="cls-1" d="M1554.13,961.46q-.57.48-1.11,1a18.29,18.29,0,0,0,25.86,25.87q.54-.54,1-1.11a18.29,18.29,0,0,1-25.77-25.78"/><path class="cls-1" d="M1556.25,959.33c-.38.33-.74.67-1.1,1s-.7.73-1,1.11a18.29,18.29,0,0,0,25.77,25.78q.57-.48,1.11-1c.36-.36.7-.73,1-1.11a18.3,18.3,0,0,1-25.79-25.78"/><path class="cls-1" d="M1558.38,957.21c-.38.32-.75.66-1.1,1s-.7.72-1,1.1A18.29,18.29,0,0,0,1582,985.11c.37-.33.74-.66,1.1-1s.7-.73,1-1.11a18.29,18.29,0,0,1-25.78-25.77"/><path class="cls-1" d="M1560.51,955.08q-.57.48-1.11,1t-1,1.11A18.29,18.29,0,0,0,1584.16,983q.57-.48,1.11-1c.35-.36.7-.73,1-1.11a18.29,18.29,0,0,1-25.78-25.77"/><path class="cls-1" d="M1562.64,953q-.57.48-1.11,1t-1,1.11a18.29,18.29,0,0,0,25.78,25.77c.38-.32.75-.66,1.1-1s.7-.73,1-1.1A18.29,18.29,0,0,1,1562.64,953"/><path class="cls-1" d="M1564.77,950.82q-.57.48-1.11,1t-1,1.11a18.29,18.29,0,0,0,25.78,25.78c.37-.33.74-.67,1.1-1s.7-.72,1-1.1a18.29,18.29,0,0,1-25.77-25.78"/><path class="cls-1" d="M1566.9,948.69c-.38.32-.75.67-1.11,1s-.7.73-1,1.11a18.29,18.29,0,0,0,25.77,25.78c.38-.32.75-.67,1.11-1s.7-.73,1-1.11a18.29,18.29,0,0,1-25.77-25.78"/><path class="cls-1" d="M1569,946.56c-.38.33-.74.67-1.1,1s-.7.72-1,1.1a18.29,18.29,0,0,0,25.77,25.78q.57-.48,1.11-1c.36-.36.69-.73,1-1.1A18.3,18.3,0,0,1,1569,946.56"/><path class="cls-1" d="M1571.15,944.44q-.57.48-1.11,1c-.35.36-.69.73-1,1.1a18.3,18.3,0,0,0,25.78,25.79c.38-.33.75-.67,1.11-1s.7-.73,1-1.11a18.29,18.29,0,0,1-25.78-25.77"/><path class="cls-1" d="M1573.28,942.31q-.57.48-1.11,1t-1,1.11a18.29,18.29,0,0,0,25.78,25.77q.57-.48,1.11-1t1-1.11a18.29,18.29,0,0,1-25.78-25.77"/><path class="cls-1" d="M1575.41,940.18q-.57.48-1.11,1t-1,1.11a18.29,18.29,0,0,0,25.78,25.77c.38-.32.75-.66,1.1-1s.7-.72,1-1.1a18.29,18.29,0,0,1-25.77-25.78"/><path class="cls-1" d="M1577.54,938.05q-.57.48-1.11,1t-1,1.11A18.29,18.29,0,0,0,1601.18,966q.57-.5,1.11-1t1-1.11a18.29,18.29,0,0,1-25.77-25.78"/><path class="cls-1" d="M1579.67,935.92q-.57.48-1.11,1t-1,1.11a18.29,18.29,0,0,0,25.77,25.78q.57-.48,1.11-1t1-1.11a18.29,18.29,0,0,1-25.77-25.78"/><path class="cls-1" d="M1581.79,933.8c-.38.32-.75.66-1.1,1s-.7.72-1,1.1a18.29,18.29,0,0,0,25.77,25.78q.57-.48,1.11-1t1-1.11a18.29,18.29,0,0,1-25.78-25.77"/><path class="cls-1" d="M1583.92,931.67q-.57.48-1.11,1t-1,1.11a18.29,18.29,0,0,0,25.78,25.77q.57-.48,1.11-1c.35-.36.69-.72,1-1.1a18.29,18.29,0,0,1-25.77-25.78"/><path class="cls-1" d="M1586.05,929.54q-.57.48-1.11,1t-1,1.11a18.29,18.29,0,0,0,25.77,25.78c.38-.32.76-.67,1.12-1s.7-.73,1-1.11a18.29,18.29,0,0,1-25.78-25.77"/><path class="cls-1" d="M1588.17,927.41c-.37.33-.74.66-1.1,1s-.7.73-1,1.11a18.29,18.29,0,0,0,25.78,25.77c.38-.32.75-.66,1.1-1s.7-.72,1-1.1a18.29,18.29,0,0,1-25.78-25.78"/><path class="cls-1" d="M1590.3,925.28c-.37.32-.74.66-1.1,1s-.7.73-1,1.11A18.29,18.29,0,0,0,1614,953.19q.57-.5,1.11-1t1-1.11a18.29,18.29,0,0,1-25.78-25.78"/><path class="cls-1" d="M1592.43,923.15c-.38.33-.75.67-1.1,1s-.7.73-1,1.11a18.29,18.29,0,0,0,25.78,25.78q.57-.48,1.11-1t1-1.11a18.29,18.29,0,0,1-25.78-25.78"/><path class="cls-1" d="M1594.57,921c-.39.32-.76.67-1.12,1s-.69.72-1,1.1a18.29,18.29,0,0,0,25.78,25.78q.57-.48,1.11-1t1-1.11A18.29,18.29,0,0,1,1594.57,921"/><path class="cls-1" d="M1596.69,918.9q-.57.48-1.11,1c-.35.36-.69.72-1,1.1a18.29,18.29,0,0,0,25.77,25.78q.57-.48,1.11-1t1-1.11a18.29,18.29,0,0,1-25.78-25.77"/><path class="cls-1" d="M1598.82,916.77q-.57.48-1.11,1t-1,1.11a18.29,18.29,0,0,0,25.78,25.77c.38-.32.74-.66,1.1-1s.7-.72,1-1.1a18.29,18.29,0,0,1-25.77-25.78"/><path class="cls-1" d="M1601,914.64q-.57.48-1.11,1t-1,1.11a18.29,18.29,0,0,0,25.77,25.78q.57-.48,1.11-1c.36-.36.7-.74,1-1.12A18.29,18.29,0,0,1,1601,914.64"/><path class="cls-1" d="M1603.07,912.52c-.38.32-.75.66-1.1,1s-.7.73-1,1.11a18.29,18.29,0,0,0,25.78,25.77c.38-.32.74-.66,1.1-1s.7-.73,1-1.11a18.29,18.29,0,0,1-25.78-25.77"/><path class="cls-1" d="M1605.2,910.38c-.38.33-.75.67-1.1,1s-.71.74-1,1.12a18.29,18.29,0,0,0,25.78,25.77q.57-.48,1.11-1t1-1.11a18.29,18.29,0,0,1-25.78-25.78"/><path class="cls-1" d="M1607.33,908.26q-.57.48-1.11,1c-.36.36-.69.72-1,1.1A18.29,18.29,0,0,0,1631,936.16q.57-.48,1.11-1c.36-.36.69-.73,1-1.11a18.29,18.29,0,0,1-25.78-25.77"/><path class="cls-1" d="M1609.46,906.12c-.38.33-.75.67-1.11,1s-.7.73-1,1.11A18.29,18.29,0,0,0,1633.11,934c.38-.32.75-.66,1.1-1s.7-.73,1-1.1a18.3,18.3,0,0,1-25.78-25.79"/><path class="cls-1" d="M1611.59,904q-.57.48-1.11,1c-.36.36-.7.73-1,1.1a18.3,18.3,0,0,0,25.78,25.79c.37-.33.74-.67,1.1-1s.7-.72,1-1.1A18.29,18.29,0,0,1,1611.59,904"/><path class="cls-1" d="M1613.72,901.87q-.57.48-1.11,1t-1,1.11a18.29,18.29,0,0,0,25.77,25.78q.57-.49,1.11-1t1-1.11a18.29,18.29,0,0,1-25.77-25.78"/><path class="cls-1" d="M1615.84,899.74c-.38.33-.74.67-1.1,1s-.7.72-1,1.1a18.29,18.29,0,0,0,25.77,25.78q.57-.48,1.11-1c.36-.36.7-.73,1-1.11a18.29,18.29,0,0,1-25.79-25.78"/><path class="cls-1" d="M1618,897.62q-.57.48-1.11,1c-.35.36-.69.72-1,1.1a18.29,18.29,0,0,0,25.79,25.78c.37-.33.74-.66,1.1-1s.7-.73,1-1.11A18.29,18.29,0,0,1,1618,897.62"/><path class="cls-1" d="M1620.1,895.49q-.57.48-1.11,1t-1,1.11a18.29,18.29,0,0,0,25.78,25.77q.57-.48,1.11-1t1-1.11a18.29,18.29,0,0,1-25.78-25.77"/><path class="cls-1" d="M1622.23,893.36q-.57.48-1.11,1t-1,1.11a18.29,18.29,0,0,0,25.78,25.77c.38-.32.75-.66,1.1-1s.7-.72,1-1.1a18.29,18.29,0,0,1-25.78-25.78"/><path class="cls-1" d="M1624.36,891.23q-.57.48-1.11,1t-1,1.11A18.29,18.29,0,0,0,1648,919.14c.37-.33.74-.67,1.1-1s.7-.72,1-1.1a18.29,18.29,0,0,1-25.77-25.78"/><path class="cls-1" d="M1626.49,889.1q-.57.49-1.11,1t-1,1.11A18.29,18.29,0,0,0,1650.13,917q.57-.48,1.11-1t1-1.11a18.29,18.29,0,0,1-25.77-25.78"/><path class="cls-1" d="M1628.61,887c-.38.33-.75.67-1.1,1s-.7.72-1,1.1a18.29,18.29,0,0,0,25.77,25.78q.57-.48,1.11-1c.35-.36.69-.73,1-1.1A18.3,18.3,0,0,1,1628.61,887"/><path class="cls-1" d="M1630.74,884.85q-.57.48-1.11,1c-.35.36-.69.73-1,1.1a18.3,18.3,0,0,0,25.78,25.79c.38-.33.75-.67,1.11-1s.7-.73,1-1.11a18.29,18.29,0,0,1-25.78-25.77"/><path class="cls-1" d="M1632.87,882.72q-.57.48-1.11,1t-1,1.11a18.29,18.29,0,0,0,25.78,25.77q.57-.48,1.11-1t1-1.11a18.29,18.29,0,0,1-25.78-25.77"/><path class="cls-1" d="M1646.82,876.25a18.23,18.23,0,0,0-12.93,5.36q-.54.54-1,1.11a18.29,18.29,0,0,0,25.78,25.77c.38-.32.75-.66,1.1-1a18.29,18.29,0,0,0-12.93-31.22"/><path class="cls-1" d="M1500,953.39a13,13,0,0,0-1.12,1,12.37,12.37,0,1,0,17.5,17.5c.35-.36.68-.73,1-1.12A12.37,12.37,0,0,1,1500,953.39"/><path class="cls-1" d="M1502.1,951.28a11.4,11.4,0,0,0-1.11,1,13.13,13.13,0,0,0-1,1.12,12.37,12.37,0,0,0,17.37,17.37,11.62,11.62,0,0,0,1.12-1,11.77,11.77,0,0,0,1-1.12,12.37,12.37,0,0,1-17.38-17.36"/><path class="cls-1" d="M1504.22,949.16a11.5,11.5,0,0,0-1.12,1,13.25,13.25,0,0,0-1,1.13,12.37,12.37,0,0,0,17.38,17.36,12.15,12.15,0,0,0,2.11-2.11,12.37,12.37,0,0,1-17.37-17.37"/><path class="cls-1" d="M1506.34,947a13.28,13.28,0,0,0-2.12,2.12,12.37,12.37,0,0,0,17.37,17.37,13.28,13.28,0,0,0,2.12-2.12A12.37,12.37,0,0,1,1506.34,947"/><path class="cls-1" d="M1508.45,944.93a12.15,12.15,0,0,0-2.11,2.11,12.37,12.37,0,0,0,17.37,17.37,12.15,12.15,0,0,0,2.11-2.11,12.37,12.37,0,0,1-17.37-17.37"/><path class="cls-1" d="M1510.57,942.81a13.13,13.13,0,0,0-1.12,1,11.77,11.77,0,0,0-1,1.12,12.37,12.37,0,0,0,17.37,17.37,13.28,13.28,0,0,0,2.12-2.12,12.37,12.37,0,0,1-17.37-17.37"/><path class="cls-1" d="M1512.68,940.7a12.81,12.81,0,0,0-1.12,1,11.5,11.5,0,0,0-1,1.12,12.37,12.37,0,0,0,17.37,17.37,12.15,12.15,0,0,0,2.11-2.11,12.37,12.37,0,0,1-17.37-17.37"/><path class="cls-1" d="M1514.8,938.58a13.13,13.13,0,0,0-1.12,1,11.77,11.77,0,0,0-1,1.12,12.37,12.37,0,0,0,17.37,17.37,12.27,12.27,0,0,0,2.12-2.12,12.37,12.37,0,0,1-17.37-17.37"/><path class="cls-1" d="M1516.92,936.46a13.25,13.25,0,0,0-1.13,1,11.5,11.5,0,0,0-1,1.12A12.37,12.37,0,0,0,1532.17,956a12.15,12.15,0,0,0,2.11-2.11,12.37,12.37,0,0,1-17.36-17.38"/><path class="cls-1" d="M1519,934.35a13.13,13.13,0,0,0-1.12,1,11.4,11.4,0,0,0-1,1.11,12.37,12.37,0,0,0,17.36,17.38,13.25,13.25,0,0,0,1.13-1,11.66,11.66,0,0,0,1-1.12A12.37,12.37,0,0,1,1519,934.35"/><path class="cls-1" d="M1521.15,932.24a10.44,10.44,0,0,0-1.12,1,13.13,13.13,0,0,0-1,1.12,12.37,12.37,0,0,0,17.37,17.37,11.5,11.5,0,0,0,1.12-1,13.13,13.13,0,0,0,1-1.12,12.37,12.37,0,0,1-17.37-17.37"/><path class="cls-1" d="M1523.26,930.12a13.13,13.13,0,0,0-1.12,1,10.44,10.44,0,0,0-1,1.12,12.37,12.37,0,0,0,17.37,17.37,14.85,14.85,0,0,0,1.12-1,11.5,11.5,0,0,0,1-1.12,12.37,12.37,0,0,1-17.37-17.37"/><path class="cls-1" d="M1525.38,928a10.44,10.44,0,0,0-1.12,1,13.13,13.13,0,0,0-1,1.12,12.37,12.37,0,0,0,17.37,17.37,11.5,11.5,0,0,0,1.12-1,14.85,14.85,0,0,0,1-1.12A12.37,12.37,0,0,1,1525.38,928"/><path class="cls-1" d="M1527.49,925.89a13.13,13.13,0,0,0-1.12,1,10.44,10.44,0,0,0-1,1.12,12.38,12.38,0,0,0,17.37,17.37,13.13,13.13,0,0,0,1.12-1,11.5,11.5,0,0,0,1-1.12,12.37,12.37,0,0,1-17.37-17.37"/><path class="cls-1" d="M1529.61,923.78a10.44,10.44,0,0,0-1.12,1,13.13,13.13,0,0,0-1,1.12,12.37,12.37,0,0,0,17.37,17.37,10.44,10.44,0,0,0,1.12-1,14.85,14.85,0,0,0,1-1.12,12.37,12.37,0,0,1-17.37-17.37"/><path class="cls-1" d="M1531.72,921.66c-.39.31-.76.64-1.12,1a11.6,11.6,0,0,0-1,1.13A12.38,12.38,0,0,0,1547,941.15a13.28,13.28,0,0,0,2.12-2.12,12.38,12.38,0,0,1-17.38-17.37"/><path class="cls-1" d="M1533.84,919.54a11.77,11.77,0,0,0-1.12,1,13.13,13.13,0,0,0-1,1.12A12.38,12.38,0,0,0,1549.1,939a14.81,14.81,0,0,0,1.11-1,13.25,13.25,0,0,0,1-1.13,12.37,12.37,0,0,1-17.37-17.37"/><path class="cls-1" d="M1536,917.43a11.5,11.5,0,0,0-1.12,1,12.81,12.81,0,0,0-1,1.12,12.37,12.37,0,0,0,17.37,17.37,12.15,12.15,0,0,0,2.11-2.11A12.37,12.37,0,0,1,1536,917.43"/><path class="cls-1" d="M1538.07,915.31a11.77,11.77,0,0,0-1.12,1,13.13,13.13,0,0,0-1,1.12,12.37,12.37,0,0,0,17.37,17.37,13.28,13.28,0,0,0,2.12-2.12,12.37,12.37,0,0,1-17.37-17.37"/><path class="cls-1" d="M1540.19,913.2a11.76,11.76,0,0,0-2.12,2.11,12.37,12.37,0,0,0,17.37,17.37,12.15,12.15,0,0,0,2.11-2.11,12.37,12.37,0,0,1-17.36-17.37"/><path class="cls-1" d="M1542.3,911.08a13.13,13.13,0,0,0-1.12,1,10.44,10.44,0,0,0-1,1.12,12.37,12.37,0,0,0,17.36,17.37,13.28,13.28,0,0,0,2.12-2.12,12.37,12.37,0,0,1-17.37-17.37"/><path class="cls-1" d="M1544.42,909a11.6,11.6,0,0,0-1.13,1,13,13,0,0,0-1,1.12,12.37,12.37,0,0,0,17.37,17.37,12.15,12.15,0,0,0,2.11-2.11A12.37,12.37,0,0,1,1544.42,909"/><path class="cls-1" d="M1546.53,906.85a13.13,13.13,0,0,0-1.12,1,10.44,10.44,0,0,0-1,1.12,12.37,12.37,0,0,0,17.36,17.37,13.28,13.28,0,0,0,2.12-2.12,12.37,12.37,0,0,1-17.37-17.37"/><path class="cls-1" d="M1548.64,904.74a12.81,12.81,0,0,0-1.12,1c-.35.36-.68.73-1,1.12a12.37,12.37,0,0,0,17.37,17.37,11.5,11.5,0,0,0,1.12-1,13.25,13.25,0,0,0,1-1.13,12.37,12.37,0,0,1-17.38-17.36"/><path class="cls-1" d="M1550.76,902.62c-.39.31-.76.64-1.12,1a13.25,13.25,0,0,0-1,1.13A12.37,12.37,0,0,0,1566,922.1a12.81,12.81,0,0,0,1.12-1c.35-.36.68-.73,1-1.12a12.37,12.37,0,0,1-17.37-17.37"/><path class="cls-1" d="M1552.88,900.51a11.6,11.6,0,0,0-1.13,1c-.35.36-.68.73-1,1.12A12.37,12.37,0,0,0,1568.13,920a11.5,11.5,0,0,0,1.12-1,13.25,13.25,0,0,0,1-1.13,12.37,12.37,0,0,1-17.37-17.36"/><path class="cls-1" d="M1555,898.39c-.39.31-.76.64-1.12,1a11.6,11.6,0,0,0-1,1.13,12.37,12.37,0,0,0,17.37,17.36,12.15,12.15,0,0,0,2.11-2.11A12.37,12.37,0,0,1,1555,898.39"/><path class="cls-1" d="M1557.11,896.27a11.77,11.77,0,0,0-1.12,1,13.13,13.13,0,0,0-1,1.12,12.37,12.37,0,0,0,17.37,17.37c.39-.31.76-.64,1.12-1a14.85,14.85,0,0,0,1-1.12,12.38,12.38,0,0,1-17.37-17.38"/><path class="cls-1" d="M1559.22,894.16a13,13,0,0,0-1.12,1,12.81,12.81,0,0,0-1,1.12,12.38,12.38,0,0,0,17.37,17.38,14.85,14.85,0,0,0,1.12-1,11.5,11.5,0,0,0,1-1.12,12.37,12.37,0,0,1-17.37-17.37"/><path class="cls-1" d="M1561.34,892a11.77,11.77,0,0,0-1.12,1,13.13,13.13,0,0,0-1,1.12,12.37,12.37,0,0,0,17.37,17.37c.39-.31.76-.64,1.12-1a13.25,13.25,0,0,0,1-1.13A12.37,12.37,0,0,1,1561.34,892"/><path class="cls-1" d="M1571.08,887.3a12.36,12.36,0,0,0-8.75,3.62,12.81,12.81,0,0,0-1,1.12,12.37,12.37,0,0,0,17.37,17.37,11.5,11.5,0,0,0,1.12-1,12.37,12.37,0,0,0-8.75-21.12"/><path class="cls-1" d="M126.39,829.13a12.7,12.7,0,0,0-1.11,1,12.37,12.37,0,0,0,17.5,17.5c.35-.36.68-.73,1-1.12a12.38,12.38,0,0,1-17.38-17.37"/><path class="cls-1" d="M128.5,827a11.5,11.5,0,0,0-1.12,1,13.07,13.07,0,0,0-1,1.11,12.38,12.38,0,0,0,17.38,17.37,13,13,0,0,0,2.1-2.1A12.37,12.37,0,0,1,128.5,827"/><path class="cls-1" d="M130.6,824.93a12,12,0,0,0-2.1,2.1,12.37,12.37,0,0,0,17.37,17.37,10.34,10.34,0,0,0,1.11-1,12.7,12.7,0,0,0,1-1.11,12.37,12.37,0,0,1-17.37-17.37"/><path class="cls-1" d="M132.7,822.82a14.81,14.81,0,0,0-1.11,1,11.5,11.5,0,0,0-1,1.12A12.37,12.37,0,0,0,148,842.3c.39-.31.76-.64,1.12-1a12.88,12.88,0,0,0,1-1.12,12.37,12.37,0,0,1-17.37-17.37"/><path class="cls-1" d="M134.81,820.72a11.5,11.5,0,0,0-1.12,1,12.88,12.88,0,0,0-1,1.11,12.37,12.37,0,0,0,17.37,17.37,12.88,12.88,0,0,0,1.12-1c.35-.36.68-.73,1-1.12a12.37,12.37,0,0,1-17.37-17.37"/><path class="cls-1" d="M136.91,818.62a12,12,0,0,0-2.1,2.1,12.37,12.37,0,0,0,17.37,17.37,12.7,12.7,0,0,0,1.11-1,11.4,11.4,0,0,0,1-1.11,12.37,12.37,0,0,1-17.37-17.37"/><path class="cls-1" d="M139,816.51a13.07,13.07,0,0,0-1.11,1,11.5,11.5,0,0,0-1,1.12A12.37,12.37,0,0,0,154.28,836a13.07,13.07,0,0,0,1.11-1,12.7,12.7,0,0,0,1-1.11A12.38,12.38,0,0,1,139,816.51"/><path class="cls-1" d="M141.11,814.41a13.07,13.07,0,0,0-1.11,1,12.7,12.7,0,0,0-1,1.11,12.38,12.38,0,0,0,17.37,17.38c.39-.31.76-.64,1.12-1a12.88,12.88,0,0,0,1-1.12,12.37,12.37,0,0,1-17.37-17.37"/><path class="cls-1" d="M143.21,812.31a12.7,12.7,0,0,0-1.11,1,11.4,11.4,0,0,0-1,1.11,12.37,12.37,0,0,0,17.37,17.37,11.5,11.5,0,0,0,1.12-1,13.07,13.07,0,0,0,1-1.11,12.38,12.38,0,0,1-17.38-17.37"/><path class="cls-1" d="M145.32,810.21a12.88,12.88,0,0,0-1.12,1c-.35.36-.68.73-1,1.12a12.38,12.38,0,0,0,17.38,17.37,12.7,12.7,0,0,0,1.11-1,11.4,11.4,0,0,0,1-1.11,12.37,12.37,0,0,1-17.37-17.37"/><path class="cls-1" d="M147.42,808.1a13.07,13.07,0,0,0-1.11,1,11.5,11.5,0,0,0-1,1.12,12.37,12.37,0,0,0,17.37,17.37,12.88,12.88,0,0,0,1.11-1,11.5,11.5,0,0,0,1-1.12,12.37,12.37,0,0,1-17.37-17.37"/><path class="cls-1" d="M149.52,806a11.4,11.4,0,0,0-1.11,1,12.7,12.7,0,0,0-1,1.11,12.37,12.37,0,0,0,17.37,17.37,11.19,11.19,0,0,0,2.1-2.1A12.37,12.37,0,0,1,149.52,806"/><path class="cls-1" d="M151.63,803.9a12.58,12.58,0,0,0-2.11,2.1,12.37,12.37,0,0,0,17.37,17.37,11.5,11.5,0,0,0,1.12-1,13.07,13.07,0,0,0,1-1.11,12.37,12.37,0,0,1-17.37-17.37"/><path class="cls-1" d="M153.73,801.8a12,12,0,0,0-2.1,2.1A12.37,12.37,0,0,0,169,821.27a12.7,12.7,0,0,0,1.11-1,13.07,13.07,0,0,0,1-1.11,12.37,12.37,0,0,1-17.37-17.37"/><path class="cls-1" d="M155.83,799.7a12,12,0,0,0-2.1,2.1,12.37,12.37,0,0,0,17.37,17.37,13,13,0,0,0,2.1-2.1,12.37,12.37,0,0,1-17.37-17.37"/><path class="cls-1" d="M157.93,797.59a14.81,14.81,0,0,0-1.11,1,11.5,11.5,0,0,0-1,1.12,12.37,12.37,0,0,0,17.37,17.37,13.16,13.16,0,0,0,2.11-2.11,12.38,12.38,0,0,1-17.38-17.37"/><path class="cls-1" d="M160,795.49a12.7,12.7,0,0,0-1.11,1,11.4,11.4,0,0,0-1,1.11A12.38,12.38,0,0,0,175.31,815a12.7,12.7,0,0,0,1.11-1,13.07,13.07,0,0,0,1-1.11A12.38,12.38,0,0,1,160,795.49"/><path class="cls-1" d="M162.13,793.39a12.7,12.7,0,0,0-1.11,1,13.07,13.07,0,0,0-1,1.11,12.38,12.38,0,0,0,17.38,17.37,12.7,12.7,0,0,0,1.11-1,12.88,12.88,0,0,0,1-1.11,12.38,12.38,0,0,1-17.38-17.37"/><path class="cls-1" d="M164.24,791.28c-.39.31-.76.64-1.12,1s-.68.73-1,1.12a12.38,12.38,0,0,0,17.38,17.37,11.4,11.4,0,0,0,1.11-1,12.7,12.7,0,0,0,1-1.11,12.38,12.38,0,0,1-17.37-17.38"/><path class="cls-1" d="M166.34,789.18a11.4,11.4,0,0,0-1.11,1,12.7,12.7,0,0,0-1,1.11,12.38,12.38,0,0,0,17.37,17.38,13.07,13.07,0,0,0,1.11-1,11.5,11.5,0,0,0,1-1.12,12.37,12.37,0,0,1-17.37-17.37"/><path class="cls-1" d="M168.44,787.08a12.7,12.7,0,0,0-1.11,1,12.88,12.88,0,0,0-1,1.11,12.37,12.37,0,0,0,17.37,17.37,11.5,11.5,0,0,0,1.12-1,13.07,13.07,0,0,0,1-1.11,12.38,12.38,0,0,1-17.38-17.37"/><path class="cls-1" d="M170.55,785a11.5,11.5,0,0,0-1.12,1,13.07,13.07,0,0,0-1,1.11,12.38,12.38,0,0,0,17.38,17.37,12.7,12.7,0,0,0,1.11-1,12.88,12.88,0,0,0,1-1.11A12.37,12.37,0,0,1,170.55,785"/><path class="cls-1" d="M172.65,782.88a11.19,11.19,0,0,0-2.1,2.1,12.37,12.37,0,0,0,17.37,17.37,11.4,11.4,0,0,0,1.11-1,12.7,12.7,0,0,0,1-1.11,12.37,12.37,0,0,1-17.37-17.37"/><path class="cls-1" d="M174.75,780.77a12.58,12.58,0,0,0-2.1,2.11A12.37,12.37,0,0,0,190,800.25a13.07,13.07,0,0,0,1.11-1,11.5,11.5,0,0,0,1-1.12,12.37,12.37,0,0,1-17.37-17.37"/><path class="cls-1" d="M176.86,778.67a12.58,12.58,0,0,0-2.11,2.1,12.37,12.37,0,0,0,17.37,17.37,12.88,12.88,0,0,0,1.12-1c.35-.36.68-.73,1-1.12a12.37,12.37,0,0,1-17.37-17.37"/><path class="cls-1" d="M179,776.57a12,12,0,0,0-2.1,2.1A12.37,12.37,0,0,0,194.23,796a12.7,12.7,0,0,0,1.11-1,12.88,12.88,0,0,0,1-1.11A12.37,12.37,0,0,1,179,776.57"/><path class="cls-1" d="M181.06,774.47a12,12,0,0,0-2.1,2.1,12.37,12.37,0,0,0,17.37,17.37,11.4,11.4,0,0,0,1.11-1,12.7,12.7,0,0,0,1-1.11,12.37,12.37,0,0,1-17.37-17.37"/><path class="cls-1" d="M183.16,772.37a12,12,0,0,0-2.1,2.1,12.37,12.37,0,0,0,17.37,17.37,13.07,13.07,0,0,0,1.11-1,11.5,11.5,0,0,0,1-1.12,12.37,12.37,0,0,1-17.37-17.36"/><path class="cls-1" d="M185.26,770.26a12.7,12.7,0,0,0-1.11,1,10.44,10.44,0,0,0-1,1.12,12.37,12.37,0,0,0,17.37,17.36,12.88,12.88,0,0,0,1.12-1c.35-.36.68-.73,1-1.12a12.38,12.38,0,0,1-17.38-17.37"/><path class="cls-1" d="M187.37,768.16a11.5,11.5,0,0,0-1.12,1,13.07,13.07,0,0,0-1,1.11,12.38,12.38,0,0,0,17.38,17.37,12.7,12.7,0,0,0,1.11-1,14.81,14.81,0,0,0,1-1.11,12.37,12.37,0,0,1-17.37-17.37"/><path class="cls-1" d="M189.47,766.05c-.39.31-.76.64-1.12,1a12.88,12.88,0,0,0-1,1.12,12.37,12.37,0,0,0,17.37,17.37,11.4,11.4,0,0,0,1.11-1,12.7,12.7,0,0,0,1-1.11,12.38,12.38,0,0,1-17.37-17.38"/><path class="cls-1" d="M191.57,764a13.07,13.07,0,0,0-1.11,1,12.7,12.7,0,0,0-1,1.11,12.38,12.38,0,0,0,17.37,17.38,13.07,13.07,0,0,0,1.11-1,11.5,11.5,0,0,0,1-1.12A12.37,12.37,0,0,1,191.57,764"/><path class="cls-1" d="M193.67,761.85a13,13,0,0,0-2.1,2.1,12.37,12.37,0,0,0,17.37,17.37,12.88,12.88,0,0,0,1.12-1c.35-.36.68-.73,1-1.12a12.38,12.38,0,0,1-17.38-17.37"/><path class="cls-1" d="M195.77,759.75a12.7,12.7,0,0,0-1.11,1,13.07,13.07,0,0,0-1,1.11,12.38,12.38,0,0,0,17.38,17.37,12.7,12.7,0,0,0,1.11-1,14.81,14.81,0,0,0,1-1.11,12.38,12.38,0,0,1-17.38-17.37"/><path class="cls-1" d="M197.88,757.64c-.39.31-.76.64-1.12,1s-.68.73-1,1.12a12.38,12.38,0,0,0,17.38,17.37,13,13,0,0,0,2.1-2.1,12.38,12.38,0,0,1-17.37-17.38"/><path class="cls-1" d="M200,755.54a14.81,14.81,0,0,0-1.11,1,12.7,12.7,0,0,0-1,1.11A12.38,12.38,0,0,0,215.25,775a13.07,13.07,0,0,0,1.11-1,11.5,11.5,0,0,0,1-1.12A12.37,12.37,0,0,1,200,755.54"/><path class="cls-1" d="M202.08,753.44a12.7,12.7,0,0,0-1.11,1,11.4,11.4,0,0,0-1,1.11,12.37,12.37,0,0,0,17.37,17.37,11.19,11.19,0,0,0,2.1-2.1,12.37,12.37,0,0,1-17.37-17.37"/><path class="cls-1" d="M204.19,751.34a11.5,11.5,0,0,0-1.12,1,13.07,13.07,0,0,0-1,1.11,12.37,12.37,0,0,0,17.37,17.37,11.5,11.5,0,0,0,1.12-1,10.34,10.34,0,0,0,1-1.11,12.37,12.37,0,0,1-17.37-17.37"/><path class="cls-1" d="M206.29,749.23a13.07,13.07,0,0,0-1.11,1,11.5,11.5,0,0,0-1,1.12,12.37,12.37,0,0,0,17.37,17.37,13,13,0,0,0,2.1-2.1,12.38,12.38,0,0,1-17.37-17.38"/><path class="cls-1" d="M208.39,747.13a14.81,14.81,0,0,0-1.11,1,12.7,12.7,0,0,0-1,1.11,12.38,12.38,0,0,0,17.37,17.38c.39-.31.76-.64,1.12-1s.68-.73,1-1.12a12.38,12.38,0,0,1-17.38-17.37"/><path class="cls-1" d="M210.49,745a14.57,14.57,0,0,0-1.11,1,12.88,12.88,0,0,0-1,1.11,12.38,12.38,0,0,0,17.38,17.37,14.42,14.42,0,0,0,1.11-1,12.88,12.88,0,0,0,1-1.12A12.37,12.37,0,0,1,210.49,745"/><path class="cls-1" d="M212.6,742.93a12.58,12.58,0,0,0-2.11,2.1,12.37,12.37,0,0,0,17.37,17.37,11.5,11.5,0,0,0,1.12-1,13.07,13.07,0,0,0,1-1.11,12.37,12.37,0,0,1-17.37-17.37"/><path class="cls-1" d="M214.7,740.83a11.19,11.19,0,0,0-2.1,2.1A12.37,12.37,0,0,0,230,760.3a12.7,12.7,0,0,0,1.11-1,11.4,11.4,0,0,0,1-1.11,12.37,12.37,0,0,1-17.37-17.37"/><path class="cls-1" d="M216.8,738.72a13.07,13.07,0,0,0-1.11,1,11.5,11.5,0,0,0-1,1.12,12.37,12.37,0,0,0,17.37,17.37,13.07,13.07,0,0,0,1.11-1,11.5,11.5,0,0,0,1-1.12,12.37,12.37,0,0,1-17.37-17.37"/><path class="cls-1" d="M218.91,736.62a12.58,12.58,0,0,0-2.11,2.1,12.37,12.37,0,0,0,17.37,17.37,12.88,12.88,0,0,0,1.12-1c.35-.36.68-.73,1-1.12a12.37,12.37,0,0,1-17.37-17.37"/><path class="cls-1" d="M221,734.52a12,12,0,0,0-2.1,2.1A12.37,12.37,0,0,0,236.28,754a12.7,12.7,0,0,0,1.11-1,13.07,13.07,0,0,0,1-1.11A12.37,12.37,0,0,1,221,734.52"/><path class="cls-1" d="M223.11,732.42a11.19,11.19,0,0,0-2.1,2.1,12.37,12.37,0,0,0,17.37,17.37,11.4,11.4,0,0,0,1.11-1,12.88,12.88,0,0,0,1-1.11,12.37,12.37,0,0,1-17.37-17.37"/><path class="cls-1" d="M232.85,727.68a12.34,12.34,0,0,0-8.75,3.62,11.5,11.5,0,0,0-1,1.12,12.37,12.37,0,0,0,17.37,17.37,11.4,11.4,0,0,0,1.11-1,12.37,12.37,0,0,0-8.74-21.12"/><path class="cls-1" d="M228.24,775.8a11.81,11.81,0,0,0-1.15,1,10.63,10.63,0,0,0,15,15,9.72,9.72,0,0,0,1-1.14,10.63,10.63,0,0,1-14.88-14.88"/><path class="cls-1" d="M230.38,773.66a10.74,10.74,0,0,0-1.15,1,11.81,11.81,0,0,0-1,1.15,10.63,10.63,0,0,0,16,13.89,11.81,11.81,0,0,0,1-1.15,10.63,10.63,0,0,1-14.87-14.88"/><path class="cls-1" d="M232.51,771.53a10.63,10.63,0,0,0,12.74,17,11.81,11.81,0,0,0,1.15-1,10.74,10.74,0,0,0,1-1.15,10.63,10.63,0,0,1-14.88-14.87"/><path class="cls-1" d="M234.65,769.39a10.18,10.18,0,0,0-2.14,2.14,10.62,10.62,0,0,0,14.88,14.87,11.16,11.16,0,0,0,2.14-2.13,10.63,10.63,0,0,1-14.88-14.88"/><path class="cls-1" d="M236.79,767.25a10.74,10.74,0,0,0-1.15,1,11.81,11.81,0,0,0-1,1.15,10.63,10.63,0,0,0,16,13.89,11.81,11.81,0,0,0,1-1.15,10.63,10.63,0,0,1-14.87-14.88"/><path class="cls-1" d="M238.92,765.12a10.64,10.64,0,0,0-1.14,1,8.79,8.79,0,0,0-1,1.14,10.63,10.63,0,0,0,14.87,14.88A10.45,10.45,0,0,0,253.8,780a10.63,10.63,0,0,1-14.88-14.88"/><path class="cls-1" d="M241.06,763a10.18,10.18,0,0,0-2.14,2.14A10.63,10.63,0,0,0,253.8,780a9.72,9.72,0,0,0,1.14-1,10.74,10.74,0,0,0,1-1.14A10.63,10.63,0,0,1,241.06,763"/><path class="cls-1" d="M243.19,760.84a9.72,9.72,0,0,0-1.14,1,10.63,10.63,0,0,0,13.89,16,10.45,10.45,0,0,0,2.13-2.14,10.63,10.63,0,0,1-14.88-14.88"/><path class="cls-1" d="M245.33,758.71a10.64,10.64,0,0,0-1.14,1,9.72,9.72,0,0,0-1,1.14,10.63,10.63,0,0,0,14.88,14.88,11.81,11.81,0,0,0,1.15-1,10.64,10.64,0,0,0,1-1.14,10.63,10.63,0,0,1-14.88-14.88"/><path class="cls-1" d="M247.47,756.57a10.74,10.74,0,0,0-1.15,1,11.81,11.81,0,0,0-1,1.15,10.63,10.63,0,0,0,14.88,14.88,9.72,9.72,0,0,0,1.14-1,10.64,10.64,0,0,0,1-1.14,10.63,10.63,0,0,1-14.87-14.88"/><path class="cls-1" d="M249.6,754.44a9.62,9.62,0,0,0-1.14,1,10.63,10.63,0,0,0,15,15,11.81,11.81,0,0,0,1-1.15,10.63,10.63,0,0,1-14.88-14.87"/><path class="cls-1" d="M251.74,752.3a11.81,11.81,0,0,0-1.15,1,10.74,10.74,0,0,0-1,1.15,10.62,10.62,0,0,0,16,13.88,8.79,8.79,0,0,0,1-1.14,10.63,10.63,0,0,1-14.87-14.88"/><path class="cls-1" d="M253.88,750.16a10.74,10.74,0,0,0-1.15,1,11.81,11.81,0,0,0-1,1.15,10.63,10.63,0,0,0,14.87,14.88,10.74,10.74,0,0,0,1.15-1,11.81,11.81,0,0,0,1-1.15,10.63,10.63,0,0,1-14.87-14.88"/><path class="cls-1" d="M256,748a10.63,10.63,0,0,0,12.74,17,10.18,10.18,0,0,0,2.14-2.14A10.63,10.63,0,0,1,256,748"/><path class="cls-1" d="M258.15,745.89a11.81,11.81,0,0,0-1.15,1,10.74,10.74,0,0,0-1,1.15,10.63,10.63,0,0,0,17,12.74,10.63,10.63,0,0,1-14.87-14.88"/><path class="cls-1" d="M260.28,743.75a9.72,9.72,0,0,0-1.14,1,10.63,10.63,0,0,0,15,15,13.49,13.49,0,0,0,1-1.15,10.63,10.63,0,0,1-14.89-14.88"/><path class="cls-1" d="M262.42,741.62a10.64,10.64,0,0,0-1.14,1,9.72,9.72,0,0,0-1,1.14,10.63,10.63,0,0,0,14.89,14.88,11.6,11.6,0,0,0,1.13-1,9.72,9.72,0,0,0,1-1.14,10.63,10.63,0,0,1-14.88-14.88"/><path class="cls-1" d="M264.56,739.48a11.81,11.81,0,0,0-1.15,1,10.74,10.74,0,0,0-1,1.15A10.63,10.63,0,0,0,277.3,756.5a11.16,11.16,0,0,0,2.13-2.14,10.63,10.63,0,0,1-14.87-14.88"/><path class="cls-1" d="M266.69,737.34a9.72,9.72,0,0,0-1.14,1,10.63,10.63,0,0,0,15,15,11.81,11.81,0,0,0,1-1.15,10.64,10.64,0,0,1-13.89-1,10.65,10.65,0,0,1-1-13.89"/><path class="cls-1" d="M268.83,735.21a10.45,10.45,0,0,0-2.14,2.13,10.63,10.63,0,0,0,8.51,17,10.59,10.59,0,0,0,7.51-3.11,8.79,8.79,0,0,0,1-1.14,10.63,10.63,0,0,1-14.87-14.88"/><path class="cls-1" d="M271,733.07a10.18,10.18,0,0,0-2.14,2.14,10.63,10.63,0,0,0,14.87,14.88,11.27,11.27,0,0,0,2.15-2.14A10.63,10.63,0,0,1,271,733.07"/><path class="cls-1" d="M273.1,730.94a10.63,10.63,0,0,0,12.75,17,10.45,10.45,0,0,0,2.13-2.14,10.63,10.63,0,0,1-14.88-14.87"/><path class="cls-1" d="M281.61,726.68a10.59,10.59,0,0,0-7.52,3.11,10.66,10.66,0,0,0,0,15,10.63,10.63,0,1,0,7.52-18.14"/><polyline class="cls-1" points="1920 62 1893.85 62 1893.85 124.47 1920 124.47 1920 62"/><polyline class="cls-1" points="1920 124.47 1920 124.47 1893.85 124.47 1893.85 186.93 1920 186.93 1920 124.47"/></g></svg>