<svg xmlns="http://www.w3.org/2000/svg" viewBox="0 0 280.49 76.45"><defs><style>.cls-1{fill:#f97919;}.cls-2{fill:#fff;}</style></defs><title>180209_sign up</title><g id="圖層_1" data-name="圖層 1"><rect class="cls-1" x="11.01" y="12.62" width="258.46" height="52.85" rx="26.42" ry="26.42"/><path class="cls-2" d="M84.57,45.7v2H65.1v-2h8.33V44.57H66.67V42.66h6.76v-1H67.38V34.88h6.05v-.81h-8.2v-2h8.2v-.94c-2.06.08-4.17.15-6.1.17a6.91,6.91,0,0,0-.51-2,116.24,116.24,0,0,0,14.45-1.07l1.18,2c-1.87.3-4.1.53-6.44.71v1.11h8.41v2H76v.81h6.37v6.81H76v1h7.17v1.91H76V45.7Zm-14.7-8.18h3.56v-1H69.87ZM73.43,40v-1H69.87v1ZM76,36.56v1h3.75v-1Zm3.75,2.49H76v1h3.75Z"/><path class="cls-2" d="M95.11,33.83H86.74v-2h3.54a20.18,20.18,0,0,0-1.37-2.7l2-.92A19,19,0,0,1,92.47,31L91,31.81h4.08Zm-.88,1.46a4.06,4.06,0,0,0,2.36-4V29h7.24v4.68c0,.62,0,.88.3.88H105a4.59,4.59,0,0,0,1.05-.15c0,.64.11,1.52.17,2.12a3.37,3.37,0,0,1-1.2.15h-1.12c-2,0-2.4-.9-2.4-3v-2.3H98.91v0a6.23,6.23,0,0,1-3.28,5.93,8.22,8.22,0,0,0-1.4-1.59v1H87.66V34.8h6.57Zm0,4.32H87.66V37.67h6.62Zm11.48-1.48a13.74,13.74,0,0,1-3.43,6.24,16,16,0,0,0,4.44,1.55,10.05,10.05,0,0,0-1.57,2.3,15.53,15.53,0,0,1-5-2.11,17.13,17.13,0,0,1-5,2.17,11.67,11.67,0,0,0-1-1.91v.77h-4.4V48H87.69v-7.4h6.56v5.3a14.81,14.81,0,0,0,4-1.52,14.92,14.92,0,0,1-2.82-4l1.4-.49h-2V37.55h8.95l.43-.11ZM92,42.68H89.85v2.4H92Zm5.65-2.75a10.36,10.36,0,0,0,2.53,3,10.06,10.06,0,0,0,2.3-3Z"/><path class="cls-2" d="M117.38,40.59a5.54,5.54,0,0,1-2.49-.38A38.76,38.76,0,0,1,109.8,42,14.79,14.79,0,0,0,108.34,40a32.14,32.14,0,0,0,5.58-1.78V34.28h2.3v2.84a18.46,18.46,0,0,0,5.86-4.49l2.13,1a22.27,22.27,0,0,1-6.1,4.94h3.07c.94,0,1.11-.28,1.2-2a6.58,6.58,0,0,0,2,.8c-.26,2.55-.92,3.17-3,3.17Zm-4-5.21a11.86,11.86,0,0,1-2.72,3.88L108.58,38a10,10,0,0,0,2.72-3.57Zm-1.63-1h-2.49V29.86h7.9a10.38,10.38,0,0,0-.45-1.46l2.47-.43c.24.58.49,1.29.67,1.89h7.83v4.51H125V32.14h-8.26a14.25,14.25,0,0,1,3.09,1.65l-1.29,1.63a15.1,15.1,0,0,0-3.69-2.06l1-1.22h-4.15Zm11.77,7.41h2.55v6.44H123.5v-.71H110.94V42.12h2.51v3h3.65v-4h2.6v4h3.8Zm1.41-7.18a22.4,22.4,0,0,1,3.55,3.78l-2,1.36a22.48,22.48,0,0,0-3.39-3.93Z"/><path class="cls-2" d="M134,45.73V47.4h-2.22V41.86a8.7,8.7,0,0,1-.55.84,12.57,12.57,0,0,0-1.38-2.45c1.5-2.12,2.3-5.39,2.75-8.89h-2.19V29.07h8.11v2.29H135a39.55,39.55,0,0,1-.86,4.51h3.78v9.86Zm1.69-7.67H134v5.45h1.69Zm1.8,8.33a9.78,9.78,0,0,0,1.44-4.64l1.85.46a10.43,10.43,0,0,1-1.53,5.15ZM150,38.94s0,.62,0,.93c-.2,5-.43,6.93-1,7.62a2.09,2.09,0,0,1-1.48.79,13.82,13.82,0,0,1-2.34.06,5.24,5.24,0,0,0-.65-2.18,17.39,17.39,0,0,0,1.81.08A.73.73,0,0,0,147,46a3.81,3.81,0,0,0,.43-1.74l-.9.39a11.78,11.78,0,0,0-1.12-2.51l1.25-.52a9.89,9.89,0,0,1,.86,1.53c0-.58.08-1.23.13-2h-8.42V29H149.6v2.19h-3.71v1.19H149v2h-3.07v1.25H149v2h-3.07v1.31Zm-7.34,3.48a18.68,18.68,0,0,1,.38,3.89l-1.76.27a19.16,19.16,0,0,0-.27-3.92Zm-1.14-11.19v1.19h2.1V31.23Zm2.1,3.18h-2.1v1.25h2.1Zm-2.1,4.53h2.1V37.63h-2.1Zm3.26,3.16a13.34,13.34,0,0,1,.86,3.2l-1.63.47a18.43,18.43,0,0,0-.75-3.24Z"/><path class="cls-2" d="M169.36,41.84h2.72v1.93h-2.72V46c0,1.14-.22,1.72-1.06,2a10.5,10.5,0,0,1-3.5.32,8.5,8.5,0,0,0-.7-2.12c1,0,2.08,0,2.38,0s.43-.1.43-.34V43.77h-4.79a17.3,17.3,0,0,1,2.13,2.34l-2,1.29a16.83,16.83,0,0,0-2.51-2.94l1.09-.69h-3V41.84h9.08v-.92c-3.12.08-6.14.15-8.42.19l-.21-1.91c1.52,0,3.47,0,5.6,0V38.3h-4.74V32.39h4.74v-.81h-5.6v-1c-.43,1-.93,2-1.46,3V48.28h-2.43v-11A21.22,21.22,0,0,1,152.93,39a15.69,15.69,0,0,0-1.35-2.64,22.84,22.84,0,0,0,4.87-8l2.43.77-.24.62h5.24V28.42h2.47v1.31h5.52v1.85h-5.52v.81h4.89V38.3h-.94a17.17,17.17,0,0,1,2,2.23l-1.83,1a7.58,7.58,0,0,0-.51-.71l-.64,0Zm-7.88-7.17h2.4v-.88h-2.4Zm2.4,2.21V36h-2.4v.88Zm2.47-3.09v.88h2.45v-.88ZM168.8,36h-2.45v.88h2.45Zm-2.45,3.11,2.06,0c-.26-.26-.51-.49-.75-.71l.17-.08h-1.48Z"/><path class="cls-2" d="M180.24,38.9a22.8,22.8,0,0,1-1.87,5.17c.28.2.6.43,1,.67,1.46.88,3.46,1,6,1a73.62,73.62,0,0,0,8.7-.56,10.37,10.37,0,0,0-.76,2.62c-1.78.11-5.54.26-8,.26-2.85,0-4.63-.24-6.18-1.14-.9-.5-1.65-1.2-2.08-1.2s-1.23,1.46-1.7,2.68L173.56,46a8.42,8.42,0,0,1,2.67-2.27,21.74,21.74,0,0,0,1.31-3.63h-2.88c.49-1.2,1.05-2.9,1.59-4.51H174V33.27h5.28c-.45,1.46-1,3.14-1.52,4.6H179l.37-.11.79.34V36.58h5.11V34.24h-4.57V31.92h2.7c-.38-.84-1-1.91-1.46-2.77l2.15-.84c.6,1,1.42,2.3,1.8,3.1l-1.18.51h3.2a22.51,22.51,0,0,0,1.76-3.65l2.58.75c-.56,1-1.18,2-1.76,2.9h2.49v2.32h-5.07v2.34h5.76V38.9h-5.26c1.71,1.5,3.75,3.24,4.85,4.38l-1.78,1.78a62.68,62.68,0,0,0-4.51-4.4,10.26,10.26,0,0,1-5.22,4.46,11.7,11.7,0,0,0-1.78-1.93c3.2-1.16,4.46-2.77,5-4.29Zm-3.88-6.14c-.28-1-.8-2.47-1.19-3.61l2.34-.66c.39,1.11.93,2.53,1.25,3.43Z"/><path class="cls-2" d="M204.89,37.4h-5.65V48.32h-2.53V29.13h8.18Zm-5.65-6.21v1.12h3.27V31.19Zm3.27,4.17V34.13h-3.27v1.23Zm12.28,9.87c0,1.46-.3,2.21-1.25,2.6a11.66,11.66,0,0,1-4.42.47,9.58,9.58,0,0,0-.9-2.62c1.35.09,2.94.07,3.39.07s.6-.15.6-.56V37.46h-5.82V29.13h8.4Zm-6-14v1.12h3.39V31.19Zm3.39,4.21V34.13h-3.39V35.4Z"/><path class="cls-2" d="M37.44,71.67h0a33.45,33.45,0,0,1,0-66.89H243.05a33.45,33.45,0,0,1,0,66.89H37.44M243.05,2.3H37.44a35.92,35.92,0,0,0,0,71.84H243.05a35.92,35.92,0,1,0,0-71.84"/></g></svg>