<?xml version="1.0" encoding="utf-8"?>
<!-- Generator: Adobe Illustrator 18.1.1, SVG Export Plug-In . SVG Version: 6.00 Build 0)  -->
<!DOCTYPE svg PUBLIC "-//W3C//DTD SVG 1.1//EN" "http://www.w3.org/Graphics/SVG/1.1/DTD/svg11.dtd">
<svg version="1.1" xmlns="http://www.w3.org/2000/svg" xmlns:xlink="http://www.w3.org/1999/xlink" x="0px" y="0px"
	 viewBox="0 0 280.5 76.4" enable-background="new 0 0 280.5 76.4" xml:space="preserve">
<g id="圖層_3">
</g>
<g id="圖層_2">
</g>
<g id="圖層_1">
	<g>
		<path fill="#F97919" d="M242.9,66H37.3c-14.6,0-26.4-11.8-26.4-26.4v0c0-14.6,11.8-26.4,26.4-26.4h205.6
			c14.6,0,26.4,11.8,26.4,26.4v0C269.4,54.2,257.5,66,242.9,66z"/>
		<g>
			<g>
				<path fill="#FFFFFF" d="M75.8,31.1h8v2.7H79v4.1h4.1v2.7H79V47h-3.2V31.1z"/>
				<path fill="#FFFFFF" d="M86.1,43.9c0-2.7,2.1-4,5.8-4.6c0-1.3-0.7-2.1-1.6-2.1c-0.8,0-1.5,0.3-2.7,1l-1.2-2.1
					c1.5-0.9,2.9-1.4,4.5-1.4c2.5,0,4.1,1.7,4.1,5V47h-2.5l-0.3-1.4h-0.1c-0.8,1.1-1.8,1.6-3,1.6C87.2,47.3,86.1,46,86.1,43.9z
					 M91.8,43.8v-2.5c-2.1,0.4-2.7,1.1-2.7,2.3c0,0.9,0.5,1.3,1.1,1.3C90.8,44.9,91.4,44.4,91.8,43.8z"/>
				<path fill="#FFFFFF" d="M97.3,41c0-4,2.6-6.3,5.6-6.3c1.4,0,2.3,0.5,3.1,1.3l-1.5,2c-0.5-0.5-0.9-0.8-1.4-0.8
					c-1.5,0-2.6,1.5-2.6,3.8c0,2.3,1.1,3.8,2.5,3.8c0.8,0,1.4-0.3,2-0.9l1.2,2.1c-1,1-2.3,1.4-3.6,1.4C99.7,47.3,97.3,45,97.3,41z"
					/>
				<path fill="#FFFFFF" d="M108.2,41c0-3.9,2.3-6.3,4.9-6.3c2.8,0,4.3,2.4,4.3,5.7c0,0.6-0.1,1.2-0.1,1.5h-5.9c0.2,2,1.2,3,2.6,3
					c0.7,0,1.3-0.2,2-0.6l1.1,1.9c-1,0.7-2.2,1.1-3.4,1.1C110.5,47.3,108.2,45,108.2,41z M114.6,39.7c0-1.6-0.5-2.6-1.5-2.6
					c-0.9,0-1.7,0.9-1.9,2.6H114.6z"/>
				<path fill="#FFFFFF" d="M122.4,45.8h-0.1L122,47h-2.5V30.4h3.1V34l-0.1,1.9c0.6-0.8,1.4-1.2,2.2-1.2c2.3,0,3.6,2.1,3.6,6.1
					c0,4.5-1.9,6.5-3.9,6.5C123.7,47.3,123,46.8,122.4,45.8z M125.3,40.9c0-2.5-0.5-3.6-1.3-3.6c-0.5,0-0.9,0.3-1.3,1.1v5.5
					c0.3,0.7,0.7,0.9,1.1,0.9C124.6,44.7,125.3,43.7,125.3,40.9z"/>
				<path fill="#FFFFFF" d="M130.2,41c0-4.2,2.2-6.3,4.7-6.3c2.5,0,4.7,2.1,4.7,6.3s-2.2,6.3-4.7,6.3
					C132.4,47.3,130.2,45.2,130.2,41z M136.4,41c0-2.5-0.6-3.8-1.5-3.8c-0.9,0-1.5,1.3-1.5,3.8c0,2.5,0.5,3.7,1.5,3.7
					C135.9,44.7,136.4,43.5,136.4,41z"/>
				<path fill="#FFFFFF" d="M141.3,41c0-4.2,2.2-6.3,4.7-6.3c2.5,0,4.7,2.1,4.7,6.3s-2.2,6.3-4.7,6.3
					C143.5,47.3,141.3,45.2,141.3,41z M147.5,41c0-2.5-0.6-3.8-1.5-3.8c-0.9,0-1.5,1.3-1.5,3.8c0,2.5,0.5,3.7,1.5,3.7
					C146.9,44.7,147.5,43.5,147.5,41z"/>
				<path fill="#FFFFFF" d="M152.7,30.4h3.1v9.5h0.1l2.9-5h3.3l-3.2,5l3.3,7.1h-3.2l-2-4.9l-1.2,1.9v3h-3.1V30.4z"/>
				<path fill="#FFFFFF" d="M179.9,43.8h-3.4l2.1,0.5c-0.3,0.7-0.7,1.4-1,2h5.5v2.2h-18.9v-2.2h5.3c-0.2-0.6-0.5-1.4-0.9-1.9
					l1.7-0.5H167v-5.6c-0.7,0.5-1.5,0.9-2.3,1.3c-0.3-0.6-1.1-1.4-1.6-1.9c1.2-0.5,2.5-1.3,3.6-2.3c-0.6-0.6-1.5-1.3-2.3-1.8
					l1.4-1.4c0.8,0.5,1.8,1.1,2.4,1.7c0.6-0.7,1.2-1.4,1.6-2.2h-5.1v-2.1h6.4l0.4-0.1l1.7,0.9c-0.6,1.5-1.4,2.9-2.3,4.2h5.2
					c-1.2-1.5-2.1-3.2-2.8-5l2.3-0.7c0.3,0.8,0.7,1.5,1.1,2.2c0.8-0.6,1.7-1.4,2.2-2.1l1.9,1.4c-0.9,0.8-2.1,1.6-3,2.3
					c0.3,0.4,0.6,0.7,1,1.1c0.9-0.7,1.9-1.6,2.5-2.3l1.9,1.3c-0.9,0.8-2,1.6-2.9,2.3c1.1,0.9,2.3,1.6,3.7,2.1
					c-0.6,0.5-1.4,1.5-1.7,2.1c-0.8-0.4-1.6-0.8-2.3-1.3V43.8z M169.9,35.9c-0.7,0.8-1.5,1.4-2.4,2h12.1c-0.8-0.6-1.5-1.2-2.3-2v0.8
					h-7.4V35.9z M177.1,39.9h-7.5v1.9h7.5V39.9z M175,46.3c0.4-0.8,0.9-1.7,1.1-2.5h-5.2c0.5,0.7,0.8,1.5,1,2.1l-1.1,0.4H175z"/>
				<path fill="#FFFFFF" d="M197,30c0,4.1,0.6,11.9,8.5,16.6c-0.6,0.5-1.6,1.6-2.1,2.2c-4.4-2.7-6.7-6.7-7.9-10.6
					c-1.6,4.8-4.2,8.4-7.9,10.6c-0.5-0.5-1.7-1.6-2.3-2.1c4.5-2.3,7-6.4,8.2-12l1.3,0.2c-0.2-0.8-0.2-1.6-0.3-2.3h-4.9V30H197z"/>
			</g>
		</g>
		<g>
			<path fill="#FFFFFF" d="M37.3,72.2L37.3,72.2c-9.2,0-17.6-3.7-23.6-9.8C7.6,56.4,3.9,48,3.9,38.8c0-9.2,3.7-17.6,9.8-23.6
				c6.1-6.1,14.4-9.8,23.6-9.8h205.6c9.2,0,17.6,3.7,23.6,9.8c6.1,6.1,9.8,14.4,9.8,23.6c0,9.2-3.7,17.6-9.8,23.6
				c-6.1,6.1-14.4,9.8-23.6,9.8H37.3 M242.9,2.9H37.3C17.5,2.9,1.4,19,1.4,38.8c0,19.8,16.1,35.9,35.9,35.9l0,0h205.6
				c19.8,0,35.9-16.1,35.9-35.9C278.8,19,262.7,2.9,242.9,2.9"/>
		</g>
	</g>
</g>
</svg>
