<svg xmlns="http://www.w3.org/2000/svg" viewBox="0 0 150.44 74.73"><defs><style>.cls-1{fill:#f97919;}.cls-2{fill:#fff;}</style></defs><title>180213_sign up</title><g id="圖層_1" data-name="圖層 1"><rect class="cls-1" x="12.05" y="11.77" width="126.34" height="52.85" rx="26.42" ry="26.42"/><path class="cls-2" d="M70,42.4H66.57l2.12.45c-.34.73-.71,1.42-1,2h5.45V47H54.2V44.87h5.26a10.38,10.38,0,0,0-.88-1.93l1.69-.54H57.14V36.82a18.27,18.27,0,0,1-2.25,1.31,11.18,11.18,0,0,0-1.57-1.89A14,14,0,0,0,57,33.94a14.25,14.25,0,0,0-2.28-1.8l1.38-1.42a12.85,12.85,0,0,1,2.4,1.74,12.82,12.82,0,0,0,1.63-2.21H55V28.19h6.36l.43-.11,1.69.86a15.26,15.26,0,0,1-2.32,4.19h5.16a20.85,20.85,0,0,1-2.84-5l2.28-.69a17.18,17.18,0,0,0,1.09,2.19A15.16,15.16,0,0,0,69,27.61L71,29c-1,.8-2.07,1.63-3,2.3a14.14,14.14,0,0,0,1,1.1,18.64,18.64,0,0,0,2.49-2.28l1.87,1.33c-.91.79-2,1.61-2.9,2.28A13.57,13.57,0,0,0,74,35.83,9.66,9.66,0,0,0,72.3,38,15.25,15.25,0,0,1,70,36.65Zm-10-8a16.92,16.92,0,0,1-2.37,2H69.7a17.71,17.71,0,0,1-2.25-2v.75H60Zm7.21,4.05H59.74v1.89h7.47Zm-2.1,6.38a20.47,20.47,0,0,0,1.11-2.47H61a8.65,8.65,0,0,1,1,2.11l-1.07.36Z"/><path class="cls-2" d="M94.05,46.05c-.8-.82-2.24-1.95-3.63-3.07v2.08c0,1.08-.17,1.66-.88,2a6,6,0,0,1-2.79.39,7.21,7.21,0,0,0-.69-2.17c.71,0,1.46,0,1.68,0s.32-.06.32-.28V43.09c-1.29,1.07-2.58,2.1-3.72,3L83,44.27l.09,1.2c-2.53.52-5.22,1-7.28,1.42l-.51-2.3c.88-.13,2-.28,3.17-.43V38.67H75.65V36.5H78.5V34.93H76.91V34c-.3.31-.62.58-.92.84a12.12,12.12,0,0,0-.77-2.51,15,15,0,0,0,4-5L81.1,28c-.11.21-.21.43-.32.64C82,29.8,83.46,31.19,84.21,32l-1.43,1.7c-.2-.24-.43-.54-.71-.84v2H80.56V36.5h2.49v2.17H80.56v5.19L83,43.47l0,.65c1.27-.82,3.16-2.13,5-3.48V37.46H83.4V35.23h6.8l.22-1H84.3c.56-1.78,1.31-4.63,1.74-6.84l2.38.23c-.11.47-.23,1-.36,1.55H91.6l.41-.09,1.74.24c-.26,1.84-.71,4-1.14,5.88h2.75v2.23H90.42v3l.34.21a23.46,23.46,0,0,0,2.17-3L95,38.84c-.92,1-1.89,2.12-2.75,2.94a37.39,37.39,0,0,1,3.33,2.6Zm-16.77-6.8a29.77,29.77,0,0,1,.79,3.64l-1.73.5a30.15,30.15,0,0,0-.71-3.72ZM82,32.8c-.66-.73-1.46-1.56-2.25-2.34A21.71,21.71,0,0,1,78,32.8Zm-.92,9.94a32.17,32.17,0,0,0,.69-3.62l1.63.4c-.35,1.23-.71,2.69-1,3.57Zm4.21-5.11a20.22,20.22,0,0,1,2.34,2.65L85.8,41.52a26,26,0,0,0-2.25-2.79Zm5.54-5.3.23-1.2h-3.5l-.3,1.2Z"/><path class="cls-2" d="M38.47,70.81A33.5,33.5,0,0,1,5.08,39.32c0-.66,0-1.31,0-2A33,33,0,0,1,15,13.69,34.45,34.45,0,0,1,39.2,3.92h72a34.49,34.49,0,0,1,24.16,9.77,33,33,0,0,1,10,23.67c0,.65,0,1.3-.06,2A33.48,33.48,0,0,1,112,70.81H38.47M111.24,1.45h-72A37,37,0,0,0,13.31,11.92,35.43,35.43,0,0,0,2.55,37.36c0,.7,0,1.4.06,2.11A36,36,0,0,0,38.47,73.29H112a36,36,0,0,0,35.86-33.82c0-.71.06-1.41.06-2.11a35.46,35.46,0,0,0-10.75-25.44A37,37,0,0,0,111.24,1.45"/></g></svg>