<svg xmlns="http://www.w3.org/2000/svg" viewBox="0 0 280.49 76.45"><defs><style>.cls-1{fill:#f97919;}.cls-2{fill:#fff;}</style></defs><title>sign up</title><g id="圖層_1" data-name="圖層 1"><rect class="cls-1" x="11.01" y="12.62" width="258.46" height="52.85" rx="26.42" ry="26.42"/><path class="cls-2" d="M75.94,30.5h8v2.67H79.14v4.14h4.14V40H79.14v6.47h-3.2Z"/><path class="cls-2" d="M86.18,43.34c0-2.66,2.15-4,5.78-4.59,0-1.29-.67-2.13-1.61-2.13a5.51,5.51,0,0,0-2.69,1L86.5,35.55A8.71,8.71,0,0,1,91,34.13c2.47,0,4.12,1.68,4.12,5v7.37H92.56l-.26-1.38h-.08a3.69,3.69,0,0,1-3,1.63C87.32,46.71,86.18,45.4,86.18,43.34ZM92,43.19V40.66c-2.09.43-2.75,1.14-2.75,2.34,0,.94.47,1.29,1.07,1.29A2.22,2.22,0,0,0,92,43.19Z"/><path class="cls-2" d="M97.43,40.42c0-4,2.64-6.31,5.61-6.31a4.25,4.25,0,0,1,3.13,1.27l-1.5,2a1.85,1.85,0,0,0-1.44-.75c-1.55,0-2.56,1.52-2.56,3.77s1.08,3.76,2.47,3.76a2.75,2.75,0,0,0,2-.9l1.24,2.06a5,5,0,0,1-3.56,1.42C99.79,46.76,97.43,44.42,97.43,40.42Z"/><path class="cls-2" d="M108.32,40.42c0-3.9,2.34-6.29,4.85-6.29,2.81,0,4.25,2.39,4.25,5.74a10.21,10.21,0,0,1-.11,1.48h-5.9c.19,1.95,1.16,3,2.55,3a3.69,3.69,0,0,0,2-.6L117,45.62a5.83,5.83,0,0,1-3.43,1.09C110.64,46.71,108.32,44.42,108.32,40.42Zm6.44-1.24c0-1.63-.49-2.64-1.53-2.64s-1.73.9-1.88,2.64Z"/><path class="cls-2" d="M122.51,45.23h-.11l-.23,1.23H119.7V29.88h3.13v3.57l-.06,1.93A2.91,2.91,0,0,1,125,34.13c2.25,0,3.65,2.09,3.65,6.1,0,4.49-1.87,6.53-3.87,6.53A2.64,2.64,0,0,1,122.51,45.23Zm2.88-4.94c0-2.46-.48-3.6-1.29-3.6-.45,0-.86.34-1.27,1.07v5.5c.34.71.73.9,1.1.9C124.68,44.16,125.39,43.09,125.39,40.29Z"/><path class="cls-2" d="M130.35,40.42c0-4.23,2.19-6.29,4.7-6.29s4.7,2.06,4.7,6.29-2.19,6.29-4.7,6.29S130.35,44.65,130.35,40.42Zm6.18,0c0-2.49-.56-3.75-1.48-3.75s-1.48,1.26-1.48,3.75.53,3.74,1.48,3.74S136.53,42.94,136.53,40.42Z"/><path class="cls-2" d="M141.42,40.42c0-4.23,2.19-6.29,4.71-6.29s4.7,2.06,4.7,6.29-2.19,6.29-4.7,6.29S141.42,44.65,141.42,40.42Zm6.19,0c0-2.49-.56-3.75-1.48-3.75s-1.49,1.26-1.49,3.75.54,3.74,1.49,3.74S147.61,42.94,147.61,40.42Z"/><path class="cls-2" d="M152.87,29.88h3.07v9.49H156l2.92-5h3.27l-3.16,5,3.29,7.09h-3.16l-2-4.92-1.2,1.93v3h-3.07Z"/><path class="cls-2" d="M168.33,31.54h3.56V33.6h-8.18V31.54h3.78a10.53,10.53,0,0,0-1.27-2.34l1.93-.91a10.61,10.61,0,0,1,1.53,2.56Zm-3.87,6.26h7v1.94h-7Zm.3-3.07h6.72v1.94h-6.72Zm6.72,12.35H167.1v1h-2.29v-7.2h6.67Zm-4.38-4.34v2.47h2V42.74Zm16.58,2.39v2.42H172.17V45.13h4.27V40.62h-3.6V38.26h3.6V34.58h-4v-2.4h4.59a20.77,20.77,0,0,0-1.82-3l1.95-1.08a15.71,15.71,0,0,1,2.17,3.25l-1.35.79h5.24v2.4H179v3.68h3.75v2.36H179v4.51Z"/><path class="cls-2" d="M205.51,39.67H203.6v5.86c0,1.14-.17,1.85-.84,2.26a5,5,0,0,1-2.77.51,8.75,8.75,0,0,0-.77-2.49c.64,0,1.31,0,1.55,0s.3-.1.3-.34V39.67h-2.19V48h-2.39V39.67h-2.1V48H192V39.67h-2v8.68H187.5V39.67h-2V37.16h2V29.47h16.1v7.69h1.91ZM192,37.16V32h-2v5.17Zm4.46,0V32h-2.1v5.17Zm4.58,0V32h-2.19v5.17Z"/><path class="cls-2" d="M37.44,71.67h0a33.45,33.45,0,0,1,0-66.89H243.05a33.45,33.45,0,0,1,0,66.89H37.44M243.05,2.3H37.44a35.92,35.92,0,0,0,0,71.84H243.05a35.92,35.92,0,1,0,0-71.84"/></g></svg>