<svg xmlns="http://www.w3.org/2000/svg" viewBox="0 0 150.44 74.73"><defs><style>.cls-1{fill:#f97919;}.cls-2{fill:#fff;}</style></defs><title>180209_sign up</title><g id="圖層_1" data-name="圖層 1"><rect class="cls-1" x="12.05" y="11.77" width="126.34" height="52.85" rx="26.42" ry="26.42"/><path class="cls-2" d="M70.39,44.83c.68,0,.79-.37.9-2.58a7.45,7.45,0,0,0,2.3,1c-.28,3.11-1,4-3,4H67.94c-2.49,0-3.09-.78-3.09-3.09V40H62c-.28,4.1-1.29,6.4-6.95,7.52a6.71,6.71,0,0,0-1.36-2.17c4.85-.79,5.5-2.25,5.69-5.35h-5.3v-2.4H73.18V40H67.45v4.1c0,.69.12.78.88.78ZM57,35H54.46V29.63h7.83A16,16,0,0,0,61.56,28l2.62-.77a15.63,15.63,0,0,1,1.16,2.45h7.41V35H70.06V32.07H57Zm1,1V33.62h11.1V36Z"/><path class="cls-2" d="M94.11,34.89a25,25,0,0,1-3.69,7.36c.62,1.55,1.31,2.45,2,2.45.51,0,.77-1.08.87-3.76a7.2,7.2,0,0,0,2.17,1.44c-.4,4-1.26,4.92-3.26,4.92-1.5,0-2.68-1.08-3.63-2.84a17.56,17.56,0,0,1-3.63,2.92,16.38,16.38,0,0,0-1.84-2.1,16.41,16.41,0,0,0,4.38-3.48A44.46,44.46,0,0,1,86,33.15H79.77v2.29h5.3s0,.67,0,1c-.06,4.51-.19,6.42-.69,7a2,2,0,0,1-1.48.86,16.41,16.41,0,0,1-2.47.07,5.85,5.85,0,0,0-.7-2.39c.77.07,1.5.09,1.84.09a.7.7,0,0,0,.65-.26c.21-.3.3-1.33.36-4H79.77c-.09,3.13-.54,7.32-2.3,9.93A11.22,11.22,0,0,0,75.3,46c1.64-2.58,1.79-6.32,1.79-9.11V30.61h8.76c0-1.05-.09-2.1-.09-3.17h2.68c0,1.07,0,2.12,0,3.17h3.28A26,26,0,0,0,89,28.75l1.55-1.53a17.83,17.83,0,0,1,3.5,2.3l-1,1.09h2.23v2.54H88.64A49.2,49.2,0,0,0,89.5,39a22.36,22.36,0,0,0,2.06-4.77Z"/><path class="cls-2" d="M38.47,70.81A33.5,33.5,0,0,1,5.08,39.32c0-.66,0-1.31,0-2A33,33,0,0,1,15,13.69,34.45,34.45,0,0,1,39.2,3.92h72a34.49,34.49,0,0,1,24.16,9.77,33,33,0,0,1,10,23.67c0,.65,0,1.3-.06,2A33.48,33.48,0,0,1,112,70.81H38.47M111.24,1.45h-72A37,37,0,0,0,13.31,11.92,35.43,35.43,0,0,0,2.55,37.36c0,.7,0,1.4.06,2.11A36,36,0,0,0,38.47,73.29H112a36,36,0,0,0,35.86-33.82c0-.71.06-1.41.06-2.11a35.46,35.46,0,0,0-10.75-25.44A37,37,0,0,0,111.24,1.45"/></g></svg>