<svg xmlns="http://www.w3.org/2000/svg" viewBox="0 0 280.49 76.45"><defs><style>.cls-1{fill:#f97919;}.cls-2{fill:#fff;}</style></defs><title>180209_sign up</title><g id="圖層_1" data-name="圖層 1"><rect class="cls-1" x="11.01" y="12.62" width="258.46" height="52.85" rx="26.42" ry="26.42"/><path class="cls-2" d="M103,43.26H99.56l2.12.45c-.34.73-.71,1.41-1,2h5.46v2.16H87.19V45.73h5.26a10.18,10.18,0,0,0-.88-1.94l1.7-.53H90.13V37.67A16,16,0,0,1,87.88,39a10.59,10.59,0,0,0-1.57-1.88A14.13,14.13,0,0,0,90,34.8,14.25,14.25,0,0,0,87.68,33l1.38-1.42a12.53,12.53,0,0,1,2.4,1.74,12.82,12.82,0,0,0,1.63-2.21H88V29h6.36l.43-.1,1.69.86A15.18,15.18,0,0,1,94.13,34h5.15a21,21,0,0,1-2.84-5l2.28-.68a16,16,0,0,0,1.1,2.19A15.62,15.62,0,0,0,102,28.46l1.94,1.38c-1,.79-2.06,1.63-3,2.3.3.38.63.73,1,1.09A19.3,19.3,0,0,0,104.41,31l1.87,1.33c-.9.79-2,1.61-2.9,2.27A13.86,13.86,0,0,0,107,36.69a9.89,9.89,0,0,0-1.74,2.14A13.75,13.75,0,0,1,103,37.5Zm-10-8a16.75,16.75,0,0,1-2.36,2h12.06a18.24,18.24,0,0,1-2.25-2v.75H93Zm7.21,4.06H92.73v1.89h7.47Zm-2.1,6.38a18.3,18.3,0,0,0,1.11-2.47H94a9,9,0,0,1,1,2.1l-1.08.37Z"/><path class="cls-2" d="M120.08,29.47c0,4.06.58,11.9,8.48,16.56a13.39,13.39,0,0,0-2.06,2.23,18.13,18.13,0,0,1-7.9-10.59c-1.61,4.81-4.18,8.38-7.92,10.61a20,20,0,0,0-2.34-2.08c4.46-2.26,7-6.4,8.2-12.05l1.31.24c-.15-.82-.24-1.59-.3-2.32h-4.9v-2.6Z"/><path class="cls-2" d="M147.54,41.84h2.73v1.93h-2.73V46c0,1.14-.21,1.72-1,2a10.53,10.53,0,0,1-3.5.32,9,9,0,0,0-.71-2.12c1,0,2.08,0,2.39,0s.42-.1.42-.34V43.77h-4.78a17.16,17.16,0,0,1,2.12,2.34l-2,1.29a16,16,0,0,0-2.51-2.94l1.1-.69h-3V41.84h9.08v-.92c-3.11.08-6.14.15-8.41.19l-.22-1.91c1.53,0,3.48,0,5.61,0V38.3h-4.75V32.39h4.75v-.81h-5.61v-1a32.46,32.46,0,0,1-1.46,3V48.28h-2.42v-11A21.22,21.22,0,0,1,131.12,39a16.47,16.47,0,0,0-1.35-2.64,23,23,0,0,0,4.87-8l2.42.77-.23.62h5.24V28.42h2.47v1.31h5.51v1.85h-5.51v.81h4.89V38.3h-.94a17.17,17.17,0,0,1,2,2.23l-1.83,1c-.13-.22-.32-.45-.51-.71l-.65,0Zm-7.88-7.17h2.41v-.88h-2.41Zm2.41,2.21V36h-2.41v.88Zm2.47-3.09v.88H147v-.88ZM147,36h-2.44v.88H147Zm-2.44,3.11,2.06,0c-.26-.26-.52-.49-.75-.71l.17-.08h-1.48Z"/><path class="cls-2" d="M158.43,38.9a23.29,23.29,0,0,1-1.87,5.17c.28.2.6.43,1,.67,1.46.88,3.46,1,6,1a73.31,73.31,0,0,0,8.69-.56,10,10,0,0,0-.75,2.62c-1.78.11-5.54.26-8,.26-2.86,0-4.64-.24-6.18-1.14-.91-.5-1.66-1.2-2.09-1.2s-1.22,1.46-1.69,2.68L151.75,46a8.4,8.4,0,0,1,2.66-2.27,20.1,20.1,0,0,0,1.31-3.63h-2.87c.49-1.2,1.05-2.9,1.58-4.51h-2.27V33.27h5.28c-.45,1.46-1,3.14-1.52,4.6h1.22l.36-.11.8.34V36.58h5.11V34.24h-4.57V31.92h2.7c-.39-.84-1-1.91-1.46-2.77l2.15-.84c.6,1,1.41,2.3,1.8,3.1l-1.18.51h3.2a22.51,22.51,0,0,0,1.76-3.65l2.58.75c-.56,1-1.18,2-1.77,2.9h2.5v2.32h-5.07v2.34h5.75V38.9h-5.26c1.72,1.5,3.76,3.24,4.85,4.38l-1.78,1.78a58.75,58.75,0,0,0-4.51-4.4,10.19,10.19,0,0,1-5.21,4.46,12.15,12.15,0,0,0-1.78-1.93c3.19-1.16,4.46-2.77,5-4.29Zm-3.89-6.14c-.28-1-.79-2.47-1.18-3.61l2.34-.66c.39,1.11.92,2.53,1.25,3.43Z"/><path class="cls-2" d="M183.08,37.4h-5.65V48.32H174.9V29.13h8.18Zm-5.65-6.21v1.12h3.26V31.19Zm3.26,4.17V34.13h-3.26v1.23ZM193,45.23c0,1.46-.3,2.21-1.24,2.6a11.72,11.72,0,0,1-4.43.47,9,9,0,0,0-.9-2.62c1.35.09,2.94.07,3.39.07s.61-.15.61-.56V37.46h-5.82V29.13H193Zm-6-14v1.12h3.4V31.19Zm3.4,4.21V34.13H187V35.4Z"/><path class="cls-2" d="M37.44,71.67h0a33.45,33.45,0,0,1,0-66.89H243.05a33.45,33.45,0,0,1,0,66.89H37.44M243.05,2.3H37.44a35.92,35.92,0,0,0,0,71.84H243.05a35.92,35.92,0,1,0,0-71.84"/></g></svg>