<svg id="圖層_1" data-name="圖層 1" xmlns="http://www.w3.org/2000/svg" viewBox="0 0 795.67 299.54"><defs><style>.cls-1{fill:#fff;}.cls-2{opacity:0.7;}.cls-3{opacity:0.4;}.cls-4{fill:#ffc636;}</style></defs><title>180207</title><rect class="cls-1" x="314.82" y="183.86" width="74.04" height="6"/><rect class="cls-1" x="490.47" y="183.86" width="74.04" height="6"/><path class="cls-1" d="M491.64,207H389.56V166.8H491.64Zm-96.08-6h90.08V172.8H395.56Z"/><rect class="cls-1" x="376.85" y="183.88" width="125.01" height="6"/><circle class="cls-1" cx="456.72" cy="229.3" r="9.16"/><g class="cls-2"><circle class="cls-1" cx="488.64" cy="229.3" r="9.16"/></g><g class="cls-3"><circle class="cls-1" cx="520.56" cy="229.3" r="9.16"/></g><path class="cls-4" d="M392.56,217a3.13,3.13,0,0,0-3.13,3.13v1a3.13,3.13,0,1,0,6.25,0v-1A3.13,3.13,0,0,0,392.56,217Z"/><path class="cls-4" d="M392.56,261.71a3.13,3.13,0,0,0-3.13,3.13v1a3.13,3.13,0,0,0,6.25,0v-1A3.13,3.13,0,0,0,392.56,261.71Z"/><path class="cls-4" d="M392.56,250.54a3.13,3.13,0,0,0-3.13,3.12v1a3.13,3.13,0,1,0,6.25,0v-1A3.12,3.12,0,0,0,392.56,250.54Z"/><path class="cls-4" d="M392.56,228.19a3.13,3.13,0,0,0-3.13,3.12v1a3.13,3.13,0,0,0,6.25,0v-1A3.12,3.12,0,0,0,392.56,228.19Z"/><path class="cls-4" d="M392.56,239.36a3.13,3.13,0,0,0-3.13,3.13v1a3.13,3.13,0,1,0,6.25,0v-1A3.13,3.13,0,0,0,392.56,239.36Z"/><path class="cls-1" d="M465.88,269.18a49.1,49.1,0,0,1-49-49v-3.25h-6.5v3.25a55.61,55.61,0,0,0,55.54,55.54h3.25v-6.5Z"/><path class="cls-1" d="M491.39,155.49H450.64a2.75,2.75,0,0,1-1.23-5.21L478,136.49H450.64a2.75,2.75,0,0,1-1.23-5.21L478,117.49h-30.1V112h40.75a2.75,2.75,0,0,1,1.23,5.21L461.29,131h27.35a2.75,2.75,0,0,1,1.23,5.21L461.29,150h30.1Z"/><path class="cls-1" d="M430.82,155.49H390.07a2.75,2.75,0,0,1-1.23-5.21l28.58-13.79H390.07a2.75,2.75,0,0,1-1.23-5.21l28.58-13.79h-30.1V112h40.75a2.75,2.75,0,0,1,1.23,5.21L400.72,131h27.35a2.75,2.75,0,0,1,1.23,5.21L400.72,150h30.1Z"/><circle class="cls-1" cx="67.17" cy="90.05" r="11.31"/><path class="cls-4" d="M67.17,195.11a3.13,3.13,0,0,0-3.12,3.13v1a3.13,3.13,0,1,0,6.25,0v-1A3.13,3.13,0,0,0,67.17,195.11Z"/><path class="cls-4" d="M67.17,172.76a3.12,3.12,0,0,0-3.12,3.12v1a3.13,3.13,0,0,0,6.25,0v-1A3.13,3.13,0,0,0,67.17,172.76Z"/><path class="cls-4" d="M67.17,206.29a3.12,3.12,0,0,0-3.12,3.12v1a3.13,3.13,0,0,0,6.25,0v-1A3.13,3.13,0,0,0,67.17,206.29Z"/><path class="cls-4" d="M67.17,183.93a3.13,3.13,0,0,0-3.12,3.13v1a3.13,3.13,0,0,0,6.25,0v-1A3.14,3.14,0,0,0,67.17,183.93Z"/><path class="cls-4" d="M67.17,139.23a3.13,3.13,0,0,0-3.12,3.13v1a3.13,3.13,0,1,0,6.25,0v-1A3.13,3.13,0,0,0,67.17,139.23Z"/><path class="cls-4" d="M67.17,161.58a3.13,3.13,0,0,0-3.12,3.13v1a3.13,3.13,0,1,0,6.25,0v-1A3.14,3.14,0,0,0,67.17,161.58Z"/><path class="cls-4" d="M67.17,128.06a3.12,3.12,0,0,0-3.12,3.12v1a3.13,3.13,0,0,0,6.25,0v-1A3.13,3.13,0,0,0,67.17,128.06Z"/><path class="cls-4" d="M67.17,150.41a3.12,3.12,0,0,0-3.12,3.12v1a3.13,3.13,0,0,0,6.25,0v-1A3.13,3.13,0,0,0,67.17,150.41Z"/><path class="cls-1" d="M115.5,135.56V85.89l20.21-12.54V123Zm6-46.34v35.55l8.21-5.09V84.13Z"/><g class="cls-2"><path class="cls-1" d="M129.71,135.56V85.89l20.2-12.54V123Zm6-46.34v35.55l8.2-5.09V84.13Z"/></g><g class="cls-3"><path class="cls-1" d="M143.91,135.56V85.89l20.2-12.54V123Zm6-46.34v35.55l8.2-5.09V84.13Z"/></g><rect class="cls-1" x="115.5" y="152.14" width="48.61" height="6"/><rect class="cls-1" x="96.13" y="172.45" width="87.36" height="6"/><polygon class="cls-1" points="235.72 148.47 229.72 148.47 229.72 115.14 193.4 115.14 193.4 75.82 199.4 75.82 199.4 109.14 235.72 109.14 235.72 148.47"/><polygon class="cls-1" points="233.82 159.08 229.87 155.14 213.5 171.76 197.14 155.14 193.2 159.08 209.82 175.45 193.2 191.81 197.14 195.76 213.5 179.13 229.87 195.76 233.82 191.81 217.18 175.45 233.82 159.08"/><path class="cls-1" d="M183.51,227.41A33.54,33.54,0,0,1,150,193.9v-.25h-6.5v.25a40.06,40.06,0,0,0,40,40h.25v-6.5Z"/><path class="cls-1" d="M127.83,193.9a33.54,33.54,0,0,1-33.51,33.51h-.25v6.5h.25a40.06,40.06,0,0,0,40-40v-.25h-6.5Z"/><path class="cls-1" d="M58.86,216.14h-6V118.35h3A39.66,39.66,0,0,0,95.47,78.74h6a45.67,45.67,0,0,1-42.61,45.51Z"/><polygon class="cls-1" points="308.02 82.7 251.77 82.7 251.77 26.45 257.77 26.45 257.77 76.7 308.02 76.7 308.02 82.7"/><path class="cls-1" d="M306.87,220.07a33.21,33.21,0,1,1,30.88-46.14l-5.51,2.35a27.21,27.21,0,1,0,.37,20.25l5.6,2.16A33.71,33.71,0,0,1,306.87,220.07Z"/><rect class="cls-1" x="305.87" y="183.86" width="52.34" height="6"/><path class="cls-1" d="M337.86,132.49a20.67,20.67,0,1,1,.34,0Zm0-35.66h-.24a14.94,14.94,0,1,0,.24,0Z"/><polygon class="cls-4" points="303.16 107.17 301.31 101.46 282.91 107.58 283.05 88.2 277.05 88.2 277.2 107.58 258.8 101.46 256.94 107.17 275.43 113.01 263.92 128.63 268.77 132.15 280.05 116.37 291.33 132.15 296.19 128.63 284.67 113.01 303.16 107.17"/><path class="cls-1" d="M567.92,96.58a.18.18,0,0,0-.17-.18h-2.83a40.78,40.78,0,0,1-40.73-40.74h-6a46.8,46.8,0,0,0,43.73,46.65v24.47h6Z"/><rect class="cls-1" x="561.92" y="150.28" width="6" height="36.6"/><path class="cls-1" d="M576.14,96.28h-1a3.13,3.13,0,0,0,0,6.25h1a3.13,3.13,0,0,0,0-6.25Z"/><path class="cls-1" d="M587.31,96.28h-1a3.13,3.13,0,1,0,0,6.25h1a3.13,3.13,0,1,0,0-6.25Z"/><path class="cls-1" d="M609.66,96.28h-1a3.13,3.13,0,1,0,0,6.25h1a3.13,3.13,0,1,0,0-6.25Z"/><path class="cls-1" d="M598.49,96.28h-1a3.13,3.13,0,0,0,0,6.25h1a3.13,3.13,0,0,0,0-6.25Z"/><rect class="cls-1" x="561.92" y="55.66" width="6" height="35.8"/><rect class="cls-1" x="521.19" y="183.88" width="95.48" height="6"/><path class="cls-1" d="M587.3,152.65H542.55a13.52,13.52,0,0,1-13.5-13.5v-.73a13.51,13.51,0,0,1,13.5-13.5H587.3a13.51,13.51,0,0,1,13.5,13.5v.73A13.52,13.52,0,0,1,587.3,152.65Zm-44.75-21.73a7.5,7.5,0,0,0-7.5,7.5v.73a7.51,7.51,0,0,0,7.5,7.5H587.3a7.51,7.51,0,0,0,7.5-7.5v-.73a7.5,7.5,0,0,0-7.5-7.5Z"/><path class="cls-1" d="M587.3,152.65h-.73a13.52,13.52,0,0,1-13.5-13.5v-.73a13.51,13.51,0,0,1,13.5-13.5h.73a13.51,13.51,0,0,1,13.5,13.5v.73A13.52,13.52,0,0,1,587.3,152.65Zm-.73-21.73a7.51,7.51,0,0,0-7.5,7.5v.73a7.52,7.52,0,0,0,7.5,7.5h.73a7.51,7.51,0,0,0,7.5-7.5v-.73a7.5,7.5,0,0,0-7.5-7.5Z"/><rect class="cls-1" x="681.84" y="134.73" width="43.48" height="6"/><rect class="cls-1" x="700.58" y="115.99" width="6" height="43.48"/><path class="cls-1" d="M703.58,175.62c-21.77,0-39.48,17.45-39.48,38.9s17.71,38.89,39.48,38.89,39.48-17.45,39.48-38.89S725.35,175.62,703.58,175.62Zm33,38.9c0,17.91-14.8,32.48-33,32.48s-33-14.57-33-32.48,14.8-32.49,33-32.49S736.56,196.6,736.56,214.52Z"/><path class="cls-1" d="M700.33,76.89v.25A18.88,18.88,0,0,1,681.47,96h-.25v6.5h.25a25.39,25.39,0,0,0,25.36-25.36v-.25Z"/><path class="cls-1" d="M652.2,164.67v.25a58.09,58.09,0,0,1-58,58h-.25v6.5h.25a64.59,64.59,0,0,0,64.52-64.52v-.25Z"/><circle class="cls-4" cx="649.14" cy="138.18" r="11.31"/><circle class="cls-1" cx="649.14" cy="102.85" r="11.31"/><rect class="cls-1" x="343.86" y="72.53" width="15.06" height="6" transform="matrix(0.34, -0.94, 0.94, 0.34, 160.24, 379.9)"/><rect class="cls-1" x="358.29" y="81.72" width="15.06" height="6" transform="translate(47.24 283.49) rotate(-45)"/><rect class="cls-1" x="367.49" y="96.15" width="15.05" height="6" transform="translate(-11.3 134.23) rotate(-20)"/></svg>