<svg xmlns="http://www.w3.org/2000/svg" xmlns:xlink="http://www.w3.org/1999/xlink" viewBox="0 0 1080 1080"><defs><style>.cls-1,.cls-10,.cls-12,.cls-4,.cls-7{fill:none;}.cls-2,.cls-8{fill:#f7f8f8;}.cls-10,.cls-12,.cls-2,.cls-3,.cls-4,.cls-6,.cls-8{stroke:#000;}.cls-10,.cls-2,.cls-3,.cls-4,.cls-7{stroke-miterlimit:10;}.cls-10,.cls-2,.cls-3{stroke-width:13.83px;}.cls-12,.cls-4,.cls-6,.cls-8{stroke-width:8.3px;}.cls-5{clip-path:url(#clip-path);}.cls-11,.cls-6{fill:#fff;}.cls-12,.cls-6,.cls-8{stroke-linecap:round;stroke-linejoin:round;}.cls-7{stroke:#fff;stroke-width:19.37px;}.cls-9{clip-path:url(#clip-path-2);}</style><clipPath id="clip-path"><rect class="cls-1" x="686.56" y="100.31" width="293.13" height="293.13"/></clipPath><clipPath id="clip-path-2"><rect class="cls-1" x="393.44" y="686.56" width="293.13" height="293.13"/></clipPath></defs><title>181023</title><g id="圖層_1" data-name="圖層 1"><rect class="cls-2" x="100.31" y="100.31" width="293.13" height="293.13"/><rect class="cls-2" x="393.44" y="100.31" width="293.13" height="293.13"/><rect class="cls-2" x="686.56" y="393.44" width="293.13" height="293.13"/><rect class="cls-2" x="100.31" y="686.56" width="293.13" height="293.13"/><rect class="cls-2" x="393.44" y="686.56" width="293.13" height="293.13"/><rect class="cls-2" x="686.56" y="686.56" width="293.13" height="293.13"/><rect class="cls-2" x="686.56" y="100.31" width="293.13" height="293.13"/><path class="cls-2" d="M379.6,662.09c0-20.36,27.67-20.36,27.67-40.72S379.6,601,379.6,580.68s27.67-20.35,27.67-40.71-27.67-20.34-27.67-40.68,27.67-20.35,27.67-40.71-27.67-20.34-27.67-40.69c0-12.85,11-17.59,19.16-24.45H100.31V686.56H398.77C390.64,679.69,379.6,675,379.6,662.09Z"/><path class="cls-3" d="M686.56,393.44H398.76c-8.13,6.86-19.16,11.6-19.16,24.45,0,20.35,27.67,20.35,27.67,40.69s-27.67,20.36-27.67,40.71,27.67,20.34,27.67,40.68-27.67,20.36-27.67,40.71,27.67,20.34,27.67,40.69-27.67,20.36-27.67,40.72c0,12.86,11,17.6,19.17,24.47H686.56Z"/><line class="cls-4" x1="388.2" y1="430.08" x2="100.31" y2="430.08"/><line class="cls-4" x1="407.27" y1="466.72" x2="100.31" y2="466.72"/><line class="cls-4" x1="379.6" y1="503.36" x2="100.31" y2="503.36"/><line class="cls-4" x1="407.27" y1="540" x2="100.31" y2="540"/><line class="cls-4" x1="379.6" y1="576.64" x2="100.31" y2="576.64"/><line class="cls-4" x1="407.27" y1="613.28" x2="100.31" y2="613.28"/><line class="cls-4" x1="388.2" y1="649.92" x2="100.31" y2="649.92"/><g class="cls-5"><circle cx="967.61" cy="375.76" r="10.5"/><circle cx="983.42" cy="391.37" r="11.55"/><circle cx="952.79" cy="360.92" r="10.33"/><circle cx="937.73" cy="345.74" r="10.02"/><circle cx="922.72" cy="330.71" r="9.48"/><circle cx="907.84" cy="315.71" r="9"/><circle cx="892.8" cy="300.71" r="8.28"/><circle cx="877.67" cy="285.72" r="7.54"/><circle cx="862.73" cy="270.7" r="6.57"/><circle cx="847.68" cy="255.7" r="5.21"/><circle cx="832.67" cy="240.69" r="3.61"/><circle cx="817.71" cy="225.71" r="1.09"/><circle cx="982.61" cy="360.8" r="10.5"/><circle cx="967.79" cy="345.96" r="10.33"/><circle cx="952.72" cy="330.78" r="10.02"/><circle cx="937.71" cy="315.75" r="9.48"/><circle cx="922.83" cy="300.75" r="9"/><circle cx="907.8" cy="285.75" r="8.28"/><circle cx="892.67" cy="270.76" r="7.54"/><circle cx="877.73" cy="255.74" r="6.57"/><circle cx="862.68" cy="240.73" r="5.21"/><circle cx="847.67" cy="225.73" r="3.61"/><circle cx="832.7" cy="210.74" r="1.09"/><circle cx="997.61" cy="345.84" r="10.5"/><circle cx="982.78" cy="331" r="10.33"/><circle cx="967.72" cy="315.82" r="10.02"/><circle cx="952.71" cy="300.79" r="9.48"/><circle cx="937.83" cy="285.79" r="9"/><circle cx="922.79" cy="270.79" r="8.28"/><circle cx="907.66" cy="255.79" r="7.54"/><circle cx="892.72" cy="240.78" r="6.57"/><circle cx="877.67" cy="225.77" r="5.21"/><circle cx="862.66" cy="210.77" r="3.61"/><circle cx="847.7" cy="195.78" r="1.09"/><circle cx="1012.6" cy="330.88" r="10.5"/><circle cx="997.78" cy="316.04" r="10.33"/><circle cx="982.71" cy="300.86" r="10.02"/><circle cx="967.71" cy="285.83" r="9.48"/><circle cx="952.83" cy="270.83" r="9"/><circle cx="937.79" cy="255.83" r="8.28"/><circle cx="922.66" cy="240.83" r="7.54"/><circle cx="907.72" cy="225.82" r="6.57"/><circle cx="892.67" cy="210.81" r="5.21"/><circle cx="877.66" cy="195.81" r="3.61"/><circle cx="862.7" cy="180.82" r="1.09"/><circle cx="1027.6" cy="315.92" r="10.5"/><circle cx="1012.78" cy="301.08" r="10.33"/><circle cx="997.71" cy="285.9" r="10.02"/><circle cx="982.7" cy="270.87" r="9.48"/><circle cx="967.82" cy="255.87" r="9"/><circle cx="952.79" cy="240.87" r="8.28"/><circle cx="937.65" cy="225.87" r="7.54"/><circle cx="922.72" cy="210.86" r="6.57"/><circle cx="907.67" cy="195.85" r="5.21"/><circle cx="892.66" cy="180.85" r="3.61"/><circle cx="877.69" cy="165.86" r="1.09"/><circle cx="1042.59" cy="300.96" r="10.5"/><circle cx="1027.77" cy="286.12" r="10.33"/><circle cx="1012.71" cy="270.94" r="10.02"/><circle cx="997.7" cy="255.91" r="9.48"/><circle cx="982.82" cy="240.91" r="9"/><circle cx="967.78" cy="225.91" r="8.28"/><circle cx="952.65" cy="210.91" r="7.54"/><circle cx="937.71" cy="195.9" r="6.57"/><circle cx="922.66" cy="180.89" r="5.21"/><circle cx="907.65" cy="165.89" r="3.61"/><circle cx="892.69" cy="150.9" r="1.09"/><circle cx="1057.59" cy="286" r="10.5"/><circle cx="1042.77" cy="271.16" r="10.33"/><circle cx="1027.7" cy="255.98" r="10.02"/><circle cx="1012.69" cy="240.95" r="9.48"/><circle cx="997.82" cy="225.94" r="9"/><circle cx="982.78" cy="210.95" r="8.28"/><circle cx="967.65" cy="195.95" r="7.54"/><circle cx="952.71" cy="180.94" r="6.57"/><circle cx="937.66" cy="165.93" r="5.21"/><circle cx="922.65" cy="150.93" r="3.61"/><circle cx="907.68" cy="135.94" r="1.09"/><circle cx="1072.59" cy="271.03" r="10.5"/><circle cx="1057.77" cy="256.2" r="10.33"/><circle cx="1042.7" cy="241.02" r="10.02"/><circle cx="1027.69" cy="225.99" r="9.48"/><circle cx="1012.81" cy="210.98" r="9"/><circle cx="997.78" cy="195.99" r="8.28"/><circle cx="982.64" cy="180.99" r="7.54"/><circle cx="967.71" cy="165.98" r="6.57"/><circle cx="952.65" cy="150.97" r="5.21"/><circle cx="937.65" cy="135.97" r="3.61"/><circle cx="922.68" cy="120.98" r="1.09"/><circle cx="1087.58" cy="256.07" r="10.5"/><circle cx="1072.76" cy="241.24" r="10.33"/><circle cx="1057.69" cy="226.06" r="10.02"/><circle cx="1042.69" cy="211.03" r="9.48"/><circle cx="1027.81" cy="196.02" r="9"/><circle cx="1012.77" cy="181.03" r="8.28"/><circle cx="997.64" cy="166.03" r="7.54"/><circle cx="982.7" cy="151.01" r="6.57"/><circle cx="967.65" cy="136.01" r="5.21"/><circle cx="952.64" cy="121.01" r="3.61"/><circle cx="937.68" cy="106.02" r="1.09"/><circle cx="1087.76" cy="226.28" r="10.33"/><circle cx="1072.69" cy="211.1" r="10.02"/><circle cx="1057.68" cy="196.07" r="9.48"/><circle cx="1042.8" cy="181.06" r="9"/><circle cx="1027.77" cy="166.07" r="8.28"/><circle cx="1012.64" cy="151.07" r="7.54"/><circle cx="997.7" cy="136.05" r="6.57"/><circle cx="982.65" cy="121.05" r="5.21"/><circle cx="967.64" cy="106.05" r="3.61"/><circle cx="952.67" cy="91.06" r="1.09"/><circle cx="952.62" cy="390.72" r="10.5"/><circle cx="937.8" cy="375.89" r="10.33"/><circle cx="922.73" cy="360.7" r="10.02"/><circle cx="907.72" cy="345.67" r="9.48"/><circle cx="892.84" cy="330.67" r="9"/><circle cx="877.81" cy="315.67" r="8.28"/><circle cx="862.67" cy="300.68" r="7.54"/><circle cx="847.74" cy="285.66" r="6.57"/><circle cx="832.68" cy="270.66" r="5.21"/><circle cx="817.68" cy="255.66" r="3.61"/><circle cx="802.71" cy="240.67" r="1.09"/><circle cx="937.62" cy="405.68" r="10.5"/><circle cx="922.8" cy="390.85" r="10.33"/><circle cx="907.73" cy="375.66" r="10.02"/><circle cx="892.73" cy="360.63" r="9.48"/><circle cx="877.85" cy="345.63" r="9"/><circle cx="862.81" cy="330.63" r="8.28"/><circle cx="847.68" cy="315.64" r="7.54"/><circle cx="832.74" cy="300.62" r="6.57"/><circle cx="817.69" cy="285.62" r="5.21"/><circle cx="802.68" cy="270.62" r="3.61"/><circle cx="787.71" cy="255.63" r="1.09"/><circle cx="922.63" cy="420.64" r="10.5"/><circle cx="907.8" cy="405.81" r="10.33"/><circle cx="892.74" cy="390.63" r="10.02"/><circle cx="877.73" cy="375.59" r="9.48"/><circle cx="862.85" cy="360.59" r="9"/><circle cx="847.81" cy="345.59" r="8.28"/><circle cx="832.68" cy="330.6" r="7.54"/><circle cx="817.74" cy="315.58" r="6.57"/><circle cx="802.69" cy="300.58" r="5.21"/><circle cx="787.68" cy="285.58" r="3.61"/><circle cx="772.72" cy="270.59" r="1.09"/><circle cx="907.63" cy="435.6" r="10.5"/><circle cx="892.81" cy="420.77" r="10.33"/><circle cx="877.74" cy="405.59" r="10.02"/><circle cx="862.73" cy="390.55" r="9.48"/><circle cx="847.85" cy="375.55" r="9"/><circle cx="832.82" cy="360.55" r="8.28"/><circle cx="817.69" cy="345.56" r="7.54"/><circle cx="802.75" cy="330.54" r="6.57"/><circle cx="787.7" cy="315.54" r="5.21"/><circle cx="772.69" cy="300.54" r="3.61"/><circle cx="757.72" cy="285.55" r="1.09"/><circle cx="892.63" cy="450.56" r="10.5"/><circle cx="877.81" cy="435.73" r="10.33"/><circle cx="862.74" cy="420.55" r="10.02"/><circle cx="847.74" cy="405.52" r="9.48"/><circle cx="832.86" cy="390.51" r="9"/><circle cx="817.82" cy="375.51" r="8.28"/><circle cx="802.69" cy="360.52" r="7.54"/><circle cx="787.75" cy="345.5" r="6.57"/><circle cx="772.7" cy="330.5" r="5.21"/><circle cx="757.69" cy="315.5" r="3.61"/><circle cx="742.73" cy="300.51" r="1.09"/><circle cx="877.64" cy="465.52" r="10.5"/><circle cx="862.82" cy="450.69" r="10.33"/><circle cx="847.75" cy="435.51" r="10.02"/><circle cx="832.74" cy="420.48" r="9.48"/><circle cx="817.86" cy="405.47" r="9"/><circle cx="802.83" cy="390.47" r="8.28"/><circle cx="787.69" cy="375.48" r="7.54"/><circle cx="772.76" cy="360.46" r="6.57"/><circle cx="757.7" cy="345.46" r="5.21"/><circle cx="742.7" cy="330.46" r="3.61"/><circle cx="727.73" cy="315.47" r="1.09"/><circle cx="862.64" cy="480.48" r="10.5"/><circle cx="847.82" cy="465.65" r="10.33"/><circle cx="832.75" cy="450.47" r="10.02"/><circle cx="817.74" cy="435.44" r="9.48"/><circle cx="802.87" cy="420.43" r="9"/><circle cx="787.83" cy="405.44" r="8.28"/><circle cx="772.7" cy="390.44" r="7.54"/><circle cx="757.76" cy="375.42" r="6.57"/><circle cx="742.71" cy="360.42" r="5.21"/><circle cx="727.7" cy="345.42" r="3.61"/><circle cx="712.73" cy="330.43" r="1.09"/><circle cx="847.64" cy="495.44" r="10.5"/><circle cx="832.82" cy="480.61" r="10.33"/><circle cx="817.76" cy="465.43" r="10.02"/><circle cx="802.75" cy="450.4" r="9.48"/><circle cx="787.87" cy="435.39" r="9"/><circle cx="772.83" cy="420.4" r="8.28"/><circle cx="757.7" cy="405.4" r="7.54"/><circle cx="742.76" cy="390.38" r="6.57"/><circle cx="727.71" cy="375.38" r="5.21"/><circle cx="712.7" cy="360.38" r="3.61"/><circle cx="697.74" cy="345.39" r="1.09"/><circle cx="832.65" cy="510.4" r="10.5"/><circle cx="817.83" cy="495.57" r="10.33"/><circle cx="802.76" cy="480.39" r="10.02"/><circle cx="787.75" cy="465.36" r="9.48"/><circle cx="772.87" cy="450.35" r="9"/><circle cx="757.84" cy="435.36" r="8.28"/><circle cx="742.7" cy="420.36" r="7.54"/><circle cx="727.77" cy="405.35" r="6.57"/><circle cx="712.72" cy="390.34" r="5.21"/><circle cx="697.71" cy="375.34" r="3.61"/><circle cx="682.74" cy="360.35" r="1.09"/></g><path d="M345.4,924.85a7.93,7.93,0,0,1-2.79,6.27,10.32,10.32,0,0,1-6.73,2.33H246.4c-21.14.23-40-4.19-56-13.48l-1.16,3.72c-1.63,3.95-3,6.5-4.65,7.9s-4,1.86-7.9,1.86h-25.8a9.28,9.28,0,0,1-7-2.56,8.92,8.92,0,0,1-2.09-7.2L160,854.9c1.4-3.49,2.56-6,4-7.67,1.39-1.16,3.71-1.86,7.2-1.86h36.72a22.63,22.63,0,0,0,1.86,1.63c1.39,1.39,2.09,4,2.09,7.9a47.57,47.57,0,0,0,.93,10.92L275,806.1H151.12c-3.71,0-6.27-.93-7.66-2.56s-1.86-3.95-1.86-7.2V774.49c0-4.41.46-7.2,1.86-8.6s3.95-2.09,7.66-2.09h68.33V736.38a10,10,0,0,1,3-6.27,9.84,9.84,0,0,1,7-2.56h29.28a9.29,9.29,0,0,1,6.74,2.56,9.12,9.12,0,0,1,2.32,6.27V763.8h67.86c3.95,0,6.74.7,7.9,2.09s1.86,4.19,2.1,8.6v21.85a23.15,23.15,0,0,1-.24,4.41,8.84,8.84,0,0,1-1.39,4.19l-89.94,86a66.09,66.09,0,0,0,6.74.23h75.07a9.69,9.69,0,0,1,6.73,2.79,7.83,7.83,0,0,1,2.79,6Z"/><path d="M732.35,912.51c-1.39-1.63-2.09-4-2.09-7.21v-7.43c0-4.18.7-7.21,2.09-8.6s3.95-1.86,7.44-1.86h29.05V879H744.2a19.89,19.89,0,0,1-10-2.32c-2.56-1.63-3.72-5.34-3.72-10.69V804.21c0-4.64,1.16-8.36,3.72-10.45,2.32-2.09,5.35-3,9.76-3h81.8v-7H797.65c-3.71,0-6.27-.69-7.9-1.86-1.63-.92-2.09-3.25-2.09-7.2V741.47c0-3.72.7-6.28,2.32-7.9,1.63-1.16,4.19-1.86,7.67-1.86H827.4a12.3,12.3,0,0,1,7.44,2.09c1.62,1.63,2.32,4.18,2.32,7.9v30.21h13.48l-1.16-30.21A10.61,10.61,0,0,1,852,735a7.61,7.61,0,0,1,6.05-2.55h16a7.45,7.45,0,0,1,5.81,2.55,10.56,10.56,0,0,1,2.56,6.74l1.39,30.21h39c3.72,0,6.51.7,7.9,2.09s2.09,4.42,2.09,8.6v11.85c0,3.49-.69,5.81-2.09,7.21-1.39,1.62-4.18,2.55-7.9,2.55H885l.93,18.36a162.1,162.1,0,0,0,2.56,20.92,160.86,160.86,0,0,0,7.43-24.4,19.63,19.63,0,0,1,3.49-7,7.46,7.46,0,0,1,5.81-2.56h16.5a15.47,15.47,0,0,1,6,1.16,6,6,0,0,1,2.56,5.35c1.16,5.11-2.33,19-10.69,41.83a122,122,0,0,1-10,20.68A43.38,43.38,0,0,0,915,882.3q13.25,8.37,15.34,10.46a8.47,8.47,0,0,1,1.86,5.57v30a8,8,0,0,1-2.56,6c-1.63,1.63-3.72,2.1-6,2.33-8.13,0-20.92-9.76-38.81-29.28a83.86,83.86,0,0,1-8.83,7c-20.68,14.87-35.32,22.31-43.23,22.31-2.55-.23-4.64-.7-6-2.33a8.05,8.05,0,0,1-2.55-6V915.07h-25.1v13.24a9.53,9.53,0,0,1-2.56,6.51,11.32,11.32,0,0,1-7.2,2.55H778.83a9.84,9.84,0,0,1-7-2.55,10,10,0,0,1-3-6.51V915.07H739.79C736.3,915.07,733.75,914.14,732.35,912.51Zm8.13-128.75a13.81,13.81,0,0,1-7.2-1.62c-1.86-.93-2.79-3.49-2.79-7.9V741.7c0-3.72.93-6.27,2.79-7.9a10.86,10.86,0,0,1,7-2.09H770c3.72,0,6.51.7,8.13,1.86,1.4,1.62,2.09,4.18,2.09,7.9V774.7c0,3.95-.69,6.28-2.09,7.2-1.62,1.17-4.18,1.86-7.9,1.86Zm19.29-23.24v-5.8h-9.06v5.8Zm4.65,61.59h7.9V815.6h-7.9Zm7.9,31.84v-6.51h-7.9V854Zm23.24-38.35v6.51h7.9V815.6Zm7.9,31.84h-7.9V854h7.9ZM799.05,879v8.37H827.4c3.25,0,5.58.23,7.2,1.16,2.79-.93,6.28-2.09,10.69-3.72A94.75,94.75,0,0,0,863,876.49a102.74,102.74,0,0,1-9.77-37.42l-1.39-34.86H837.39V866.5c0,4.88-.93,8.36-3,10S828.56,879,823.91,879Zm18.12-124.32h-9.29v5.8h9.29ZM928,755.88a10.23,10.23,0,0,1-7,2.79H902.46s-.93-.93-2.55-2.79a9.52,9.52,0,0,1-3-6.28V741a10,10,0,0,1,3-6.27,19.56,19.56,0,0,1,2.55-2.56h18.59a10,10,0,0,1,7,2.56,8.67,8.67,0,0,1,2.79,6.27v8.6A8.3,8.3,0,0,1,928,755.88Z"/><path d="M519.32,262.06c1.39,1.4,2.09,3.72,2.09,6.51v23.24c0,3.72-.7,6.5-2.09,8.13a34.43,34.43,0,0,1-8.13,4.65l-66.7,24.86c-4.42.93-7.44.7-8.6-1.16-1.39-1.62-1.86-4.41-1.63-7.9V299.24c0-3.95.47-6.74,1.63-7.9.7-1.39,2.79-2.79,6-4.41l20.69-7.67V209.77H443.09c-3.71,0-6.27-.93-7.43-2.55-1.4-1.63-2.09-3.72-2.09-7.21V179.1c0-4.19.69-7.21,2.09-8.6,1.16-1.4,3.72-2.09,7.43-2.09h69.49c3.72,0,6.51.69,7.9,2.09s2.09,4.41,2.09,8.6V200c0,3.49-.69,5.58-2.09,7.21s-4.18,2.55-7.9,2.55H500v55.31l11.16-3.95C515.14,260,517.92,260.43,519.32,262.06Zm50.43-116.89c3.25,0,5.81.93,7,2.55a13.22,13.22,0,0,1,1.63,6.74v3.72a84,84,0,0,1-2.79,21.15h54.38c3.95,0,6.74.7,8.13,2.09,1.16,1.4,1.86,4.18,1.86,8.6v16.27c0,3.48-.7,5.81-1.86,7.43-1.39,1.4-4.18,2.33-8.13,2.33h-2.79c-.23,20.91-7.44,43.22-21.85,66.46a86.29,86.29,0,0,0,16.27,15.8c10.69,8.37,17,13,18.13,14.41a8.73,8.73,0,0,1,1.86,5.81v24.4a8.83,8.83,0,0,1-2.33,6.05c-1.62,1.39-3.72,1.62-6.27.69a164.26,164.26,0,0,1-48.57-38.57,161.51,161.51,0,0,1-48.57,38.57c-2.56.93-4.42.7-6-.69a8.06,8.06,0,0,1-2.56-6.05v-24.4a7.77,7.77,0,0,1,2.09-5.81c1.16-1.39,7.21-6,18.13-14.41a92.86,92.86,0,0,0,16-15.8c-10.92-18.12-17.66-35.55-20.45-52a23.05,23.05,0,0,1-9.76,2.09,9.5,9.5,0,0,1-6-2.56,8,8,0,0,1-2.56-6V207.68a7.2,7.2,0,0,1,2.1-5.58c1.16-1.39,3.25-3.95,5.8-7.43,2.33-3.72,4.89-9.53,7.91-17,2.78-7.43,4.18-13.48,3.95-18.59v-4.65a10.65,10.65,0,0,1,2.55-6.74,8.35,8.35,0,0,1,5.81-2.55Zm4.88,70.88c.23,11.15,3.48,23.24,9.76,35.79,6.27-12.55,9.53-24.64,9.76-35.79Z"/><rect class="cls-6" x="169.68" y="168.93" width="13.28" height="224.5"/><circle class="cls-6" cx="176.32" cy="155.06" r="13.88"/><line class="cls-2" x1="127.42" y1="393.44" x2="307.63" y2="393.44"/><polygon class="cls-6" points="350 240.85 183 168.7 183 313 350 240.85"/><circle cx="186.22" cy="292" r="4"/><circle cx="196.11" cy="302" r="4"/><circle cx="186.44" cy="272" r="4"/><circle cx="196.33" cy="282" r="4"/><circle cx="206.22" cy="292" r="4"/><circle cx="186.67" cy="252" r="4"/><circle cx="196.56" cy="262" r="4"/><circle cx="206.44" cy="272" r="4"/><circle cx="216.33" cy="282" r="4"/><circle cx="226.22" cy="292" r="4"/><circle cx="186.89" cy="232" r="4"/><circle cx="196.78" cy="242" r="4"/><circle cx="206.67" cy="252" r="4"/><circle cx="216.56" cy="262" r="4"/><circle cx="226.44" cy="272" r="4"/><circle cx="236.33" cy="282" r="4"/><circle cx="197" cy="222" r="4"/><circle cx="206.89" cy="232" r="4"/><circle cx="216.78" cy="242" r="4"/><circle cx="226.67" cy="252" r="4"/><circle cx="236.56" cy="262" r="4"/><circle cx="246.44" cy="272" r="4"/><circle cx="217" cy="222" r="4"/><circle cx="226.89" cy="232" r="4"/><circle cx="236.78" cy="242" r="4"/><circle cx="246.67" cy="252" r="4"/><circle cx="256.56" cy="262" r="4"/><circle cx="266.44" cy="272" r="4"/><circle cx="237" cy="222" r="4"/><circle cx="246.89" cy="232" r="4"/><circle cx="256.78" cy="242" r="4"/><circle cx="266.67" cy="252" r="4"/><circle cx="276.56" cy="262" r="4"/><circle cx="257" cy="222" r="4"/><circle cx="266.89" cy="232" r="4"/><circle cx="276.78" cy="242" r="4"/><circle cx="286.67" cy="252" r="4"/><circle cx="296.56" cy="262" r="4"/><circle cx="277" cy="222" r="4"/><circle cx="286.89" cy="232" r="4"/><circle cx="296.78" cy="242" r="4"/><circle cx="306.67" cy="252" r="4"/><circle cx="297" cy="222" r="4"/><circle cx="306.89" cy="232" r="4"/><circle cx="316.78" cy="242" r="4"/><circle cx="325.89" cy="232" r="4"/><circle cx="335.78" cy="242" r="4"/><circle cx="187" cy="212" r="4"/><circle cx="187.22" cy="192" r="4"/><circle cx="197.11" cy="202" r="4"/><circle cx="207" cy="212" r="4"/><circle cx="187.44" cy="172" r="4"/><circle cx="197.33" cy="182" r="4"/><circle cx="207.22" cy="192" r="4"/><circle cx="217.11" cy="202" r="4"/><circle cx="227" cy="212" r="4"/><circle cx="227.22" cy="192" r="4"/><circle cx="237.11" cy="202" r="4"/><circle cx="247" cy="212" r="4"/><circle cx="257.11" cy="202" r="4"/><circle cx="267" cy="212" r="4"/><circle class="cls-7" cx="540" cy="540" r="95.28"/><line class="cls-7" x1="540" y1="444.72" x2="540" y2="635.28"/><line class="cls-7" x1="540" y1="537.25" x2="472.28" y2="604.27"/><path class="cls-6" d="M231.38,425.46h0a34.2,34.2,0,0,1,34.2,34.2V627.55a0,0,0,0,1,0,0h-68.4a0,0,0,0,1,0,0V459.66A34.2,34.2,0,0,1,231.38,425.46Z" transform="translate(-304.53 317.82) rotate(-45)"/><circle class="cls-6" cx="305.63" cy="600.76" r="34.2"/><line class="cls-8" x1="305.63" y1="566.56" x2="305.63" y2="634.96"/><line class="cls-8" x1="305.63" y1="599.77" x2="329.94" y2="623.83"/><g class="cls-9"><line class="cls-4" x1="540" y1="503.22" x2="540" y2="833.13"/><line class="cls-4" x1="427.17" y1="523.12" x2="540" y2="833.13"/><line class="cls-4" x1="327.94" y1="580.4" x2="540" y2="833.13"/><line class="cls-4" x1="254.29" y1="668.17" x2="540" y2="833.13"/><line class="cls-4" x1="215.11" y1="775.84" x2="540" y2="833.13"/><line class="cls-4" x1="215.11" y1="890.41" x2="540" y2="833.13"/><line class="cls-4" x1="254.29" y1="998.08" x2="540" y2="833.13"/><line class="cls-4" x1="327.94" y1="1085.85" x2="540" y2="833.13"/><line class="cls-4" x1="427.17" y1="1143.14" x2="540" y2="833.13"/><line class="cls-4" x1="540" y1="1163.03" x2="540" y2="833.13"/><line class="cls-4" x1="652.83" y1="1143.14" x2="540" y2="833.13"/><line class="cls-4" x1="752.06" y1="1085.85" x2="540" y2="833.13"/><line class="cls-4" x1="825.71" y1="998.08" x2="540" y2="833.13"/><line class="cls-4" x1="864.89" y1="890.41" x2="540" y2="833.13"/><line class="cls-4" x1="864.89" y1="775.84" x2="540" y2="833.13"/><line class="cls-4" x1="825.71" y1="668.17" x2="540" y2="833.13"/><line class="cls-4" x1="752.06" y1="580.4" x2="540" y2="833.13"/><line class="cls-4" x1="652.83" y1="523.12" x2="540" y2="833.13"/></g><path class="cls-6" d="M601.54,798.61H497.14a23,23,0,0,0-23,23V838.7a53.19,53.19,0,0,0,17.05,39.09l0,101.54H590.4l0-108a53.12,53.12,0,0,0,11.16-32.64Z"/><rect class="cls-6" x="493.87" y="770.39" width="26.92" height="43.75" rx="13.02"/><rect class="cls-6" x="520.79" y="767.36" width="26.92" height="46.77" rx="13.46"/><rect class="cls-6" x="547.71" y="767.36" width="26.92" height="46.77" rx="13.46"/><rect class="cls-6" x="574.62" y="770.39" width="26.92" height="43.75" rx="13.02"/><path class="cls-6" d="M474.15,819.44V816.1A23.06,23.06,0,0,1,497.21,793h26.44a13.2,13.2,0,0,1,13.2,13.2h0a13.2,13.2,0,0,1-13.2,13.2H505.5"/><path class="cls-6" d="M507.33,819.4a31.16,31.16,0,0,1,31.16,31.16"/><rect class="cls-10" x="393.44" y="686.56" width="293.13" height="293.13"/><polygon class="cls-11" points="1019.52 672.13 983.13 692.46 1000.62 730.31 959.21 725.35 951.14 766.27 920.56 737.9 889.97 766.27 881.91 725.35 840.49 730.31 857.99 692.46 821.59 672.13 857.99 651.79 840.49 613.94 881.91 618.91 889.97 577.98 920.56 606.36 951.14 577.98 959.21 618.91 1000.62 613.95 983.13 651.79 1019.52 672.13"/><polygon class="cls-12" points="1019.52 672.13 983.13 692.46 1000.62 730.31 959.21 725.35 951.14 766.27 920.56 737.9 889.97 766.27 881.91 725.35 840.49 730.31 857.99 692.46 821.59 672.13 857.99 651.79 840.49 613.94 881.91 618.91 889.97 577.98 920.56 606.36 951.14 577.98 959.21 618.91 1000.62 613.95 983.13 651.79 1019.52 672.13"/><path class="cls-8" d="M453.17,149.66,444.94,129c6.24-7.5,9.85-16.31,9.85-25.74,0-27.23-30-49.3-67-49.3s-67,22.07-67,49.3,30,49.3,67,49.3a84.4,84.4,0,0,0,37.81-8.6l0,0Z"/><path d="M799.05,468.91a9.69,9.69,0,0,1,2.79-6.74,10.33,10.33,0,0,1,6.27-2.79h59.26V441a9.71,9.71,0,0,1,2.79-6.74,9.17,9.17,0,0,1,6.51-2.79H885a9.53,9.53,0,0,1,9.53,9.53v18.36h27.65c4.19,0,7.21.7,8.84,2.09q2.09,1.74,2.09,8.37v20.68c0,3.25-.7,5.58-2.09,7.21-1.63,1.62-4.65,2.55-8.84,2.55H894.56v35.09q-.34,19.88,3.49,30.68c2.55-7.21,4-17.43,3.71-30.68v-19a9.53,9.53,0,0,1,2.56-6.51,8.24,8.24,0,0,1,6.51-3h8.6a8.24,8.24,0,0,1,6.5,3,8.79,8.79,0,0,1,2.79,6.51V547a84.9,84.9,0,0,1-9.06,38.58c9.06,4.18,14.17,7,15.8,8.37a6.71,6.71,0,0,1,2.33,5.34v27.66a7.5,7.5,0,0,1-2.79,6,11.5,11.5,0,0,1-6.74,2.55c-4,0-14.18-7.9-30.21-23.47-16.27,15.57-26.26,23.47-30,23.47-2.79-.23-5.11-.93-6.74-2.55a7.5,7.5,0,0,1-2.79-6V599.28a6.73,6.73,0,0,1,2.32-5.34c1.17-1.4,6.28-4.19,15.57-8.37A84.9,84.9,0,0,1,867.37,547V500.28H828.79v23h21.85c4.88,0,7.67.46,9.06,1.63s2.09,3.71,2.09,7.2v44.62c0,5.58-.93,9.29-3,11.15-2.09,2.09-5.81,3-11.85,3h-9.53c-7,0-10.69-3-10.69-9.06v-2.09c0-6.27,3.26-9.53,9.76-9.53V552.57h-7.67a135.27,135.27,0,0,1-14.4,57.63c-8.84,17.43-16.27,26.26-21.62,26.26a9.62,9.62,0,0,1-6.27-2.55,7.51,7.51,0,0,1-2.79-6V600.21a11.39,11.39,0,0,1,1.16-4.65c-.7.23-1.62.7-2.79,1.16l-46.48,17.9c-4.41,1.16-7,.7-8.13-1.16-1.39-1.63-2.09-4.42-1.86-7.9V584.64c0-3.95.47-6.51,1.63-7.67.93-1.39,2.79-2.79,5.81-4.41l8.6-3.49V517.25h-4.88c-3.72,0-6.28-.93-7.21-2.56-1.39-1.63-2.09-4-2.09-7.2V487c0-4.42.7-7.21,2.09-8.6.93-1.4,3.49-2.09,7.21-2.09h4.88V442.18a8.67,8.67,0,0,1,2.79-6.27,9.08,9.08,0,0,1,7-2.79h16.5a8.28,8.28,0,0,1,6.27,2.79,13.64,13.64,0,0,1,3.26,6.27v34.17h4.88c3.95,0,6.5.69,8.13,2.09,1.39,1.39,2.09,4.18,2.09,8.6v20.45c0,3.25-.7,5.57-2.09,7.2-1.63,1.63-4.18,2.56-8.13,2.56h-4.88v38.11l4.64-1.86c3.95-1.16,6.51-.7,7.9.93a9.92,9.92,0,0,1,2.1,6.51v18.82a69.26,69.26,0,0,0,3.71-10.23c2.1-7,3.26-18.12,3.26-33.23Zm127.35-16.5a12.17,12.17,0,0,1-7.67,2.56h-8.37a11.29,11.29,0,0,1-7.67-2.56,8.41,8.41,0,0,1-3.25-6.28v-5.81a9.25,9.25,0,0,1,3.25-6.27,11.29,11.29,0,0,1,7.67-2.56h8.37a12.17,12.17,0,0,1,7.67,2.56,8.12,8.12,0,0,1,3,6.27v5.81A7.51,7.51,0,0,1,926.4,452.41Z"/></g></svg>